<svg xmlns="http://www.w3.org/2000/svg" xmlns:xlink="http://www.w3.org/1999/xlink" version="1.2" viewBox="0.0000 -0.0000 127.8092 180.7587">
<style type="text/css">
<![CDATA[
tspan { white-space: pre; }
]]>
</style>
<g transform="translate(6.0862, 4.5300)">
<text font-family="serif" font-size="2.2001" text-anchor="start" fill="currentColor">
<tspan>4</tspan>
</text>
</g>
<g transform="translate(44.5823, 9.8416)">
<rect x="0.0000" y="-2.0000" width="0.1987" height="4.0523" ry="0.0000" fill="currentColor"/>
</g>
<g transform="translate(6.0862, 11.8416)">
<line stroke-linejoin="round" stroke-linecap="round" stroke-width="0.1046" stroke="currentColor" x1="0.0523" y1="0" x2="115.5846" y2="0"/>
</g>
<g transform="translate(6.0862, 10.8416)">
<line stroke-linejoin="round" stroke-linecap="round" stroke-width="0.1046" stroke="currentColor" x1="0.0523" y1="0" x2="115.5846" y2="0"/>
</g>
<g transform="translate(6.0862, 9.8416)">
<line stroke-linejoin="round" stroke-linecap="round" stroke-width="0.1046" stroke="currentColor" x1="0.0523" y1="0" x2="115.5846" y2="0"/>
</g>
<g transform="translate(6.0862, 8.8416)">
<line stroke-linejoin="round" stroke-linecap="round" stroke-width="0.1046" stroke="currentColor" x1="0.0523" y1="0" x2="115.5846" y2="0"/>
</g>
<g transform="translate(6.0862, 7.8416)">
<line stroke-linejoin="round" stroke-linecap="round" stroke-width="0.1046" stroke="currentColor" x1="0.0523" y1="0" x2="115.5846" y2="0"/>
</g>
<g transform="translate(121.0956, 5.5300)">
<rect x="0.0000" y="6.3639" width="0.6274" height="7.7079" ry="0.0000" fill="currentColor"/>
</g>
<g transform="translate(120.5832, 5.5300)">
<rect x="0.0000" y="6.3639" width="0.1987" height="7.7079" ry="0.0000" fill="currentColor"/>
</g>
<g transform="translate(6.0862, 17.6018)">
<rect x="104.3477" y="-0.1023" width="2.0709" height="0.2046" ry="0.1023" fill="currentColor"/>
</g>
<g transform="translate(6.0862, 18.6018)">
<rect x="104.3477" y="-0.1023" width="2.0709" height="0.2046" ry="0.1023" fill="currentColor"/>
</g>
<g transform="translate(6.0862, 24.6018)">
<rect x="86.5192" y="-0.1023" width="1.9542" height="0.2046" ry="0.1023" fill="currentColor"/>
</g>
<g transform="translate(6.0862, 24.6018)">
<rect x="71.1627" y="-0.1023" width="1.9542" height="0.2046" ry="0.1023" fill="currentColor"/>
</g>
<g transform="translate(6.0862, 18.6018)">
<rect x="59.9429" y="-0.1023" width="1.9542" height="0.2046" ry="0.1023" fill="currentColor"/>
</g>
<g transform="translate(6.0862, 24.6018)">
<rect x="54.6244" y="-0.1023" width="1.9542" height="0.2046" ry="0.1023" fill="currentColor"/>
</g>
<g transform="translate(6.0862, 18.6018)">
<rect x="45.7375" y="-0.1023" width="1.9542" height="0.2046" ry="0.1023" fill="currentColor"/>
</g>
<g transform="translate(6.0862, 24.6018)">
<rect x="40.4191" y="-0.1023" width="1.9542" height="0.2046" ry="0.1023" fill="currentColor"/>
</g>
<g transform="translate(6.0862, 24.6018)">
<rect x="23.3809" y="-0.1023" width="1.9542" height="0.2046" ry="0.1023" fill="currentColor"/>
</g>
<g transform="translate(6.0862, 24.6018)">
<rect x="8.0243" y="-0.1023" width="1.9542" height="0.2046" ry="0.1023" fill="currentColor"/>
</g>
<g transform="translate(6.0862, 23.6018)">
<line stroke-linejoin="round" stroke-linecap="round" stroke-width="0.1046" stroke="currentColor" x1="0.0523" y1="0" x2="115.5846" y2="0"/>
</g>
<g transform="translate(6.0862, 22.6018)">
<line stroke-linejoin="round" stroke-linecap="round" stroke-width="0.1046" stroke="currentColor" x1="0.0523" y1="0" x2="115.5846" y2="0"/>
</g>
<g transform="translate(6.0862, 21.6018)">
<line stroke-linejoin="round" stroke-linecap="round" stroke-width="0.1046" stroke="currentColor" x1="0.0523" y1="0" x2="115.5846" y2="0"/>
</g>
<g transform="translate(6.0862, 20.6018)">
<line stroke-linejoin="round" stroke-linecap="round" stroke-width="0.1046" stroke="currentColor" x1="0.0523" y1="0" x2="115.5846" y2="0"/>
</g>
<g transform="translate(6.0862, 19.6018)">
<line stroke-linejoin="round" stroke-linecap="round" stroke-width="0.1046" stroke="currentColor" x1="0.0523" y1="0" x2="115.5846" y2="0"/>
</g>
<g transform="translate(121.0956, 21.6018)">
<rect x="0.0000" y="-2.0523" width="0.6274" height="4.0523" ry="0.0000" fill="currentColor"/>
</g>
<g transform="translate(120.5832, 21.6018)">
<rect x="0.0000" y="-2.0523" width="0.1987" height="4.0523" ry="0.0000" fill="currentColor"/>
</g>
<g transform="translate(121.0956, 9.8416)">
<rect x="0.0000" y="-2.0000" width="0.6274" height="4.0523" ry="0.0000" fill="currentColor"/>
</g>
<g transform="translate(120.5832, 9.8416)">
<rect x="0.0000" y="-2.0000" width="0.1987" height="4.0523" ry="0.0000" fill="currentColor"/>
</g>
<g transform="translate(108.5303, 5.5300)">
<rect x="0.0000" y="6.3639" width="0.1987" height="7.7079" ry="0.0000" fill="currentColor"/>
</g>
<g transform="translate(108.5303, 21.6018)">
<rect x="0.0000" y="-2.0523" width="0.1987" height="4.0523" ry="0.0000" fill="currentColor"/>
</g>
<g transform="translate(108.5303, 9.8416)">
<rect x="0.0000" y="-2.0000" width="0.1987" height="4.0523" ry="0.0000" fill="currentColor"/>
</g>
<g transform="translate(75.3258, 5.5300)">
<rect x="0.0000" y="6.3639" width="0.1987" height="7.7079" ry="0.0000" fill="currentColor"/>
</g>
<g transform="translate(75.3258, 21.6018)">
<rect x="0.0000" y="-2.0523" width="0.1987" height="4.0523" ry="0.0000" fill="currentColor"/>
</g>
<g transform="translate(75.3258, 9.8416)">
<rect x="0.0000" y="-2.0000" width="0.1987" height="4.0523" ry="0.0000" fill="currentColor"/>
</g>
<g transform="translate(6.0862, 12.8416)">
<rect x="104.3477" y="-0.1023" width="2.0709" height="0.2046" ry="0.1023" fill="currentColor"/>
</g>
<g transform="translate(44.5823, 5.5300)">
<rect x="0.0000" y="6.3639" width="0.1987" height="7.7079" ry="0.0000" fill="currentColor"/>
</g>
<g transform="translate(44.5823, 21.6018)">
<rect x="0.0000" y="-2.0523" width="0.1987" height="4.0523" ry="0.0000" fill="currentColor"/>
</g>
<g transform="translate(70.6732, 20.6018)">
<path transform="scale(0.0040, -0.0040)" d="M215 137c67 0 111 -37 111 -92c0 -90 -111 -182 -215 -182c-67 0 -111 37 -111 92c0 90 111 182 215 182z" fill="currentColor"/>
</g>
<g transform="translate(6.8862, 20.6018)">
<path transform="scale(0.0040, -0.0040)" d="M558 -125c0 28 22 51 50 51s51 -23 51 -51s-23 -51 -51 -51s-50 23 -50 51zM558 125c0 28 22 51 50 51s51 -23 51 -51s-23 -51 -51 -51s-50 23 -50 51zM231 264c172 0 294 -88 294 -251c0 -263 -262 -416 -515 -523c-3 -3 -7 -4 -10 -4c-7 0 -14 7 -14 14c0 3 1 7 4 10
c201 118 410 265 410 492c0 119 -61 234 -169 234c-72 0 -124 -53 -148 -123c10 4 19 6 29 6c55 0 100 -45 100 -100c0 -58 -44 -106 -100 -106c-60 0 -112 47 -112 106c0 133 101 245 231 245z" fill="currentColor"/>
</g>
<g transform="translate(10.3862, 20.6018)">
<path transform="scale(0.0040, -0.0040)" d="M0 117c0 9 6 18 15 21l43 16v157c0 11 8 19 19 19s20 -8 20 -19v-142l81 30v156c0 11 9 20 20 20s19 -9 19 -20v-142l28 11c3 1 5 1 8 1c12 0 22 -10 22 -23v-57c0 -9 -6 -18 -15 -21l-43 -16v-157l28 10c3 1 5 1 8 1c12 0 22 -9 22 -22v-57c0 -9 -6 -18 -15 -21l-43 -16
v-157c0 -11 -8 -19 -19 -19s-20 8 -20 19v142l-81 -30v-156c0 -11 -9 -20 -20 -20s-19 9 -19 20v142l-28 -11c-3 -1 -5 -1 -8 -1c-12 0 -22 10 -22 23v57c0 9 6 18 15 21l43 16v157l-28 -10c-3 -1 -5 -1 -8 -1c-12 0 -22 9 -22 22v57zM178 94l-81 -30v-158l81 30v158z" fill="currentColor"/>
</g>
<g transform="translate(4.3333, 6.7711)">
<text font-family="serif" font-size="1.7461" text-anchor="start" fill="currentColor">
<tspan>54</tspan>
</text>
</g>
<g transform="translate(100.6587, 23.7895)">
<polygon stroke-linejoin="round" stroke-linecap="round" stroke-width="0.0856" fill="currentColor" stroke="currentColor" points="4.9116 0.4273 4.9116 0.8218 0.0428 0.1972 0.0428 -0.1972"/>
</g>
<g transform="translate(14.4362, 10.8416)">
<path transform="scale(0.0040, -0.0040)" d="M312 64c0 23 -18 41 -41 41c-39 0 -201 -110 -228 -142c-7 -8 -10 -17 -10 -27c0 -23 18 -41 41 -41c39 0 201 110 228 142c7 8 10 17 10 27zM259 137c46 0 86 -17 86 -74c0 -26 -15 -112 -73 -151c-29 -20 -89 -49 -186 -49c-46 0 -86 17 -86 74c0 26 16 112 74 151
c29 20 88 49 185 49z" fill="currentColor"/>
</g>
<g transform="translate(14.4362, 9.8416)">
<path transform="scale(0.0040, -0.0040)" d="M312 64c0 23 -18 41 -41 41c-39 0 -201 -110 -228 -142c-7 -8 -10 -17 -10 -27c0 -23 18 -41 41 -41c39 0 201 110 228 142c7 8 10 17 10 27zM259 137c46 0 86 -17 86 -74c0 -26 -15 -112 -73 -151c-29 -20 -89 -49 -186 -49c-46 0 -86 17 -86 74c0 26 16 112 74 151
c29 20 88 49 185 49z" fill="currentColor"/>
</g>
<g transform="translate(14.4362, 8.3416)">
<path transform="scale(0.0040, -0.0040)" d="M312 64c0 23 -18 41 -41 41c-39 0 -201 -110 -228 -142c-7 -8 -10 -17 -10 -27c0 -23 18 -41 41 -41c39 0 201 110 228 142c7 8 10 17 10 27zM259 137c46 0 86 -17 86 -74c0 -26 -15 -112 -73 -151c-29 -20 -89 -49 -186 -49c-46 0 -86 17 -86 74c0 26 16 112 74 151
c29 20 88 49 185 49z" fill="currentColor"/>
</g>
<g transform="translate(14.4362, 15.1049)">
<text font-family="serif" font-style="italic" font-size="2.2001" text-anchor="start" fill="currentColor">
<tspan>dim.</tspan>
</text>
</g>
<g transform="translate(14.4362, 24.6018)">
<path transform="scale(0.0040, -0.0040)" d="M215 137c67 0 111 -37 111 -92c0 -90 -111 -182 -215 -182c-67 0 -111 37 -111 92c0 90 111 182 215 182z" fill="currentColor"/>
</g>
<g transform="translate(15.8865, 28.1024)">
<path transform="scale(0.0040, -0.0040)" d="M0 36c0 20 16 37 36 37s37 -17 37 -37s-17 -36 -37 -36s-36 16 -36 36z" fill="currentColor"/>
</g>
<g transform="translate(12.6945, 28.1024)">
<path transform="scale(0.0040, -0.0040)" d="M43 337c0 -34 27 -49 38 -49c22 0 43 31 43 62c0 8 19 8 19 0c0 -65 -40 -130 -83 -130c-23 0 -63 24 -63 80c0 84 91 200 253 200c108 0 168 -82 168 -145c0 -47 -32 -68 -53 -68c-36 0 -69 51 -89 93c-4 8 13 16 17 8c8 -18 28 -34 46 -34c14 0 31 11 31 35
c0 38 -44 92 -120 92h-8c-7 -15 -37 -91 -37 -106c0 -46 100 -115 100 -165c0 -18 -30 -56 -57 -90c29 -3 83 -25 102 -41c13 -11 43 23 55 29c-5 23 -6 35 -6 47c0 65 35 133 96 133c32 0 50 -23 50 -46c0 -37 -42 -80 -77 -110l-11 -9c19 -35 42 -79 64 -67
c8 5 46 33 61 46c-4 14 -6 27 -6 41c0 54 44 111 95 136c-50 70 -127 126 -206 140c-8 1 -5 20 3 19c174 -31 332 -168 332 -295c0 -70 -50 -143 -113 -143c-43 0 -81 37 -99 82c-53 -49 -87 -81 -115 -81c-15 0 -39 0 -62 84c-1 0 -2 -1 -3 -1c-25 -22 -88 -71 -102 -79
c-38 -21 -37 84 -73 95c-34 -42 -82 -100 -122 -100c-8 0 -14 5 -14 13c0 33 86 102 126 107c27 31 28 36 28 47c0 47 -87 112 -87 151c0 20 41 132 58 162c-112 -11 -179 -89 -179 -143zM475 253c-21 0 -42 -15 -42 -53c0 -20 7 -42 15 -60c21 18 61 51 61 82
c0 17 -14 31 -34 31zM682 263c-36 -21 -52 -76 -52 -120c0 -46 17 -105 57 -105c31 0 42 37 42 77c0 36 -9 88 -47 148z" fill="currentColor"/>
</g>
<g transform="translate(16.2627, 10.3416)">
<path transform="scale(0.0040, -0.0040)" d="M0 0c0 31 25 56 56 56s55 -25 55 -56s-24 -56 -55 -56s-56 25 -56 56z" fill="currentColor"/>
</g>
<g transform="translate(14.5041, 9.8416)">
<rect x="-0.0680" y="-1.2470" width="0.1359" height="5.2470" ry="0.0428" fill="currentColor"/>
</g>
<g transform="translate(16.2627, 9.3416)">
<path transform="scale(0.0040, -0.0040)" d="M0 0c0 31 25 56 56 56s55 -25 55 -56s-24 -56 -55 -56s-56 25 -56 56z" fill="currentColor"/>
</g>
<g transform="translate(16.2627, 8.3416)">
<path transform="scale(0.0040, -0.0040)" d="M0 0c0 31 25 56 56 56s55 -25 55 -56s-24 -56 -55 -56s-56 25 -56 56z" fill="currentColor"/>
</g>
<g transform="translate(12.9862, 10.8416)">
<path transform="scale(0.0040, -0.0040)" d="M0 117c0 9 6 18 15 21l43 16v157c0 11 8 19 19 19s20 -8 20 -19v-142l81 30v156c0 11 9 20 20 20s19 -9 19 -20v-142l28 11c3 1 5 1 8 1c12 0 22 -10 22 -23v-57c0 -9 -6 -18 -15 -21l-43 -16v-157l28 10c3 1 5 1 8 1c12 0 22 -9 22 -22v-57c0 -9 -6 -18 -15 -21l-43 -16
v-157c0 -11 -8 -19 -19 -19s-20 8 -20 19v142l-81 -30v-156c0 -11 -9 -20 -20 -20s-19 9 -19 20v142l-28 -11c-3 -1 -5 -1 -8 -1c-12 0 -22 10 -22 23v57c0 9 6 18 15 21l43 16v157l-28 -10c-3 -1 -5 -1 -8 -1c-12 0 -22 9 -22 22v57zM178 94l-81 -30v-158l81 30v158z" fill="currentColor"/>
</g>
<g transform="translate(15.6710, 21.6018)">
<rect x="-0.0680" y="-2.2204" width="0.1359" height="5.0411" ry="0.0428" fill="currentColor"/>
</g>
<g transform="translate(105.4772, 21.6018)">
<path stroke-width="0.0837" stroke-linejoin="round" stroke-linecap="round" stroke="currentColor" fill="currentColor" d="M0.4359 0.5749C1.5124 1.6733 3.9253 1.6733 5.0018 0.5749L5.0018 0.5749C3.9253 1.5478 1.5124 1.5478 0.4359 0.5749z"/>
</g>
<g transform="translate(17.0954, 22.6018)">
<path transform="scale(0.0040, -0.0040)" d="M215 137c67 0 111 -37 111 -92c0 -90 -111 -182 -215 -182c-67 0 -111 37 -111 92c0 90 111 182 215 182z" fill="currentColor"/>
</g>
<g transform="translate(18.3302, 21.6018)">
<rect x="-0.0680" y="-3.5000" width="0.1359" height="4.3206" ry="0.0428" fill="currentColor"/>
</g>
<g transform="translate(94.0979, 19.4141)">
<polygon stroke-linejoin="round" stroke-linecap="round" stroke-width="0.0856" fill="currentColor" stroke="currentColor" points="5.4116 -2.8218 5.4116 -2.4273 0.0428 0.1972 0.0428 -0.1972"/>
</g>
<g transform="translate(19.7546, 19.1018)">
<path transform="scale(0.0040, -0.0040)" d="M215 137c67 0 111 -37 111 -92c0 -90 -111 -182 -215 -182c-67 0 -111 37 -111 92c0 90 111 182 215 182z" fill="currentColor"/>
</g>
<g transform="translate(20.9894, 21.6018)">
<rect x="-0.0680" y="-4.7796" width="0.1359" height="2.1002" ry="0.0428" fill="currentColor"/>
</g>
<g transform="translate(23.0138, 20.1018)">
<path transform="scale(0.0040, -0.0040)" d="M215 137c67 0 111 -37 111 -92c0 -90 -111 -182 -215 -182c-67 0 -111 37 -111 92c0 90 111 182 215 182z" fill="currentColor"/>
</g>
<g transform="translate(23.0818, 21.6018)">
<rect x="-0.0680" y="-1.3206" width="0.1359" height="3.5169" ry="0.0428" fill="currentColor"/>
</g>
<g transform="translate(21.5638, 20.1018)">
<path transform="scale(0.0040, -0.0040)" d="M0 117c0 9 6 18 15 21l43 16v157c0 11 8 19 19 19s20 -8 20 -19v-142l81 30v156c0 11 9 20 20 20s19 -9 19 -20v-142l28 11c3 1 5 1 8 1c12 0 22 -10 22 -23v-57c0 -9 -6 -18 -15 -21l-43 -16v-157l28 10c3 1 5 1 8 1c12 0 22 -9 22 -22v-57c0 -9 -6 -18 -15 -21l-43 -16
v-157c0 -11 -8 -19 -19 -19s-20 8 -20 19v142l-81 -30v-156c0 -11 -9 -20 -20 -20s-19 9 -19 20v142l-28 -11c-3 -1 -5 -1 -8 -1c-12 0 -22 10 -22 23v57c0 9 6 18 15 21l43 16v157l-28 -10c-3 -1 -5 -1 -8 -1c-12 0 -22 9 -22 22v57zM178 94l-81 -30v-158l81 30v158z" fill="currentColor"/>
</g>
<g transform="translate(25.4230, 20.6018)">
<path transform="scale(0.0040, -0.0040)" d="M215 137c67 0 111 -37 111 -92c0 -90 -111 -182 -215 -182c-67 0 -111 37 -111 92c0 90 111 182 215 182z" fill="currentColor"/>
</g>
<g transform="translate(25.4910, 21.6018)">
<rect x="-0.0680" y="-0.8206" width="0.1359" height="3.3206" ry="0.0428" fill="currentColor"/>
</g>
<g transform="translate(86.1522, 23.7895)">
<polygon stroke-linejoin="round" stroke-linecap="round" stroke-width="0.0856" fill="currentColor" stroke="currentColor" points="4.9116 0.4273 4.9116 0.8218 0.0428 0.1972 0.0428 -0.1972"/>
</g>
<g transform="translate(27.8323, 21.1018)">
<path transform="scale(0.0040, -0.0040)" d="M215 137c67 0 111 -37 111 -92c0 -90 -111 -182 -215 -182c-67 0 -111 37 -111 92c0 90 111 182 215 182z" fill="currentColor"/>
</g>
<g transform="translate(27.9002, 21.6018)">
<rect x="-0.0680" y="-0.3206" width="0.1359" height="3.1244" ry="0.0428" fill="currentColor"/>
</g>
<g transform="translate(29.7927, 24.6018)">
<path transform="scale(0.0040, -0.0040)" d="M215 137c67 0 111 -37 111 -92c0 -90 -111 -182 -215 -182c-67 0 -111 37 -111 92c0 90 111 182 215 182z" fill="currentColor"/>
</g>
<g transform="translate(31.0276, 21.6018)">
<rect x="-0.0680" y="-2.2204" width="0.1359" height="5.0411" ry="0.0428" fill="currentColor"/>
</g>
<g transform="translate(32.4519, 22.6018)">
<path transform="scale(0.0040, -0.0040)" d="M215 137c67 0 111 -37 111 -92c0 -90 -111 -182 -215 -182c-67 0 -111 37 -111 92c0 90 111 182 215 182z" fill="currentColor"/>
</g>
<g transform="translate(33.6868, 21.6018)">
<rect x="-0.0680" y="-3.5000" width="0.1359" height="4.3206" ry="0.0428" fill="currentColor"/>
</g>
<g transform="translate(78.7414, 19.4141)">
<polygon stroke-linejoin="round" stroke-linecap="round" stroke-width="0.0856" fill="currentColor" stroke="currentColor" points="5.4116 -2.8218 5.4116 -2.4273 0.0428 0.1972 0.0428 -0.1972"/>
</g>
<g transform="translate(35.1112, 19.1018)">
<path transform="scale(0.0040, -0.0040)" d="M215 137c67 0 111 -37 111 -92c0 -90 -111 -182 -215 -182c-67 0 -111 37 -111 92c0 90 111 182 215 182z" fill="currentColor"/>
</g>
<g transform="translate(36.3460, 21.6018)">
<rect x="-0.0680" y="-4.7796" width="0.1359" height="2.1002" ry="0.0428" fill="currentColor"/>
</g>
<g transform="translate(37.5204, 9.8416)">
<path transform="scale(0.0040, -0.0040)" d="M-8 78c0 59 125 83 125 182c0 25 -9 49 -26 69l-33 40c-3 4 -4 7 -4 11c0 9 9 17 18 17c4 0 8 -2 12 -6l150 -179c7 -9 11 -18 11 -26c0 -59 -125 -83 -125 -182c0 -25 8 -49 25 -69l82 -97c3 -4 4 -7 4 -11c0 -9 -8 -17 -17 -17c-10 0 -42 42 -106 42
c-19 0 -54 -1 -54 -66c0 -34 10 -73 27 -93c7 -9 -5 -20 -12 -11c-45 53 -93 147 -93 201c0 42 27 42 43 42c31 0 74 -11 113 -27l-129 154c-7 9 -11 18 -11 26z" fill="currentColor"/>
</g>
<g transform="translate(37.5204, 20.1018)">
<path transform="scale(0.0040, -0.0040)" d="M215 137c67 0 111 -37 111 -92c0 -90 -111 -182 -215 -182c-67 0 -111 37 -111 92c0 90 111 182 215 182z" fill="currentColor"/>
</g>
<g transform="translate(37.5884, 21.6018)">
<rect x="-0.0680" y="-1.3206" width="0.1359" height="3.5169" ry="0.0428" fill="currentColor"/>
</g>
<g transform="translate(39.9296, 20.6018)">
<path transform="scale(0.0040, -0.0040)" d="M215 137c67 0 111 -37 111 -92c0 -90 -111 -182 -215 -182c-67 0 -111 37 -111 92c0 90 111 182 215 182z" fill="currentColor"/>
</g>
<g transform="translate(39.9976, 21.6018)">
<rect x="-0.0680" y="-0.8206" width="0.1359" height="3.3206" ry="0.0428" fill="currentColor"/>
</g>
<g transform="translate(68.5139, 23.6018)">
<polygon stroke-linejoin="round" stroke-linecap="round" stroke-width="0.0856" fill="currentColor" stroke="currentColor" points="4.6616 0.6151 4.6616 1.0095 0.0428 0.1972 0.0428 -0.1972"/>
</g>
<g transform="translate(42.3388, 21.1018)">
<path transform="scale(0.0040, -0.0040)" d="M215 137c67 0 111 -37 111 -92c0 -90 -111 -182 -215 -182c-67 0 -111 37 -111 92c0 90 111 182 215 182z" fill="currentColor"/>
</g>
<g transform="translate(41.5610, 30.2603)">
<path transform="scale(0.0040, -0.0040)" d="M166 194c0 -16 12 -28 28 -28s29 12 29 28s-13 29 -29 29s-28 -13 -28 -29zM205 277c0 -20 26 -31 40 -17c19 19 -5 87 53 87c26 0 49 -23 49 -49c0 -58 -68 -34 -87 -53c-14 -14 -3 -40 17 -40c26 0 38 37 64 37c32 0 48 -24 48 -48s-16 -47 -48 -47
c-26 0 -38 37 -64 37c-20 0 -31 -26 -17 -40c19 -19 87 5 87 -53c0 -26 -23 -49 -49 -49c-58 0 -34 68 -53 87c-14 14 -40 3 -40 -17c0 -26 37 -38 37 -64c0 -32 -24 -48 -48 -48s-47 16 -47 48c0 26 37 38 37 64c0 20 -26 31 -40 17c-19 -19 5 -87 -53 -87
c-26 0 -49 23 -49 49c0 58 68 34 87 53c14 14 3 40 -17 40c-26 0 -38 -37 -64 -37c-32 0 -48 23 -48 47s16 48 48 48c26 0 38 -37 64 -37c20 0 31 26 17 40c-19 19 -87 -5 -87 53c0 26 23 49 49 49c58 0 34 -68 53 -87c14 -14 40 -3 40 17c0 26 -37 38 -37 64
c0 32 23 48 47 48s48 -16 48 -48c0 -26 -37 -38 -37 -64z" fill="currentColor"/>
</g>
<g transform="translate(42.4068, 21.6018)">
<rect x="-0.0680" y="-0.3206" width="0.1359" height="3.1244" ry="0.0428" fill="currentColor"/>
</g>
<g transform="translate(46.8310, 12.3416)">
<path transform="scale(0.0040, -0.0040)" d="M312 64c0 23 -18 41 -41 41c-39 0 -201 -110 -228 -142c-7 -8 -10 -17 -10 -27c0 -23 18 -41 41 -41c39 0 201 110 228 142c7 8 10 17 10 27zM259 137c46 0 86 -17 86 -74c0 -26 -15 -112 -73 -151c-29 -20 -89 -49 -186 -49c-46 0 -86 17 -86 74c0 26 16 112 74 151
c29 20 88 49 185 49z" fill="currentColor"/>
</g>
<g transform="translate(46.8310, 11.3416)">
<path transform="scale(0.0040, -0.0040)" d="M312 64c0 23 -18 41 -41 41c-39 0 -201 -110 -228 -142c-7 -8 -10 -17 -10 -27c0 -23 18 -41 41 -41c39 0 201 110 228 142c7 8 10 17 10 27zM259 137c46 0 86 -17 86 -74c0 -26 -15 -112 -73 -151c-29 -20 -89 -49 -186 -49c-46 0 -86 17 -86 74c0 26 16 112 74 151
c29 20 88 49 185 49z" fill="currentColor"/>
</g>
<g transform="translate(46.8310, 10.3416)">
<path transform="scale(0.0040, -0.0040)" d="M312 64c0 23 -18 41 -41 41c-39 0 -201 -110 -228 -142c-7 -8 -10 -17 -10 -27c0 -23 18 -41 41 -41c39 0 201 110 228 142c7 8 10 17 10 27zM259 137c46 0 86 -17 86 -74c0 -26 -15 -112 -73 -151c-29 -20 -89 -49 -186 -49c-46 0 -86 17 -86 74c0 26 16 112 74 151
c29 20 88 49 185 49z" fill="currentColor"/>
</g>
<g transform="translate(46.0606, 15.2011)">
<g>
<path transform="scale(0.0040, -0.0040)" d="M161 31c78 0 97 177 97 179c0 18 -7 33 -25 33c-61 0 -102 -125 -102 -174c0 -22 8 -38 30 -38zM-53 140c0 3 52 152 135 152c35 0 58 -22 65 -52c29 31 67 52 103 52c69 0 107 -49 107 -114c0 -118 -105 -187 -159 -187c-67 0 -91 38 -100 12l-27 -80c-1 -3 -2 -6 -2 -9
c0 -40 56 -19 56 -45c0 -7 -5 -15 -14 -15c-3 0 -49 5 -114 5s-112 -5 -115 -5c-9 0 -14 8 -14 15c0 33 86 -1 102 44l101 296c2 7 5 14 5 20c0 8 -3 14 -11 14c-33 0 -61 -60 -77 -97c-5 -13 -17 -19 -26 -19c-8 0 -15 5 -15 13z" fill="currentColor"/>

<path transform="translate(1.4607, 0.0000) scale(0.0040, -0.0040)" d="M161 31c78 0 97 177 97 179c0 18 -7 33 -25 33c-61 0 -102 -125 -102 -174c0 -22 8 -38 30 -38zM-53 140c0 3 52 152 135 152c35 0 58 -22 65 -52c29 31 67 52 103 52c69 0 107 -49 107 -114c0 -118 -105 -187 -159 -187c-67 0 -91 38 -100 12l-27 -80c-1 -3 -2 -6 -2 -9
c0 -40 56 -19 56 -45c0 -7 -5 -15 -14 -15c-3 0 -49 5 -114 5s-112 -5 -115 -5c-9 0 -14 8 -14 15c0 33 86 -1 102 44l101 296c2 7 5 14 5 20c0 8 -3 14 -11 14c-33 0 -61 -60 -77 -97c-5 -13 -17 -19 -26 -19c-8 0 -15 5 -15 13z" fill="currentColor"/>
</g>
</g>
<g transform="translate(6.8862, 10.8416)">
<path transform="scale(0.0040, -0.0040)" d="M646 2c0 -113 -74 -213 -180 -247c3 -34 5 -68 5 -102c0 -20 -1 -40 -2 -60c-7 -121 -91 -228 -209 -228c-108 0 -196 87 -196 196c0 58 53 104 112 104c54 0 95 -48 95 -104c0 -52 -43 -95 -95 -95c-10 0 -20 2 -29 6c26 -38 68 -63 116 -63h3c93 2 153 92 159 190
c1 19 2 37 2 56c0 30 -2 60 -4 90c-5 -1 -43 -8 -88 -8c-194 0 -333 180 -333 375c0 177 130 307 246 442c-31 98 -53 170 -53 347c0 115 55 223 148 290c7 5 16 4 22 -1c68 -80 134 -243 134 -357c0 -143 -85 -255 -178 -364c21 -68 40 -137 57 -206c1 0 5 1 11 1
c156 0 257 -129 257 -262zM462 -202c66 24 111 88 111 162c0 89 -65 178 -170 190c28 -135 50 -272 59 -352zM75 26c0 -145 141 -245 263 -245c1 0 46 0 81 6c-7 65 -27 206 -61 363c-79 -8 -124 -61 -124 -119c0 -43 25 -89 80 -121c5 -5 7 -11 7 -16
c0 -12 -10 -23 -22 -23c-16 0 -127 63 -127 188c0 89 58 175 161 198c-14 58 -29 116 -46 173c-106 -122 -212 -244 -212 -404zM406 1042c-99 -47 -162 -148 -162 -257c0 -49 13 -111 38 -191c79 97 144 199 144 324c0 33 0 63 -20 124z" fill="currentColor"/>
</g>
<g transform="translate(46.8310, 24.6018)">
<path transform="scale(0.0040, -0.0040)" d="M215 137c67 0 111 -37 111 -92c0 -90 -111 -182 -215 -182c-67 0 -111 37 -111 92c0 90 111 182 215 182z" fill="currentColor"/>
</g>
<g transform="translate(48.2813, 30.2603)">
<path transform="scale(0.0040, -0.0040)" d="M0 36c0 20 16 37 36 37s37 -17 37 -37s-17 -36 -37 -36s-36 16 -36 36z" fill="currentColor"/>
</g>
<g transform="translate(45.0893, 30.2603)">
<path transform="scale(0.0040, -0.0040)" d="M43 337c0 -34 27 -49 38 -49c22 0 43 31 43 62c0 8 19 8 19 0c0 -65 -40 -130 -83 -130c-23 0 -63 24 -63 80c0 84 91 200 253 200c108 0 168 -82 168 -145c0 -47 -32 -68 -53 -68c-36 0 -69 51 -89 93c-4 8 13 16 17 8c8 -18 28 -34 46 -34c14 0 31 11 31 35
c0 38 -44 92 -120 92h-8c-7 -15 -37 -91 -37 -106c0 -46 100 -115 100 -165c0 -18 -30 -56 -57 -90c29 -3 83 -25 102 -41c13 -11 43 23 55 29c-5 23 -6 35 -6 47c0 65 35 133 96 133c32 0 50 -23 50 -46c0 -37 -42 -80 -77 -110l-11 -9c19 -35 42 -79 64 -67
c8 5 46 33 61 46c-4 14 -6 27 -6 41c0 54 44 111 95 136c-50 70 -127 126 -206 140c-8 1 -5 20 3 19c174 -31 332 -168 332 -295c0 -70 -50 -143 -113 -143c-43 0 -81 37 -99 82c-53 -49 -87 -81 -115 -81c-15 0 -39 0 -62 84c-1 0 -2 -1 -3 -1c-25 -22 -88 -71 -102 -79
c-38 -21 -37 84 -73 95c-34 -42 -82 -100 -122 -100c-8 0 -14 5 -14 13c0 33 86 102 126 107c27 31 28 36 28 47c0 47 -87 112 -87 151c0 20 41 132 58 162c-112 -11 -179 -89 -179 -143zM475 253c-21 0 -42 -15 -42 -53c0 -20 7 -42 15 -60c21 18 61 51 61 82
c0 17 -14 31 -34 31zM682 263c-36 -21 -52 -76 -52 -120c0 -46 17 -105 57 -105c31 0 42 37 42 77c0 36 -9 88 -47 148z" fill="currentColor"/>
</g>
<g transform="translate(48.6575, 12.3416)">
<path transform="scale(0.0040, -0.0040)" d="M0 0c0 31 25 56 56 56s55 -25 55 -56s-24 -56 -55 -56s-56 25 -56 56z" fill="currentColor"/>
</g>
<g transform="translate(48.1436, 9.8416)">
<rect x="-0.0680" y="-3.0000" width="0.1359" height="5.2470" ry="0.0428" fill="currentColor"/>
</g>
<g transform="translate(48.6575, 11.3416)">
<path transform="scale(0.0040, -0.0040)" d="M0 0c0 31 25 56 56 56s55 -25 55 -56s-24 -56 -55 -56s-56 25 -56 56z" fill="currentColor"/>
</g>
<g transform="translate(48.6575, 10.3416)">
<path transform="scale(0.0040, -0.0040)" d="M0 0c0 31 25 56 56 56s55 -25 55 -56s-24 -56 -55 -56s-56 25 -56 56z" fill="currentColor"/>
</g>
<g transform="translate(45.3810, 12.3416)">
<path transform="scale(0.0040, -0.0040)" d="M0 117c0 9 6 18 15 21l43 16v157c0 11 8 19 19 19s20 -8 20 -19v-142l81 30v156c0 11 9 20 20 20s19 -9 19 -20v-142l28 11c3 1 5 1 8 1c12 0 22 -10 22 -23v-57c0 -9 -6 -18 -15 -21l-43 -16v-157l28 10c3 1 5 1 8 1c12 0 22 -9 22 -22v-57c0 -9 -6 -18 -15 -21l-43 -16
v-157c0 -11 -8 -19 -19 -19s-20 8 -20 19v142l-81 -30v-156c0 -11 -9 -20 -20 -20s-19 9 -19 20v142l-28 -11c-3 -1 -5 -1 -8 -1c-12 0 -22 10 -22 23v57c0 9 6 18 15 21l43 16v157l-28 -10c-3 -1 -5 -1 -8 -1c-12 0 -22 9 -22 22v57zM178 94l-81 -30v-158l81 30v158z" fill="currentColor"/>
</g>
<g transform="translate(46.8989, 21.6018)">
<rect x="-0.0680" y="3.1794" width="0.1359" height="2.2871" ry="0.0428" fill="currentColor"/>
</g>
<g transform="translate(61.0363, 27.1018)">
<polygon stroke-linejoin="round" stroke-linecap="round" stroke-width="0.0856" fill="currentColor" stroke="currentColor" points="5.4116 -2.8849 5.4116 -2.4905 0.0428 0.1972 0.0428 -0.1972"/>
</g>
<g transform="translate(49.4902, 21.1018)">
<path transform="scale(0.0040, -0.0040)" d="M215 137c67 0 111 -37 111 -92c0 -90 -111 -182 -215 -182c-67 0 -111 37 -111 92c0 90 111 182 215 182z" fill="currentColor"/>
</g>
<g transform="translate(49.5581, 21.6018)">
<rect x="-0.0680" y="-0.3206" width="0.1359" height="4.4768" ry="0.0428" fill="currentColor"/>
</g>
<g transform="translate(52.1494, 18.6018)">
<path transform="scale(0.0040, -0.0040)" d="M215 137c67 0 111 -37 111 -92c0 -90 -111 -182 -215 -182c-67 0 -111 37 -111 92c0 90 111 182 215 182z" fill="currentColor"/>
</g>
<g transform="translate(52.2174, 21.6018)">
<rect x="-0.0680" y="-2.8206" width="0.1359" height="5.6664" ry="0.0428" fill="currentColor"/>
</g>
<g transform="translate(54.3086, 19.6018)">
<path transform="scale(0.0040, -0.0040)" d="M215 137c67 0 111 -37 111 -92c0 -90 -111 -182 -215 -182c-67 0 -111 37 -111 92c0 90 111 182 215 182z" fill="currentColor"/>
</g>
<g transform="translate(54.3766, 21.6018)">
<rect x="-0.0680" y="-1.8206" width="0.1359" height="3.8324" ry="0.0428" fill="currentColor"/>
</g>
<g transform="translate(54.3086, 23.6018)">
<polygon stroke-linejoin="round" stroke-linecap="round" stroke-width="0.0856" fill="currentColor" stroke="currentColor" points="4.6616 0.6151 4.6616 1.0095 0.0428 0.1972 0.0428 -0.1972"/>
</g>
<g transform="translate(56.4678, 20.6018)">
<path transform="scale(0.0040, -0.0040)" d="M215 137c67 0 111 -37 111 -92c0 -90 -111 -182 -215 -182c-67 0 -111 37 -111 92c0 90 111 182 215 182z" fill="currentColor"/>
</g>
<g transform="translate(56.5358, 21.6018)">
<rect x="-0.0680" y="-0.8206" width="0.1359" height="3.2052" ry="0.0428" fill="currentColor"/>
</g>
<g transform="translate(58.8771, 21.1018)">
<path transform="scale(0.0040, -0.0040)" d="M215 137c67 0 111 -37 111 -92c0 -90 -111 -182 -215 -182c-67 0 -111 37 -111 92c0 90 111 182 215 182z" fill="currentColor"/>
</g>
<g transform="translate(58.9450, 21.6018)">
<rect x="-0.0680" y="-0.3206" width="0.1359" height="3.1212" ry="0.0428" fill="currentColor"/>
</g>
<g transform="translate(61.0363, 24.6018)">
<path transform="scale(0.0040, -0.0040)" d="M215 137c67 0 111 -37 111 -92c0 -90 -111 -182 -215 -182c-67 0 -111 37 -111 92c0 90 111 182 215 182z" fill="currentColor"/>
</g>
<g transform="translate(61.1042, 21.6018)">
<rect x="-0.0680" y="3.1794" width="0.1359" height="2.2871" ry="0.0428" fill="currentColor"/>
</g>
<g transform="translate(46.8310, 27.1018)">
<polygon stroke-linejoin="round" stroke-linecap="round" stroke-width="0.0856" fill="currentColor" stroke="currentColor" points="5.4116 -2.8849 5.4116 -2.4905 0.0428 0.1972 0.0428 -0.1972"/>
</g>
<g transform="translate(63.6955, 21.1018)">
<path transform="scale(0.0040, -0.0040)" d="M215 137c67 0 111 -37 111 -92c0 -90 -111 -182 -215 -182c-67 0 -111 37 -111 92c0 90 111 182 215 182z" fill="currentColor"/>
</g>
<g transform="translate(63.7635, 21.6018)">
<rect x="-0.0680" y="-0.3206" width="0.1359" height="4.4768" ry="0.0428" fill="currentColor"/>
</g>
<g transform="translate(66.3547, 18.6018)">
<path transform="scale(0.0040, -0.0040)" d="M215 137c67 0 111 -37 111 -92c0 -90 -111 -182 -215 -182c-67 0 -111 37 -111 92c0 90 111 182 215 182z" fill="currentColor"/>
</g>
<g transform="translate(66.4227, 21.6018)">
<rect x="-0.0680" y="-2.8206" width="0.1359" height="5.6664" ry="0.0428" fill="currentColor"/>
</g>
<g transform="translate(68.5139, 12.3416)">
<path transform="scale(0.0040, -0.0040)" d="M215 137c67 0 111 -37 111 -92c0 -90 -111 -182 -215 -182c-67 0 -111 37 -111 92c0 90 111 182 215 182z" fill="currentColor"/>
</g>
<g transform="translate(68.5139, 11.3416)">
<path transform="scale(0.0040, -0.0040)" d="M215 137c67 0 111 -37 111 -92c0 -90 -111 -182 -215 -182c-67 0 -111 37 -111 92c0 90 111 182 215 182z" fill="currentColor"/>
</g>
<g transform="translate(68.5139, 10.3416)">
<path transform="scale(0.0040, -0.0040)" d="M215 137c67 0 111 -37 111 -92c0 -90 -111 -182 -215 -182c-67 0 -111 37 -111 92c0 90 111 182 215 182z" fill="currentColor"/>
</g>
<g transform="translate(68.5139, 19.6018)">
<path transform="scale(0.0040, -0.0040)" d="M215 137c67 0 111 -37 111 -92c0 -90 -111 -182 -215 -182c-67 0 -111 37 -111 92c0 90 111 182 215 182z" fill="currentColor"/>
</g>
<g transform="translate(69.7488, 9.8416)">
<rect x="-0.0680" y="-3.0000" width="0.1359" height="5.3206" ry="0.0428" fill="currentColor"/>
</g>
<g transform="translate(68.5819, 21.6018)">
<rect x="-0.0680" y="-1.8206" width="0.1359" height="3.8324" ry="0.0428" fill="currentColor"/>
</g>
<g transform="translate(70.7411, 21.6018)">
<rect x="-0.0680" y="-0.8206" width="0.1359" height="3.2052" ry="0.0428" fill="currentColor"/>
</g>
<g transform="translate(37.5204, 23.7895)">
<polygon stroke-linejoin="round" stroke-linecap="round" stroke-width="0.0856" fill="currentColor" stroke="currentColor" points="4.9116 0.4273 4.9116 0.8218 0.0428 0.1972 0.0428 -0.1972"/>
</g>
<g transform="translate(73.0824, 21.1018)">
<path transform="scale(0.0040, -0.0040)" d="M215 137c67 0 111 -37 111 -92c0 -90 -111 -182 -215 -182c-67 0 -111 37 -111 92c0 90 111 182 215 182z" fill="currentColor"/>
</g>
<g transform="translate(72.3046, 28.1024)">
<path transform="scale(0.0040, -0.0040)" d="M166 194c0 -16 12 -28 28 -28s29 12 29 28s-13 29 -29 29s-28 -13 -28 -29zM205 277c0 -20 26 -31 40 -17c19 19 -5 87 53 87c26 0 49 -23 49 -49c0 -58 -68 -34 -87 -53c-14 -14 -3 -40 17 -40c26 0 38 37 64 37c32 0 48 -24 48 -48s-16 -47 -48 -47
c-26 0 -38 37 -64 37c-20 0 -31 -26 -17 -40c19 -19 87 5 87 -53c0 -26 -23 -49 -49 -49c-58 0 -34 68 -53 87c-14 14 -40 3 -40 -17c0 -26 37 -38 37 -64c0 -32 -24 -48 -48 -48s-47 16 -47 48c0 26 37 38 37 64c0 20 -26 31 -40 17c-19 -19 5 -87 -53 -87
c-26 0 -49 23 -49 49c0 58 68 34 87 53c14 14 3 40 -17 40c-26 0 -38 -37 -64 -37c-32 0 -48 23 -48 47s16 48 48 48c26 0 38 -37 64 -37c20 0 31 26 17 40c-19 19 -87 -5 -87 53c0 26 23 49 49 49c58 0 34 -68 53 -87c14 -14 40 -3 40 17c0 26 -37 38 -37 64
c0 32 23 48 47 48s48 -16 48 -48c0 -26 -37 -38 -37 -64z" fill="currentColor"/>
</g>
<g transform="translate(10.3862, 7.8416)">
<path transform="scale(0.0040, -0.0040)" d="M0 117c0 9 6 18 15 21l43 16v157c0 11 8 19 19 19s20 -8 20 -19v-142l81 30v156c0 11 9 20 20 20s19 -9 19 -20v-142l28 11c3 1 5 1 8 1c12 0 22 -10 22 -23v-57c0 -9 -6 -18 -15 -21l-43 -16v-157l28 10c3 1 5 1 8 1c12 0 22 -9 22 -22v-57c0 -9 -6 -18 -15 -21l-43 -16
v-157c0 -11 -8 -19 -19 -19s-20 8 -20 19v142l-81 -30v-156c0 -11 -9 -20 -20 -20s-19 9 -19 20v142l-28 -11c-3 -1 -5 -1 -8 -1c-12 0 -22 10 -22 23v57c0 9 6 18 15 21l43 16v157l-28 -10c-3 -1 -5 -1 -8 -1c-12 0 -22 9 -22 22v57zM178 94l-81 -30v-158l81 30v158z" fill="currentColor"/>
</g>
<g transform="translate(77.5745, 11.8416)">
<path transform="scale(0.0040, -0.0040)" d="M215 137c67 0 111 -37 111 -92c0 -90 -111 -182 -215 -182c-67 0 -111 37 -111 92c0 90 111 182 215 182z" fill="currentColor"/>
</g>
<g transform="translate(77.5745, 10.8416)">
<path transform="scale(0.0040, -0.0040)" d="M215 137c67 0 111 -37 111 -92c0 -90 -111 -182 -215 -182c-67 0 -111 37 -111 92c0 90 111 182 215 182z" fill="currentColor"/>
</g>
<g transform="translate(77.5745, 13.8462)">
<text font-family="serif" font-weight="bold" font-style="italic" font-size="2.2001" text-anchor="start" fill="currentColor">
<tspan>calando</tspan>
</text>
</g>
<g transform="translate(6.0862, 9.8416)">
<path stroke-width="0.0837" stroke-linejoin="round" stroke-linecap="round" stroke="currentColor" fill="currentColor" d="M5.4000 -2.5486C6.3078 -3.4015 8.1325 -3.4015 9.0403 -2.5486L9.0403 -2.5486C8.1325 -3.2760 6.3078 -3.2760 5.4000 -2.5486z"/>
</g>
<g transform="translate(77.5745, 24.6018)">
<path transform="scale(0.0040, -0.0040)" d="M215 137c67 0 111 -37 111 -92c0 -90 -111 -182 -215 -182c-67 0 -111 37 -111 92c0 90 111 182 215 182z" fill="currentColor"/>
</g>
<g transform="translate(79.0249, 28.1024)">
<path transform="scale(0.0040, -0.0040)" d="M0 36c0 20 16 37 36 37s37 -17 37 -37s-17 -36 -37 -36s-36 16 -36 36z" fill="currentColor"/>
</g>
<g transform="translate(75.8329, 28.1024)">
<path transform="scale(0.0040, -0.0040)" d="M43 337c0 -34 27 -49 38 -49c22 0 43 31 43 62c0 8 19 8 19 0c0 -65 -40 -130 -83 -130c-23 0 -63 24 -63 80c0 84 91 200 253 200c108 0 168 -82 168 -145c0 -47 -32 -68 -53 -68c-36 0 -69 51 -89 93c-4 8 13 16 17 8c8 -18 28 -34 46 -34c14 0 31 11 31 35
c0 38 -44 92 -120 92h-8c-7 -15 -37 -91 -37 -106c0 -46 100 -115 100 -165c0 -18 -30 -56 -57 -90c29 -3 83 -25 102 -41c13 -11 43 23 55 29c-5 23 -6 35 -6 47c0 65 35 133 96 133c32 0 50 -23 50 -46c0 -37 -42 -80 -77 -110l-11 -9c19 -35 42 -79 64 -67
c8 5 46 33 61 46c-4 14 -6 27 -6 41c0 54 44 111 95 136c-50 70 -127 126 -206 140c-8 1 -5 20 3 19c174 -31 332 -168 332 -295c0 -70 -50 -143 -113 -143c-43 0 -81 37 -99 82c-53 -49 -87 -81 -115 -81c-15 0 -39 0 -62 84c-1 0 -2 -1 -3 -1c-25 -22 -88 -71 -102 -79
c-38 -21 -37 84 -73 95c-34 -42 -82 -100 -122 -100c-8 0 -14 5 -14 13c0 33 86 102 126 107c27 31 28 36 28 47c0 47 -87 112 -87 151c0 20 41 132 58 162c-112 -11 -179 -89 -179 -143zM475 253c-21 0 -42 -15 -42 -53c0 -20 7 -42 15 -60c21 18 61 51 61 82
c0 17 -14 31 -34 31zM682 263c-36 -21 -52 -76 -52 -120c0 -46 17 -105 57 -105c31 0 42 37 42 77c0 36 -9 88 -47 148z" fill="currentColor"/>
</g>
<g transform="translate(78.8094, 9.8416)">
<rect x="-0.0680" y="-2.5000" width="0.1359" height="4.3206" ry="0.0428" fill="currentColor"/>
</g>
<g transform="translate(76.1245, 10.8416)">
<path transform="scale(0.0040, -0.0040)" d="M0 117c0 9 6 18 15 21l43 16v157c0 11 8 19 19 19s20 -8 20 -19v-142l81 30v156c0 11 9 20 20 20s19 -9 19 -20v-142l28 11c3 1 5 1 8 1c12 0 22 -10 22 -23v-57c0 -9 -6 -18 -15 -21l-43 -16v-157l28 10c3 1 5 1 8 1c12 0 22 -9 22 -22v-57c0 -9 -6 -18 -15 -21l-43 -16
v-157c0 -11 -8 -19 -19 -19s-20 8 -20 19v142l-81 -30v-156c0 -11 -9 -20 -20 -20s-19 9 -19 20v142l-28 -11c-3 -1 -5 -1 -8 -1c-12 0 -22 10 -22 23v57c0 9 6 18 15 21l43 16v157l-28 -10c-3 -1 -5 -1 -8 -1c-12 0 -22 9 -22 22v57zM178 94l-81 -30v-158l81 30v158z" fill="currentColor"/>
</g>
<g transform="translate(78.8094, 21.6018)">
<rect x="-0.0680" y="-2.2204" width="0.1359" height="5.0411" ry="0.0428" fill="currentColor"/>
</g>
<g transform="translate(80.2337, 22.6018)">
<path transform="scale(0.0040, -0.0040)" d="M215 137c67 0 111 -37 111 -92c0 -90 -111 -182 -215 -182c-67 0 -111 37 -111 92c0 90 111 182 215 182z" fill="currentColor"/>
</g>
<g transform="translate(81.4686, 21.6018)">
<rect x="-0.0680" y="-3.5000" width="0.1359" height="4.3206" ry="0.0428" fill="currentColor"/>
</g>
<g transform="translate(46.8310, 9.8416)">
<path stroke-width="0.0837" stroke-linejoin="round" stroke-linecap="round" stroke="currentColor" fill="currentColor" d="M1.6806 -3.0486C4.5303 -4.8636 28.8039 -4.5797 31.6104 -2.6986L31.6104 -2.6986C28.8025 -4.4542 4.5288 -4.7381 1.6806 -3.0486z"/>
</g>
<g transform="translate(82.8930, 19.1018)">
<path transform="scale(0.0040, -0.0040)" d="M215 137c67 0 111 -37 111 -92c0 -90 -111 -182 -215 -182c-67 0 -111 37 -111 92c0 90 111 182 215 182z" fill="currentColor"/>
</g>
<g transform="translate(84.1278, 21.6018)">
<rect x="-0.0680" y="-4.7796" width="0.1359" height="2.1002" ry="0.0428" fill="currentColor"/>
</g>
<g transform="translate(86.1522, 9.8416)">
<path transform="scale(0.0040, -0.0040)" d="M-8 78c0 59 125 83 125 182c0 25 -9 49 -26 69l-33 40c-3 4 -4 7 -4 11c0 9 9 17 18 17c4 0 8 -2 12 -6l150 -179c7 -9 11 -18 11 -26c0 -59 -125 -83 -125 -182c0 -25 8 -49 25 -69l82 -97c3 -4 4 -7 4 -11c0 -9 -8 -17 -17 -17c-10 0 -42 42 -106 42
c-19 0 -54 -1 -54 -66c0 -34 10 -73 27 -93c7 -9 -5 -20 -12 -11c-45 53 -93 147 -93 201c0 42 27 42 43 42c31 0 74 -11 113 -27l-129 154c-7 9 -11 18 -11 26z" fill="currentColor"/>
</g>
<g transform="translate(86.1522, 20.1018)">
<path transform="scale(0.0040, -0.0040)" d="M215 137c67 0 111 -37 111 -92c0 -90 -111 -182 -215 -182c-67 0 -111 37 -111 92c0 90 111 182 215 182z" fill="currentColor"/>
</g>
<g transform="translate(86.2201, 21.6018)">
<rect x="-0.0680" y="-1.3206" width="0.1359" height="3.5169" ry="0.0428" fill="currentColor"/>
</g>
<g transform="translate(84.7022, 20.1018)">
<path transform="scale(0.0040, -0.0040)" d="M0 117c0 9 6 18 15 21l43 16v157c0 11 8 19 19 19s20 -8 20 -19v-142l81 30v156c0 11 9 20 20 20s19 -9 19 -20v-142l28 11c3 1 5 1 8 1c12 0 22 -10 22 -23v-57c0 -9 -6 -18 -15 -21l-43 -16v-157l28 10c3 1 5 1 8 1c12 0 22 -9 22 -22v-57c0 -9 -6 -18 -15 -21l-43 -16
v-157c0 -11 -8 -19 -19 -19s-20 8 -20 19v142l-81 -30v-156c0 -11 -9 -20 -20 -20s-19 9 -19 20v142l-28 -11c-3 -1 -5 -1 -8 -1c-12 0 -22 10 -22 23v57c0 9 6 18 15 21l43 16v157l-28 -10c-3 -1 -5 -1 -8 -1c-12 0 -22 9 -22 22v57zM178 94l-81 -30v-158l81 30v158z" fill="currentColor"/>
</g>
<g transform="translate(30.9596, 19.4141)">
<polygon stroke-linejoin="round" stroke-linecap="round" stroke-width="0.0856" fill="currentColor" stroke="currentColor" points="5.4116 -2.8218 5.4116 -2.4273 0.0428 0.1972 0.0428 -0.1972"/>
</g>
<g transform="translate(88.5614, 20.6018)">
<path transform="scale(0.0040, -0.0040)" d="M215 137c67 0 111 -37 111 -92c0 -90 -111 -182 -215 -182c-67 0 -111 37 -111 92c0 90 111 182 215 182z" fill="currentColor"/>
</g>
<g transform="translate(88.6294, 21.6018)">
<rect x="-0.0680" y="-0.8206" width="0.1359" height="3.3206" ry="0.0428" fill="currentColor"/>
</g>
<g transform="translate(90.9706, 21.1018)">
<path transform="scale(0.0040, -0.0040)" d="M215 137c67 0 111 -37 111 -92c0 -90 -111 -182 -215 -182c-67 0 -111 37 -111 92c0 90 111 182 215 182z" fill="currentColor"/>
</g>
<g transform="translate(91.0386, 21.6018)">
<rect x="-0.0680" y="-0.3206" width="0.1359" height="3.1244" ry="0.0428" fill="currentColor"/>
</g>
<g transform="translate(92.9311, 9.8416)">
<path transform="scale(0.0040, -0.0040)" d="M364 0h-353c-6 0 -11 5 -11 11v134c0 6 5 11 11 11h353c6 0 11 -5 11 -11v-134c0 -6 -5 -11 -11 -11z" fill="currentColor"/>
</g>
<g transform="translate(92.9311, 24.6018)">
<path transform="scale(0.0040, -0.0040)" d="M215 137c67 0 111 -37 111 -92c0 -90 -111 -182 -215 -182c-67 0 -111 37 -111 92c0 90 111 182 215 182z" fill="currentColor"/>
</g>
<g transform="translate(94.1659, 21.6018)">
<rect x="-0.0680" y="-2.2204" width="0.1359" height="5.0411" ry="0.0428" fill="currentColor"/>
</g>
<g transform="translate(23.0138, 23.7895)">
<polygon stroke-linejoin="round" stroke-linecap="round" stroke-width="0.0856" fill="currentColor" stroke="currentColor" points="4.9116 0.4273 4.9116 0.8218 0.0428 0.1972 0.0428 -0.1972"/>
</g>
<g transform="translate(95.5903, 22.6018)">
<path transform="scale(0.0040, -0.0040)" d="M215 137c67 0 111 -37 111 -92c0 -90 -111 -182 -215 -182c-67 0 -111 37 -111 92c0 90 111 182 215 182z" fill="currentColor"/>
</g>
<g transform="translate(96.8251, 21.6018)">
<rect x="-0.0680" y="-3.5000" width="0.1359" height="4.3206" ry="0.0428" fill="currentColor"/>
</g>
<g transform="translate(98.2495, 19.1018)">
<path transform="scale(0.0040, -0.0040)" d="M215 137c67 0 111 -37 111 -92c0 -90 -111 -182 -215 -182c-67 0 -111 37 -111 92c0 90 111 182 215 182z" fill="currentColor"/>
</g>
<g transform="translate(99.4844, 21.6018)">
<rect x="-0.0680" y="-4.7796" width="0.1359" height="2.1002" ry="0.0428" fill="currentColor"/>
</g>
<g transform="translate(100.6587, 20.1018)">
<path transform="scale(0.0040, -0.0040)" d="M215 137c67 0 111 -37 111 -92c0 -90 -111 -182 -215 -182c-67 0 -111 37 -111 92c0 90 111 182 215 182z" fill="currentColor"/>
</g>
<g transform="translate(100.7267, 21.6018)">
<rect x="-0.0680" y="-1.3206" width="0.1359" height="3.5169" ry="0.0428" fill="currentColor"/>
</g>
<g transform="translate(15.6030, 19.4141)">
<polygon stroke-linejoin="round" stroke-linecap="round" stroke-width="0.0856" fill="currentColor" stroke="currentColor" points="5.4116 -2.8218 5.4116 -2.4273 0.0428 0.1972 0.0428 -0.1972"/>
</g>
<g transform="translate(103.0680, 20.6018)">
<path transform="scale(0.0040, -0.0040)" d="M215 137c67 0 111 -37 111 -92c0 -90 -111 -182 -215 -182c-67 0 -111 37 -111 92c0 90 111 182 215 182z" fill="currentColor"/>
</g>
<g transform="translate(103.1359, 21.6018)">
<rect x="-0.0680" y="-0.8206" width="0.1359" height="3.3206" ry="0.0428" fill="currentColor"/>
</g>
<g transform="translate(105.4772, 21.1018)">
<path transform="scale(0.0040, -0.0040)" d="M215 137c67 0 111 -37 111 -92c0 -90 -111 -182 -215 -182c-67 0 -111 37 -111 92c0 90 111 182 215 182z" fill="currentColor"/>
</g>
<g transform="translate(104.6994, 27.4008)">
<path transform="scale(0.0040, -0.0040)" d="M166 194c0 -16 12 -28 28 -28s29 12 29 28s-13 29 -29 29s-28 -13 -28 -29zM205 277c0 -20 26 -31 40 -17c19 19 -5 87 53 87c26 0 49 -23 49 -49c0 -58 -68 -34 -87 -53c-14 -14 -3 -40 17 -40c26 0 38 37 64 37c32 0 48 -24 48 -48s-16 -47 -48 -47
c-26 0 -38 37 -64 37c-20 0 -31 -26 -17 -40c19 -19 87 5 87 -53c0 -26 -23 -49 -49 -49c-58 0 -34 68 -53 87c-14 14 -40 3 -40 -17c0 -26 37 -38 37 -64c0 -32 -24 -48 -48 -48s-47 16 -47 48c0 26 37 38 37 64c0 20 -26 31 -40 17c-19 -19 5 -87 -53 -87
c-26 0 -49 23 -49 49c0 58 68 34 87 53c14 14 3 40 -17 40c-26 0 -38 -37 -64 -37c-32 0 -48 23 -48 47s16 48 48 48c26 0 38 -37 64 -37c20 0 31 26 17 40c-19 19 -87 -5 -87 53c0 26 23 49 49 49c58 0 34 -68 53 -87c14 -14 40 -3 40 17c0 26 -37 38 -37 64
c0 32 23 48 47 48s48 -16 48 -48c0 -26 -37 -38 -37 -64z" fill="currentColor"/>
</g>
<g transform="translate(105.5451, 21.6018)">
<rect x="-0.0680" y="-0.3206" width="0.1359" height="3.1244" ry="0.0428" fill="currentColor"/>
</g>
<g transform="translate(110.7790, 12.8416)">
<path transform="scale(0.0040, -0.0040)" d="M312 64c0 23 -18 41 -41 41c-39 0 -201 -110 -228 -142c-7 -8 -10 -17 -10 -27c0 -23 18 -41 41 -41c39 0 201 110 228 142c7 8 10 17 10 27zM259 137c46 0 86 -17 86 -74c0 -26 -15 -112 -73 -151c-29 -20 -89 -49 -186 -49c-46 0 -86 17 -86 74c0 26 16 112 74 151
c29 20 88 49 185 49z" fill="currentColor"/>
</g>
<g transform="translate(111.4692, 7.1693)">
<path transform="scale(0.0040, -0.0040)" d="M-173 66c-9 2 -14 10 -14 19c0 11 8 20 19 20c2 0 3 -1 5 -1l336 -85c9 -2 14 -10 14 -19s-5 -17 -14 -19l-336 -85c-2 0 -3 -1 -5 -1c-11 0 -20 9 -20 20c0 9 6 17 15 19l204 52l109 14l-109 14z" fill="currentColor"/>
</g>
<g transform="translate(6.0188, 15.7217)">
<rect x="0.0000" y="-7.9324" width="0.1673" height="15.8647" ry="0.0523" fill="currentColor"/>
</g>
<g transform="translate(105.6836, 8.8416)">
<path transform="scale(0.0040, -0.0040)" d="M446 -100c0 22 19 41 41 41s40 -19 40 -41s-18 -41 -40 -41s-41 19 -41 41zM446 100c0 22 19 41 41 41s40 -19 40 -41s-18 -41 -40 -41s-41 19 -41 41zM179 214c141 0 241 -69 241 -201c0 -211 -209 -335 -410 -423c-3 -3 -7 -4 -10 -4c-7 0 -14 7 -14 14c0 3 1 7 4 10
c150 98 305 216 305 392c0 92 -35 184 -116 184c-50 0 -84 -37 -100 -88c4 1 7 1 11 1c44 0 80 -36 80 -80c0 -46 -35 -85 -80 -85c-48 0 -90 38 -90 85c0 105 77 195 179 195z" fill="currentColor"/>
</g>
<g transform="translate(110.7790, 21.1018)">
<path transform="scale(0.0040, -0.0040)" d="M312 64c0 23 -18 41 -41 41c-39 0 -201 -110 -228 -142c-7 -8 -10 -17 -10 -27c0 -23 18 -41 41 -41c39 0 201 110 228 142c7 8 10 17 10 27zM259 137c46 0 86 -17 86 -74c0 -26 -15 -112 -73 -151c-29 -20 -89 -49 -186 -49c-46 0 -86 17 -86 74c0 26 16 112 74 151
c29 20 88 49 185 49z" fill="currentColor"/>
</g>
<g transform="translate(110.7790, 20.1018)">
<path transform="scale(0.0040, -0.0040)" d="M312 64c0 23 -18 41 -41 41c-39 0 -201 -110 -228 -142c-7 -8 -10 -17 -10 -27c0 -23 18 -41 41 -41c39 0 201 110 228 142c7 8 10 17 10 27zM259 137c46 0 86 -17 86 -74c0 -26 -15 -112 -73 -151c-29 -20 -89 -49 -186 -49c-46 0 -86 17 -86 74c0 26 16 112 74 151
c29 20 88 49 185 49z" fill="currentColor"/>
</g>
<g transform="translate(110.7790, 17.6018)">
<path transform="scale(0.0040, -0.0040)" d="M312 64c0 23 -18 41 -41 41c-39 0 -201 -110 -228 -142c-7 -8 -10 -17 -10 -27c0 -23 18 -41 41 -41c39 0 201 110 228 142c7 8 10 17 10 27zM259 137c46 0 86 -17 86 -74c0 -26 -15 -112 -73 -151c-29 -20 -89 -49 -186 -49c-46 0 -86 17 -86 74c0 26 16 112 74 151
c29 20 88 49 185 49z" fill="currentColor"/>
</g>
<g transform="translate(111.4692, 16.4332)">
<path transform="scale(0.0040, -0.0040)" d="M-173 66c-9 2 -14 10 -14 19c0 11 8 20 19 20c2 0 3 -1 5 -1l336 -85c9 -2 14 -10 14 -19s-5 -17 -14 -19l-336 -85c-2 0 -3 -1 -5 -1c-11 0 -20 9 -20 20c0 9 6 17 15 19l204 52l109 14l-109 14z" fill="currentColor"/>
</g>
<g transform="translate(5.7188, 15.7217)">
<path transform="scale(0.0040, -0.0040)" d="M-84 -440c0 304 -152 436 -152 440s152 136 152 440c0 316 -128 600 -128 952c0 220 52 432 200 596c16 16 40 -8 24 -24c-112 -124 -148 -272 -148 -436c0 -308 120 -584 120 -932c0 -220 -48 -432 -192 -596c144 -164 192 -376 192 -596c0 -348 -120 -624 -120 -932
c0 -164 36 -312 148 -436c16 -16 -8 -40 -24 -24c-148 164 -200 376 -200 596c0 352 128 636 128 952z" fill="currentColor"/>
</g>
<g transform="translate(112.6055, 12.3416)">
<path transform="scale(0.0040, -0.0040)" d="M0 0c0 31 25 56 56 56s55 -25 55 -56s-24 -56 -55 -56s-56 25 -56 56z" fill="currentColor"/>
</g>
<g transform="translate(112.0916, 9.8416)">
<rect x="-0.0680" y="-0.5000" width="0.1359" height="3.2470" ry="0.0428" fill="currentColor"/>
</g>
<g transform="translate(112.6055, 21.1018)">
<path transform="scale(0.0040, -0.0040)" d="M0 0c0 31 25 56 56 56s55 -25 55 -56s-24 -56 -55 -56s-56 25 -56 56z" fill="currentColor"/>
</g>
<g transform="translate(110.8469, 21.6018)">
<rect x="-0.0680" y="-3.7470" width="0.1359" height="6.7470" ry="0.0428" fill="currentColor"/>
</g>
<g transform="translate(112.6055, 20.1018)">
<path transform="scale(0.0040, -0.0040)" d="M0 0c0 31 25 56 56 56s55 -25 55 -56s-24 -56 -55 -56s-56 25 -56 56z" fill="currentColor"/>
</g>
<g transform="translate(112.6055, 17.1018)">
<path transform="scale(0.0040, -0.0040)" d="M0 0c0 31 25 56 56 56s55 -25 55 -56s-24 -56 -55 -56s-56 25 -56 56z" fill="currentColor"/>
</g>
<g transform="translate(109.3290, 20.1018)">
<path transform="scale(0.0040, -0.0040)" d="M0 117c0 9 6 18 15 21l43 16v157c0 11 8 19 19 19s20 -8 20 -19v-142l81 30v156c0 11 9 20 20 20s19 -9 19 -20v-142l28 11c3 1 5 1 8 1c12 0 22 -10 22 -23v-57c0 -9 -6 -18 -15 -21l-43 -16v-157l28 10c3 1 5 1 8 1c12 0 22 -9 22 -22v-57c0 -9 -6 -18 -15 -21l-43 -16
v-157c0 -11 -8 -19 -19 -19s-20 8 -20 19v142l-81 -30v-156c0 -11 -9 -20 -20 -20s-19 9 -19 20v142l-28 -11c-3 -1 -5 -1 -8 -1c-12 0 -22 10 -22 23v57c0 9 6 18 15 21l43 16v157l-28 -10c-3 -1 -5 -1 -8 -1c-12 0 -22 9 -22 22v57zM178 94l-81 -30v-158l81 30v158z" fill="currentColor"/>
</g>
<g transform="translate(116.7732, 9.8416)">
<path transform="scale(0.0040, -0.0040)" d="M-8 78c0 59 125 83 125 182c0 25 -9 49 -26 69l-33 40c-3 4 -4 7 -4 11c0 9 9 17 18 17c4 0 8 -2 12 -6l150 -179c7 -9 11 -18 11 -26c0 -59 -125 -83 -125 -182c0 -25 8 -49 25 -69l82 -97c3 -4 4 -7 4 -11c0 -9 -8 -17 -17 -17c-10 0 -42 42 -106 42
c-19 0 -54 -1 -54 -66c0 -34 10 -73 27 -93c7 -9 -5 -20 -12 -11c-45 53 -93 147 -93 201c0 42 27 42 43 42c31 0 74 -11 113 -27l-129 154c-7 9 -11 18 -11 26z" fill="currentColor"/>
</g>
<g transform="translate(116.7732, 21.6018)">
<path transform="scale(0.0040, -0.0040)" d="M-8 78c0 59 125 83 125 182c0 25 -9 49 -26 69l-33 40c-3 4 -4 7 -4 11c0 9 9 17 18 17c4 0 8 -2 12 -6l150 -179c7 -9 11 -18 11 -26c0 -59 -125 -83 -125 -182c0 -25 8 -49 25 -69l82 -97c3 -4 4 -7 4 -11c0 -9 -8 -17 -17 -17c-10 0 -42 42 -106 42
c-19 0 -54 -1 -54 -66c0 -34 10 -73 27 -93c7 -9 -5 -20 -12 -11c-45 53 -93 147 -93 201c0 42 27 42 43 42c31 0 74 -11 113 -27l-129 154c-7 9 -11 18 -11 26z" fill="currentColor"/>
</g>
<g transform="translate(73.1503, 21.6018)">
<rect x="-0.0680" y="-0.3206" width="0.1359" height="3.1212" ry="0.0428" fill="currentColor"/>
</g>
</svg>
