<svg xmlns="http://www.w3.org/2000/svg" xmlns:xlink="http://www.w3.org/1999/xlink" version="1.2" viewBox="0.0000 -0.0000 119.5016 169.0094">
<style type="text/css">
<![CDATA[
tspan { white-space: pre; }
]]>
</style>
<g transform="translate(57.2413, 4.3729)">
<text font-family="serif" font-size="2.2000" text-anchor="start" fill="currentColor">
<tspan>Piano</tspan>
</text>
</g>
<g transform="translate(112.7184, 4.3729)">
<text font-family="serif" font-size="2.2000" text-anchor="start" fill="currentColor">
<tspan>3</tspan>
</text>
</g>
<g transform="translate(41.9870, 9.6329)">
<rect x="0.0000" y="-2.0000" width="0.1900" height="4.0500" ry="0.0000" fill="currentColor"/>
</g>
<g transform="translate(5.6906, 11.6329)">
<line stroke-linejoin="round" stroke-linecap="round" stroke-width="0.1000" stroke="currentColor" x1="0.0500" y1="0" x2="108.0705" y2="0"/>
</g>
<g transform="translate(5.6906, 10.6329)">
<line stroke-linejoin="round" stroke-linecap="round" stroke-width="0.1000" stroke="currentColor" x1="0.0500" y1="0" x2="108.0705" y2="0"/>
</g>
<g transform="translate(5.6906, 9.6329)">
<line stroke-linejoin="round" stroke-linecap="round" stroke-width="0.1000" stroke="currentColor" x1="0.0500" y1="0" x2="108.0705" y2="0"/>
</g>
<g transform="translate(5.6906, 8.6329)">
<line stroke-linejoin="round" stroke-linecap="round" stroke-width="0.1000" stroke="currentColor" x1="0.0500" y1="0" x2="108.0705" y2="0"/>
</g>
<g transform="translate(5.6906, 7.6329)">
<line stroke-linejoin="round" stroke-linecap="round" stroke-width="0.1000" stroke="currentColor" x1="0.0500" y1="0" x2="108.0705" y2="0"/>
</g>
<g transform="translate(113.6210, 5.4029)">
<rect x="0.0000" y="6.2800" width="0.1900" height="9.7188" ry="0.0000" fill="currentColor"/>
</g>
<g transform="translate(113.6210, 23.4017)">
<rect x="0.0000" y="-2.0500" width="0.1900" height="4.0500" ry="0.0000" fill="currentColor"/>
</g>
<g transform="translate(5.6906, 26.4017)">
<rect x="92.2062" y="-0.1000" width="2.0660" height="0.2000" ry="0.1000" fill="currentColor"/>
</g>
<g transform="translate(5.6906, 27.4017)">
<rect x="92.2062" y="-0.1000" width="2.0660" height="0.2000" ry="0.1000" fill="currentColor"/>
</g>
<g transform="translate(5.6906, 26.4017)">
<rect x="10.8740" y="-0.1000" width="1.9563" height="0.2000" ry="0.1000" fill="currentColor"/>
</g>
<g transform="translate(5.6906, 27.4017)">
<rect x="10.8740" y="-0.1000" width="1.9563" height="0.2000" ry="0.1000" fill="currentColor"/>
</g>
<g transform="translate(5.6906, 25.4017)">
<line stroke-linejoin="round" stroke-linecap="round" stroke-width="0.1000" stroke="currentColor" x1="0.0500" y1="0" x2="108.0705" y2="0"/>
</g>
<g transform="translate(5.6906, 24.4017)">
<line stroke-linejoin="round" stroke-linecap="round" stroke-width="0.1000" stroke="currentColor" x1="0.0500" y1="0" x2="108.0705" y2="0"/>
</g>
<g transform="translate(5.6906, 23.4017)">
<line stroke-linejoin="round" stroke-linecap="round" stroke-width="0.1000" stroke="currentColor" x1="0.0500" y1="0" x2="108.0705" y2="0"/>
</g>
<g transform="translate(5.6906, 22.4017)">
<line stroke-linejoin="round" stroke-linecap="round" stroke-width="0.1000" stroke="currentColor" x1="0.0500" y1="0" x2="108.0705" y2="0"/>
</g>
<g transform="translate(5.6906, 21.4017)">
<line stroke-linejoin="round" stroke-linecap="round" stroke-width="0.1000" stroke="currentColor" x1="0.0500" y1="0" x2="108.0705" y2="0"/>
</g>
<g transform="translate(113.6210, 9.6329)">
<rect x="0.0000" y="-2.0000" width="0.1900" height="4.0500" ry="0.0000" fill="currentColor"/>
</g>
<g transform="translate(96.8274, 5.4029)">
<rect x="0.0000" y="6.2800" width="0.1900" height="9.7188" ry="0.0000" fill="currentColor"/>
</g>
<g transform="translate(96.8274, 23.4017)">
<rect x="0.0000" y="-2.0500" width="0.1900" height="4.0500" ry="0.0000" fill="currentColor"/>
</g>
<g transform="translate(96.8274, 9.6329)">
<rect x="0.0000" y="-2.0000" width="0.1900" height="4.0500" ry="0.0000" fill="currentColor"/>
</g>
<g transform="translate(69.7865, 5.4029)">
<rect x="0.0000" y="6.2800" width="0.1900" height="9.7188" ry="0.0000" fill="currentColor"/>
</g>
<g transform="translate(69.7865, 23.4017)">
<rect x="0.0000" y="-2.0500" width="0.1900" height="4.0500" ry="0.0000" fill="currentColor"/>
</g>
<g transform="translate(69.7865, 9.6329)">
<rect x="0.0000" y="-2.0000" width="0.1900" height="4.0500" ry="0.0000" fill="currentColor"/>
</g>
<g transform="translate(5.6906, 12.6329)">
<rect x="100.2956" y="-0.1000" width="2.0660" height="0.2000" ry="0.1000" fill="currentColor"/>
</g>
<g transform="translate(5.6906, 12.6329)">
<rect x="96.1442" y="-0.1000" width="1.9563" height="0.2000" ry="0.1000" fill="currentColor"/>
</g>
<g transform="translate(5.6906, 12.6329)">
<rect x="92.2062" y="-0.1000" width="2.0660" height="0.2000" ry="0.1000" fill="currentColor"/>
</g>
<g transform="translate(5.6906, 13.6329)">
<rect x="92.2062" y="-0.1000" width="2.0660" height="0.2000" ry="0.1000" fill="currentColor"/>
</g>
<g transform="translate(5.6906, 14.6329)">
<rect x="92.2062" y="-0.1000" width="2.0660" height="0.2000" ry="0.1000" fill="currentColor"/>
</g>
<g transform="translate(5.6906, 12.6329)">
<rect x="82.3026" y="-0.1000" width="1.9563" height="0.2000" ry="0.1000" fill="currentColor"/>
</g>
<g transform="translate(5.6906, 13.6329)">
<rect x="82.3026" y="-0.1000" width="1.9563" height="0.2000" ry="0.1000" fill="currentColor"/>
</g>
<g transform="translate(5.6906, 14.6329)">
<rect x="82.3026" y="-0.1000" width="1.9563" height="0.2000" ry="0.1000" fill="currentColor"/>
</g>
<g transform="translate(5.6906, 12.6329)">
<rect x="73.9631" y="-0.1000" width="1.9563" height="0.2000" ry="0.1000" fill="currentColor"/>
</g>
<g transform="translate(5.6906, 13.6329)">
<rect x="73.9631" y="-0.1000" width="1.9563" height="0.2000" ry="0.1000" fill="currentColor"/>
</g>
<g transform="translate(5.6906, 12.6329)">
<rect x="71.2261" y="-0.1000" width="1.9563" height="0.2000" ry="0.1000" fill="currentColor"/>
</g>
<g transform="translate(5.6906, 12.6329)">
<rect x="65.0237" y="-0.1000" width="1.9563" height="0.2000" ry="0.1000" fill="currentColor"/>
</g>
<g transform="translate(5.6906, 13.6329)">
<rect x="65.0237" y="-0.1000" width="1.9563" height="0.2000" ry="0.1000" fill="currentColor"/>
</g>
<g transform="translate(5.6906, 12.6329)">
<rect x="55.5243" y="-0.1000" width="1.9563" height="0.2000" ry="0.1000" fill="currentColor"/>
</g>
<g transform="translate(5.6906, 12.6329)">
<rect x="38.2271" y="-0.1000" width="2.0660" height="0.2000" ry="0.1000" fill="currentColor"/>
</g>
<g transform="translate(5.6906, 12.6329)">
<rect x="31.7226" y="-0.1000" width="1.9563" height="0.2000" ry="0.1000" fill="currentColor"/>
</g>
<g transform="translate(5.6906, 12.6329)">
<rect x="23.3832" y="-0.1000" width="1.9563" height="0.2000" ry="0.1000" fill="currentColor"/>
</g>
<g transform="translate(5.6906, 12.6329)">
<rect x="19.2134" y="-0.1000" width="1.9563" height="0.2000" ry="0.1000" fill="currentColor"/>
</g>
<g transform="translate(5.6906, 12.6329)">
<rect x="15.0437" y="-0.1000" width="1.9563" height="0.2000" ry="0.1000" fill="currentColor"/>
</g>
<g transform="translate(5.6906, 13.6329)">
<rect x="15.0437" y="-0.1000" width="1.9563" height="0.2000" ry="0.1000" fill="currentColor"/>
</g>
<g transform="translate(5.6906, 14.6329)">
<rect x="15.0437" y="-0.1000" width="1.9563" height="0.2000" ry="0.1000" fill="currentColor"/>
</g>
<g transform="translate(5.6906, 12.6329)">
<rect x="10.8740" y="-0.1000" width="1.9563" height="0.2000" ry="0.1000" fill="currentColor"/>
</g>
<g transform="translate(5.6906, 13.6329)">
<rect x="10.8740" y="-0.1000" width="1.9563" height="0.2000" ry="0.1000" fill="currentColor"/>
</g>
<g transform="translate(5.6906, 14.6329)">
<rect x="10.8740" y="-0.1000" width="1.9563" height="0.2000" ry="0.1000" fill="currentColor"/>
</g>
<g transform="translate(41.9870, 5.4029)">
<rect x="0.0000" y="6.2800" width="0.1900" height="9.7188" ry="0.0000" fill="currentColor"/>
</g>
<g transform="translate(41.9870, 23.4017)">
<rect x="0.0000" y="-2.0500" width="0.1900" height="4.0500" ry="0.0000" fill="currentColor"/>
</g>
<g transform="translate(61.5409, 21.4017)">
<path transform="scale(0.0040, -0.0040)" d="M218 136c66 0 108 -36 108 -89c0 -89 -113 -183 -218 -183c-66 0 -108 36 -108 89c0 89 113 183 218 183z" fill="currentColor"/>
</g>
<g transform="translate(99.4153, 8.8229)">
<polygon stroke-linejoin="round" stroke-linecap="round" stroke-width="0.0800" fill="currentColor" stroke="currentColor" points="4.0097 0.4200 4.0097 0.8200 0.0400 0.2000 0.0400 -0.2000"/>
</g>
<g transform="translate(16.8906, 15.1329)">
<path transform="scale(0.0040, -0.0040)" d="M218 136c66 0 108 -36 108 -89c0 -89 -113 -183 -218 -183c-66 0 -108 36 -108 89c0 89 113 183 218 183z" fill="currentColor"/>
</g>
<g transform="translate(16.8906, 14.1329)">
<path transform="scale(0.0040, -0.0040)" d="M218 136c66 0 108 -36 108 -89c0 -89 -113 -183 -218 -183c-66 0 -108 36 -108 89c0 89 113 183 218 183z" fill="currentColor"/>
</g>
<g transform="translate(16.8906, 12.6329)">
<path transform="scale(0.0040, -0.0040)" d="M218 136c66 0 108 -36 108 -89c0 -89 -113 -183 -218 -183c-66 0 -108 36 -108 89c0 89 113 183 218 183z" fill="currentColor"/>
</g>
<g transform="translate(17.5427, 19.1878)">
<g>
<path transform="scale(0.0040, -0.0040)" d="M161 32c78 0 97 176 97 178c0 18 -7 33 -25 33c-61 0 -102 -124 -102 -173c0 -22 8 -38 30 -38zM-53 141c0 2 51 151 134 151c35 0 59 -21 66 -52c29 31 67 52 103 52c69 0 107 -49 107 -114c0 -118 -105 -186 -159 -186c-53 0 -70 20 -84 20c-7 0 -14 -3 -16 -9l-29 -86
c-1 -2 -1 -5 -1 -7c0 -37 57 -18 57 -42c0 -7 -4 -14 -13 -14c-3 0 -50 5 -116 5s-112 -5 -115 -5c-9 0 -14 7 -14 14c0 31 87 -1 102 41l102 300c2 7 4 14 4 20c0 8 -2 14 -11 14c-33 0 -63 -60 -79 -97c-5 -12 -15 -17 -24 -17c-8 0 -14 4 -14 12z" fill="currentColor"/>

<path transform="translate(1.4682, 0.0000) scale(0.0040, -0.0040)" d="M161 32c78 0 97 176 97 178c0 18 -7 33 -25 33c-61 0 -102 -124 -102 -173c0 -22 8 -38 30 -38zM-53 141c0 2 51 151 134 151c35 0 59 -21 66 -52c29 31 67 52 103 52c69 0 107 -49 107 -114c0 -118 -105 -186 -159 -186c-53 0 -70 20 -84 20c-7 0 -14 -3 -16 -9l-29 -86
c-1 -2 -1 -5 -1 -7c0 -37 57 -18 57 -42c0 -7 -4 -14 -13 -14c-3 0 -50 5 -116 5s-112 -5 -115 -5c-9 0 -14 7 -14 14c0 31 87 -1 102 41l102 300c2 7 4 14 4 20c0 8 -2 14 -11 14c-33 0 -63 -60 -79 -97c-5 -12 -15 -17 -24 -17c-8 0 -14 4 -14 12z" fill="currentColor"/>

<path transform="translate(2.9363, 0.0000) scale(0.0040, -0.0040)" d="M161 32c78 0 97 176 97 178c0 18 -7 33 -25 33c-61 0 -102 -124 -102 -173c0 -22 8 -38 30 -38zM-53 141c0 2 51 151 134 151c35 0 59 -21 66 -52c29 31 67 52 103 52c69 0 107 -49 107 -114c0 -118 -105 -186 -159 -186c-53 0 -70 20 -84 20c-7 0 -14 -3 -16 -9l-29 -86
c-1 -2 -1 -5 -1 -7c0 -37 57 -18 57 -42c0 -7 -4 -14 -13 -14c-3 0 -50 5 -116 5s-112 -5 -115 -5c-9 0 -14 7 -14 14c0 31 87 -1 102 41l102 300c2 7 4 14 4 20c0 8 -2 14 -11 14c-33 0 -63 -60 -79 -97c-5 -12 -15 -17 -24 -17c-8 0 -14 4 -14 12z" fill="currentColor"/>
</g>
</g>
<g transform="translate(16.8906, 27.4017)">
<path transform="scale(0.0040, -0.0040)" d="M218 136c66 0 108 -36 108 -89c0 -89 -113 -183 -218 -183c-66 0 -108 36 -108 89c0 89 113 183 218 183z" fill="currentColor"/>
</g>
<g transform="translate(16.8906, 25.4017)">
<path transform="scale(0.0040, -0.0040)" d="M218 136c66 0 108 -36 108 -89c0 -89 -113 -183 -218 -183c-66 0 -108 36 -108 89c0 89 113 183 218 183z" fill="currentColor"/>
</g>
<g transform="translate(16.8906, 23.9017)">
<path transform="scale(0.0040, -0.0040)" d="M218 136c66 0 108 -36 108 -89c0 -89 -113 -183 -218 -183c-66 0 -108 36 -108 89c0 89 113 183 218 183z" fill="currentColor"/>
</g>
<g transform="translate(18.1298, 9.6329)">
<rect x="-0.0650" y="-1.1950" width="0.1300" height="6.5089" ry="0.0400" fill="currentColor"/>
</g>
<g transform="translate(16.9556, 23.4017)">
<rect x="-0.0650" y="0.6861" width="0.1300" height="5.8092" ry="0.0400" fill="currentColor"/>
</g>
<g transform="translate(72.2145, 20.5917)">
<polygon stroke-linejoin="round" stroke-linecap="round" stroke-width="0.0800" fill="currentColor" stroke="currentColor" points="21.5386 -0.2000 21.5386 0.2000 0.0400 0.2000 0.0400 -0.2000"/>
</g>
<g transform="translate(21.0603, 15.1329)">
<path transform="scale(0.0040, -0.0040)" d="M218 136c66 0 108 -36 108 -89c0 -89 -113 -183 -218 -183c-66 0 -108 36 -108 89c0 89 113 183 218 183z" fill="currentColor"/>
</g>
<g transform="translate(21.0603, 14.1329)">
<path transform="scale(0.0040, -0.0040)" d="M218 136c66 0 108 -36 108 -89c0 -89 -113 -183 -218 -183c-66 0 -108 36 -108 89c0 89 113 183 218 183z" fill="currentColor"/>
</g>
<g transform="translate(21.0603, 12.1329)">
<path transform="scale(0.0040, -0.0040)" d="M218 136c66 0 108 -36 108 -89c0 -89 -113 -183 -218 -183c-66 0 -108 36 -108 89c0 89 113 183 218 183z" fill="currentColor"/>
</g>
<g transform="translate(21.0603, 15.1329)">
<path transform="scale(0.0040, -0.0040)" d="M218 136c66 0 108 -36 108 -89c0 -89 -113 -183 -218 -183c-66 0 -108 36 -108 89c0 89 113 183 218 183z" fill="currentColor"/>
</g>
<g transform="translate(21.0603, 23.9017)">
<path transform="scale(0.0040, -0.0040)" d="M218 136c66 0 108 -36 108 -89c0 -89 -113 -183 -218 -183c-66 0 -108 36 -108 89c0 89 113 183 218 183z" fill="currentColor"/>
</g>
<g transform="translate(22.2995, 9.6329)">
<rect x="-0.0650" y="-1.5170" width="0.1300" height="6.8309" ry="0.0400" fill="currentColor"/>
</g>
<g transform="translate(21.1253, 9.6329)">
<rect x="-0.0650" y="5.6861" width="0.1300" height="2.3139" ry="0.0400" fill="currentColor"/>
</g>
<g transform="translate(21.1253, 23.4017)">
<rect x="-0.0650" y="0.6861" width="0.1300" height="5.5111" ry="0.0400" fill="currentColor"/>
</g>
<g transform="translate(72.2145, 8.4429)">
<polygon stroke-linejoin="round" stroke-linecap="round" stroke-width="0.0800" fill="currentColor" stroke="currentColor" points="6.2925 0.1800 6.2925 0.5800 0.0400 0.2000 0.0400 -0.2000"/>
</g>
<g transform="translate(77.3820, 9.5630)">
<polygon stroke-linejoin="round" stroke-linecap="round" stroke-width="0.0800" fill="currentColor" stroke="currentColor" points="1.1250 -0.1301 1.1250 0.2699 0.0400 0.2000 0.0400 -0.2000"/>
</g>
<g transform="translate(25.2300, 12.6329)">
<path transform="scale(0.0040, -0.0040)" d="M218 136c66 0 108 -36 108 -89c0 -89 -113 -183 -218 -183c-66 0 -108 36 -108 89c0 89 113 183 218 183z" fill="currentColor"/>
</g>
<g transform="translate(25.2300, 11.6329)">
<path transform="scale(0.0040, -0.0040)" d="M218 136c66 0 108 -36 108 -89c0 -89 -113 -183 -218 -183c-66 0 -108 36 -108 89c0 89 113 183 218 183z" fill="currentColor"/>
</g>
<g transform="translate(25.2300, 23.9017)">
<path transform="scale(0.0040, -0.0040)" d="M218 136c66 0 108 -36 108 -89c0 -89 -113 -183 -218 -183c-66 0 -108 36 -108 89c0 89 113 183 218 183z" fill="currentColor"/>
</g>
<g transform="translate(26.4692, 9.6329)">
<rect x="-0.0650" y="-1.8390" width="0.1300" height="4.6529" ry="0.0400" fill="currentColor"/>
</g>
<g transform="translate(25.2950, 23.4017)">
<rect x="-0.0650" y="0.6861" width="0.1300" height="5.2130" ry="0.0400" fill="currentColor"/>
</g>
<g transform="translate(44.2620, 26.2117)">
<polygon stroke-linejoin="round" stroke-linecap="round" stroke-width="0.0800" fill="currentColor" stroke="currentColor" points="21.5386 -0.2000 21.5386 0.2000 0.0400 0.2000 0.0400 -0.2000"/>
</g>
<g transform="translate(29.3998, 12.6329)">
<path transform="scale(0.0040, -0.0040)" d="M218 136c66 0 108 -36 108 -89c0 -89 -113 -183 -218 -183c-66 0 -108 36 -108 89c0 89 113 183 218 183z" fill="currentColor"/>
</g>
<g transform="translate(29.3998, 11.1329)">
<path transform="scale(0.0040, -0.0040)" d="M218 136c66 0 108 -36 108 -89c0 -89 -113 -183 -218 -183c-66 0 -108 36 -108 89c0 89 113 183 218 183z" fill="currentColor"/>
</g>
<g transform="translate(29.3998, 12.6329)">
<path transform="scale(0.0040, -0.0040)" d="M218 136c66 0 108 -36 108 -89c0 -89 -113 -183 -218 -183c-66 0 -108 36 -108 89c0 89 113 183 218 183z" fill="currentColor"/>
</g>
<g transform="translate(29.3998, 23.9017)">
<path transform="scale(0.0040, -0.0040)" d="M218 136c66 0 108 -36 108 -89c0 -89 -113 -183 -218 -183c-66 0 -108 36 -108 89c0 89 113 183 218 183z" fill="currentColor"/>
</g>
<g transform="translate(30.6390, 9.6329)">
<rect x="-0.0650" y="-2.1610" width="0.1300" height="4.9749" ry="0.0400" fill="currentColor"/>
</g>
<g transform="translate(29.4648, 9.6329)">
<rect x="-0.0650" y="3.1861" width="0.1300" height="2.3139" ry="0.0400" fill="currentColor"/>
</g>
<g transform="translate(29.4648, 23.4017)">
<rect x="-0.0650" y="0.6861" width="0.1300" height="4.9148" ry="0.0400" fill="currentColor"/>
</g>
<g transform="translate(45.4362, 6.4429)">
<polygon stroke-linejoin="round" stroke-linecap="round" stroke-width="0.0800" fill="currentColor" stroke="currentColor" points="6.2925 0.1800 6.2925 0.5800 0.0400 0.2000 0.0400 -0.2000"/>
</g>
<g transform="translate(50.6037, 7.5630)">
<polygon stroke-linejoin="round" stroke-linecap="round" stroke-width="0.0800" fill="currentColor" stroke="currentColor" points="1.1250 -0.1301 1.1250 0.2699 0.0400 0.2000 0.0400 -0.2000"/>
</g>
<g transform="translate(33.5695, 11.6329)">
<path transform="scale(0.0040, -0.0040)" d="M218 136c66 0 108 -36 108 -89c0 -89 -113 -183 -218 -183c-66 0 -108 36 -108 89c0 89 113 183 218 183z" fill="currentColor"/>
</g>
<g transform="translate(33.5695, 10.6329)">
<path transform="scale(0.0040, -0.0040)" d="M218 136c66 0 108 -36 108 -89c0 -89 -113 -183 -218 -183c-66 0 -108 36 -108 89c0 89 113 183 218 183z" fill="currentColor"/>
</g>
<g transform="translate(33.5695, 21.9017)">
<path transform="scale(0.0040, -0.0040)" d="M218 136c66 0 108 -36 108 -89c0 -89 -113 -183 -218 -183c-66 0 -108 36 -108 89c0 89 113 183 218 183z" fill="currentColor"/>
</g>
<g transform="translate(33.5695, 23.9017)">
<path transform="scale(0.0040, -0.0040)" d="M218 136c66 0 108 -36 108 -89c0 -89 -113 -183 -218 -183c-66 0 -108 36 -108 89c0 89 113 183 218 183z" fill="currentColor"/>
</g>
<g transform="translate(34.8087, 9.6329)">
<rect x="-0.0650" y="-2.4830" width="0.1300" height="4.2969" ry="0.0400" fill="currentColor"/>
</g>
<g transform="translate(34.8087, 23.4017)">
<rect x="-0.0650" y="-4.3333" width="0.1300" height="2.6472" ry="0.0400" fill="currentColor"/>
</g>
<g transform="translate(33.6345, 23.4017)">
<rect x="-0.0650" y="0.6861" width="0.1300" height="4.6167" ry="0.0400" fill="currentColor"/>
</g>
<g transform="translate(16.8906, 29.9017)">
<polygon stroke-linejoin="round" stroke-linecap="round" stroke-width="0.0800" fill="currentColor" stroke="currentColor" points="20.9386 -1.7000 20.9386 -1.3000 0.0400 0.2000 0.0400 -0.2000"/>
</g>
<g transform="translate(37.7392, 12.6329)">
<path transform="scale(0.0040, -0.0040)" d="M218 136c66 0 108 -36 108 -89c0 -89 -113 -183 -218 -183c-66 0 -108 36 -108 89c0 89 113 183 218 183z" fill="currentColor"/>
</g>
<g transform="translate(37.7392, 11.6329)">
<path transform="scale(0.0040, -0.0040)" d="M218 136c66 0 108 -36 108 -89c0 -89 -113 -183 -218 -183c-66 0 -108 36 -108 89c0 89 113 183 218 183z" fill="currentColor"/>
</g>
<g transform="translate(37.7392, 9.1329)">
<path transform="scale(0.0040, -0.0040)" d="M218 136c66 0 108 -36 108 -89c0 -89 -113 -183 -218 -183c-66 0 -108 36 -108 89c0 89 113 183 218 183z" fill="currentColor"/>
</g>
<g transform="translate(37.7392, 23.9017)">
<path transform="scale(0.0040, -0.0040)" d="M218 136c66 0 108 -36 108 -89c0 -89 -113 -183 -218 -183c-66 0 -108 36 -108 89c0 89 113 183 218 183z" fill="currentColor"/>
</g>
<g transform="translate(38.9784, 9.6329)">
<rect x="-0.0650" y="-2.8050" width="0.1300" height="5.6189" ry="0.0400" fill="currentColor"/>
</g>
<g transform="translate(37.8042, 23.4017)">
<rect x="-0.0650" y="0.6861" width="0.1300" height="4.3185" ry="0.0400" fill="currentColor"/>
</g>
<g transform="translate(18.0648, 8.4429)">
<polygon stroke-linejoin="round" stroke-linecap="round" stroke-width="0.0800" fill="currentColor" stroke="currentColor" points="20.9386 -1.8200 20.9386 -1.4200 0.0400 0.2000 0.0400 -0.2000"/>
</g>
<g transform="translate(44.2620, 9.6329)">
<path transform="scale(0.0040, -0.0040)" d="M218 136c66 0 108 -36 108 -89c0 -89 -113 -183 -218 -183c-66 0 -108 36 -108 89c0 89 113 183 218 183z" fill="currentColor"/>
</g>
<g transform="translate(44.2620, 12.6329)">
<path transform="scale(0.0040, -0.0040)" d="M314 65c0 23 -19 41 -42 41c-39 0 -204 -110 -231 -143c-7 -8 -10 -18 -10 -28c0 -23 19 -41 42 -41c39 0 203 110 230 143c7 8 11 18 11 28zM262 136c41 0 82 -14 82 -71c0 -26 -16 -112 -74 -151c-25 -17 -87 -50 -187 -50c-41 0 -83 14 -83 71c0 26 16 112 74 151
c25 17 88 50 188 50z" fill="currentColor"/>
</g>
<g transform="translate(44.2620, 11.6329)">
<path transform="scale(0.0040, -0.0040)" d="M314 65c0 23 -19 41 -42 41c-39 0 -204 -110 -231 -143c-7 -8 -10 -18 -10 -28c0 -23 19 -41 42 -41c39 0 203 110 230 143c7 8 11 18 11 28zM262 136c41 0 82 -14 82 -71c0 -26 -16 -112 -74 -151c-25 -17 -87 -50 -187 -50c-41 0 -83 14 -83 71c0 26 16 112 74 151
c25 17 88 50 188 50z" fill="currentColor"/>
</g>
<g transform="translate(3.9151, 6.5829)">
<text font-family="serif" font-size="1.7459" text-anchor="start" fill="currentColor">
<tspan>42</tspan>
</text>
</g>
<g transform="translate(9.9906, 22.4017)">
<path transform="scale(0.0040, -0.0040)" d="M0 119c0 8 5 15 13 18l46 17v158c0 10 8 19 18 19s19 -9 19 -19v-145l83 31v158c0 10 9 19 19 19s18 -9 18 -19v-145l32 12c2 1 5 1 7 1c11 0 20 -9 20 -20v-60c0 -8 -5 -16 -13 -19l-46 -16v-160l32 11c2 1 5 1 7 1c11 0 20 -9 20 -20v-60c0 -8 -5 -15 -13 -18l-46 -17
v-158c0 -10 -8 -19 -18 -19s-19 9 -19 19v145l-83 -31v-158c0 -10 -9 -19 -19 -19s-18 9 -18 19v145l-32 -12c-2 -1 -5 -1 -7 -1c-11 0 -20 9 -20 20v60c0 8 5 16 13 19l46 16v160l-32 -11c-2 -1 -5 -1 -7 -1c-11 0 -20 9 -20 20v60zM179 95l-83 -30v-160l83 30v160z" fill="currentColor"/>
</g>
<g transform="translate(11.0906, 23.9017)">
<path transform="scale(0.0040, -0.0040)" d="M0 119c0 8 5 15 13 18l46 17v158c0 10 8 19 18 19s19 -9 19 -19v-145l83 31v158c0 10 9 19 19 19s18 -9 18 -19v-145l32 12c2 1 5 1 7 1c11 0 20 -9 20 -20v-60c0 -8 -5 -16 -13 -19l-46 -16v-160l32 11c2 1 5 1 7 1c11 0 20 -9 20 -20v-60c0 -8 -5 -15 -13 -18l-46 -17
v-158c0 -10 -8 -19 -18 -19s-19 9 -19 19v145l-83 -31v-158c0 -10 -9 -19 -19 -19s-18 9 -18 19v145l-32 -12c-2 -1 -5 -1 -7 -1c-11 0 -20 9 -20 20v60c0 8 5 16 13 19l46 16v160l-32 -11c-2 -1 -5 -1 -7 -1c-11 0 -20 9 -20 20v60zM179 95l-83 -30v-160l83 30v160z" fill="currentColor"/>
</g>
<g transform="translate(12.1906, 21.9017)">
<path transform="scale(0.0040, -0.0040)" d="M0 119c0 8 5 15 13 18l46 17v158c0 10 8 19 18 19s19 -9 19 -19v-145l83 31v158c0 10 9 19 19 19s18 -9 18 -19v-145l32 12c2 1 5 1 7 1c11 0 20 -9 20 -20v-60c0 -8 -5 -16 -13 -19l-46 -16v-160l32 11c2 1 5 1 7 1c11 0 20 -9 20 -20v-60c0 -8 -5 -15 -13 -18l-46 -17
v-158c0 -10 -8 -19 -18 -19s-19 9 -19 19v145l-83 -31v-158c0 -10 -9 -19 -19 -19s-18 9 -18 19v145l-32 -12c-2 -1 -5 -1 -7 -1c-11 0 -20 9 -20 20v60c0 8 5 16 13 19l46 16v160l-32 -11c-2 -1 -5 -1 -7 -1c-11 0 -20 9 -20 20v60zM179 95l-83 -30v-160l83 30v160z" fill="currentColor"/>
</g>
<g transform="translate(13.2906, 23.4017)">
<path transform="scale(0.0040, -0.0040)" d="M0 119c0 8 5 15 13 18l46 17v158c0 10 8 19 18 19s19 -9 19 -19v-145l83 31v158c0 10 9 19 19 19s18 -9 18 -19v-145l32 12c2 1 5 1 7 1c11 0 20 -9 20 -20v-60c0 -8 -5 -16 -13 -19l-46 -16v-160l32 11c2 1 5 1 7 1c11 0 20 -9 20 -20v-60c0 -8 -5 -15 -13 -18l-46 -17
v-158c0 -10 -8 -19 -18 -19s-19 9 -19 19v145l-83 -31v-158c0 -10 -9 -19 -19 -19s-18 9 -18 19v145l-32 -12c-2 -1 -5 -1 -7 -1c-11 0 -20 9 -20 20v60c0 8 5 16 13 19l46 16v160l-32 -11c-2 -1 -5 -1 -7 -1c-11 0 -20 9 -20 20v60zM179 95l-83 -30v-160l83 30v160z" fill="currentColor"/>
</g>
<g transform="translate(44.2620, 22.4017)">
<path transform="scale(0.0040, -0.0040)" d="M218 136c66 0 108 -36 108 -89c0 -89 -113 -183 -218 -183c-66 0 -108 36 -108 89c0 89 113 183 218 183z" fill="currentColor"/>
</g>
<g transform="translate(44.2620, 23.9017)">
<path transform="scale(0.0040, -0.0040)" d="M218 136c66 0 108 -36 108 -89c0 -89 -113 -183 -218 -183c-66 0 -108 36 -108 89c0 89 113 183 218 183z" fill="currentColor"/>
</g>
<g transform="translate(6.4906, 22.4017)">
<path transform="scale(0.0040, -0.0040)" d="M557 -125c0 28 23 51 51 51s51 -23 51 -51s-23 -51 -51 -51s-51 23 -51 51zM557 125c0 28 23 51 51 51s51 -23 51 -51s-23 -51 -51 -51s-51 23 -51 51zM232 263c172 0 293 -88 293 -251c0 -263 -263 -414 -516 -521c-3 -3 -6 -4 -9 -4c-7 0 -13 6 -13 13c0 3 1 6 4 9
c202 118 412 265 412 493c0 120 -63 235 -171 235c-74 0 -129 -54 -154 -126c11 5 22 8 34 8c55 0 100 -45 100 -100c0 -58 -44 -106 -100 -106c-60 0 -112 47 -112 106c0 133 102 244 232 244z" fill="currentColor"/>
</g>
<g transform="translate(46.0162, 9.1329)">
<path transform="scale(0.0040, -0.0040)" d="M0 0c0 31 25 56 56 56s56 -25 56 -56s-25 -56 -56 -56s-56 25 -56 56z" fill="currentColor"/>
</g>
<g transform="translate(45.5012, 9.6329)">
<rect x="-0.0650" y="-3.1861" width="0.1300" height="3.0000" ry="0.0400" fill="currentColor"/>
</g>
<g transform="translate(44.3270, 9.6329)">
<rect x="-0.0650" y="2.2590" width="0.1300" height="3.2410" ry="0.0400" fill="currentColor"/>
</g>
<g transform="translate(45.5012, 23.4017)">
<rect x="-0.0650" y="-4.0000" width="0.1300" height="2.8139" ry="0.0400" fill="currentColor"/>
</g>
<g transform="translate(44.3270, 23.4017)">
<rect x="-0.0650" y="0.6861" width="0.1300" height="2.1239" ry="0.0400" fill="currentColor"/>
</g>
<g transform="translate(42.8643, 22.4017)">
<path transform="scale(0.0040, -0.0040)" d="M152 0c23 -23 56 -28 89 -28c6 0 10 -4 10 -10l9 -87c1 -6 -4 -11 -10 -10l-87 9c-5 1 -10 5 -10 10c0 33 -5 66 -28 89c-23 -23 -27 -56 -27 -89c0 -5 -5 -9 -10 -10l-88 -9c-6 -1 -11 4 -10 10l9 87c0 6 4 10 10 10c33 0 66 5 89 28c-23 23 -56 28 -89 28
c-6 0 -10 4 -10 10l-9 87c-1 6 4 11 10 10l88 -9c5 -1 9 -5 9 -10c0 -33 5 -66 28 -89c23 23 28 56 28 89c0 5 5 9 10 10l87 9c6 1 11 -4 10 -10l-9 -87c0 -6 -4 -10 -10 -10c-33 0 -66 -5 -89 -28z" fill="currentColor"/>
</g>
<g transform="translate(48.4317, 23.9017)">
<path transform="scale(0.0040, -0.0040)" d="M218 136c66 0 108 -36 108 -89c0 -89 -113 -183 -218 -183c-66 0 -108 36 -108 89c0 89 113 183 218 183z" fill="currentColor"/>
</g>
<g transform="translate(48.4967, 23.4017)">
<rect x="-0.0650" y="0.6861" width="0.1300" height="2.1239" ry="0.0400" fill="currentColor"/>
</g>
<g transform="translate(50.4645, 10.1329)">
<path transform="scale(0.0040, -0.0040)" d="M218 136c66 0 108 -36 108 -89c0 -89 -113 -183 -218 -183c-66 0 -108 36 -108 89c0 89 113 183 218 183z" fill="currentColor"/>
</g>
<g transform="translate(51.7037, 9.6329)">
<rect x="-0.0650" y="-2.8139" width="0.1300" height="3.1278" ry="0.0400" fill="currentColor"/>
</g>
<g transform="translate(53.2014, 10.6329)">
<path transform="scale(0.0040, -0.0040)" d="M218 136c66 0 108 -36 108 -89c0 -89 -113 -183 -218 -183c-66 0 -108 36 -108 89c0 89 113 183 218 183z" fill="currentColor"/>
</g>
<g transform="translate(53.2014, 21.9017)">
<path transform="scale(0.0040, -0.0040)" d="M218 136c66 0 108 -36 108 -89c0 -89 -113 -183 -218 -183c-66 0 -108 36 -108 89c0 89 113 183 218 183z" fill="currentColor"/>
</g>
<g transform="translate(53.2014, 23.9017)">
<path transform="scale(0.0040, -0.0040)" d="M218 136c66 0 108 -36 108 -89c0 -89 -113 -183 -218 -183c-66 0 -108 36 -108 89c0 89 113 183 218 183z" fill="currentColor"/>
</g>
<g transform="translate(54.4406, 9.6329)">
<rect x="-0.0650" y="-2.5000" width="0.1300" height="3.3139" ry="0.0400" fill="currentColor"/>
</g>
<g transform="translate(54.4406, 23.4017)">
<rect x="-0.0650" y="-4.3333" width="0.1300" height="2.6472" ry="0.0400" fill="currentColor"/>
</g>
<g transform="translate(53.2664, 23.4017)">
<rect x="-0.0650" y="0.6861" width="0.1300" height="2.1239" ry="0.0400" fill="currentColor"/>
</g>
<g transform="translate(57.3712, 23.9017)">
<path transform="scale(0.0040, -0.0040)" d="M218 136c66 0 108 -36 108 -89c0 -89 -113 -183 -218 -183c-66 0 -108 36 -108 89c0 89 113 183 218 183z" fill="currentColor"/>
</g>
<g transform="translate(57.4362, 23.4017)">
<rect x="-0.0650" y="0.6861" width="0.1300" height="2.1239" ry="0.0400" fill="currentColor"/>
</g>
<g transform="translate(61.5409, 11.1329)">
<path transform="scale(0.0040, -0.0040)" d="M218 136c66 0 108 -36 108 -89c0 -89 -113 -183 -218 -183c-66 0 -108 36 -108 89c0 89 113 183 218 183z" fill="currentColor"/>
</g>
<g transform="translate(61.5409, 12.6329)">
<path transform="scale(0.0040, -0.0040)" d="M218 136c66 0 108 -36 108 -89c0 -89 -113 -183 -218 -183c-66 0 -108 36 -108 89c0 89 113 183 218 183z" fill="currentColor"/>
</g>
<g transform="translate(61.5409, 23.9017)">
<path transform="scale(0.0040, -0.0040)" d="M218 136c66 0 108 -36 108 -89c0 -89 -113 -183 -218 -183c-66 0 -108 36 -108 89c0 89 113 183 218 183z" fill="currentColor"/>
</g>
<g transform="translate(62.7801, 9.6329)">
<rect x="-0.0650" y="-2.0000" width="0.1300" height="3.3139" ry="0.0400" fill="currentColor"/>
</g>
<g transform="translate(61.6059, 9.6329)">
<rect x="-0.0650" y="3.1861" width="0.1300" height="2.3139" ry="0.0400" fill="currentColor"/>
</g>
<g transform="translate(61.6059, 23.4017)">
<rect x="-0.0650" y="0.6861" width="0.1300" height="2.1239" ry="0.0400" fill="currentColor"/>
</g>
<g transform="translate(65.7106, 23.9017)">
<path transform="scale(0.0040, -0.0040)" d="M218 136c66 0 108 -36 108 -89c0 -89 -113 -183 -218 -183c-66 0 -108 36 -108 89c0 89 113 183 218 183z" fill="currentColor"/>
</g>
<g transform="translate(65.7756, 23.4017)">
<rect x="-0.0650" y="0.6861" width="0.1300" height="2.1239" ry="0.0400" fill="currentColor"/>
</g>
<g transform="translate(71.0403, 11.6329)">
<path transform="scale(0.0040, -0.0040)" d="M218 136c66 0 108 -36 108 -89c0 -89 -113 -183 -218 -183c-66 0 -108 36 -108 89c0 89 113 183 218 183z" fill="currentColor"/>
</g>
<g transform="translate(71.0403, 14.1329)">
<path transform="scale(0.0040, -0.0040)" d="M218 136c66 0 108 -36 108 -89c0 -89 -113 -183 -218 -183c-66 0 -108 36 -108 89c0 89 113 183 218 183z" fill="currentColor"/>
</g>
<g transform="translate(71.0403, 12.6329)">
<path transform="scale(0.0040, -0.0040)" d="M218 136c66 0 108 -36 108 -89c0 -89 -113 -183 -218 -183c-66 0 -108 36 -108 89c0 89 113 183 218 183z" fill="currentColor"/>
</g>
<g transform="translate(9.9906, 7.6329)">
<path transform="scale(0.0040, -0.0040)" d="M0 119c0 8 5 15 13 18l46 17v158c0 10 8 19 18 19s19 -9 19 -19v-145l83 31v158c0 10 9 19 19 19s18 -9 18 -19v-145l32 12c2 1 5 1 7 1c11 0 20 -9 20 -20v-60c0 -8 -5 -16 -13 -19l-46 -16v-160l32 11c2 1 5 1 7 1c11 0 20 -9 20 -20v-60c0 -8 -5 -15 -13 -18l-46 -17
v-158c0 -10 -8 -19 -18 -19s-19 9 -19 19v145l-83 -31v-158c0 -10 -9 -19 -19 -19s-18 9 -18 19v145l-32 -12c-2 -1 -5 -1 -7 -1c-11 0 -20 9 -20 20v60c0 8 5 16 13 19l46 16v160l-32 -11c-2 -1 -5 -1 -7 -1c-11 0 -20 9 -20 20v60zM179 95l-83 -30v-160l83 30v160z" fill="currentColor"/>
</g>
<g transform="translate(11.0906, 9.1329)">
<path transform="scale(0.0040, -0.0040)" d="M0 119c0 8 5 15 13 18l46 17v158c0 10 8 19 18 19s19 -9 19 -19v-145l83 31v158c0 10 9 19 19 19s18 -9 18 -19v-145l32 12c2 1 5 1 7 1c11 0 20 -9 20 -20v-60c0 -8 -5 -16 -13 -19l-46 -16v-160l32 11c2 1 5 1 7 1c11 0 20 -9 20 -20v-60c0 -8 -5 -15 -13 -18l-46 -17
v-158c0 -10 -8 -19 -18 -19s-19 9 -19 19v145l-83 -31v-158c0 -10 -9 -19 -19 -19s-18 9 -18 19v145l-32 -12c-2 -1 -5 -1 -7 -1c-11 0 -20 9 -20 20v60c0 8 5 16 13 19l46 16v160l-32 -11c-2 -1 -5 -1 -7 -1c-11 0 -20 9 -20 20v60zM179 95l-83 -30v-160l83 30v160z" fill="currentColor"/>
</g>
<g transform="translate(12.1906, 7.1329)">
<path transform="scale(0.0040, -0.0040)" d="M0 119c0 8 5 15 13 18l46 17v158c0 10 8 19 18 19s19 -9 19 -19v-145l83 31v158c0 10 9 19 19 19s18 -9 18 -19v-145l32 12c2 1 5 1 7 1c11 0 20 -9 20 -20v-60c0 -8 -5 -16 -13 -19l-46 -16v-160l32 11c2 1 5 1 7 1c11 0 20 -9 20 -20v-60c0 -8 -5 -15 -13 -18l-46 -17
v-158c0 -10 -8 -19 -18 -19s-19 9 -19 19v145l-83 -31v-158c0 -10 -9 -19 -19 -19s-18 9 -18 19v145l-32 -12c-2 -1 -5 -1 -7 -1c-11 0 -20 9 -20 20v60c0 8 5 16 13 19l46 16v160l-32 -11c-2 -1 -5 -1 -7 -1c-11 0 -20 9 -20 20v60zM179 95l-83 -30v-160l83 30v160z" fill="currentColor"/>
</g>
<g transform="translate(13.2906, 8.6329)">
<path transform="scale(0.0040, -0.0040)" d="M0 119c0 8 5 15 13 18l46 17v158c0 10 8 19 18 19s19 -9 19 -19v-145l83 31v158c0 10 9 19 19 19s18 -9 18 -19v-145l32 12c2 1 5 1 7 1c11 0 20 -9 20 -20v-60c0 -8 -5 -16 -13 -19l-46 -16v-160l32 11c2 1 5 1 7 1c11 0 20 -9 20 -20v-60c0 -8 -5 -15 -13 -18l-46 -17
v-158c0 -10 -8 -19 -18 -19s-19 9 -19 19v145l-83 -31v-158c0 -10 -9 -19 -19 -19s-18 9 -18 19v145l-32 -12c-2 -1 -5 -1 -7 -1c-11 0 -20 9 -20 20v60c0 8 5 16 13 19l46 16v160l-32 -11c-2 -1 -5 -1 -7 -1c-11 0 -20 9 -20 20v60zM179 95l-83 -30v-160l83 30v160z" fill="currentColor"/>
</g>
<g transform="translate(6.4906, 10.6329)">
<path transform="scale(0.0040, -0.0040)" d="M266 -635h-6c-108 0 -195 88 -195 197c0 58 53 103 112 103c54 0 95 -47 95 -103c0 -52 -43 -95 -95 -95c-11 0 -21 2 -31 6c26 -39 68 -65 117 -65h4zM461 -203c68 24 113 90 113 164c0 90 -66 179 -173 190c19 -89 48 -242 60 -354zM74 28c0 -145 141 -247 264 -247
c1 0 47 0 82 6c-7 64 -29 203 -63 364c-79 -8 -124 -61 -124 -119c0 -44 25 -91 81 -123c5 -5 7 -10 7 -15c0 -11 -10 -22 -22 -22c-15 0 -126 62 -126 187c0 88 58 174 160 197c-14 58 -29 117 -46 175c-107 -121 -213 -243 -213 -403zM250 553c-29 96 -52 170 -52 346
c0 115 55 224 149 292c6 5 14 5 20 0c68 -80 133 -245 133 -358c0 -143 -86 -255 -180 -364c21 -68 39 -138 56 -207c2 0 7 1 13 1c155 0 256 -128 256 -261c0 -113 -74 -212 -180 -246c3 -35 5 -70 5 -105c0 -19 -1 -39 -2 -58c-7 -119 -88 -225 -202 -228l1 43
c93 2 153 92 159 191c1 18 2 37 2 55c0 31 -1 61 -4 92c-5 -1 -44 -8 -89 -8c-193 0 -333 180 -333 374c0 177 131 306 248 441zM428 916c0 34 1 66 -20 129c-99 -48 -162 -149 -162 -259c0 -52 12 -115 36 -194c80 97 146 198 146 324z" fill="currentColor"/>
</g>
<g transform="translate(71.0403, 23.9017)">
<path transform="scale(0.0040, -0.0040)" d="M218 136c66 0 108 -36 108 -89c0 -89 -113 -183 -218 -183c-66 0 -108 36 -108 89c0 89 113 183 218 183z" fill="currentColor"/>
</g>
<g transform="translate(71.0403, 23.9017)">
<path transform="scale(0.0040, -0.0040)" d="M218 136c66 0 108 -36 108 -89c0 -89 -113 -183 -218 -183c-66 0 -108 36 -108 89c0 89 113 183 218 183z" fill="currentColor"/>
</g>
<g transform="translate(72.7945, 11.1329)">
<path transform="scale(0.0040, -0.0040)" d="M0 0c0 31 25 56 56 56s56 -25 56 -56s-25 -56 -56 -56s-56 25 -56 56z" fill="currentColor"/>
</g>
<g transform="translate(72.2795, 9.6329)">
<rect x="-0.0650" y="-1.1861" width="0.1300" height="3.0000" ry="0.0400" fill="currentColor"/>
</g>
<g transform="translate(71.1053, 9.6329)">
<rect x="-0.0650" y="3.1861" width="0.1300" height="3.8139" ry="0.0400" fill="currentColor"/>
</g>
<g transform="translate(72.2795, 23.4017)">
<rect x="-0.0650" y="-2.8100" width="0.1300" height="3.1239" ry="0.0400" fill="currentColor"/>
</g>
<g transform="translate(71.1053, 23.4017)">
<rect x="-0.0650" y="0.6861" width="0.1300" height="2.9806" ry="0.0400" fill="currentColor"/>
</g>
<g transform="translate(75.2100, 23.9017)">
<path transform="scale(0.0040, -0.0040)" d="M218 136c66 0 108 -36 108 -89c0 -89 -113 -183 -218 -183c-66 0 -108 36 -108 89c0 89 113 183 218 183z" fill="currentColor"/>
</g>
<g transform="translate(76.4492, 23.4017)">
<rect x="-0.0650" y="-2.8100" width="0.1300" height="3.1239" ry="0.0400" fill="currentColor"/>
</g>
<g transform="translate(77.2427, 12.6329)">
<path transform="scale(0.0040, -0.0040)" d="M218 136c66 0 108 -36 108 -89c0 -89 -113 -183 -218 -183c-66 0 -108 36 -108 89c0 89 113 183 218 183z" fill="currentColor"/>
</g>
<g transform="translate(78.4820, 9.6329)">
<rect x="-0.0650" y="-0.8139" width="0.1300" height="3.6278" ry="0.0400" fill="currentColor"/>
</g>
<g transform="translate(79.9797, 14.1329)">
<path transform="scale(0.0040, -0.0040)" d="M218 136c66 0 108 -36 108 -89c0 -89 -113 -183 -218 -183c-66 0 -108 36 -108 89c0 89 113 183 218 183z" fill="currentColor"/>
</g>
<g transform="translate(79.9797, 12.6329)">
<path transform="scale(0.0040, -0.0040)" d="M218 136c66 0 108 -36 108 -89c0 -89 -113 -183 -218 -183c-66 0 -108 36 -108 89c0 89 113 183 218 183z" fill="currentColor"/>
</g>
<g transform="translate(79.9797, 23.9017)">
<path transform="scale(0.0040, -0.0040)" d="M218 136c66 0 108 -36 108 -89c0 -89 -113 -183 -218 -183c-66 0 -108 36 -108 89c0 89 113 183 218 183z" fill="currentColor"/>
</g>
<g transform="translate(81.2839, 24.4017)">
<path transform="scale(0.0040, -0.0040)" d="M218 136c66 0 108 -36 108 -89c0 -89 -113 -183 -218 -183c-66 0 -108 36 -108 89c0 89 113 183 218 183z" fill="currentColor"/>
</g>
<g transform="translate(81.2189, 9.6329)">
<rect x="-0.0650" y="-0.5000" width="0.1300" height="4.8139" ry="0.0400" fill="currentColor"/>
</g>
<g transform="translate(81.2189, 23.4017)">
<rect x="-0.0650" y="-2.8100" width="0.1300" height="3.1239" ry="0.0400" fill="currentColor"/>
</g>
<g transform="translate(81.3489, 23.4017)">
<rect x="-0.0650" y="1.1861" width="0.1300" height="2.8139" ry="0.0400" fill="currentColor"/>
</g>
<g transform="translate(84.1494, 23.9017)">
<path transform="scale(0.0040, -0.0040)" d="M218 136c66 0 108 -36 108 -89c0 -89 -113 -183 -218 -183c-66 0 -108 36 -108 89c0 89 113 183 218 183z" fill="currentColor"/>
</g>
<g transform="translate(85.3886, 23.4017)">
<rect x="-0.0650" y="-2.8100" width="0.1300" height="3.1239" ry="0.0400" fill="currentColor"/>
</g>
<g transform="translate(88.3192, 14.6329)">
<path transform="scale(0.0040, -0.0040)" d="M218 136c66 0 108 -36 108 -89c0 -89 -113 -183 -218 -183c-66 0 -108 36 -108 89c0 89 113 183 218 183z" fill="currentColor"/>
</g>
<g transform="translate(88.3192, 12.6329)">
<path transform="scale(0.0040, -0.0040)" d="M218 136c66 0 108 -36 108 -89c0 -89 -113 -183 -218 -183c-66 0 -108 36 -108 89c0 89 113 183 218 183z" fill="currentColor"/>
</g>
<g transform="translate(88.3192, 11.1329)">
<path transform="scale(0.0040, -0.0040)" d="M218 136c66 0 108 -36 108 -89c0 -89 -113 -183 -218 -183c-66 0 -108 36 -108 89c0 89 113 183 218 183z" fill="currentColor"/>
</g>
<g transform="translate(88.3192, 23.9017)">
<path transform="scale(0.0040, -0.0040)" d="M218 136c66 0 108 -36 108 -89c0 -89 -113 -183 -218 -183c-66 0 -108 36 -108 89c0 89 113 183 218 183z" fill="currentColor"/>
</g>
<g transform="translate(88.3192, 24.9017)">
<path transform="scale(0.0040, -0.0040)" d="M218 136c66 0 108 -36 108 -89c0 -89 -113 -183 -218 -183c-66 0 -108 36 -108 89c0 89 113 183 218 183z" fill="currentColor"/>
</g>
<g transform="translate(89.5584, 9.6329)">
<rect x="-0.0650" y="-2.0000" width="0.1300" height="6.8139" ry="0.0400" fill="currentColor"/>
</g>
<g transform="translate(89.5584, 23.4017)">
<rect x="-0.0650" y="-2.8100" width="0.1300" height="3.1239" ry="0.0400" fill="currentColor"/>
</g>
<g transform="translate(88.3842, 23.4017)">
<rect x="-0.0650" y="1.6861" width="0.1300" height="2.6472" ry="0.0400" fill="currentColor"/>
</g>
<g transform="translate(92.4889, 23.9017)">
<path transform="scale(0.0040, -0.0040)" d="M218 136c66 0 108 -36 108 -89c0 -89 -113 -183 -218 -183c-66 0 -108 36 -108 89c0 89 113 183 218 183z" fill="currentColor"/>
</g>
<g transform="translate(93.7281, 23.4017)">
<rect x="-0.0650" y="-2.8100" width="0.1300" height="3.1239" ry="0.0400" fill="currentColor"/>
</g>
<g transform="translate(98.2411, 11.6329)">
<path transform="scale(0.0040, -0.0040)" d="M218 136c66 0 108 -36 108 -89c0 -89 -113 -183 -218 -183c-66 0 -108 36 -108 89c0 89 113 183 218 183z" fill="currentColor"/>
</g>
<g transform="translate(98.2411, 15.1329)">
<path transform="scale(0.0040, -0.0040)" d="M314 65c0 23 -19 41 -42 41c-39 0 -204 -110 -231 -143c-7 -8 -10 -18 -10 -28c0 -23 19 -41 42 -41c39 0 203 110 230 143c7 8 11 18 11 28zM262 136c41 0 82 -14 82 -71c0 -26 -16 -112 -74 -151c-25 -17 -87 -50 -187 -50c-41 0 -83 14 -83 71c0 26 16 112 74 151
c25 17 88 50 188 50z" fill="currentColor"/>
</g>
<g transform="translate(98.2411, 14.1329)">
<path transform="scale(0.0040, -0.0040)" d="M314 65c0 23 -19 41 -42 41c-39 0 -204 -110 -231 -143c-7 -8 -10 -18 -10 -28c0 -23 19 -41 42 -41c39 0 203 110 230 143c7 8 11 18 11 28zM262 136c41 0 82 -14 82 -71c0 -26 -16 -112 -74 -151c-25 -17 -87 -50 -187 -50c-41 0 -83 14 -83 71c0 26 16 112 74 151
c25 17 88 50 188 50z" fill="currentColor"/>
</g>
<g transform="translate(98.9297, 18.1089)">
<path transform="scale(0.0040, -0.0040)" d="M-67 -48c0 37 30 67 67 67s67 -30 67 -67s-30 -67 -67 -67s-67 30 -67 67zM0 -363c-255 0 -332 331 -332 366c0 9 10 15 19 15s17 -5 19 -18c26 -148 146 -262 294 -262s268 114 294 262c2 13 10 18 19 18s19 -6 19 -15c0 -35 -77 -366 -332 -366z" fill="currentColor"/>
</g>
<g transform="translate(98.2411, 27.4017)">
<path transform="scale(0.0040, -0.0040)" d="M314 65c0 23 -19 41 -42 41c-39 0 -204 -110 -231 -143c-7 -8 -10 -18 -10 -28c0 -23 19 -41 42 -41c39 0 203 110 230 143c7 8 11 18 11 28zM262 136c41 0 82 -14 82 -71c0 -26 -16 -112 -74 -151c-25 -17 -87 -50 -187 -50c-41 0 -83 14 -83 71c0 26 16 112 74 151
c25 17 88 50 188 50z" fill="currentColor"/>
</g>
<g transform="translate(98.2411, 25.4017)">
<path transform="scale(0.0040, -0.0040)" d="M314 65c0 23 -19 41 -42 41c-39 0 -204 -110 -231 -143c-7 -8 -10 -18 -10 -28c0 -23 19 -41 42 -41c39 0 203 110 230 143c7 8 11 18 11 28zM262 136c41 0 82 -14 82 -71c0 -26 -16 -112 -74 -151c-25 -17 -87 -50 -187 -50c-41 0 -83 14 -83 71c0 26 16 112 74 151
c25 17 88 50 188 50z" fill="currentColor"/>
</g>
<g transform="translate(98.2411, 23.9017)">
<path transform="scale(0.0040, -0.0040)" d="M314 65c0 23 -19 41 -42 41c-39 0 -204 -110 -231 -143c-7 -8 -10 -18 -10 -28c0 -23 19 -41 42 -41c39 0 203 110 230 143c7 8 11 18 11 28zM262 136c41 0 82 -14 82 -71c0 -26 -16 -112 -74 -151c-25 -17 -87 -50 -187 -50c-41 0 -83 14 -83 71c0 26 16 112 74 151
c25 17 88 50 188 50z" fill="currentColor"/>
</g>
<g transform="translate(98.9297, 28.4227)">
<path transform="scale(0.0040, -0.0040)" d="M-67 -48c0 37 30 67 67 67s67 -30 67 -67s-30 -67 -67 -67s-67 30 -67 67zM0 -363c-255 0 -332 331 -332 366c0 9 10 15 19 15s17 -5 19 -18c26 -148 146 -262 294 -262s268 114 294 262c2 13 10 18 19 18s19 -6 19 -15c0 -35 -77 -366 -332 -366z" fill="currentColor"/>
</g>
<g transform="translate(5.6306, 16.5173)">
<rect x="0.0000" y="-8.9344" width="0.1600" height="17.8688" ry="0.0500" fill="currentColor"/>
</g>
<g transform="translate(99.4803, 9.6329)">
<rect x="-0.0650" y="-0.8000" width="0.1300" height="2.6139" ry="0.0400" fill="currentColor"/>
</g>
<g transform="translate(100.0684, 15.1329)">
<path transform="scale(0.0040, -0.0040)" d="M0 0c0 31 25 56 56 56s56 -25 56 -56s-25 -56 -56 -56s-56 25 -56 56z" fill="currentColor"/>
</g>
<g transform="translate(98.3061, 9.6329)">
<rect x="-0.0650" y="4.7590" width="0.1300" height="3.2410" ry="0.0400" fill="currentColor"/>
</g>
<g transform="translate(100.0684, 14.1329)">
<path transform="scale(0.0040, -0.0040)" d="M0 0c0 31 25 56 56 56s56 -25 56 -56s-25 -56 -56 -56s-56 25 -56 56z" fill="currentColor"/>
</g>
<g transform="translate(100.0684, 26.9017)">
<path transform="scale(0.0040, -0.0040)" d="M0 0c0 31 25 56 56 56s56 -25 56 -56s-25 -56 -56 -56s-56 25 -56 56z" fill="currentColor"/>
</g>
<g transform="translate(99.5534, 23.4017)">
<rect x="-0.0650" y="-3.0000" width="0.1300" height="6.7410" ry="0.0400" fill="currentColor"/>
</g>
<g transform="translate(100.0684, 24.9017)">
<path transform="scale(0.0040, -0.0040)" d="M0 0c0 31 25 56 56 56s56 -25 56 -56s-25 -56 -56 -56s-56 25 -56 56z" fill="currentColor"/>
</g>
<g transform="translate(100.0684, 23.9017)">
<path transform="scale(0.0040, -0.0040)" d="M0 0c0 31 25 56 56 56s56 -25 56 -56s-25 -56 -56 -56s-56 25 -56 56z" fill="currentColor"/>
</g>
<g transform="translate(5.3306, 16.5173)">
<path transform="scale(0.0040, -0.0040)" d="M-88 -500c0 340 -164 496 -164 500s164 160 164 500c0 356 -144 672 -144 1072c0 248 60 484 220 672c16 20 40 -4 24 -24c-120 -140 -160 -316 -160 -496c0 -348 136 -664 136 -1056c0 -244 -56 -480 -212 -668c156 -188 212 -424 212 -668c0 -392 -136 -708 -136 -1056
c0 -180 40 -356 160 -496c16 -20 -8 -44 -24 -24c-160 188 -220 424 -220 672c0 400 144 716 144 1072z" fill="currentColor"/>
</g>
<g transform="translate(102.1608, 12.6329)">
<path transform="scale(0.0040, -0.0040)" d="M218 136c66 0 108 -36 108 -89c0 -89 -113 -183 -218 -183c-66 0 -108 36 -108 89c0 89 113 183 218 183z" fill="currentColor"/>
</g>
<g transform="translate(103.4000, 9.6329)">
<rect x="-0.0650" y="-0.2000" width="0.1300" height="3.0138" ry="0.0400" fill="currentColor"/>
</g>
<g transform="translate(106.3305, 12.6329)">
<path transform="scale(0.0040, -0.0040)" d="M314 65c0 23 -19 41 -42 41c-39 0 -204 -110 -231 -143c-7 -8 -10 -18 -10 -28c0 -23 19 -41 42 -41c39 0 203 110 230 143c7 8 11 18 11 28zM262 136c41 0 82 -14 82 -71c0 -26 -16 -112 -74 -151c-25 -17 -87 -50 -187 -50c-41 0 -83 14 -83 71c0 26 16 112 74 151
c25 17 88 50 188 50z" fill="currentColor"/>
</g>
<g transform="translate(107.0192, 7.1069)">
<path transform="scale(0.0040, -0.0040)" d="M-67 48c0 37 30 67 67 67s67 -30 67 -67s-30 -67 -67 -67s-67 30 -67 67zM0 363c255 0 332 -331 332 -366c0 -9 -10 -15 -19 -15s-17 5 -19 18c-26 148 -146 262 -294 262s-268 -114 -294 -262c-2 -13 -10 -18 -19 -18s-19 6 -19 15c0 35 77 366 332 366z" fill="currentColor"/>
</g>
<g transform="translate(107.6429, 9.6329)">
<rect x="-0.0650" y="-0.5000" width="0.1300" height="3.2410" ry="0.0400" fill="currentColor"/>
</g>
<g transform="translate(62.7801, 23.4017)">
<rect x="-0.0650" y="-4.6667" width="0.1300" height="2.4806" ry="0.0400" fill="currentColor"/>
</g>
<g transform="translate(14.1105, 165.5950)">
<rect x="-1.1000" y="-0.1000" width="93.4805" height="0.1000" ry="0.0000" fill="currentColor"/>
</g>
<g transform="translate(14.1105, 156.3975)">
<rect x="-1.1000" y="-0.1000" width="93.4805" height="0.1000" ry="0.0000" fill="currentColor"/>
</g>
<g transform="translate(13.0105, 158.7593)">
<rect x="0" y="-2.3619" width="0.1000" height="9.0976" ry="0.0000" fill="currentColor"/>
</g>
<g transform="translate(106.3910, 158.7593)">
<rect x="0" y="-2.3619" width="0.1000" height="9.0976" ry="0.0000" fill="currentColor"/>
</g>
<g transform="translate(14.1105, 158.7593)">
<text font-family="serif" font-size="1.9598" text-anchor="start" fill="currentColor">
<tspan>Sheet</tspan>
</text>
</g>
<g transform="translate(19.0467, 158.7593)">
<text font-family="serif" font-size="1.9598" text-anchor="start" fill="currentColor">
<tspan>music</tspan>
</text>
</g>
<g transform="translate(24.3244, 158.7593)">
<text font-family="serif" font-size="1.9598" text-anchor="start" fill="currentColor">
<tspan>from</tspan>
</text>
</g>
<g transform="translate(28.7484, 158.7593)">
<a xlink:href="http://www.MutopiaProject.org">
<rect x="0.0000" y="-0.4230" width="17.9667" height="1.7849" fill="none" stroke="none" stroke-width="0.0"/>
</a>
</g>
<g transform="translate(28.7484, 158.7593)">
<text font-family="serif" font-size="1.5552" text-anchor="start" fill="currentColor">
<tspan>www.</tspan>
</text>
</g>
<g transform="translate(32.0017, 158.7593)">
<text font-family="serif" font-size="1.9598" text-anchor="start" fill="currentColor">
<tspan>MutopiaProject</tspan>
</text>
</g>
<g transform="translate(43.7909, 158.7593)">
<text font-family="serif" font-size="1.5552" text-anchor="start" fill="currentColor">
<tspan>.org</tspan>
</text>
</g>
<g transform="translate(47.3151, 158.7593)">
<text font-family="serif" font-size="1.9598" text-anchor="start" fill="currentColor">
<tspan>•</tspan>
</text>
</g>
<g transform="translate(49.0980, 158.7593)">
<text font-family="serif" font-style="italic" font-size="1.9598" text-anchor="start" fill="currentColor">
<tspan>Free</tspan>
</text>
</g>
<g transform="translate(53.2830, 158.7593)">
<text font-family="serif" font-size="1.9598" text-anchor="start" fill="currentColor">
<tspan>to</tspan>
</text>
</g>
<g transform="translate(55.4194, 158.7593)">
<text font-family="serif" font-size="1.9598" text-anchor="start" fill="currentColor">
<tspan>download,</tspan>
</text>
</g>
<g transform="translate(64.2480, 158.7593)">
<text font-family="serif" font-size="1.9598" text-anchor="start" fill="currentColor">
<tspan>with</tspan>
</text>
</g>
<g transform="translate(68.3306, 158.7593)">
<text font-family="serif" font-size="1.9598" text-anchor="start" fill="currentColor">
<tspan>the</tspan>
</text>
</g>
<g transform="translate(71.3206, 158.7593)">
<text font-family="serif" font-style="italic" font-size="1.9598" text-anchor="start" fill="currentColor">
<tspan>freedom</tspan>
</text>
</g>
<g transform="translate(78.2371, 158.7593)">
<text font-family="serif" font-size="1.9598" text-anchor="start" fill="currentColor">
<tspan>to</tspan>
</text>
</g>
<g transform="translate(80.3736, 158.7593)">
<text font-family="serif" font-size="1.9598" text-anchor="start" fill="currentColor">
<tspan>distribute,</tspan>
</text>
</g>
<g transform="translate(88.8607, 158.7593)">
<text font-family="serif" font-size="1.9598" text-anchor="start" fill="currentColor">
<tspan>modify</tspan>
</text>
</g>
<g transform="translate(95.1626, 158.7593)">
<text font-family="serif" font-size="1.9598" text-anchor="start" fill="currentColor">
<tspan>and</tspan>
</text>
</g>
<g transform="translate(98.5965, 158.7593)">
<text font-family="serif" font-size="1.9598" text-anchor="start" fill="currentColor">
<tspan>perform.</tspan>
</text>
</g>
<g transform="translate(23.6795, 161.4593)">
<text font-family="serif" font-size="1.9598" text-anchor="start" fill="currentColor">
<tspan>Typeset</tspan>
</text>
</g>
<g transform="translate(30.3228, 161.4593)">
<text font-family="serif" font-size="1.9598" text-anchor="start" fill="currentColor">
<tspan>using</tspan>
</text>
</g>
<g transform="translate(35.1908, 161.4593)">
<a xlink:href="http://www.LilyPond.org">
<rect x="0.0000" y="-0.4230" width="12.6183" height="1.7839" fill="none" stroke="none" stroke-width="0.0"/>
</a>
</g>
<g transform="translate(35.1908, 161.4593)">
<text font-family="serif" font-size="1.5552" text-anchor="start" fill="currentColor">
<tspan>www.</tspan>
</text>
</g>
<g transform="translate(38.4441, 161.4593)">
<text font-family="serif" font-size="1.9598" text-anchor="start" fill="currentColor">
<tspan>LilyPond</tspan>
</text>
</g>
<g transform="translate(45.3849, 161.4593)">
<text font-family="serif" font-size="1.5552" text-anchor="start" fill="currentColor">
<tspan>.org</tspan>
</text>
</g>
<g transform="translate(48.4091, 161.4593)">
<text font-family="serif" font-size="1.9598" text-anchor="start" fill="currentColor">
<tspan>by</tspan>
</text>
</g>
<g transform="translate(50.9894, 161.4593)">
<text font-family="serif" font-size="1.9598" text-anchor="start" fill="currentColor">
<tspan>Guy D. Lederfein</tspan>
</text>
</g>
<g transform="translate(64.3833, 161.4593)">
<text font-family="serif" font-size="1.9598" text-anchor="start" fill="currentColor">
<tspan>.</tspan>
</text>
</g>
<g transform="translate(65.9613, 161.4593)">
<text font-family="serif" font-size="1.9598" text-anchor="start" fill="currentColor">
<tspan>Reference:</tspan>
</text>
</g>
<g transform="translate(74.9605, 161.4593)">
<text font-family="serif" font-size="1.9598" text-anchor="start" fill="currentColor">
<tspan>Mutopia-2007/09/11-1029</tspan>
</text>
</g>
<g transform="translate(15.0141, 164.1593)">
<text font-family="serif" font-size="1.5552" text-anchor="start" fill="currentColor">
<tspan>This</tspan>
</text>
</g>
<g transform="translate(18.4139, 164.1593)">
<text font-family="serif" font-size="1.5552" text-anchor="start" fill="currentColor">
<tspan>sheet</tspan>
</text>
</g>
<g transform="translate(22.2233, 164.1593)">
<text font-family="serif" font-size="1.5552" text-anchor="start" fill="currentColor">
<tspan>music</tspan>
</text>
</g>
<g transform="translate(26.5450, 164.1593)">
<text font-family="serif" font-size="1.5552" text-anchor="start" fill="currentColor">
<tspan>has</tspan>
</text>
</g>
<g transform="translate(29.2277, 164.1593)">
<text font-family="serif" font-size="1.5552" text-anchor="start" fill="currentColor">
<tspan>been</tspan>
</text>
</g>
<g transform="translate(32.7640, 164.1593)">
<text font-family="serif" font-size="1.5552" text-anchor="start" fill="currentColor">
<tspan>placed</tspan>
</text>
</g>
<g transform="translate(37.4271, 164.1593)">
<text font-family="serif" font-size="1.5552" text-anchor="start" fill="currentColor">
<tspan>in</tspan>
</text>
</g>
<g transform="translate(39.2562, 164.1593)">
<text font-family="serif" font-size="1.5552" text-anchor="start" fill="currentColor">
<tspan>the</tspan>
</text>
</g>
<g transform="translate(41.7683, 164.1593)">
<text font-family="serif" font-size="1.5552" text-anchor="start" fill="currentColor">
<tspan>public</tspan>
</text>
</g>
<g transform="translate(46.2947, 164.1593)">
<text font-family="serif" font-size="1.5552" text-anchor="start" fill="currentColor">
<tspan>domain</tspan>
</text>
</g>
<g transform="translate(51.5724, 164.1593)">
<text font-family="serif" font-size="1.5552" text-anchor="start" fill="currentColor">
<tspan>by</tspan>
</text>
</g>
<g transform="translate(53.7430, 164.1593)">
<text font-family="serif" font-size="1.5552" text-anchor="start" fill="currentColor">
<tspan>the</tspan>
</text>
</g>
<g transform="translate(56.2550, 164.1593)">
<text font-family="serif" font-size="1.5552" text-anchor="start" fill="currentColor">
<tspan>typesetter,</tspan>
</text>
</g>
<g transform="translate(63.2398, 164.1593)">
<text font-family="serif" font-size="1.5552" text-anchor="start" fill="currentColor">
<tspan>for</tspan>
</text>
</g>
<g transform="translate(65.6494, 164.1593)">
<text font-family="serif" font-size="1.5552" text-anchor="start" fill="currentColor">
<tspan>details</tspan>
</text>
</g>
<g transform="translate(70.3466, 164.1593)">
<text font-family="serif" font-size="1.5552" text-anchor="start" fill="currentColor">
<tspan>see:</tspan>
</text>
</g>
<g transform="translate(72.8708, 164.1593)">
<a xlink:href="http://creativecommons.org/licenses/publicdomain">
<rect x="0.0000" y="-0.3357" width="31.6167" height="1.4157" fill="none" stroke="none" stroke-width="0.0"/>
</a>
</g>
<g transform="translate(72.8708, 164.1593)">
<text font-family="serif" font-size="1.5552" text-anchor="start" fill="currentColor">
<tspan>http://creativecommons.org/licenses/publicdomain</tspan>
</text>
</g>
</svg>
