<svg xmlns="http://www.w3.org/2000/svg" xmlns:xlink="http://www.w3.org/1999/xlink" version="1.2" width="210.00mm" height="297.00mm" viewBox="0.0000 -0.0000 119.5016 169.0094">
<style type="text/css">
<![CDATA[
tspan { white-space: pre; }
]]>
</style>
<g transform="translate(5.6906, 4.3320)">
<text font-family="serif" font-size="2.2000" text-anchor="start" fill="currentColor">
<tspan>2</tspan>
</text>
</g>
<g transform="translate(32.8669, 24.0724)">
<rect x="0.0000" y="-2.0000" width="0.1900" height="4.0500" ry="0.0000" fill="currentColor"/>
</g>
<g transform="translate(5.6906, 26.0724)">
<line stroke-linejoin="round" stroke-linecap="round" stroke-width="0.1000" stroke="currentColor" x1="0.0500" y1="0" x2="108.0705" y2="0"/>
</g>
<g transform="translate(5.6906, 25.0724)">
<line stroke-linejoin="round" stroke-linecap="round" stroke-width="0.1000" stroke="currentColor" x1="0.0500" y1="0" x2="108.0705" y2="0"/>
</g>
<g transform="translate(5.6906, 24.0724)">
<line stroke-linejoin="round" stroke-linecap="round" stroke-width="0.1000" stroke="currentColor" x1="0.0500" y1="0" x2="108.0705" y2="0"/>
</g>
<g transform="translate(5.6906, 23.0724)">
<line stroke-linejoin="round" stroke-linecap="round" stroke-width="0.1000" stroke="currentColor" x1="0.0500" y1="0" x2="108.0705" y2="0"/>
</g>
<g transform="translate(5.6906, 22.0724)">
<line stroke-linejoin="round" stroke-linecap="round" stroke-width="0.1000" stroke="currentColor" x1="0.0500" y1="0" x2="108.0705" y2="0"/>
</g>
<g transform="translate(113.2110, 5.3320)">
<rect x="0.0000" y="20.7904" width="0.6000" height="8.0521" ry="0.0000" fill="currentColor"/>
</g>
<g transform="translate(112.7210, 5.3320)">
<rect x="0.0000" y="20.7904" width="0.1900" height="8.0521" ry="0.0000" fill="currentColor"/>
</g>
<g transform="translate(5.6906, 39.1746)">
<rect x="93.5204" y="-0.1000" width="1.9563" height="0.2000" ry="0.1000" fill="currentColor"/>
</g>
<g transform="translate(5.6906, 40.1746)">
<rect x="93.5204" y="-0.1000" width="1.9563" height="0.2000" ry="0.1000" fill="currentColor"/>
</g>
<g transform="translate(5.6906, 33.1746)">
<rect x="64.3642" y="-0.1000" width="1.9563" height="0.2000" ry="0.1000" fill="currentColor"/>
</g>
<g transform="translate(5.6906, 38.1746)">
<line stroke-linejoin="round" stroke-linecap="round" stroke-width="0.1000" stroke="currentColor" x1="0.0500" y1="0" x2="108.0705" y2="0"/>
</g>
<g transform="translate(5.6906, 37.1746)">
<line stroke-linejoin="round" stroke-linecap="round" stroke-width="0.1000" stroke="currentColor" x1="0.0500" y1="0" x2="108.0705" y2="0"/>
</g>
<g transform="translate(5.6906, 36.1746)">
<line stroke-linejoin="round" stroke-linecap="round" stroke-width="0.1000" stroke="currentColor" x1="0.0500" y1="0" x2="108.0705" y2="0"/>
</g>
<g transform="translate(5.6906, 35.1746)">
<line stroke-linejoin="round" stroke-linecap="round" stroke-width="0.1000" stroke="currentColor" x1="0.0500" y1="0" x2="108.0705" y2="0"/>
</g>
<g transform="translate(5.6906, 34.1746)">
<line stroke-linejoin="round" stroke-linecap="round" stroke-width="0.1000" stroke="currentColor" x1="0.0500" y1="0" x2="108.0705" y2="0"/>
</g>
<g transform="translate(113.2110, 36.1746)">
<rect x="0.0000" y="-2.0500" width="0.6000" height="4.1000" ry="0.0000" fill="currentColor"/>
</g>
<g transform="translate(112.7210, 36.1746)">
<rect x="0.0000" y="-2.0500" width="0.1900" height="4.1000" ry="0.0000" fill="currentColor"/>
</g>
<g transform="translate(113.2110, 24.0724)">
<rect x="0.0000" y="-2.0000" width="0.6000" height="4.0500" ry="0.0000" fill="currentColor"/>
</g>
<g transform="translate(112.7210, 24.0724)">
<rect x="0.0000" y="-2.0000" width="0.1900" height="4.0500" ry="0.0000" fill="currentColor"/>
</g>
<g transform="translate(90.9565, 5.3320)">
<rect x="0.0000" y="20.7904" width="0.1900" height="8.0521" ry="0.0000" fill="currentColor"/>
</g>
<g transform="translate(90.9565, 36.1746)">
<rect x="0.0000" y="-2.0500" width="0.1900" height="4.1000" ry="0.0000" fill="currentColor"/>
</g>
<g transform="translate(90.9565, 24.0724)">
<rect x="0.0000" y="-2.0000" width="0.1900" height="4.0500" ry="0.0000" fill="currentColor"/>
</g>
<g transform="translate(69.0721, 5.3320)">
<rect x="0.0000" y="20.7904" width="0.1900" height="8.0521" ry="0.0000" fill="currentColor"/>
</g>
<g transform="translate(69.0721, 36.1746)">
<rect x="0.0000" y="-2.0500" width="0.1900" height="4.1000" ry="0.0000" fill="currentColor"/>
</g>
<g transform="translate(69.0721, 24.0724)">
<rect x="0.0000" y="-2.0000" width="0.1900" height="4.0500" ry="0.0000" fill="currentColor"/>
</g>
<g transform="translate(5.6906, 27.0724)">
<rect x="95.9687" y="-0.1000" width="2.0660" height="0.2000" ry="0.1000" fill="currentColor"/>
</g>
<g transform="translate(5.6906, 28.0724)">
<rect x="95.9687" y="-0.1000" width="2.0660" height="0.2000" ry="0.1000" fill="currentColor"/>
</g>
<g transform="translate(5.6906, 27.0724)">
<rect x="93.5204" y="-0.1000" width="1.9563" height="0.2000" ry="0.1000" fill="currentColor"/>
</g>
<g transform="translate(5.6906, 27.0724)">
<rect x="91.1789" y="-0.1000" width="1.9563" height="0.2000" ry="0.1000" fill="currentColor"/>
</g>
<g transform="translate(5.6906, 21.0724)">
<rect x="51.6431" y="-0.1000" width="1.9563" height="0.2000" ry="0.1000" fill="currentColor"/>
</g>
<g transform="translate(5.6906, 21.0724)">
<rect x="49.1766" y="-0.1000" width="1.9563" height="0.2000" ry="0.1000" fill="currentColor"/>
</g>
<g transform="translate(5.6906, 27.0724)">
<rect x="32.3423" y="-0.1000" width="2.0660" height="0.2000" ry="0.1000" fill="currentColor"/>
</g>
<g transform="translate(5.6906, 28.0724)">
<rect x="32.3423" y="-0.1000" width="2.0660" height="0.2000" ry="0.1000" fill="currentColor"/>
</g>
<g transform="translate(5.6906, 29.0724)">
<rect x="32.3423" y="-0.1000" width="2.0660" height="0.2000" ry="0.1000" fill="currentColor"/>
</g>
<g transform="translate(5.6906, 27.0724)">
<rect x="21.9432" y="-0.1000" width="1.9563" height="0.2000" ry="0.1000" fill="currentColor"/>
</g>
<g transform="translate(5.6906, 27.0724)">
<rect x="12.3088" y="-0.1000" width="2.0660" height="0.2000" ry="0.1000" fill="currentColor"/>
</g>
<g transform="translate(5.6906, 27.0724)">
<rect x="7.3940" y="-0.1000" width="1.9563" height="0.2000" ry="0.1000" fill="currentColor"/>
</g>
<g transform="translate(51.3992, 5.3320)">
<rect x="0.0000" y="20.7904" width="0.1900" height="8.0521" ry="0.0000" fill="currentColor"/>
</g>
<g transform="translate(51.3992, 36.1746)">
<rect x="0.0000" y="-2.0500" width="0.1900" height="4.1000" ry="0.0000" fill="currentColor"/>
</g>
<g transform="translate(51.3992, 24.0724)">
<rect x="0.0000" y="-2.0000" width="0.1900" height="4.0500" ry="0.0000" fill="currentColor"/>
</g>
<g transform="translate(32.8669, 5.3320)">
<rect x="0.0000" y="20.7904" width="0.1900" height="8.0521" ry="0.0000" fill="currentColor"/>
</g>
<g transform="translate(32.8669, 36.1746)">
<rect x="0.0000" y="-2.0500" width="0.1900" height="4.1000" ry="0.0000" fill="currentColor"/>
</g>
<g transform="translate(66.5474, 23.0724)">
<path transform="scale(0.0040, -0.0040)" d="M218 136c66 0 108 -36 108 -89c0 -89 -113 -183 -218 -183c-66 0 -108 36 -108 89c0 89 113 183 218 183z" fill="currentColor"/>
</g>
<g transform="translate(13.4106, 25.5724)">
<path transform="scale(0.0040, -0.0040)" d="M218 136c66 0 108 -36 108 -89c0 -89 -113 -183 -218 -183c-66 0 -108 36 -108 89c0 89 113 183 218 183z" fill="currentColor"/>
</g>
<g transform="translate(13.4106, 24.5724)">
<path transform="scale(0.0040, -0.0040)" d="M218 136c66 0 108 -36 108 -89c0 -89 -113 -183 -218 -183c-66 0 -108 36 -108 89c0 89 113 183 218 183z" fill="currentColor"/>
</g>
<g transform="translate(13.4106, 27.0724)">
<path transform="scale(0.0040, -0.0040)" d="M218 136c66 0 108 -36 108 -89c0 -89 -113 -183 -218 -183c-66 0 -108 36 -108 89c0 89 113 183 218 183z" fill="currentColor"/>
</g>
<g transform="translate(13.4106, 35.1746)">
<path transform="scale(0.0040, -0.0040)" d="M218 136c66 0 108 -36 108 -89c0 -89 -113 -183 -218 -183c-66 0 -108 36 -108 89c0 89 113 183 218 183z" fill="currentColor"/>
</g>
<g transform="translate(13.4106, 34.1746)">
<path transform="scale(0.0040, -0.0040)" d="M218 136c66 0 108 -36 108 -89c0 -89 -113 -183 -218 -183c-66 0 -108 36 -108 89c0 89 113 183 218 183z" fill="currentColor"/>
</g>
<g transform="translate(13.6530, 33.1296)">
<path transform="scale(0.0022, -0.0022)" d="M194 486c16 0 29 15 41 15c13 0 24 -13 24 -31v-341c0 -47 35 -86 81 -86c14 0 21 -10 21 -21s-7 -22 -21 -22c-49 0 -97 14 -146 14s-96 -14 -145 -14c-14 0 -22 11 -22 22s8 21 22 21c46 0 80 39 80 86v137c0 23 -16 35 -30 35c-7 0 -13 -4 -17 -11l-34 -65
c-5 -10 -14 -15 -23 -15c-14 0 -28 12 -28 27c0 4 1 8 3 13l129 250c2 4 7 6 11 6c18 0 37 -20 54 -20z" fill="currentColor"/>
</g>
<g transform="translate(14.6498, 24.0724)">
<rect x="-0.0650" y="-2.2042" width="0.1300" height="3.5181" ry="0.0400" fill="currentColor"/>
</g>
<g transform="translate(13.6359, 19.8496)">
<path transform="scale(0.0022, -0.0022)" d="M94 66c-60 0 -39 -66 -72 -66c-11 0 -22 7 -22 21c0 154 232 162 232 334c0 50 -17 102 -61 102c-33 0 -66 -14 -66 -44c0 -24 31 -37 31 -61c0 -34 -27 -61 -61 -61s-61 27 -61 61c0 84 72 148 157 148c98 0 190 -55 190 -145c0 -140 -131 -154 -225 -205
c85 -2 113 -61 165 -61c45 0 28 41 57 41c11 0 22 -8 22 -21c0 -29 -48 -109 -144 -109c-92 0 -96 66 -142 66z" fill="currentColor"/>
</g>
<g transform="translate(13.6700, 18.2271)">
<path transform="scale(0.0022, -0.0022)" d="M261 266c0 -54 85 -40 85 -125c0 -94 -83 -141 -186 -141c-84 0 -160 54 -160 133c0 32 26 58 58 58s58 -26 58 -58c0 -22 -36 -26 -36 -48c0 -33 42 -42 80 -42c41 0 56 50 56 98v21c0 44 -2 77 -43 77h-65c-18 0 -27 14 -27 27s9 27 27 27h65c42 0 43 36 43 83v11
c0 43 -20 70 -61 70c-34 0 -71 -8 -71 -38c0 -19 32 -23 32 -42c0 -28 -23 -51 -51 -51s-51 23 -51 51c0 72 66 123 141 123c93 0 174 -31 174 -113c0 -94 -68 -67 -68 -121z" fill="currentColor"/>
</g>
<g transform="translate(13.4756, 24.0724)">
<rect x="-0.0650" y="3.1861" width="0.1300" height="2.3139" ry="0.0400" fill="currentColor"/>
</g>
<g transform="translate(13.4756, 36.1746)">
<rect x="-0.0650" y="-0.8139" width="0.1300" height="3.3139" ry="0.0400" fill="currentColor"/>
</g>
<g transform="translate(13.6359, 39.8471)">
<path transform="scale(0.0022, -0.0022)" d="M94 66c-60 0 -39 -66 -72 -66c-11 0 -22 7 -22 21c0 154 232 162 232 334c0 50 -17 102 -61 102c-33 0 -66 -14 -66 -44c0 -24 31 -37 31 -61c0 -34 -27 -61 -61 -61s-61 27 -61 61c0 84 72 148 157 148c98 0 190 -55 190 -145c0 -140 -131 -154 -225 -205
c85 -2 113 -61 165 -61c45 0 28 41 57 41c11 0 22 -8 22 -21c0 -29 -48 -109 -144 -109c-92 0 -96 66 -142 66z" fill="currentColor"/>
</g>
<g transform="translate(14.6498, 36.1746)">
<rect x="-0.0650" y="-4.6667" width="0.1300" height="2.4806" ry="0.0400" fill="currentColor"/>
</g>
<g transform="translate(16.1271, 23.5724)">
<path transform="scale(0.0040, -0.0040)" d="M218 136c66 0 108 -36 108 -89c0 -89 -113 -183 -218 -183c-66 0 -108 36 -108 89c0 89 113 183 218 183z" fill="currentColor"/>
</g>
<g transform="translate(17.3663, 24.0724)">
<rect x="-0.0650" y="-2.7958" width="0.1300" height="2.1097" ry="0.0400" fill="currentColor"/>
</g>
<g transform="translate(99.5370, 24.0724)">
<path stroke-width="0.0800" stroke-linejoin="round" stroke-linecap="round" stroke="currentColor" fill="currentColor" d="M1.6392 2.2500C1.8230 1.9881 2.0828 1.9881 2.2665 2.2500L2.2665 2.2500C2.0828 2.1081 1.8230 2.1081 1.6392 2.2500z"/>
</g>
<g transform="translate(18.3437, 26.0724)">
<path transform="scale(0.0040, -0.0040)" d="M314 65c0 23 -19 41 -42 41c-39 0 -204 -110 -231 -143c-7 -8 -10 -18 -10 -28c0 -23 19 -41 42 -41c39 0 203 110 230 143c7 8 11 18 11 28zM262 136c41 0 82 -14 82 -71c0 -26 -16 -112 -74 -151c-25 -17 -87 -50 -187 -50c-41 0 -83 14 -83 71c0 26 16 112 74 151
c25 17 88 50 188 50z" fill="currentColor"/>
</g>
<g transform="translate(18.3437, 25.0724)">
<path transform="scale(0.0040, -0.0040)" d="M314 65c0 23 -19 41 -42 41c-39 0 -204 -110 -231 -143c-7 -8 -10 -18 -10 -28c0 -23 19 -41 42 -41c39 0 203 110 230 143c7 8 11 18 11 28zM262 136c41 0 82 -14 82 -71c0 -26 -16 -112 -74 -151c-25 -17 -87 -50 -187 -50c-41 0 -83 14 -83 71c0 26 16 112 74 151
c25 17 88 50 188 50z" fill="currentColor"/>
</g>
<g transform="translate(18.3437, 27.0724)">
<path transform="scale(0.0040, -0.0040)" d="M314 65c0 23 -19 41 -42 41c-39 0 -204 -110 -231 -143c-7 -8 -10 -18 -10 -28c0 -23 19 -41 42 -41c39 0 203 110 230 143c7 8 11 18 11 28zM262 136c41 0 82 -14 82 -71c0 -26 -16 -112 -74 -151c-25 -17 -87 -50 -187 -50c-41 0 -83 14 -83 71c0 26 16 112 74 151
c25 17 88 50 188 50z" fill="currentColor"/>
</g>
<g transform="translate(18.3437, 36.6746)">
<path transform="scale(0.0040, -0.0040)" d="M218 136c66 0 108 -36 108 -89c0 -89 -113 -183 -218 -183c-66 0 -108 36 -108 89c0 89 113 183 218 183z" fill="currentColor"/>
</g>
<g transform="translate(18.3437, 34.6746)">
<path transform="scale(0.0040, -0.0040)" d="M314 65c0 23 -19 41 -42 41c-39 0 -204 -110 -231 -143c-7 -8 -10 -18 -10 -28c0 -23 19 -41 42 -41c39 0 203 110 230 143c7 8 11 18 11 28zM262 136c41 0 82 -14 82 -71c0 -26 -16 -112 -74 -151c-25 -17 -87 -50 -187 -50c-41 0 -83 14 -83 71c0 26 16 112 74 151
c25 17 88 50 188 50z" fill="currentColor"/>
</g>
<g transform="translate(18.6226, 32.7387)">
<path transform="scale(0.0022, -0.0022)" d="M194 486c16 0 29 15 41 15c13 0 24 -13 24 -31v-341c0 -47 35 -86 81 -86c14 0 21 -10 21 -21s-7 -22 -21 -22c-49 0 -97 14 -146 14s-96 -14 -145 -14c-14 0 -22 11 -22 22s8 21 22 21c46 0 80 39 80 86v137c0 23 -16 35 -30 35c-7 0 -13 -4 -17 -11l-34 -65
c-5 -10 -14 -15 -23 -15c-14 0 -28 12 -28 27c0 4 1 8 3 13l129 250c2 4 7 6 11 6c18 0 37 -20 54 -20z" fill="currentColor"/>
</g>
<g transform="translate(19.6560, 24.0724)">
<rect x="-0.0650" y="-2.5000" width="0.1300" height="4.2410" ry="0.0400" fill="currentColor"/>
</g>
<g transform="translate(18.4087, 24.0724)">
<rect x="-0.0650" y="3.2590" width="0.1300" height="2.2410" ry="0.0400" fill="currentColor"/>
</g>
<g transform="translate(18.4087, 36.1746)">
<rect x="-0.0650" y="0.6861" width="0.1300" height="2.3091" ry="0.0400" fill="currentColor"/>
</g>
<g transform="translate(18.5348, 41.7592)">
<path transform="scale(0.0022, -0.0022)" d="M148 501c10 0 41 -15 72 -15c32 0 63 15 76 15c15 0 26 -11 26 -21c0 -4 -1 -7 -4 -10l-264 -291h134v4c0 60 50 41 75 85c7 11 8 24 14 36c3 7 10 10 17 10c11 0 24 -8 24 -25v-110h70c18 0 27 -14 27 -27s-9 -27 -27 -27h-70c2 -45 36 -82 80 -82c14 0 22 -10 22 -21
s-8 -22 -22 -22c-49 0 -96 14 -145 14s-97 -14 -146 -14c-14 0 -21 11 -21 22s7 21 21 21c44 0 79 37 81 82h-134c-43 0 -57 25 -57 42c0 5 1 10 3 12c73 81 123 182 123 291c0 17 11 31 25 31z" fill="currentColor"/>
</g>
<g transform="translate(19.6560, 36.1746)">
<rect x="-0.0650" y="-4.3333" width="0.1300" height="2.5743" ry="0.0400" fill="currentColor"/>
</g>
<g transform="translate(97.1955, 36.1746)">
<path stroke-width="0.0800" stroke-linejoin="round" stroke-linecap="round" stroke="currentColor" fill="currentColor" d="M1.6392 -0.2250C2.3813 -0.9784 4.5547 -0.9784 5.2968 -0.2250L5.2968 -0.2250C4.5547 -0.8584 2.3813 -0.8584 1.6392 -0.2250z"/>
</g>
<g transform="translate(20.8102, 36.1746)">
<path transform="scale(0.0040, -0.0040)" d="M218 136c66 0 108 -36 108 -89c0 -89 -113 -183 -218 -183c-66 0 -108 36 -108 89c0 89 113 183 218 183z" fill="currentColor"/>
</g>
<g transform="translate(20.8752, 36.1746)">
<rect x="-0.0650" y="0.1861" width="0.1300" height="2.6287" ry="0.0400" fill="currentColor"/>
</g>
<g transform="translate(21.0355, 42.3431)">
<path transform="scale(0.0022, -0.0022)" d="M94 66c-60 0 -39 -66 -72 -66c-11 0 -22 7 -22 21c0 154 232 162 232 334c0 50 -17 102 -61 102c-33 0 -66 -14 -66 -44c0 -24 31 -37 31 -61c0 -34 -27 -61 -61 -61s-61 27 -61 61c0 84 72 148 157 148c98 0 190 -55 190 -145c0 -140 -131 -154 -225 -205
c85 -2 113 -61 165 -61c45 0 28 41 57 41c11 0 22 -8 22 -21c0 -29 -48 -109 -144 -109c-92 0 -96 66 -142 66z" fill="currentColor"/>
</g>
<g transform="translate(23.2767, 36.6746)">
<path transform="scale(0.0040, -0.0040)" d="M218 136c66 0 108 -36 108 -89c0 -89 -113 -183 -218 -183c-66 0 -108 36 -108 89c0 89 113 183 218 183z" fill="currentColor"/>
</g>
<g transform="translate(23.3417, 36.1746)">
<rect x="-0.0650" y="0.6861" width="0.1300" height="3.3184" ry="0.0400" fill="currentColor"/>
</g>
<g transform="translate(97.1955, 24.0724)">
<path stroke-width="0.0800" stroke-linejoin="round" stroke-linecap="round" stroke="currentColor" fill="currentColor" d="M1.1923 -1.5550C2.1606 -2.6585 4.5750 -2.9178 5.7554 -2.0450L5.7554 -2.0450C4.5878 -2.7985 2.1734 -2.5392 1.1923 -1.5550z"/>
</g>
<g transform="translate(25.7433, 37.1746)">
<path transform="scale(0.0040, -0.0040)" d="M218 136c66 0 108 -36 108 -89c0 -89 -113 -183 -218 -183c-66 0 -108 36 -108 89c0 89 113 183 218 183z" fill="currentColor"/>
</g>
<g transform="translate(25.8083, 36.1746)">
<rect x="-0.0650" y="1.1861" width="0.1300" height="2.9878" ry="0.0400" fill="currentColor"/>
</g>
<g transform="translate(98.3697, 23.2624)">
<polygon stroke-linejoin="round" stroke-linecap="round" stroke-width="0.0800" fill="currentColor" stroke="currentColor" points="2.4315 -0.3900 2.4315 0.0100 0.0400 0.2000 0.0400 -0.2000"/>
</g>
<g transform="translate(27.9598, 27.0724)">
<path transform="scale(0.0040, -0.0040)" d="M218 136c66 0 108 -36 108 -89c0 -89 -113 -183 -218 -183c-66 0 -108 36 -108 89c0 89 113 183 218 183z" fill="currentColor"/>
</g>
<g transform="translate(28.1851, 21.5224)">
<path transform="scale(0.0022, -0.0022)" d="M94 66c-60 0 -39 -66 -72 -66c-11 0 -22 7 -22 21c0 154 232 162 232 334c0 50 -17 102 -61 102c-33 0 -66 -14 -66 -44c0 -24 31 -37 31 -61c0 -34 -27 -61 -61 -61s-61 27 -61 61c0 84 72 148 157 148c98 0 190 -55 190 -145c0 -140 -131 -154 -225 -205
c85 -2 113 -61 165 -61c45 0 28 41 57 41c11 0 22 -8 22 -21c0 -29 -48 -109 -144 -109c-92 0 -96 66 -142 66z" fill="currentColor"/>
</g>
<g transform="translate(27.9598, 27.0724)">
<path transform="scale(0.0040, -0.0040)" d="M218 136c66 0 108 -36 108 -89c0 -89 -113 -183 -218 -183c-66 0 -108 36 -108 89c0 89 113 183 218 183z" fill="currentColor"/>
</g>
<g transform="translate(27.9598, 38.1746)">
<path transform="scale(0.0040, -0.0040)" d="M218 136c66 0 108 -36 108 -89c0 -89 -113 -183 -218 -183c-66 0 -108 36 -108 89c0 89 113 183 218 183z" fill="currentColor"/>
</g>
<g transform="translate(27.9598, 35.1746)">
<path transform="scale(0.0040, -0.0040)" d="M-6 78c0 59 124 83 124 182c0 24 -8 49 -25 69l-35 42c-3 3 -4 7 -4 10c0 9 9 15 17 15c4 0 8 -1 11 -5l151 -180c7 -9 10 -17 10 -25c0 -59 -124 -83 -124 -182c0 -24 7 -49 24 -69l84 -99c3 -3 4 -7 4 -10c0 -9 -8 -16 -16 -16s-45 44 -109 44c-16 0 -53 0 -53 -67
c0 -35 11 -74 28 -94c7 -8 -5 -19 -12 -11c-45 54 -92 148 -92 202c0 41 27 42 40 42c33 0 78 -13 119 -31l-132 158c-7 9 -10 17 -10 25z" fill="currentColor"/>
</g>
<g transform="translate(29.1990, 24.0724)">
<rect x="-0.0650" y="-0.5000" width="0.1300" height="3.3139" ry="0.0400" fill="currentColor"/>
</g>
<g transform="translate(28.0248, 24.0724)">
<rect x="-0.0650" y="3.1861" width="0.1300" height="2.3139" ry="0.0400" fill="currentColor"/>
</g>
<g transform="translate(28.0248, 36.1746)">
<rect x="-0.0650" y="2.1861" width="0.1300" height="2.1400" ry="0.0400" fill="currentColor"/>
</g>
<g transform="translate(85.1801, 39.9846)">
<polygon stroke-linejoin="round" stroke-linecap="round" stroke-width="0.0800" fill="currentColor" stroke="currentColor" points="3.4065 -0.8200 3.4065 -0.4200 0.0400 0.2000 0.0400 -0.2000"/>
</g>
<g transform="translate(30.4264, 37.6746)">
<path transform="scale(0.0040, -0.0040)" d="M218 136c66 0 108 -36 108 -89c0 -89 -113 -183 -218 -183c-66 0 -108 36 -108 89c0 89 113 183 218 183z" fill="currentColor"/>
</g>
<g transform="translate(30.4914, 36.1746)">
<rect x="-0.0650" y="1.6861" width="0.1300" height="2.8094" ry="0.0400" fill="currentColor"/>
</g>
<g transform="translate(93.4366, 21.2624)">
<polygon stroke-linejoin="round" stroke-linecap="round" stroke-width="0.0800" fill="currentColor" stroke="currentColor" points="2.8065 -0.8900 2.8065 -0.4900 0.0400 0.2000 0.0400 -0.2000"/>
</g>
<g transform="translate(33.9444, 25.5724)">
<path transform="scale(0.0040, -0.0040)" d="M314 65c0 23 -19 41 -42 41c-39 0 -204 -110 -231 -143c-7 -8 -10 -18 -10 -28c0 -23 19 -41 42 -41c39 0 203 110 230 143c7 8 11 18 11 28zM262 136c41 0 82 -14 82 -71c0 -26 -16 -112 -74 -151c-25 -17 -87 -50 -187 -50c-41 0 -83 14 -83 71c0 26 16 112 74 151
c25 17 88 50 188 50z" fill="currentColor"/>
</g>
<g transform="translate(33.9444, 29.0724)">
<path transform="scale(0.0040, -0.0040)" d="M-6 78c0 59 124 83 124 182c0 24 -8 49 -25 69l-35 42c-3 3 -4 7 -4 10c0 9 9 15 17 15c4 0 8 -1 11 -5l151 -180c7 -9 10 -17 10 -25c0 -59 -124 -83 -124 -182c0 -24 7 -49 24 -69l84 -99c3 -3 4 -7 4 -10c0 -9 -8 -16 -16 -16s-45 44 -109 44c-16 0 -53 0 -53 -67
c0 -35 11 -74 28 -94c7 -8 -5 -19 -12 -11c-45 54 -92 148 -92 202c0 41 27 42 40 42c33 0 78 -13 119 -31l-132 158c-7 9 -10 17 -10 25z" fill="currentColor"/>
</g>
<g transform="translate(35.9064, 38.6746)">
<path transform="scale(0.0040, -0.0040)" d="M218 136c66 0 108 -36 108 -89c0 -89 -113 -183 -218 -183c-66 0 -108 36 -108 89c0 89 113 183 218 183z" fill="currentColor"/>
</g>
<g transform="translate(33.9444, 38.6746)">
<path transform="scale(0.0040, -0.0040)" d="M213 112c-45 0 -69 -34 -69 -88c0 -102 89 -136 134 -136s69 34 69 88c0 102 -89 136 -134 136zM245 136c144 0 246 -65 246 -136s-102 -136 -246 -136s-245 65 -245 136s101 136 245 136z" fill="currentColor"/>
</g>
<g transform="translate(3.9151, 21.0020)">
<text font-family="serif" font-size="1.7459" text-anchor="start" fill="currentColor">
<tspan>20</tspan>
</text>
</g>
<g transform="translate(35.4004, 46.4400)">
<path transform="scale(0.0040, -0.0040)" d="M0 35c0 19 16 35 35 35s35 -16 35 -35s-16 -35 -35 -35s-35 16 -35 35z" fill="currentColor"/>
</g>
<g transform="translate(32.2084, 46.4400)">
<path transform="scale(0.0040, -0.0040)" d="M43 339c0 -34 27 -48 39 -48c22 0 43 28 43 59c0 8 18 8 18 0c0 -63 -41 -125 -83 -125c-22 0 -61 24 -61 78c0 82 90 197 251 197c108 0 166 -82 166 -144c0 -46 -31 -67 -52 -67c-35 0 -68 49 -87 90c-3 7 13 14 16 7c8 -18 28 -32 46 -32c15 0 32 12 32 36
c0 39 -44 92 -121 92h-7c-7 -14 -39 -93 -39 -108c0 -46 100 -114 100 -164c0 -19 -31 -56 -58 -90c29 -3 83 -28 102 -44c7 -6 10 -4 57 31c-5 23 -6 36 -6 48c0 65 35 132 96 132c32 0 49 -23 49 -45c0 -37 -43 -80 -79 -110l-11 -9c18 -33 44 -80 65 -69c9 5 47 33 63 47
c-4 14 -6 28 -6 42c0 55 45 112 97 137c-51 71 -129 126 -208 140c-8 1 -5 19 3 18c175 -31 332 -171 332 -296c0 -70 -50 -142 -113 -142c-43 0 -81 37 -99 82c-51 -47 -88 -81 -115 -81c-14 0 -38 -1 -62 85c-1 -1 -85 -71 -106 -82c-37 -20 -37 87 -74 98
c-25 -30 -47 -57 -56 -66c-11 -11 -64 -36 -65 -36h1c-7 0 -14 5 -14 12c0 30 87 103 125 108c28 33 30 38 30 49c0 47 -88 111 -88 150c0 21 44 135 60 162c-113 -10 -181 -88 -181 -142zM475 254c-22 0 -43 -16 -43 -55c0 -20 6 -42 14 -60c23 20 63 53 63 83
c0 17 -14 32 -34 32zM683 265c-37 -21 -55 -77 -55 -122c0 -48 18 -108 59 -108c32 0 45 39 45 81c0 14 -1 74 -49 149z" fill="currentColor"/>
</g>
<g transform="translate(35.2567, 24.0724)">
<rect x="-0.0650" y="-2.0000" width="0.1300" height="3.2410" ry="0.0400" fill="currentColor"/>
</g>
<g transform="translate(35.9714, 36.1746)">
<rect x="-0.0650" y="2.6861" width="0.1300" height="2.3139" ry="0.0400" fill="currentColor"/>
</g>
<g transform="translate(10.1106, 37.1746)">
<path transform="scale(0.0040, -0.0040)" d="M27 41l-1 -66v-11c0 -22 1 -44 4 -66c45 38 93 80 93 139c0 33 -14 67 -43 67c-31 0 -52 -30 -53 -63zM-15 -138l-12 595c8 5 18 8 27 8s19 -3 27 -8l-7 -345c25 21 58 34 91 34c52 0 89 -48 89 -102c0 -80 -86 -117 -147 -169c-15 -13 -24 -38 -45 -38
c-13 0 -23 11 -23 25z" fill="currentColor"/>
</g>
<g transform="translate(85.1801, 24.0724)">
<path stroke-width="0.0800" stroke-linejoin="round" stroke-linecap="round" stroke="currentColor" fill="currentColor" d="M1.5042 3.0000C2.4206 3.8374 5.8309 3.8374 6.7473 3.0000L6.7473 3.0000C5.8309 3.7174 2.4206 3.7174 1.5042 3.0000z"/>
</g>
<g transform="translate(38.3771, 29.0724)">
<path transform="scale(0.0040, -0.0040)" d="M314 65c0 23 -19 41 -42 41c-39 0 -204 -110 -231 -143c-7 -8 -10 -18 -10 -28c0 -23 19 -41 42 -41c39 0 203 110 230 143c7 8 11 18 11 28zM262 136c41 0 82 -14 82 -71c0 -26 -16 -112 -74 -151c-25 -17 -87 -50 -187 -50c-41 0 -83 14 -83 71c0 26 16 112 74 151
c25 17 88 50 188 50z" fill="currentColor"/>
</g>
<g transform="translate(38.3771, 27.0724)">
<path transform="scale(0.0040, -0.0040)" d="M314 65c0 23 -19 41 -42 41c-39 0 -204 -110 -231 -143c-7 -8 -10 -18 -10 -28c0 -23 19 -41 42 -41c39 0 203 110 230 143c7 8 11 18 11 28zM262 136c41 0 82 -14 82 -71c0 -26 -16 -112 -74 -151c-25 -17 -87 -50 -187 -50c-41 0 -83 14 -83 71c0 26 16 112 74 151
c25 17 88 50 188 50z" fill="currentColor"/>
</g>
<g transform="translate(38.3771, 36.6746)">
<path transform="scale(0.0040, -0.0040)" d="M314 65c0 23 -19 41 -42 41c-39 0 -204 -110 -231 -143c-7 -8 -10 -18 -10 -28c0 -23 19 -41 42 -41c39 0 203 110 230 143c7 8 11 18 11 28zM262 136c41 0 82 -14 82 -71c0 -26 -16 -112 -74 -151c-25 -17 -87 -50 -187 -50c-41 0 -83 14 -83 71c0 26 16 112 74 151
c25 17 88 50 188 50z" fill="currentColor"/>
</g>
<g transform="translate(38.3771, 34.1746)">
<path transform="scale(0.0040, -0.0040)" d="M314 65c0 23 -19 41 -42 41c-39 0 -204 -110 -231 -143c-7 -8 -10 -18 -10 -28c0 -23 19 -41 42 -41c39 0 203 110 230 143c7 8 11 18 11 28zM262 136c41 0 82 -14 82 -71c0 -26 -16 -112 -74 -151c-25 -17 -87 -50 -187 -50c-41 0 -83 14 -83 71c0 26 16 112 74 151
c25 17 88 50 188 50z" fill="currentColor"/>
</g>
<g transform="translate(40.2045, 28.5724)">
<path transform="scale(0.0040, -0.0040)" d="M0 0c0 31 25 56 56 56s56 -25 56 -56s-25 -56 -56 -56s-56 25 -56 56z" fill="currentColor"/>
</g>
<g transform="translate(38.4421, 24.0724)">
<rect x="-0.0650" y="3.2590" width="0.1300" height="4.2410" ry="0.0400" fill="currentColor"/>
</g>
<g transform="translate(40.2045, 26.5724)">
<path transform="scale(0.0040, -0.0040)" d="M0 0c0 31 25 56 56 56s56 -25 56 -56s-25 -56 -56 -56s-56 25 -56 56z" fill="currentColor"/>
</g>
<g transform="translate(40.2045, 36.6746)">
<path transform="scale(0.0040, -0.0040)" d="M0 0c0 31 25 56 56 56s56 -25 56 -56s-25 -56 -56 -56s-56 25 -56 56z" fill="currentColor"/>
</g>
<g transform="translate(39.6895, 36.1746)">
<rect x="-0.0650" y="-4.6667" width="0.1300" height="4.9077" ry="0.0400" fill="currentColor"/>
</g>
<g transform="translate(37.0918, 37.2358)">
<path transform="scale(0.0022, -0.0022)" d="M261 266c0 -54 85 -40 85 -125c0 -94 -83 -141 -186 -141c-84 0 -160 54 -160 133c0 32 26 58 58 58s58 -26 58 -58c0 -22 -36 -26 -36 -48c0 -33 42 -42 80 -42c41 0 56 50 56 98v21c0 44 -2 77 -43 77h-65c-18 0 -27 14 -27 27s9 27 27 27h65c42 0 43 36 43 83v11
c0 43 -20 70 -61 70c-34 0 -71 -8 -71 -38c0 -19 32 -23 32 -42c0 -28 -23 -51 -51 -51s-51 23 -51 51c0 72 66 123 141 123c93 0 174 -31 174 -113c0 -94 -68 -67 -68 -121z" fill="currentColor"/>
</g>
<g transform="translate(40.2045, 33.6746)">
<path transform="scale(0.0040, -0.0040)" d="M0 0c0 31 25 56 56 56s56 -25 56 -56s-25 -56 -56 -56s-56 25 -56 56z" fill="currentColor"/>
</g>
<g transform="translate(85.1801, 36.1746)">
<path stroke-width="0.0800" stroke-linejoin="round" stroke-linecap="round" stroke="currentColor" fill="currentColor" d="M0.5913 -2.5450C1.8623 -4.0092 6.0469 -4.6001 7.6736 -3.5450L7.6736 -3.5450C6.0637 -4.4813 1.8791 -3.8904 0.5913 -2.5450z"/>
</g>
<g transform="translate(41.0545, 25.5724)">
<path transform="scale(0.0040, -0.0040)" d="M218 136c66 0 108 -36 108 -89c0 -89 -113 -183 -218 -183c-66 0 -108 36 -108 89c0 89 113 183 218 183z" fill="currentColor"/>
</g>
<g transform="translate(42.2937, 24.0724)">
<rect x="-0.0650" y="-2.0000" width="0.1300" height="3.3139" ry="0.0400" fill="currentColor"/>
</g>
<g transform="translate(42.3587, 22.1124)">
<path transform="scale(0.0040, -0.0040)" d="M0 0v-250h-16v250h16zM0 0c0 -197 207 -336 207 -533c0 -71 -15 -141 -41 -207c-5 -8 -13 -12 -20 -12c-13 0 -26 11 -23 27c26 61 42 126 42 192c0 103 -94 208 -165 283v250z" fill="currentColor"/>
</g>
<g transform="translate(85.1801, 24.0724)">
<path stroke-width="0.0800" stroke-linejoin="round" stroke-linecap="round" stroke="currentColor" fill="currentColor" d="M1.1743 -2.7436C2.7136 -4.4483 8.9988 -5.3980 10.9731 -4.2242L10.9731 -4.2242C9.0167 -5.2794 2.7316 -4.3296 1.1743 -2.7436z"/>
</g>
<g transform="translate(43.5843, 26.0724)">
<path transform="scale(0.0040, -0.0040)" d="M218 136c66 0 108 -36 108 -89c0 -89 -113 -183 -218 -183c-66 0 -108 36 -108 89c0 89 113 183 218 183z" fill="currentColor"/>
</g>
<g transform="translate(43.8096, 21.5224)">
<path transform="scale(0.0022, -0.0022)" d="M94 66c-60 0 -39 -66 -72 -66c-11 0 -22 7 -22 21c0 154 232 162 232 334c0 50 -17 102 -61 102c-33 0 -66 -14 -66 -44c0 -24 31 -37 31 -61c0 -34 -27 -61 -61 -61s-61 27 -61 61c0 84 72 148 157 148c98 0 190 -55 190 -145c0 -140 -131 -154 -225 -205
c85 -2 113 -61 165 -61c45 0 28 41 57 41c11 0 22 -8 22 -21c0 -29 -48 -109 -144 -109c-92 0 -96 66 -142 66z" fill="currentColor"/>
</g>
<g transform="translate(44.8235, 24.0724)">
<rect x="-0.0650" y="-1.1999" width="0.1300" height="3.0138" ry="0.0400" fill="currentColor"/>
</g>
<g transform="translate(86.3543, 22.0724)">
<polygon stroke-linejoin="round" stroke-linecap="round" stroke-width="0.0800" fill="currentColor" stroke="currentColor" points="3.4065 -0.3900 3.4065 0.0100 0.0400 0.2000 0.0400 -0.2000"/>
</g>
<g transform="translate(46.0508, 25.5724)">
<path transform="scale(0.0040, -0.0040)" d="M218 136c66 0 108 -36 108 -89c0 -89 -113 -183 -218 -183c-66 0 -108 36 -108 89c0 89 113 183 218 183z" fill="currentColor"/>
</g>
<g transform="translate(47.2900, 24.0724)">
<rect x="-0.0650" y="-1.5759" width="0.1300" height="2.8898" ry="0.0400" fill="currentColor"/>
</g>
<g transform="translate(76.4881, 31.3646)">
<polygon stroke-linejoin="round" stroke-linecap="round" stroke-width="0.0800" fill="currentColor" stroke="currentColor" points="2.5565 0.1100 2.5565 0.5100 0.0400 0.2000 0.0400 -0.2000"/>
</g>
<g transform="translate(48.7673, 24.5724)">
<path transform="scale(0.0040, -0.0040)" d="M218 136c66 0 108 -36 108 -89c0 -89 -113 -183 -218 -183c-66 0 -108 36 -108 89c0 89 113 183 218 183z" fill="currentColor"/>
</g>
<g transform="translate(49.0097, 21.3423)">
<path transform="scale(0.0022, -0.0022)" d="M194 486c16 0 29 15 41 15c13 0 24 -13 24 -31v-341c0 -47 35 -86 81 -86c14 0 21 -10 21 -21s-7 -22 -21 -22c-49 0 -97 14 -146 14s-96 -14 -145 -14c-14 0 -22 11 -22 22s8 21 22 21c46 0 80 39 80 86v137c0 23 -16 35 -30 35c-7 0 -13 -4 -17 -11l-34 -65
c-5 -10 -14 -15 -23 -15c-14 0 -28 12 -28 27c0 4 1 8 3 13l129 250c2 4 7 6 11 6c18 0 37 -20 54 -20z" fill="currentColor"/>
</g>
<g transform="translate(50.0066, 24.0724)">
<rect x="-0.0650" y="-1.9901" width="0.1300" height="2.3040" ry="0.0400" fill="currentColor"/>
</g>
<g transform="translate(81.4212, 21.2624)">
<polygon stroke-linejoin="round" stroke-linecap="round" stroke-width="0.0800" fill="currentColor" stroke="currentColor" points="2.8065 -0.8900 2.8065 -0.4900 0.0400 0.2000 0.0400 -0.2000"/>
</g>
<g transform="translate(75.3139, 36.1746)">
<path stroke-width="0.0800" stroke-linejoin="round" stroke-linecap="round" stroke="currentColor" fill="currentColor" d="M1.3746 -5.5422C2.7347 -6.1447 5.0911 -5.3488 5.8073 -4.0450L5.8073 -4.0450C5.0527 -5.2351 2.6963 -6.0310 1.3746 -5.5422z"/>
</g>
<g transform="translate(52.4766, 23.5724)">
<path transform="scale(0.0040, -0.0040)" d="M218 136c66 0 108 -36 108 -89c0 -89 -113 -183 -218 -183c-66 0 -108 36 -108 89c0 89 113 183 218 183z" fill="currentColor"/>
</g>
<g transform="translate(52.4766, 29.0724)">
<path transform="scale(0.0040, -0.0040)" d="M-6 78c0 59 124 83 124 182c0 24 -8 49 -25 69l-35 42c-3 3 -4 7 -4 10c0 9 9 15 17 15c4 0 8 -1 11 -5l151 -180c7 -9 10 -17 10 -25c0 -59 -124 -83 -124 -182c0 -24 7 -49 24 -69l84 -99c3 -3 4 -7 4 -10c0 -9 -8 -16 -16 -16s-45 44 -109 44c-16 0 -53 0 -53 -67
c0 -35 11 -74 28 -94c7 -8 -5 -19 -12 -11c-45 54 -92 148 -92 202c0 41 27 42 40 42c33 0 78 -13 119 -31l-132 158c-7 9 -10 17 -10 25z" fill="currentColor"/>
</g>
<g transform="translate(6.4906, 35.1746)">
<path transform="scale(0.0040, -0.0040)" d="M557 -125c0 28 23 51 51 51s51 -23 51 -51s-23 -51 -51 -51s-51 23 -51 51zM557 125c0 28 23 51 51 51s51 -23 51 -51s-23 -51 -51 -51s-51 23 -51 51zM232 263c172 0 293 -88 293 -251c0 -263 -263 -414 -516 -521c-3 -3 -6 -4 -9 -4c-7 0 -13 6 -13 13c0 3 1 6 4 9
c202 118 412 265 412 493c0 120 -63 235 -171 235c-74 0 -129 -54 -154 -126c11 5 22 8 34 8c55 0 100 -45 100 -100c0 -58 -44 -106 -100 -106c-60 0 -112 47 -112 106c0 133 102 244 232 244z" fill="currentColor"/>
</g>
<g transform="translate(52.4766, 36.6746)">
<path transform="scale(0.0040, -0.0040)" d="M218 136c66 0 108 -36 108 -89c0 -89 -113 -183 -218 -183c-66 0 -108 36 -108 89c0 89 113 183 218 183z" fill="currentColor"/>
</g>
<g transform="translate(52.4766, 34.1746)">
<path transform="scale(0.0040, -0.0040)" d="M218 136c66 0 108 -36 108 -89c0 -89 -113 -183 -218 -183c-66 0 -108 36 -108 89c0 89 113 183 218 183z" fill="currentColor"/>
</g>
<g transform="translate(53.1287, 38.6746)">
<path transform="scale(0.0040, -0.0040)" d="M218 136c66 0 108 -36 108 -89c0 -89 -113 -183 -218 -183c-66 0 -108 36 -108 89c0 89 113 183 218 183z" fill="currentColor"/>
</g>
<g transform="translate(10.1106, 24.0724)">
<path transform="scale(0.0040, -0.0040)" d="M27 41l-1 -66v-11c0 -22 1 -44 4 -66c45 38 93 80 93 139c0 33 -14 67 -43 67c-31 0 -52 -30 -53 -63zM-15 -138l-12 595c8 5 18 8 27 8s19 -3 27 -8l-7 -345c25 21 58 34 91 34c52 0 89 -48 89 -102c0 -80 -86 -117 -147 -169c-15 -13 -24 -38 -45 -38
c-13 0 -23 11 -23 25z" fill="currentColor"/>
</g>
<g transform="translate(51.6988, 46.4400)">
<path transform="scale(0.0040, -0.0040)" d="M166 194c0 -16 12 -28 28 -28s29 12 29 28s-13 29 -29 29s-28 -13 -28 -29zM92 347c7 0 42 -3 42 -46v-11c0 -56 50 -38 50 -13c0 27 -38 37 -38 64c0 32 24 48 48 48s49 -16 49 -48c0 -27 -39 -37 -39 -64c0 -25 51 -43 51 13c0 4 -1 7 -1 11c0 43 36 46 43 46
c26 0 50 -24 50 -50c0 -7 -2 -43 -45 -43c-4 0 -8 1 -12 1c-56 0 -38 -51 -13 -51c27 0 37 39 64 39c32 0 48 -25 48 -49s-16 -48 -48 -48c-27 0 -37 38 -64 38c-25 0 -43 -50 13 -50h12c43 0 45 -35 45 -42c0 -26 -24 -50 -50 -50c-7 0 -43 2 -43 45c0 4 1 8 1 12
c0 56 -51 38 -51 13c0 -27 39 -37 39 -64c0 -32 -25 -48 -49 -48s-48 16 -48 48c0 27 38 37 38 64c0 25 -50 43 -50 -13v-12c0 -43 -35 -45 -42 -45c-26 0 -50 24 -50 50c0 7 2 42 45 42h12c56 0 38 50 13 50c-27 0 -37 -38 -64 -38c-32 0 -48 24 -48 48s16 49 48 49
c27 0 37 -39 64 -39c25 0 43 51 -13 51c-4 0 -8 -1 -12 -1c-43 0 -45 36 -45 43c0 26 24 50 50 50z" fill="currentColor"/>
</g>
<g transform="translate(53.7158, 24.0724)">
<rect x="-0.0650" y="-4.2199" width="0.1300" height="3.5338" ry="0.0400" fill="currentColor"/>
</g>
<g transform="translate(53.7158, 36.1746)">
<rect x="-0.0650" y="-4.6667" width="0.1300" height="4.9806" ry="0.0400" fill="currentColor"/>
</g>
<g transform="translate(54.3679, 36.1746)">
<rect x="-0.0650" y="-1.0000" width="0.1300" height="3.3139" ry="0.0400" fill="currentColor"/>
</g>
<g transform="translate(6.4906, 25.0724)">
<path transform="scale(0.0040, -0.0040)" d="M266 -635h-6c-108 0 -195 88 -195 197c0 58 53 103 112 103c54 0 95 -47 95 -103c0 -52 -43 -95 -95 -95c-11 0 -21 2 -31 6c26 -39 68 -65 117 -65h4zM461 -203c68 24 113 90 113 164c0 90 -66 179 -173 190c19 -89 48 -242 60 -354zM74 28c0 -145 141 -247 264 -247
c1 0 47 0 82 6c-7 64 -29 203 -63 364c-79 -8 -124 -61 -124 -119c0 -44 25 -91 81 -123c5 -5 7 -10 7 -15c0 -11 -10 -22 -22 -22c-15 0 -126 62 -126 187c0 88 58 174 160 197c-14 58 -29 117 -46 175c-107 -121 -213 -243 -213 -403zM250 553c-29 96 -52 170 -52 346
c0 115 55 224 149 292c6 5 14 5 20 0c68 -80 133 -245 133 -358c0 -143 -86 -255 -180 -364c21 -68 39 -138 56 -207c2 0 7 1 13 1c155 0 256 -128 256 -261c0 -113 -74 -212 -180 -246c3 -35 5 -70 5 -105c0 -19 -1 -39 -2 -58c-7 -119 -88 -225 -202 -228l1 43
c93 2 153 92 159 191c1 18 2 37 2 55c0 31 -1 61 -4 92c-5 -1 -44 -8 -89 -8c-193 0 -333 180 -333 374c0 177 131 306 248 441zM428 916c0 34 1 66 -20 129c-99 -48 -162 -149 -162 -259c0 -52 12 -115 36 -194c80 97 146 198 146 324z" fill="currentColor"/>
</g>
<g transform="translate(75.3139, 24.0724)">
<path stroke-width="0.0800" stroke-linejoin="round" stroke-linecap="round" stroke="currentColor" fill="currentColor" d="M1.1567 -2.7448C2.4209 -4.3366 7.0397 -5.2299 8.8063 -4.2242L8.8063 -4.2242C7.0625 -5.1121 2.4437 -4.2188 1.1567 -2.7448z"/>
</g>
<g transform="translate(55.1932, 21.0724)">
<path transform="scale(0.0040, -0.0040)" d="M218 136c66 0 108 -36 108 -89c0 -89 -113 -183 -218 -183c-66 0 -108 36 -108 89c0 89 113 183 218 183z" fill="currentColor"/>
</g>
<g transform="translate(56.4324, 24.0724)">
<rect x="-0.0650" y="-5.4701" width="0.1300" height="2.2840" ry="0.0400" fill="currentColor"/>
</g>
<g transform="translate(76.4881, 22.0724)">
<polygon stroke-linejoin="round" stroke-linecap="round" stroke-width="0.0800" fill="currentColor" stroke="currentColor" points="2.5565 -0.3900 2.5565 0.0100 0.0400 0.2000 0.0400 -0.2000"/>
</g>
<g transform="translate(57.6597, 21.0724)">
<path transform="scale(0.0040, -0.0040)" d="M218 136c66 0 108 -36 108 -89c0 -89 -113 -183 -218 -183c-66 0 -108 36 -108 89c0 89 113 183 218 183z" fill="currentColor"/>
</g>
<g transform="translate(58.3118, 18.0454)">
<path transform="scale(0.0040, -0.0040)" d="M-67 48c0 37 30 67 67 67s67 -30 67 -67s-30 -67 -67 -67s-67 30 -67 67zM0 363c255 0 332 -331 332 -366c0 -9 -10 -15 -19 -15s-17 5 -19 18c-26 148 -146 262 -294 262s-268 -114 -294 -262c-2 -13 -10 -18 -19 -18s-19 6 -19 15c0 35 77 366 332 366z" fill="currentColor"/>
</g>
<g transform="translate(56.3474, 25.5724)">
<path transform="scale(0.0040, -0.0040)" d="M314 65c0 23 -19 41 -42 41c-39 0 -204 -110 -231 -143c-7 -8 -10 -18 -10 -28c0 -23 19 -41 42 -41c39 0 203 110 230 143c7 8 11 18 11 28zM262 136c41 0 82 -14 82 -71c0 -26 -16 -112 -74 -151c-25 -17 -87 -50 -187 -50c-41 0 -83 14 -83 71c0 26 16 112 74 151
c25 17 88 50 188 50z" fill="currentColor"/>
</g>
<g transform="translate(57.6597, 25.0724)">
<path transform="scale(0.0040, -0.0040)" d="M314 65c0 23 -19 41 -42 41c-39 0 -204 -110 -231 -143c-7 -8 -10 -18 -10 -28c0 -23 19 -41 42 -41c39 0 203 110 230 143c7 8 11 18 11 28zM262 136c41 0 82 -14 82 -71c0 -26 -16 -112 -74 -151c-25 -17 -87 -50 -187 -50c-41 0 -83 14 -83 71c0 26 16 112 74 151
c25 17 88 50 188 50z" fill="currentColor"/>
</g>
<g transform="translate(57.6597, 23.0724)">
<path transform="scale(0.0040, -0.0040)" d="M314 65c0 23 -19 41 -42 41c-39 0 -204 -110 -231 -143c-7 -8 -10 -18 -10 -28c0 -23 19 -41 42 -41c39 0 203 110 230 143c7 8 11 18 11 28zM262 136c41 0 82 -14 82 -71c0 -26 -16 -112 -74 -151c-25 -17 -87 -50 -187 -50c-41 0 -83 14 -83 71c0 26 16 112 74 151
c25 17 88 50 188 50z" fill="currentColor"/>
</g>
<g transform="translate(57.6597, 38.1746)">
<path transform="scale(0.0040, -0.0040)" d="M314 65c0 23 -19 41 -42 41c-39 0 -204 -110 -231 -143c-7 -8 -10 -18 -10 -28c0 -23 19 -41 42 -41c39 0 203 110 230 143c7 8 11 18 11 28zM262 136c41 0 82 -14 82 -71c0 -26 -16 -112 -74 -151c-25 -17 -87 -50 -187 -50c-41 0 -83 14 -83 71c0 26 16 112 74 151
c25 17 88 50 188 50z" fill="currentColor"/>
</g>
<g transform="translate(57.6597, 37.1746)">
<path transform="scale(0.0040, -0.0040)" d="M314 65c0 23 -19 41 -42 41c-39 0 -204 -110 -231 -143c-7 -8 -10 -18 -10 -28c0 -23 19 -41 42 -41c39 0 203 110 230 143c7 8 11 18 11 28zM262 136c41 0 82 -14 82 -71c0 -26 -16 -112 -74 -151c-25 -17 -87 -50 -187 -50c-41 0 -83 14 -83 71c0 26 16 112 74 151
c25 17 88 50 188 50z" fill="currentColor"/>
</g>
<g transform="translate(57.6597, 33.6746)">
<path transform="scale(0.0040, -0.0040)" d="M314 65c0 23 -19 41 -42 41c-39 0 -204 -110 -231 -143c-7 -8 -10 -18 -10 -28c0 -23 19 -41 42 -41c39 0 203 110 230 143c7 8 11 18 11 28zM262 136c41 0 82 -14 82 -71c0 -26 -16 -112 -74 -151c-25 -17 -87 -50 -187 -50c-41 0 -83 14 -83 71c0 26 16 112 74 151
c25 17 88 50 188 50z" fill="currentColor"/>
</g>
<g transform="translate(58.3484, 30.6986)">
<path transform="scale(0.0040, -0.0040)" d="M-67 48c0 37 30 67 67 67s67 -30 67 -67s-30 -67 -67 -67s-67 30 -67 67zM0 363c255 0 332 -331 332 -366c0 -9 -10 -15 -19 -15s-17 5 -19 18c-26 148 -146 262 -294 262s-268 -114 -294 -262c-2 -13 -10 -18 -19 -18s-19 6 -19 15c0 35 77 366 332 366z" fill="currentColor"/>
</g>
<g transform="translate(59.1157, 46.4400)">
<path transform="scale(0.0040, -0.0040)" d="M0 35c0 19 16 35 35 35s35 -16 35 -35s-16 -35 -35 -35s-35 16 -35 35z" fill="currentColor"/>
</g>
<g transform="translate(55.9237, 46.4400)">
<path transform="scale(0.0040, -0.0040)" d="M43 339c0 -34 27 -48 39 -48c22 0 43 28 43 59c0 8 18 8 18 0c0 -63 -41 -125 -83 -125c-22 0 -61 24 -61 78c0 82 90 197 251 197c108 0 166 -82 166 -144c0 -46 -31 -67 -52 -67c-35 0 -68 49 -87 90c-3 7 13 14 16 7c8 -18 28 -32 46 -32c15 0 32 12 32 36
c0 39 -44 92 -121 92h-7c-7 -14 -39 -93 -39 -108c0 -46 100 -114 100 -164c0 -19 -31 -56 -58 -90c29 -3 83 -28 102 -44c7 -6 10 -4 57 31c-5 23 -6 36 -6 48c0 65 35 132 96 132c32 0 49 -23 49 -45c0 -37 -43 -80 -79 -110l-11 -9c18 -33 44 -80 65 -69c9 5 47 33 63 47
c-4 14 -6 28 -6 42c0 55 45 112 97 137c-51 71 -129 126 -208 140c-8 1 -5 19 3 18c175 -31 332 -171 332 -296c0 -70 -50 -142 -113 -142c-43 0 -81 37 -99 82c-51 -47 -88 -81 -115 -81c-14 0 -38 -1 -62 85c-1 -1 -85 -71 -106 -82c-37 -20 -37 87 -74 98
c-25 -30 -47 -57 -56 -66c-11 -11 -64 -36 -65 -36h1c-7 0 -14 5 -14 12c0 30 87 103 125 108c28 33 30 38 30 49c0 47 -88 111 -88 150c0 21 44 135 60 162c-113 -10 -181 -88 -181 -142zM475 254c-22 0 -43 -16 -43 -55c0 -20 6 -42 14 -60c23 20 63 53 63 83
c0 17 -14 32 -34 32zM683 265c-37 -21 -55 -77 -55 -122c0 -48 18 -108 59 -108c32 0 45 39 45 81c0 14 -1 74 -49 149z" fill="currentColor"/>
</g>
<g transform="translate(59.4870, 20.5724)">
<path transform="scale(0.0040, -0.0040)" d="M0 0c0 31 25 56 56 56s56 -25 56 -56s-25 -56 -56 -56s-56 25 -56 56z" fill="currentColor"/>
</g>
<g transform="translate(58.8989, 24.0724)">
<rect x="-0.0650" y="-5.5000" width="0.1300" height="2.3139" ry="0.0400" fill="currentColor"/>
</g>
<g transform="translate(59.4870, 25.5724)">
<path transform="scale(0.0040, -0.0040)" d="M0 0c0 31 25 56 56 56s56 -25 56 -56s-25 -56 -56 -56s-56 25 -56 56z" fill="currentColor"/>
</g>
<g transform="translate(57.7247, 24.0724)">
<rect x="-0.0650" y="-0.7410" width="0.1300" height="5.0743" ry="0.0400" fill="currentColor"/>
</g>
<g transform="translate(55.0279, 26.1404)">
<path transform="scale(0.0022, -0.0022)" d="M194 486c16 0 29 15 41 15c13 0 24 -13 24 -31v-341c0 -47 35 -86 81 -86c14 0 21 -10 21 -21s-7 -22 -21 -22c-49 0 -97 14 -146 14s-96 -14 -145 -14c-14 0 -22 11 -22 22s8 21 22 21c46 0 80 39 80 86v137c0 23 -16 35 -30 35c-7 0 -13 -4 -17 -11l-34 -65
c-5 -10 -14 -15 -23 -15c-14 0 -28 12 -28 27c0 4 1 8 3 13l129 250c2 4 7 6 11 6c18 0 37 -20 54 -20z" fill="currentColor"/>
</g>
<g transform="translate(59.4870, 24.5724)">
<path transform="scale(0.0040, -0.0040)" d="M0 0c0 31 25 56 56 56s56 -25 56 -56s-25 -56 -56 -56s-56 25 -56 56z" fill="currentColor"/>
</g>
<g transform="translate(59.4870, 22.5724)">
<path transform="scale(0.0040, -0.0040)" d="M0 0c0 31 25 56 56 56s56 -25 56 -56s-25 -56 -56 -56s-56 25 -56 56z" fill="currentColor"/>
</g>
<g transform="translate(56.3061, 23.6337)">
<path transform="scale(0.0022, -0.0022)" d="M94 66c-60 0 -39 -66 -72 -66c-11 0 -22 7 -22 21c0 154 232 162 232 334c0 50 -17 102 -61 102c-33 0 -66 -14 -66 -44c0 -24 31 -37 31 -61c0 -34 -27 -61 -61 -61s-61 27 -61 61c0 84 72 148 157 148c98 0 190 -55 190 -145c0 -140 -131 -154 -225 -205
c85 -2 113 -61 165 -61c45 0 28 41 57 41c11 0 22 -8 22 -21c0 -29 -48 -109 -144 -109c-92 0 -96 66 -142 66z" fill="currentColor"/>
</g>
<g transform="translate(59.4870, 37.6746)">
<path transform="scale(0.0040, -0.0040)" d="M0 0c0 31 25 56 56 56s56 -25 56 -56s-25 -56 -56 -56s-56 25 -56 56z" fill="currentColor"/>
</g>
<g transform="translate(58.9720, 36.1746)">
<rect x="-0.0650" y="-5.0000" width="0.1300" height="6.7410" ry="0.0400" fill="currentColor"/>
</g>
<g transform="translate(55.1753, 38.8994)">
<path transform="scale(0.0022, -0.0022)" d="M60 500c8 0 69 -14 131 -14c54 0 133 15 134 15c17 0 28 -12 28 -22c0 -13 -89 -100 -235 -100c-17 0 -30 -14 -30 -31v-41c25 25 62 25 97 25h5c115 0 181 -55 181 -166c0 -99 -96 -166 -202 -166c-88 0 -169 52 -169 133c0 32 26 58 58 58s58 -26 58 -58
c0 -22 -36 -26 -36 -48c0 -36 47 -42 89 -42c52 0 73 63 73 123c0 53 -6 112 -52 112c-133 0 -87 -44 -129 -44c-14 0 -27 10 -27 27v209c0 17 11 30 26 30z" fill="currentColor"/>
</g>
<g transform="translate(59.4870, 36.6746)">
<path transform="scale(0.0040, -0.0040)" d="M0 0c0 31 25 56 56 56s56 -25 56 -56s-25 -56 -56 -56s-56 25 -56 56z" fill="currentColor"/>
</g>
<g transform="translate(55.1753, 37.5746)">
<path transform="scale(0.0022, -0.0022)" d="M148 501c10 0 41 -15 72 -15c32 0 63 15 76 15c15 0 26 -11 26 -21c0 -4 -1 -7 -4 -10l-264 -291h134v4c0 60 50 41 75 85c7 11 8 24 14 36c3 7 10 10 17 10c11 0 24 -8 24 -25v-110h70c18 0 27 -14 27 -27s-9 -27 -27 -27h-70c2 -45 36 -82 80 -82c14 0 22 -10 22 -21
s-8 -22 -22 -22c-49 0 -96 14 -145 14s-97 -14 -146 -14c-14 0 -21 11 -21 22s7 21 21 21c44 0 79 37 81 82h-134c-43 0 -57 25 -57 42c0 5 1 10 3 12c73 81 123 182 123 291c0 17 11 31 25 31z" fill="currentColor"/>
</g>
<g transform="translate(59.4870, 33.6746)">
<path transform="scale(0.0040, -0.0040)" d="M0 0c0 31 25 56 56 56s56 -25 56 -56s-25 -56 -56 -56s-56 25 -56 56z" fill="currentColor"/>
</g>
<g transform="translate(56.6137, 37.1746)">
<path transform="scale(0.0040, -0.0040)" d="M-7 375c8 4 17 7 25 7s16 -3 24 -7l-2 -183l106 20h3c10 0 18 -7 18 -17l7 -570c-8 -4 -17 -7 -25 -7s-16 3 -24 7l2 183l-106 -20h-3c-10 0 -18 7 -18 17zM131 112l-92 -17l-3 -207l92 17z" fill="currentColor"/>
</g>
<g transform="translate(56.6137, 33.6746)">
<path transform="scale(0.0040, -0.0040)" d="M-7 375c8 4 17 7 25 7s16 -3 24 -7l-2 -183l106 20h3c10 0 18 -7 18 -17l7 -570c-8 -4 -17 -7 -25 -7s-16 3 -24 7l2 183l-106 -20h-3c-10 0 -18 7 -18 17zM131 112l-92 -17l-3 -207l92 17z" fill="currentColor"/>
</g>
<g transform="translate(63.0385, 19.2624)">
<polygon stroke-linejoin="round" stroke-linecap="round" stroke-width="0.0800" fill="currentColor" stroke="currentColor" points="4.7731 0.6100 4.7731 1.0100 0.0400 0.2000 0.0400 -0.2000"/>
</g>
<g transform="translate(61.8643, 21.5724)">
<path transform="scale(0.0040, -0.0040)" d="M218 136c66 0 108 -36 108 -89c0 -89 -113 -183 -218 -183c-66 0 -108 36 -108 89c0 89 113 183 218 183z" fill="currentColor"/>
</g>
<g transform="translate(61.8643, 15.8441)">
<text font-family="serif" font-size="2.2000" text-anchor="start" fill="currentColor">
<tspan>ritardando</tspan>
</text>
</g>
<g transform="translate(62.1237, 17.4289)">
<path transform="scale(0.0022, -0.0022)" d="M60 500c8 0 69 -14 131 -14c54 0 133 15 134 15c17 0 28 -12 28 -22c0 -13 -89 -100 -235 -100c-17 0 -30 -14 -30 -31v-41c25 25 62 25 97 25h5c115 0 181 -55 181 -166c0 -99 -96 -166 -202 -166c-88 0 -169 52 -169 133c0 32 26 58 58 58s58 -26 58 -58
c0 -22 -36 -26 -36 -48c0 -36 47 -42 89 -42c52 0 73 63 73 123c0 53 -6 112 -52 112c-133 0 -87 -44 -129 -44c-14 0 -27 10 -27 27v209c0 17 11 30 26 30z" fill="currentColor"/>
</g>
<g transform="translate(63.1035, 24.0724)">
<rect x="-0.0650" y="-4.7991" width="0.1300" height="2.1130" ry="0.0400" fill="currentColor"/>
</g>
<g transform="translate(71.5550, 20.5724)">
<polygon stroke-linejoin="round" stroke-linecap="round" stroke-width="0.0800" fill="currentColor" stroke="currentColor" points="2.8065 -1.2000 2.8065 -0.8000 0.0400 0.2000 0.0400 -0.2000"/>
</g>
<g transform="translate(64.3308, 22.0724)">
<path transform="scale(0.0040, -0.0040)" d="M218 136c66 0 108 -36 108 -89c0 -89 -113 -183 -218 -183c-66 0 -108 36 -108 89c0 89 113 183 218 183z" fill="currentColor"/>
</g>
<g transform="translate(65.5700, 24.0724)">
<rect x="-0.0650" y="-4.3840" width="0.1300" height="2.1979" ry="0.0400" fill="currentColor"/>
</g>
<g transform="translate(97.1955, 41.3646)">
<polygon stroke-linejoin="round" stroke-linecap="round" stroke-width="0.0800" fill="currentColor" stroke="currentColor" points="2.4315 1.1100 2.4315 1.5100 0.0400 0.2000 0.0400 -0.2000"/>
</g>
<g transform="translate(66.8068, 19.3215)">
<path transform="scale(0.0022, -0.0022)" d="M261 266c0 -54 85 -40 85 -125c0 -94 -83 -141 -186 -141c-84 0 -160 54 -160 133c0 32 26 58 58 58s58 -26 58 -58c0 -22 -36 -26 -36 -48c0 -33 42 -42 80 -42c41 0 56 50 56 98v21c0 44 -2 77 -43 77h-65c-18 0 -27 14 -27 27s9 27 27 27h65c42 0 43 36 43 83v11
c0 43 -20 70 -61 70c-34 0 -71 -8 -71 -38c0 -19 32 -23 32 -42c0 -28 -23 -51 -51 -51s-51 23 -51 51c0 72 66 123 141 123c93 0 174 -31 174 -113c0 -94 -68 -67 -68 -121z" fill="currentColor"/>
</g>
<g transform="translate(65.7696, 46.4400)">
<path transform="scale(0.0040, -0.0040)" d="M166 194c0 -16 12 -28 28 -28s29 12 29 28s-13 29 -29 29s-28 -13 -28 -29zM92 347c7 0 42 -3 42 -46v-11c0 -56 50 -38 50 -13c0 27 -38 37 -38 64c0 32 24 48 48 48s49 -16 49 -48c0 -27 -39 -37 -39 -64c0 -25 51 -43 51 13c0 4 -1 7 -1 11c0 43 36 46 43 46
c26 0 50 -24 50 -50c0 -7 -2 -43 -45 -43c-4 0 -8 1 -12 1c-56 0 -38 -51 -13 -51c27 0 37 39 64 39c32 0 48 -25 48 -49s-16 -48 -48 -48c-27 0 -37 38 -64 38c-25 0 -43 -50 13 -50h12c43 0 45 -35 45 -42c0 -26 -24 -50 -50 -50c-7 0 -43 2 -43 45c0 4 1 8 1 12
c0 56 -51 38 -51 13c0 -27 39 -37 39 -64c0 -32 -25 -48 -49 -48s-48 16 -48 48c0 27 38 37 38 64c0 25 -50 43 -50 -13v-12c0 -43 -35 -45 -42 -45c-26 0 -50 24 -50 50c0 7 2 42 45 42h12c56 0 38 50 13 50c-27 0 -37 -38 -64 -38c-32 0 -48 24 -48 48s16 49 48 49
c27 0 37 -39 64 -39c25 0 43 51 -13 51c-4 0 -8 -1 -12 -1c-43 0 -45 36 -45 43c0 26 24 50 50 50z" fill="currentColor"/>
</g>
<g transform="translate(67.7866, 24.0724)">
<rect x="-0.0650" y="-4.0109" width="0.1300" height="2.8248" ry="0.0400" fill="currentColor"/>
</g>
<g transform="translate(56.3474, 24.0724)">
<path stroke-width="0.0800" stroke-linejoin="round" stroke-linecap="round" stroke="currentColor" fill="currentColor" d="M1.7773 2.0000C3.0931 2.9588 12.3827 2.9588 13.6984 2.0000L13.6984 2.0000C12.3827 2.8388 3.0931 2.8388 1.7773 2.0000z"/>
</g>
<g transform="translate(57.6597, 24.0724)">
<path stroke-width="0.0800" stroke-linejoin="round" stroke-linecap="round" stroke="currentColor" fill="currentColor" d="M1.6042 -5.5450C3.8349 -7.1424 14.5272 -6.9099 16.6863 -5.2172L16.6863 -5.2172C14.5245 -6.7900 3.8323 -7.0224 1.6042 -5.5450z"/>
</g>
<g transform="translate(70.3808, 23.5724)">
<path transform="scale(0.0040, -0.0040)" d="M218 136c66 0 108 -36 108 -89c0 -89 -113 -183 -218 -183c-66 0 -108 36 -108 89c0 89 113 183 218 183z" fill="currentColor"/>
</g>
<g transform="translate(70.6061, 19.8096)">
<path transform="scale(0.0022, -0.0022)" d="M94 66c-60 0 -39 -66 -72 -66c-11 0 -22 7 -22 21c0 154 232 162 232 334c0 50 -17 102 -61 102c-33 0 -66 -14 -66 -44c0 -24 31 -37 31 -61c0 -34 -27 -61 -61 -61s-61 27 -61 61c0 84 72 148 157 148c98 0 190 -55 190 -145c0 -140 -131 -154 -225 -205
c85 -2 113 -61 165 -61c45 0 28 41 57 41c11 0 22 -8 22 -21c0 -29 -48 -109 -144 -109c-92 0 -96 66 -142 66z" fill="currentColor"/>
</g>
<g transform="translate(70.3808, 25.5724)">
<path transform="scale(0.0040, -0.0040)" d="M218 136c66 0 108 -36 108 -89c0 -89 -113 -183 -218 -183c-66 0 -108 36 -108 89c0 89 113 183 218 183z" fill="currentColor"/>
</g>
<g transform="translate(70.3808, 36.6746)">
<path transform="scale(0.0040, -0.0040)" d="M218 136c66 0 108 -36 108 -89c0 -89 -113 -183 -218 -183c-66 0 -108 36 -108 89c0 89 113 183 218 183z" fill="currentColor"/>
</g>
<g transform="translate(70.3808, 34.1746)">
<path transform="scale(0.0040, -0.0040)" d="M218 136c66 0 108 -36 108 -89c0 -89 -113 -183 -218 -183c-66 0 -108 36 -108 89c0 89 113 183 218 183z" fill="currentColor"/>
</g>
<g transform="translate(70.3808, 33.1746)">
<path transform="scale(0.0040, -0.0040)" d="M218 136c66 0 108 -36 108 -89c0 -89 -113 -183 -218 -183c-66 0 -108 36 -108 89c0 89 113 183 218 183z" fill="currentColor"/>
</g>
<g transform="translate(5.6906, 24.0724)">
<path stroke-width="0.0800" stroke-linejoin="round" stroke-linecap="round" stroke="currentColor" fill="currentColor" d="M5.4200 3.5000C5.9013 4.0687 6.9037 4.0687 7.3850 3.5000L7.3850 3.5000C6.9037 3.9487 5.9013 3.9487 5.4200 3.5000z"/>
</g>
<g transform="translate(5.6906, 36.1746)">
<path stroke-width="0.0800" stroke-linejoin="round" stroke-linecap="round" stroke="currentColor" fill="currentColor" d="M5.2200 -5.1667C7.2179 -5.9989 12.4331 -4.3675 13.6004 -2.5450L13.6004 -2.5450C12.3972 -4.2529 7.1821 -5.8844 5.2200 -5.1667z"/>
</g>
<g transform="translate(71.6200, 24.0724)">
<rect x="-0.0650" y="-3.5228" width="0.1300" height="2.8367" ry="0.0400" fill="currentColor"/>
</g>
<g transform="translate(70.4458, 24.0724)">
<rect x="-0.0650" y="1.6861" width="0.1300" height="2.6472" ry="0.0400" fill="currentColor"/>
</g>
<g transform="translate(70.4458, 36.1746)">
<rect x="-0.0650" y="-2.8139" width="0.1300" height="6.4806" ry="0.0400" fill="currentColor"/>
</g>
<g transform="translate(5.6906, 36.1746)">
<path stroke-width="0.0800" stroke-linejoin="round" stroke-linecap="round" stroke="currentColor" fill="currentColor" d="M5.2200 0.1950C5.8228 0.7742 6.8173 0.7742 7.4200 0.1950L7.4200 0.1950C6.8173 0.6542 5.8228 0.6542 5.2200 0.1950z"/>
</g>
<g transform="translate(73.0973, 22.0724)">
<path transform="scale(0.0040, -0.0040)" d="M218 136c66 0 108 -36 108 -89c0 -89 -113 -183 -218 -183c-66 0 -108 36 -108 89c0 89 113 183 218 183z" fill="currentColor"/>
</g>
<g transform="translate(74.3365, 24.0724)">
<rect x="-0.0650" y="-4.4772" width="0.1300" height="2.2911" ry="0.0400" fill="currentColor"/>
</g>
<g transform="translate(53.6508, 19.8824)">
<polygon stroke-linejoin="round" stroke-linecap="round" stroke-width="0.0800" fill="currentColor" stroke="currentColor" points="2.8065 -1.5100 2.8065 -1.1100 0.0400 0.2000 0.0400 -0.2000"/>
</g>
<g transform="translate(75.3139, 25.0724)">
<path transform="scale(0.0040, -0.0040)" d="M218 136c66 0 108 -36 108 -89c0 -89 -113 -183 -218 -183c-66 0 -108 36 -108 89c0 89 113 183 218 183z" fill="currentColor"/>
</g>
<g transform="translate(75.5392, 21.3277)">
<path transform="scale(0.0022, -0.0022)" d="M94 66c-60 0 -39 -66 -72 -66c-11 0 -22 7 -22 21c0 154 232 162 232 334c0 50 -17 102 -61 102c-33 0 -66 -14 -66 -44c0 -24 31 -37 31 -61c0 -34 -27 -61 -61 -61s-61 27 -61 61c0 84 72 148 157 148c98 0 190 -55 190 -145c0 -140 -131 -154 -225 -205
c85 -2 113 -61 165 -61c45 0 28 41 57 41c11 0 22 -8 22 -21c0 -29 -48 -109 -144 -109c-92 0 -96 66 -142 66z" fill="currentColor"/>
</g>
<g transform="translate(75.3139, 26.0724)">
<path transform="scale(0.0040, -0.0040)" d="M314 65c0 23 -19 41 -42 41c-39 0 -204 -110 -231 -143c-7 -8 -10 -18 -10 -28c0 -23 19 -41 42 -41c39 0 203 110 230 143c7 8 11 18 11 28zM262 136c41 0 82 -14 82 -71c0 -26 -16 -112 -74 -151c-25 -17 -87 -50 -187 -50c-41 0 -83 14 -83 71c0 26 16 112 74 151
c25 17 88 50 188 50z" fill="currentColor"/>
</g>
<g transform="translate(75.3139, 36.6746)">
<path transform="scale(0.0040, -0.0040)" d="M314 65c0 23 -19 41 -42 41c-39 0 -204 -110 -231 -143c-7 -8 -10 -18 -10 -28c0 -23 19 -41 42 -41c39 0 203 110 230 143c7 8 11 18 11 28zM262 136c41 0 82 -14 82 -71c0 -26 -16 -112 -74 -151c-25 -17 -87 -50 -187 -50c-41 0 -83 14 -83 71c0 26 16 112 74 151
c25 17 88 50 188 50z" fill="currentColor"/>
</g>
<g transform="translate(75.3139, 33.6746)">
<path transform="scale(0.0040, -0.0040)" d="M218 136c66 0 108 -36 108 -89c0 -89 -113 -183 -218 -183c-66 0 -108 36 -108 89c0 89 113 183 218 183z" fill="currentColor"/>
</g>
<g transform="translate(75.5392, 30.6323)">
<path transform="scale(0.0022, -0.0022)" d="M94 66c-60 0 -39 -66 -72 -66c-11 0 -22 7 -22 21c0 154 232 162 232 334c0 50 -17 102 -61 102c-33 0 -66 -14 -66 -44c0 -24 31 -37 31 -61c0 -34 -27 -61 -61 -61s-61 27 -61 61c0 84 72 148 157 148c98 0 190 -55 190 -145c0 -140 -131 -154 -225 -205
c85 -2 113 -61 165 -61c45 0 28 41 57 41c11 0 22 -8 22 -21c0 -29 -48 -109 -144 -109c-92 0 -96 66 -142 66z" fill="currentColor"/>
</g>
<g transform="translate(76.5531, 24.0724)">
<rect x="-0.0650" y="-2.0048" width="0.1300" height="2.8187" ry="0.0400" fill="currentColor"/>
</g>
<g transform="translate(75.3789, 24.0724)">
<rect x="-0.0650" y="2.2590" width="0.1300" height="2.4077" ry="0.0400" fill="currentColor"/>
</g>
<g transform="translate(75.3789, 36.1746)">
<rect x="-0.0650" y="0.7590" width="0.1300" height="2.9077" ry="0.0400" fill="currentColor"/>
</g>
<g transform="translate(76.5531, 36.1746)">
<rect x="-0.0650" y="-4.8022" width="0.1300" height="2.1161" ry="0.0400" fill="currentColor"/>
</g>
<g transform="translate(77.7804, 24.5724)">
<path transform="scale(0.0040, -0.0040)" d="M218 136c66 0 108 -36 108 -89c0 -89 -113 -183 -218 -183c-66 0 -108 36 -108 89c0 89 113 183 218 183z" fill="currentColor"/>
</g>
<g transform="translate(77.9716, 19.7657)">
<path transform="scale(0.0022, -0.0022)" d="M148 501c10 0 41 -15 72 -15c32 0 63 15 76 15c15 0 26 -11 26 -21c0 -4 -1 -7 -4 -10l-264 -291h134v4c0 60 50 41 75 85c7 11 8 24 14 36c3 7 10 10 17 10c11 0 24 -8 24 -25v-110h70c18 0 27 -14 27 -27s-9 -27 -27 -27h-70c2 -45 36 -82 80 -82c14 0 22 -10 22 -21
s-8 -22 -22 -22c-49 0 -96 14 -145 14s-97 -14 -146 -14c-14 0 -21 11 -21 22s7 21 21 21c44 0 79 37 81 82h-134c-43 0 -57 25 -57 42c0 5 1 10 3 12c73 81 123 182 123 291c0 17 11 31 25 31z" fill="currentColor"/>
</g>
<g transform="translate(77.7804, 34.1746)">
<path transform="scale(0.0040, -0.0040)" d="M218 136c66 0 108 -36 108 -89c0 -89 -113 -183 -218 -183c-66 0 -108 36 -108 89c0 89 113 183 218 183z" fill="currentColor"/>
</g>
<g transform="translate(78.0057, 30.2708)">
<path transform="scale(0.0022, -0.0022)" d="M94 66c-60 0 -39 -66 -72 -66c-11 0 -22 7 -22 21c0 154 232 162 232 334c0 50 -17 102 -61 102c-33 0 -66 -14 -66 -44c0 -24 31 -37 31 -61c0 -34 -27 -61 -61 -61s-61 27 -61 61c0 84 72 148 157 148c98 0 190 -55 190 -145c0 -140 -131 -154 -225 -205
c85 -2 113 -61 165 -61c45 0 28 41 57 41c11 0 22 -8 22 -21c0 -29 -48 -109 -144 -109c-92 0 -96 66 -142 66z" fill="currentColor"/>
</g>
<g transform="translate(79.0196, 24.0724)">
<rect x="-0.0650" y="-2.1852" width="0.1300" height="2.4991" ry="0.0400" fill="currentColor"/>
</g>
<g transform="translate(79.0196, 36.1746)">
<rect x="-0.0650" y="-4.5078" width="0.1300" height="2.3217" ry="0.0400" fill="currentColor"/>
</g>
<g transform="translate(43.5843, 24.0724)">
<path stroke-width="0.0800" stroke-linejoin="round" stroke-linecap="round" stroke="currentColor" fill="currentColor" d="M1.0938 -2.0899C2.4503 -4.2276 10.3021 -7.0143 12.7027 -6.2101L12.7027 -6.2101C10.3422 -6.9012 2.4905 -4.1145 1.0938 -2.0899z"/>
</g>
<g transform="translate(80.2470, 24.0724)">
<path transform="scale(0.0040, -0.0040)" d="M218 136c66 0 108 -36 108 -89c0 -89 -113 -183 -218 -183c-66 0 -108 36 -108 89c0 89 113 183 218 183z" fill="currentColor"/>
</g>
<g transform="translate(80.5064, 19.2937)">
<path transform="scale(0.0022, -0.0022)" d="M261 266c0 -54 85 -40 85 -125c0 -94 -83 -141 -186 -141c-84 0 -160 54 -160 133c0 32 26 58 58 58s58 -26 58 -58c0 -22 -36 -26 -36 -48c0 -33 42 -42 80 -42c41 0 56 50 56 98v21c0 44 -2 77 -43 77h-65c-18 0 -27 14 -27 27s9 27 27 27h65c42 0 43 36 43 83v11
c0 43 -20 70 -61 70c-34 0 -71 -8 -71 -38c0 -19 32 -23 32 -42c0 -28 -23 -51 -51 -51s-51 23 -51 51c0 72 66 123 141 123c93 0 174 -31 174 -113c0 -94 -68 -67 -68 -121z" fill="currentColor"/>
</g>
<g transform="translate(80.2470, 34.6746)">
<path transform="scale(0.0040, -0.0040)" d="M218 136c66 0 108 -36 108 -89c0 -89 -113 -183 -218 -183c-66 0 -108 36 -108 89c0 89 113 183 218 183z" fill="currentColor"/>
</g>
<g transform="translate(80.5064, 33.6246)">
<path transform="scale(0.0022, -0.0022)" d="M261 266c0 -54 85 -40 85 -125c0 -94 -83 -141 -186 -141c-84 0 -160 54 -160 133c0 32 26 58 58 58s58 -26 58 -58c0 -22 -36 -26 -36 -48c0 -33 42 -42 80 -42c41 0 56 50 56 98v21c0 44 -2 77 -43 77h-65c-18 0 -27 14 -27 27s9 27 27 27h65c42 0 43 36 43 83v11
c0 43 -20 70 -61 70c-34 0 -71 -8 -71 -38c0 -19 32 -23 32 -42c0 -28 -23 -51 -51 -51s-51 23 -51 51c0 72 66 123 141 123c93 0 174 -31 174 -113c0 -94 -68 -67 -68 -121z" fill="currentColor"/>
</g>
<g transform="translate(81.4862, 24.0724)">
<rect x="-0.0650" y="-2.8258" width="0.1300" height="2.6396" ry="0.0400" fill="currentColor"/>
</g>
<g transform="translate(81.4862, 36.1746)">
<rect x="-0.0650" y="-4.3333" width="0.1300" height="2.6472" ry="0.0400" fill="currentColor"/>
</g>
<g transform="translate(43.5843, 16.5636)">
<line stroke-linejoin="round" stroke-linecap="round" stroke-width="0.1000" stroke="currentColor" x1="0.0000" y1="0.0000" x2="12.9131" y2="0.6666"/>
</g>
<g transform="translate(43.5843, 16.5636)">
<line stroke-linejoin="round" stroke-linecap="round" stroke-width="0.1000" stroke="currentColor" x1="0.0000" y1="-0.0000" x2="12.9131" y2="-0.6666"/>
</g>
<g transform="translate(82.9635, 23.0724)">
<path transform="scale(0.0040, -0.0040)" d="M218 136c66 0 108 -36 108 -89c0 -89 -113 -183 -218 -183c-66 0 -108 36 -108 89c0 89 113 183 218 183z" fill="currentColor"/>
</g>
<g transform="translate(84.2027, 24.0724)">
<rect x="-0.0650" y="-3.4842" width="0.1300" height="2.2981" ry="0.0400" fill="currentColor"/>
</g>
<g transform="translate(44.7585, 22.8824)">
<polygon stroke-linejoin="round" stroke-linecap="round" stroke-width="0.0800" fill="currentColor" stroke="currentColor" points="5.2731 -1.0100 5.2731 -0.6100 0.0400 0.2000 0.0400 -0.2000"/>
</g>
<g transform="translate(85.1801, 25.0724)">
<path transform="scale(0.0040, -0.0040)" d="M218 136c66 0 108 -36 108 -89c0 -89 -113 -183 -218 -183c-66 0 -108 36 -108 89c0 89 113 183 218 183z" fill="currentColor"/>
</g>
<g transform="translate(85.4395, 21.3288)">
<path transform="scale(0.0022, -0.0022)" d="M261 266c0 -54 85 -40 85 -125c0 -94 -83 -141 -186 -141c-84 0 -160 54 -160 133c0 32 26 58 58 58s58 -26 58 -58c0 -22 -36 -26 -36 -48c0 -33 42 -42 80 -42c41 0 56 50 56 98v21c0 44 -2 77 -43 77h-65c-18 0 -27 14 -27 27s9 27 27 27h65c42 0 43 36 43 83v11
c0 43 -20 70 -61 70c-34 0 -71 -8 -71 -38c0 -19 32 -23 32 -42c0 -28 -23 -51 -51 -51s-51 23 -51 51c0 72 66 123 141 123c93 0 174 -31 174 -113c0 -94 -68 -67 -68 -121z" fill="currentColor"/>
</g>
<g transform="translate(85.1801, 26.5724)">
<path transform="scale(0.0040, -0.0040)" d="M218 136c66 0 108 -36 108 -89c0 -89 -113 -183 -218 -183c-66 0 -108 36 -108 89c0 89 113 183 218 183z" fill="currentColor"/>
</g>
<g transform="translate(85.1801, 37.1746)">
<path transform="scale(0.0040, -0.0040)" d="M218 136c66 0 108 -36 108 -89c0 -89 -113 -183 -218 -183c-66 0 -108 36 -108 89c0 89 113 183 218 183z" fill="currentColor"/>
</g>
<g transform="translate(85.1801, 34.6746)">
<path transform="scale(0.0040, -0.0040)" d="M218 136c66 0 108 -36 108 -89c0 -89 -113 -183 -218 -183c-66 0 -108 36 -108 89c0 89 113 183 218 183z" fill="currentColor"/>
</g>
<g transform="translate(86.4193, 24.0724)">
<rect x="-0.0650" y="-2.0036" width="0.1300" height="2.8175" ry="0.0400" fill="currentColor"/>
</g>
<g transform="translate(85.2451, 24.0724)">
<rect x="-0.0650" y="2.6861" width="0.1300" height="2.3139" ry="0.0400" fill="currentColor"/>
</g>
<g transform="translate(85.2451, 36.1746)">
<rect x="-0.0650" y="-1.3139" width="0.1300" height="5.1122" ry="0.0400" fill="currentColor"/>
</g>
<g transform="translate(85.4395, 41.8377)">
<path transform="scale(0.0022, -0.0022)" d="M60 500c8 0 69 -14 131 -14c54 0 133 15 134 15c17 0 28 -12 28 -22c0 -13 -89 -100 -235 -100c-17 0 -30 -14 -30 -31v-41c25 25 62 25 97 25h5c115 0 181 -55 181 -166c0 -99 -96 -166 -202 -166c-88 0 -169 52 -169 133c0 32 26 58 58 58s58 -26 58 -58
c0 -22 -36 -26 -36 -48c0 -36 47 -42 89 -42c52 0 73 63 73 123c0 53 -6 112 -52 112c-133 0 -87 -44 -129 -44c-14 0 -27 10 -27 27v209c0 17 11 30 26 30z" fill="currentColor"/>
</g>
<g transform="translate(85.4054, 33.0183)">
<path transform="scale(0.0022, -0.0022)" d="M94 66c-60 0 -39 -66 -72 -66c-11 0 -22 7 -22 21c0 154 232 162 232 334c0 50 -17 102 -61 102c-33 0 -66 -14 -66 -44c0 -24 31 -37 31 -61c0 -34 -27 -61 -61 -61s-61 27 -61 61c0 84 72 148 157 148c98 0 190 -55 190 -145c0 -140 -131 -154 -225 -205
c85 -2 113 -61 165 -61c45 0 28 41 57 41c11 0 22 -8 22 -21c0 -29 -48 -109 -144 -109c-92 0 -96 66 -142 66z" fill="currentColor"/>
</g>
<g transform="translate(88.4966, 25.5724)">
<path transform="scale(0.0040, -0.0040)" d="M218 136c66 0 108 -36 108 -89c0 -89 -113 -183 -218 -183c-66 0 -108 36 -108 89c0 89 113 183 218 183z" fill="currentColor"/>
</g>
<g transform="translate(88.4966, 24.5724)">
<path transform="scale(0.0040, -0.0040)" d="M218 136c66 0 108 -36 108 -89c0 -89 -113 -183 -218 -183c-66 0 -108 36 -108 89c0 89 113 183 218 183z" fill="currentColor"/>
</g>
<g transform="translate(88.4966, 36.1746)">
<path transform="scale(0.0040, -0.0040)" d="M218 136c66 0 108 -36 108 -89c0 -89 -113 -183 -218 -183c-66 0 -108 36 -108 89c0 89 113 183 218 183z" fill="currentColor"/>
</g>
<g transform="translate(88.4966, 34.1746)">
<path transform="scale(0.0040, -0.0040)" d="M218 136c66 0 108 -36 108 -89c0 -89 -113 -183 -218 -183c-66 0 -108 36 -108 89c0 89 113 183 218 183z" fill="currentColor"/>
</g>
<g transform="translate(89.7358, 24.0724)">
<rect x="-0.0650" y="-2.1864" width="0.1300" height="3.5003" ry="0.0400" fill="currentColor"/>
</g>
<g transform="translate(87.0466, 25.5724)">
<path transform="scale(0.0040, -0.0040)" d="M0 119c0 8 5 15 13 18l46 17v158c0 10 8 19 18 19s19 -9 19 -19v-145l83 31v158c0 10 9 19 19 19s18 -9 18 -19v-145l32 12c2 1 5 1 7 1c11 0 20 -9 20 -20v-60c0 -8 -5 -16 -13 -19l-46 -16v-160l32 11c2 1 5 1 7 1c11 0 20 -9 20 -20v-60c0 -8 -5 -15 -13 -18l-46 -17
v-158c0 -10 -8 -19 -18 -19s-19 9 -19 19v145l-83 -31v-158c0 -10 -9 -19 -19 -19s-18 9 -18 19v145l-32 -12c-2 -1 -5 -1 -7 -1c-11 0 -20 9 -20 20v60c0 8 5 16 13 19l46 16v160l-32 -11c-2 -1 -5 -1 -7 -1c-11 0 -20 9 -20 20v60zM179 95l-83 -30v-160l83 30v160z" fill="currentColor"/>
</g>
<g transform="translate(88.5616, 36.1746)">
<rect x="-0.0650" y="-1.8139" width="0.1300" height="5.0156" ry="0.0400" fill="currentColor"/>
</g>
<g transform="translate(88.6878, 41.2410)">
<path transform="scale(0.0022, -0.0022)" d="M148 501c10 0 41 -15 72 -15c32 0 63 15 76 15c15 0 26 -11 26 -21c0 -4 -1 -7 -4 -10l-264 -291h134v4c0 60 50 41 75 85c7 11 8 24 14 36c3 7 10 10 17 10c11 0 24 -8 24 -25v-110h70c18 0 27 -14 27 -27s-9 -27 -27 -27h-70c2 -45 36 -82 80 -82c14 0 22 -10 22 -21
s-8 -22 -22 -22c-49 0 -96 14 -145 14s-97 -14 -146 -14c-14 0 -21 11 -21 22s7 21 21 21c44 0 79 37 81 82h-134c-43 0 -57 25 -57 42c0 5 1 10 3 12c73 81 123 182 123 291c0 17 11 31 25 31z" fill="currentColor"/>
</g>
<g transform="translate(88.7390, 31.9838)">
<path transform="scale(0.0022, -0.0022)" d="M194 486c16 0 29 15 41 15c13 0 24 -13 24 -31v-341c0 -47 35 -86 81 -86c14 0 21 -10 21 -21s-7 -22 -21 -22c-49 0 -97 14 -146 14s-96 -14 -145 -14c-14 0 -22 11 -22 22s8 21 22 21c46 0 80 39 80 86v137c0 23 -16 35 -30 35c-7 0 -13 -4 -17 -11l-34 -65
c-5 -10 -14 -15 -23 -15c-14 0 -28 12 -28 27c0 4 1 8 3 13l129 250c2 4 7 6 11 6c18 0 37 -20 54 -20z" fill="currentColor"/>
</g>
<g transform="translate(38.3771, 36.1746)">
<path stroke-width="0.0800" stroke-linejoin="round" stroke-linecap="round" stroke="currentColor" fill="currentColor" d="M2.4773 -2.7500C3.7988 -3.7100 13.2301 -3.7100 14.5516 -2.7500L14.5516 -2.7500C13.2301 -3.5900 3.7988 -3.5900 2.4773 -2.7500z"/>
</g>
<g transform="translate(38.3771, 36.1746)">
<path stroke-width="0.0800" stroke-linejoin="round" stroke-linecap="round" stroke="currentColor" fill="currentColor" d="M1.7123 -0.0000C3.0380 -0.9609 12.5739 -0.9609 13.8995 -0.0000L13.8995 -0.0000C12.5739 -0.8409 3.0380 -0.8409 1.7123 -0.0000z"/>
</g>
<g transform="translate(92.2624, 25.0724)">
<path transform="scale(0.0040, -0.0040)" d="M218 136c66 0 108 -36 108 -89c0 -89 -113 -183 -218 -183c-66 0 -108 36 -108 89c0 89 113 183 218 183z" fill="currentColor"/>
</g>
<g transform="translate(92.2624, 24.0724)">
<path transform="scale(0.0040, -0.0040)" d="M218 136c66 0 108 -36 108 -89c0 -89 -113 -183 -218 -183c-66 0 -108 36 -108 89c0 89 113 183 218 183z" fill="currentColor"/>
</g>
<g transform="translate(92.2624, 26.5724)">
<path transform="scale(0.0040, -0.0040)" d="M218 136c66 0 108 -36 108 -89c0 -89 -113 -183 -218 -183c-66 0 -108 36 -108 89c0 89 113 183 218 183z" fill="currentColor"/>
</g>
<g transform="translate(5.6906, 24.0724)">
<path stroke-width="0.0800" stroke-linejoin="round" stroke-linecap="round" stroke="currentColor" fill="currentColor" d="M5.2200 -2.9442C6.8328 -4.3790 12.2598 -4.5349 13.9523 -3.1950L13.9523 -3.1950C12.2633 -4.4150 6.8362 -4.2591 5.2200 -2.9442z"/>
</g>
<g transform="translate(92.2624, 34.6746)">
<path transform="scale(0.0040, -0.0040)" d="M218 136c66 0 108 -36 108 -89c0 -89 -113 -183 -218 -183c-66 0 -108 36 -108 89c0 89 113 183 218 183z" fill="currentColor"/>
</g>
<g transform="translate(92.2624, 33.6746)">
<path transform="scale(0.0040, -0.0040)" d="M218 136c66 0 108 -36 108 -89c0 -89 -113 -183 -218 -183c-66 0 -108 36 -108 89c0 89 113 183 218 183z" fill="currentColor"/>
</g>
<g transform="translate(5.6306, 30.1235)">
<rect x="0.0000" y="-8.1011" width="0.1600" height="16.2021" ry="0.0500" fill="currentColor"/>
</g>
<g transform="translate(93.5016, 24.0724)">
<rect x="-0.0650" y="-2.8258" width="0.1300" height="3.6396" ry="0.0400" fill="currentColor"/>
</g>
<g transform="translate(92.4877, 19.1662)">
<path transform="scale(0.0022, -0.0022)" d="M94 66c-60 0 -39 -66 -72 -66c-11 0 -22 7 -22 21c0 154 232 162 232 334c0 50 -17 102 -61 102c-33 0 -66 -14 -66 -44c0 -24 31 -37 31 -61c0 -34 -27 -61 -61 -61s-61 27 -61 61c0 84 72 148 157 148c98 0 190 -55 190 -145c0 -140 -131 -154 -225 -205
c85 -2 113 -61 165 -61c45 0 28 41 57 41c11 0 22 -8 22 -21c0 -29 -48 -109 -144 -109c-92 0 -96 66 -142 66z" fill="currentColor"/>
</g>
<g transform="translate(92.5218, 17.5436)">
<path transform="scale(0.0022, -0.0022)" d="M261 266c0 -54 85 -40 85 -125c0 -94 -83 -141 -186 -141c-84 0 -160 54 -160 133c0 32 26 58 58 58s58 -26 58 -58c0 -22 -36 -26 -36 -48c0 -33 42 -42 80 -42c41 0 56 50 56 98v21c0 44 -2 77 -43 77h-65c-18 0 -27 14 -27 27s9 27 27 27h65c42 0 43 36 43 83v11
c0 43 -20 70 -61 70c-34 0 -71 -8 -71 -38c0 -19 32 -23 32 -42c0 -28 -23 -51 -51 -51s-51 23 -51 51c0 72 66 123 141 123c93 0 174 -31 174 -113c0 -94 -68 -67 -68 -121z" fill="currentColor"/>
</g>
<g transform="translate(92.3274, 24.0724)">
<rect x="-0.0650" y="2.6861" width="0.1300" height="2.3139" ry="0.0400" fill="currentColor"/>
</g>
<g transform="translate(92.3274, 36.1746)">
<rect x="-0.0650" y="-2.3139" width="0.1300" height="4.3139" ry="0.0400" fill="currentColor"/>
</g>
<g transform="translate(92.4877, 39.8471)">
<path transform="scale(0.0022, -0.0022)" d="M94 66c-60 0 -39 -66 -72 -66c-11 0 -22 7 -22 21c0 154 232 162 232 334c0 50 -17 102 -61 102c-33 0 -66 -14 -66 -44c0 -24 31 -37 31 -61c0 -34 -27 -61 -61 -61s-61 27 -61 61c0 84 72 148 157 148c98 0 190 -55 190 -145c0 -140 -131 -154 -225 -205
c85 -2 113 -61 165 -61c45 0 28 41 57 41c11 0 22 -8 22 -21c0 -29 -48 -109 -144 -109c-92 0 -96 66 -142 66z" fill="currentColor"/>
</g>
<g transform="translate(92.5048, 32.2543)">
<path transform="scale(0.0022, -0.0022)" d="M194 486c16 0 29 15 41 15c13 0 24 -13 24 -31v-341c0 -47 35 -86 81 -86c14 0 21 -10 21 -21s-7 -22 -21 -22c-49 0 -97 14 -146 14s-96 -14 -145 -14c-14 0 -22 11 -22 22s8 21 22 21c46 0 80 39 80 86v137c0 23 -16 35 -30 35c-7 0 -13 -4 -17 -11l-34 -65
c-5 -10 -14 -15 -23 -15c-14 0 -28 12 -28 27c0 4 1 8 3 13l129 250c2 4 7 6 11 6c18 0 37 -20 54 -20z" fill="currentColor"/>
</g>
<g transform="translate(5.3306, 30.1235)">
<path transform="scale(0.0040, -0.0040)" d="M-88 -452c0 312 -152 448 -152 452s152 140 152 452c0 320 -128 612 -128 972c0 224 52 440 204 608c16 16 40 -8 24 -24c-112 -128 -148 -280 -148 -444c0 -316 120 -600 120 -956c0 -224 -48 -440 -196 -608c148 -168 196 -384 196 -608c0 -356 -120 -640 -120 -956
c0 -164 36 -316 148 -444c16 -16 -8 -40 -24 -24c-152 168 -204 384 -204 608c0 360 128 652 128 972z" fill="currentColor"/>
</g>
<g transform="translate(33.9444, 36.1746)">
<path stroke-width="0.0800" stroke-linejoin="round" stroke-linecap="round" stroke="currentColor" fill="currentColor" d="M2.1620 3.0000C3.6234 3.9880 17.5230 3.9880 18.9843 3.0000L18.9843 3.0000C17.5230 3.8680 3.6234 3.8680 2.1620 3.0000z"/>
</g>
<g transform="translate(94.9789, 23.0724)">
<path transform="scale(0.0040, -0.0040)" d="M218 136c66 0 108 -36 108 -89c0 -89 -113 -183 -218 -183c-66 0 -108 36 -108 89c0 89 113 183 218 183z" fill="currentColor"/>
</g>
<g transform="translate(96.2181, 24.0724)">
<rect x="-0.0650" y="-3.4842" width="0.1300" height="2.2981" ry="0.0400" fill="currentColor"/>
</g>
<g transform="translate(23.2767, 40.1746)">
<polygon stroke-linejoin="round" stroke-linecap="round" stroke-width="0.0800" fill="currentColor" stroke="currentColor" points="7.2396 0.3000 7.2396 0.7000 0.0400 0.2000 0.0400 -0.2000"/>
</g>
<g transform="translate(97.1955, 26.5724)">
<path transform="scale(0.0040, -0.0040)" d="M218 136c66 0 108 -36 108 -89c0 -89 -113 -183 -218 -183c-66 0 -108 36 -108 89c0 89 113 183 218 183z" fill="currentColor"/>
</g>
<g transform="translate(97.1135, 19.3424)">
<path transform="scale(0.0040, -0.0040)" d="M161 32c78 0 97 176 97 178c0 18 -7 33 -25 33c-61 0 -102 -124 -102 -173c0 -22 8 -38 30 -38zM-53 141c0 2 51 151 134 151c35 0 59 -21 66 -52c29 31 67 52 103 52c69 0 107 -49 107 -114c0 -118 -105 -186 -159 -186c-53 0 -70 20 -84 20c-7 0 -14 -3 -16 -9l-29 -86
c-1 -2 -1 -5 -1 -7c0 -37 57 -18 57 -42c0 -7 -4 -14 -13 -14c-3 0 -50 5 -116 5s-112 -5 -115 -5c-9 0 -14 7 -14 14c0 31 87 -1 102 41l102 300c2 7 4 14 4 20c0 8 -2 14 -11 14c-33 0 -63 -60 -79 -97c-5 -12 -15 -17 -24 -17c-8 0 -14 4 -14 12z" fill="currentColor"/>
</g>
<g transform="translate(97.1955, 27.5724)">
<path transform="scale(0.0040, -0.0040)" d="M218 136c66 0 108 -36 108 -89c0 -89 -113 -183 -218 -183c-66 0 -108 36 -108 89c0 89 113 183 218 183z" fill="currentColor"/>
</g>
<g transform="translate(97.1955, 36.6746)">
<path transform="scale(0.0040, -0.0040)" d="M218 136c66 0 108 -36 108 -89c0 -89 -113 -183 -218 -183c-66 0 -108 36 -108 89c0 89 113 183 218 183z" fill="currentColor"/>
</g>
<g transform="translate(97.1955, 44.2450)">
<g>
<path transform="scale(0.0022, -0.0022)" d="M261 266c0 -54 85 -40 85 -125c0 -94 -83 -141 -186 -141c-84 0 -160 54 -160 133c0 32 26 58 58 58s58 -26 58 -58c0 -22 -36 -26 -36 -48c0 -33 42 -42 80 -42c41 0 56 50 56 98v21c0 44 -2 77 -43 77h-65c-18 0 -27 14 -27 27s9 27 27 27h65c42 0 43 36 43 83v11
c0 43 -20 70 -61 70c-34 0 -71 -8 -71 -38c0 -19 32 -23 32 -42c0 -28 -23 -51 -51 -51s-51 23 -51 51c0 72 66 123 141 123c93 0 174 -31 174 -113c0 -94 -68 -67 -68 -121z" fill="currentColor"/>

<path transform="translate(0.8194, 0.0000) scale(0.0022, -0.0022)" d="M149 149h-131c-10 0 -18 8 -18 18s8 18 18 18h131c10 0 18 -8 18 -18s-8 -18 -18 -18z" fill="currentColor"/>

<path transform="translate(1.2633, 0.0000) scale(0.0022, -0.0022)" d="M194 486c16 0 29 15 41 15c13 0 24 -13 24 -31v-341c0 -47 35 -86 81 -86c14 0 21 -10 21 -21s-7 -22 -21 -22c-49 0 -97 14 -146 14s-96 -14 -145 -14c-14 0 -22 11 -22 22s8 21 22 21c46 0 80 39 80 86v137c0 23 -16 35 -30 35c-7 0 -13 -4 -17 -11l-34 -65
c-5 -10 -14 -15 -23 -15c-14 0 -28 12 -28 27c0 4 1 8 3 13l129 250c2 4 7 6 11 6c18 0 37 -20 54 -20z" fill="currentColor"/>
</g>
</g>
<g transform="translate(97.1955, 36.6746)">
<path transform="scale(0.0040, -0.0040)" d="M218 136c66 0 108 -36 108 -89c0 -89 -113 -183 -218 -183c-66 0 -108 36 -108 89c0 89 113 183 218 183z" fill="currentColor"/>
</g>
<g transform="translate(97.1955, 34.6746)">
<path transform="scale(0.0040, -0.0040)" d="M218 136c66 0 108 -36 108 -89c0 -89 -113 -183 -218 -183c-66 0 -108 36 -108 89c0 89 113 183 218 183z" fill="currentColor"/>
</g>
<g transform="translate(98.6515, 46.4400)">
<path transform="scale(0.0040, -0.0040)" d="M0 35c0 19 16 35 35 35s35 -16 35 -35s-16 -35 -35 -35s-35 16 -35 35z" fill="currentColor"/>
</g>
<g transform="translate(95.4595, 46.4400)">
<path transform="scale(0.0040, -0.0040)" d="M43 339c0 -34 27 -48 39 -48c22 0 43 28 43 59c0 8 18 8 18 0c0 -63 -41 -125 -83 -125c-22 0 -61 24 -61 78c0 82 90 197 251 197c108 0 166 -82 166 -144c0 -46 -31 -67 -52 -67c-35 0 -68 49 -87 90c-3 7 13 14 16 7c8 -18 28 -32 46 -32c15 0 32 12 32 36
c0 39 -44 92 -121 92h-7c-7 -14 -39 -93 -39 -108c0 -46 100 -114 100 -164c0 -19 -31 -56 -58 -90c29 -3 83 -28 102 -44c7 -6 10 -4 57 31c-5 23 -6 36 -6 48c0 65 35 132 96 132c32 0 49 -23 49 -45c0 -37 -43 -80 -79 -110l-11 -9c18 -33 44 -80 65 -69c9 5 47 33 63 47
c-4 14 -6 28 -6 42c0 55 45 112 97 137c-51 71 -129 126 -208 140c-8 1 -5 19 3 18c175 -31 332 -171 332 -296c0 -70 -50 -142 -113 -142c-43 0 -81 37 -99 82c-51 -47 -88 -81 -115 -81c-14 0 -38 -1 -62 85c-1 -1 -85 -71 -106 -82c-37 -20 -37 87 -74 98
c-25 -30 -47 -57 -56 -66c-11 -11 -64 -36 -65 -36h1c-7 0 -14 5 -14 12c0 30 87 103 125 108c28 33 30 38 30 49c0 47 -88 111 -88 150c0 21 44 135 60 162c-113 -10 -181 -88 -181 -142zM475 254c-22 0 -43 -16 -43 -55c0 -20 6 -42 14 -60c23 20 63 53 63 83
c0 17 -14 32 -34 32zM683 265c-37 -21 -55 -77 -55 -122c0 -48 18 -108 59 -108c32 0 45 39 45 81c0 14 -1 74 -49 149z" fill="currentColor"/>
</g>
<g transform="translate(98.4347, 24.0724)">
<rect x="-0.0650" y="-0.8150" width="0.1300" height="3.1289" ry="0.0400" fill="currentColor"/>
</g>
<g transform="translate(97.4549, 21.5224)">
<path transform="scale(0.0022, -0.0022)" d="M261 266c0 -54 85 -40 85 -125c0 -94 -83 -141 -186 -141c-84 0 -160 54 -160 133c0 32 26 58 58 58s58 -26 58 -58c0 -22 -36 -26 -36 -48c0 -33 42 -42 80 -42c41 0 56 50 56 98v21c0 44 -2 77 -43 77h-65c-18 0 -27 14 -27 27s9 27 27 27h65c42 0 43 36 43 83v11
c0 43 -20 70 -61 70c-34 0 -71 -8 -71 -38c0 -19 32 -23 32 -42c0 -28 -23 -51 -51 -51s-51 23 -51 51c0 72 66 123 141 123c93 0 174 -31 174 -113c0 -94 -68 -67 -68 -121z" fill="currentColor"/>
</g>
<g transform="translate(97.2605, 24.0724)">
<rect x="-0.0650" y="3.6861" width="0.1300" height="2.3139" ry="0.0400" fill="currentColor"/>
</g>
<g transform="translate(97.4379, 21.5224)">
<path transform="scale(0.0022, -0.0022)" d="M194 486c16 0 29 15 41 15c13 0 24 -13 24 -31v-341c0 -47 35 -86 81 -86c14 0 21 -10 21 -21s-7 -22 -21 -22c-49 0 -97 14 -146 14s-96 -14 -145 -14c-14 0 -22 11 -22 22s8 21 22 21c46 0 80 39 80 86v137c0 23 -16 35 -30 35c-7 0 -13 -4 -17 -11l-34 -65
c-5 -10 -14 -15 -23 -15c-14 0 -28 12 -28 27c0 4 1 8 3 13l129 250c2 4 7 6 11 6c18 0 37 -20 54 -20z" fill="currentColor"/>
</g>
<g transform="translate(97.2605, 36.1746)">
<rect x="-0.0650" y="0.6861" width="0.1300" height="4.5383" ry="0.0400" fill="currentColor"/>
</g>
<g transform="translate(98.4347, 36.1746)">
<rect x="-0.0650" y="-4.3333" width="0.1300" height="4.6472" ry="0.0400" fill="currentColor"/>
</g>
<g transform="translate(33.9444, 24.0724)">
<path stroke-width="0.0800" stroke-linejoin="round" stroke-linecap="round" stroke="currentColor" fill="currentColor" d="M1.7123 0.8057C2.6833 -0.0532 6.5913 -0.0532 7.5622 0.8057L7.5622 0.8057C6.5913 0.0668 2.6833 0.0668 1.7123 0.8057z"/>
</g>
<g transform="translate(99.5370, 27.0724)">
<path transform="scale(0.0040, -0.0040)" d="M218 136c66 0 108 -36 108 -89c0 -89 -113 -183 -218 -183c-66 0 -108 36 -108 89c0 89 113 183 218 183z" fill="currentColor"/>
</g>
<g transform="translate(99.5370, 26.0724)">
<path transform="scale(0.0040, -0.0040)" d="M218 136c66 0 108 -36 108 -89c0 -89 -113 -183 -218 -183c-66 0 -108 36 -108 89c0 89 113 183 218 183z" fill="currentColor"/>
</g>
<g transform="translate(99.5370, 40.1746)">
<path transform="scale(0.0040, -0.0040)" d="M218 136c66 0 108 -36 108 -89c0 -89 -113 -183 -218 -183c-66 0 -108 36 -108 89c0 89 113 183 218 183z" fill="currentColor"/>
</g>
<g transform="translate(100.7762, 24.0724)">
<rect x="-0.0650" y="-0.9950" width="0.1300" height="3.8089" ry="0.0400" fill="currentColor"/>
</g>
<g transform="translate(99.6020, 36.1746)">
<rect x="-0.0650" y="4.1861" width="0.1300" height="2.2794" ry="0.0400" fill="currentColor"/>
</g>
<g transform="translate(27.9598, 24.0724)">
<path stroke-width="0.0800" stroke-linejoin="round" stroke-linecap="round" stroke="currentColor" fill="currentColor" d="M1.2273 -1.6950C3.2108 -3.3261 11.8988 -3.5647 13.9689 -2.0450L13.9689 -2.0450C11.9021 -3.4448 3.2141 -3.2061 1.2273 -1.6950z"/>
</g>
<g transform="translate(102.0036, 27.0724)">
<path transform="scale(0.0040, -0.0040)" d="M314 65c0 23 -19 41 -42 41c-39 0 -204 -110 -231 -143c-7 -8 -10 -18 -10 -28c0 -23 19 -41 42 -41c39 0 203 110 230 143c7 8 11 18 11 28zM262 136c41 0 82 -14 82 -71c0 -26 -16 -112 -74 -151c-25 -17 -87 -50 -187 -50c-41 0 -83 14 -83 71c0 26 16 112 74 151
c25 17 88 50 188 50z" fill="currentColor"/>
</g>
<g transform="translate(102.0036, 25.5724)">
<path transform="scale(0.0040, -0.0040)" d="M314 65c0 23 -19 41 -42 41c-39 0 -204 -110 -231 -143c-7 -8 -10 -18 -10 -28c0 -23 19 -41 42 -41c39 0 203 110 230 143c7 8 11 18 11 28zM262 136c41 0 82 -14 82 -71c0 -26 -16 -112 -74 -151c-25 -17 -87 -50 -187 -50c-41 0 -83 14 -83 71c0 26 16 112 74 151
c25 17 88 50 188 50z" fill="currentColor"/>
</g>
<g transform="translate(102.6922, 21.2798)">
<path transform="scale(0.0040, -0.0040)" d="M-67 48c0 37 30 67 67 67s67 -30 67 -67s-30 -67 -67 -67s-67 30 -67 67zM0 363c255 0 332 -331 332 -366c0 -9 -10 -15 -19 -15s-17 5 -19 18c-26 148 -146 262 -294 262s-268 -114 -294 -262c-2 -13 -10 -18 -19 -18s-19 6 -19 15c0 35 77 366 332 366z" fill="currentColor"/>
</g>
<g transform="translate(102.0036, 28.0724)">
<path transform="scale(0.0040, -0.0040)" d="M314 65c0 23 -19 41 -42 41c-39 0 -204 -110 -231 -143c-7 -8 -10 -18 -10 -28c0 -23 19 -41 42 -41c39 0 203 110 230 143c7 8 11 18 11 28zM262 136c41 0 82 -14 82 -71c0 -26 -16 -112 -74 -151c-25 -17 -87 -50 -187 -50c-41 0 -83 14 -83 71c0 26 16 112 74 151
c25 17 88 50 188 50z" fill="currentColor"/>
</g>
<g transform="translate(102.0036, 36.6746)">
<path transform="scale(0.0040, -0.0040)" d="M314 65c0 23 -19 41 -42 41c-39 0 -204 -110 -231 -143c-7 -8 -10 -18 -10 -28c0 -23 19 -41 42 -41c39 0 203 110 230 143c7 8 11 18 11 28zM262 136c41 0 82 -14 82 -71c0 -26 -16 -112 -74 -151c-25 -17 -87 -50 -187 -50c-41 0 -83 14 -83 71c0 26 16 112 74 151
c25 17 88 50 188 50z" fill="currentColor"/>
</g>
<g transform="translate(102.0036, 38.6746)">
<path transform="scale(0.0040, -0.0040)" d="M314 65c0 23 -19 41 -42 41c-39 0 -204 -110 -231 -143c-7 -8 -10 -18 -10 -28c0 -23 19 -41 42 -41c39 0 203 110 230 143c7 8 11 18 11 28zM262 136c41 0 82 -14 82 -71c0 -26 -16 -112 -74 -151c-25 -17 -87 -50 -187 -50c-41 0 -83 14 -83 71c0 26 16 112 74 151
c25 17 88 50 188 50z" fill="currentColor"/>
</g>
<g transform="translate(102.6922, 41.3181)">
<path transform="scale(0.0040, -0.0040)" d="M-67 -48c0 37 30 67 67 67s67 -30 67 -67s-30 -67 -67 -67s-67 30 -67 67zM0 -363c-255 0 -332 331 -332 366c0 9 10 15 19 15s17 -5 19 -18c26 -148 146 -262 294 -262s268 114 294 262c2 13 10 18 19 18s19 -6 19 -15c0 -35 -77 -366 -332 -366z" fill="currentColor"/>
</g>
<g transform="translate(101.2258, 46.4400)">
<path transform="scale(0.0040, -0.0040)" d="M166 194c0 -16 12 -28 28 -28s29 12 29 28s-13 29 -29 29s-28 -13 -28 -29zM92 347c7 0 42 -3 42 -46v-11c0 -56 50 -38 50 -13c0 27 -38 37 -38 64c0 32 24 48 48 48s49 -16 49 -48c0 -27 -39 -37 -39 -64c0 -25 51 -43 51 13c0 4 -1 7 -1 11c0 43 36 46 43 46
c26 0 50 -24 50 -50c0 -7 -2 -43 -45 -43c-4 0 -8 1 -12 1c-56 0 -38 -51 -13 -51c27 0 37 39 64 39c32 0 48 -25 48 -49s-16 -48 -48 -48c-27 0 -37 38 -64 38c-25 0 -43 -50 13 -50h12c43 0 45 -35 45 -42c0 -26 -24 -50 -50 -50c-7 0 -43 2 -43 45c0 4 1 8 1 12
c0 56 -51 38 -51 13c0 -27 39 -37 39 -64c0 -32 -25 -48 -49 -48s-48 16 -48 48c0 27 38 37 38 64c0 25 -50 43 -50 -13v-12c0 -43 -35 -45 -42 -45c-26 0 -50 24 -50 50c0 7 2 42 45 42h12c56 0 38 50 13 50c-27 0 -37 -38 -64 -38c-32 0 -48 24 -48 48s16 49 48 49
c27 0 37 -39 64 -39c25 0 43 51 -13 51c-4 0 -8 -1 -12 -1c-43 0 -45 36 -45 43c0 26 24 50 50 50z" fill="currentColor"/>
</g>
<g transform="translate(103.3159, 24.0724)">
<rect x="-0.0650" y="-2.0000" width="0.1300" height="4.7410" ry="0.0400" fill="currentColor"/>
</g>
<g transform="translate(102.0686, 24.0724)">
<rect x="-0.0650" y="4.2590" width="0.1300" height="2.2410" ry="0.0400" fill="currentColor"/>
</g>
<g transform="translate(103.3159, 36.1746)">
<rect x="-0.0650" y="-3.0000" width="0.1300" height="5.2410" ry="0.0400" fill="currentColor"/>
</g>
<g transform="translate(102.2996, 40.8421)">
<path transform="scale(0.0022, -0.0022)" d="M261 266c0 -54 85 -40 85 -125c0 -94 -83 -141 -186 -141c-84 0 -160 54 -160 133c0 32 26 58 58 58s58 -26 58 -58c0 -22 -36 -26 -36 -48c0 -33 42 -42 80 -42c41 0 56 50 56 98v21c0 44 -2 77 -43 77h-65c-18 0 -27 14 -27 27s9 27 27 27h65c42 0 43 36 43 83v11
c0 43 -20 70 -61 70c-34 0 -71 -8 -71 -38c0 -19 32 -23 32 -42c0 -28 -23 -51 -51 -51s-51 23 -51 51c0 72 66 123 141 123c93 0 174 -31 174 -113c0 -94 -68 -67 -68 -121z" fill="currentColor"/>
</g>
<g transform="translate(18.3437, 39.1746)">
<polygon stroke-linejoin="round" stroke-linecap="round" stroke-width="0.0800" fill="currentColor" stroke="currentColor" points="2.5565 -0.3900 2.5565 0.0100 0.0400 0.2000 0.0400 -0.2000"/>
</g>
<g transform="translate(18.3437, 36.1746)">
<path stroke-width="0.0800" stroke-linejoin="round" stroke-linecap="round" stroke="currentColor" fill="currentColor" d="M0.0446 3.7352C2.2888 5.5369 14.8593 6.1281 17.2627 4.5450L17.2627 4.5450C14.8649 6.0082 2.2945 5.4170 0.0446 3.7352z"/>
</g>
<g transform="translate(14.5848, 21.8824)">
<polygon stroke-linejoin="round" stroke-linecap="round" stroke-width="0.0800" fill="currentColor" stroke="currentColor" points="2.8065 -0.8200 2.8065 -0.4200 0.0400 0.2000 0.0400 -0.2000"/>
</g>
<g transform="translate(14.1105, 165.5950)">
<rect x="-1.1000" y="-0.1000" width="93.4805" height="0.1000" ry="0.0000" fill="currentColor"/>
</g>
<g transform="translate(14.1105, 156.3975)">
<rect x="-1.1000" y="-0.1000" width="93.4805" height="0.1000" ry="0.0000" fill="currentColor"/>
</g>
<g transform="translate(13.0105, 158.7593)">
<rect x="0" y="-2.3619" width="0.1000" height="9.0976" ry="0.0000" fill="currentColor"/>
</g>
<g transform="translate(106.3910, 158.7593)">
<rect x="0" y="-2.3619" width="0.1000" height="9.0976" ry="0.0000" fill="currentColor"/>
</g>
<g transform="translate(14.1105, 158.7593)">
<text font-family="serif" font-size="1.9598" text-anchor="start" fill="currentColor">
<tspan>Sheet</tspan>
</text>
</g>
<g transform="translate(19.0467, 158.7593)">
<text font-family="serif" font-size="1.9598" text-anchor="start" fill="currentColor">
<tspan>music</tspan>
</text>
</g>
<g transform="translate(24.3244, 158.7593)">
<text font-family="serif" font-size="1.9598" text-anchor="start" fill="currentColor">
<tspan>from</tspan>
</text>
</g>
<g transform="translate(28.7484, 158.7593)">
<a xlink:href="http://www.MutopiaProject.org">
<rect x="0.0000" y="-0.4230" width="17.9667" height="1.7849" fill="none" stroke="none" stroke-width="0.0"/>
</a>
</g>
<g transform="translate(28.7484, 158.7593)">
<text font-family="serif" font-size="1.5552" text-anchor="start" fill="currentColor">
<tspan>www.</tspan>
</text>
</g>

<g transform="translate(43.7909, 158.7593)">
<text font-family="serif" font-size="1.5552" text-anchor="start" fill="currentColor">
<tspan>.org</tspan>
</text>
</g>
<g transform="translate(47.3151, 158.7593)">
<text font-family="serif" font-size="1.9598" text-anchor="start" fill="currentColor">
<tspan>•</tspan>
</text>
</g>
<g transform="translate(49.0980, 158.7593)">
<text font-family="serif" font-style="italic" font-size="1.9598" text-anchor="start" fill="currentColor">
<tspan>Free</tspan>
</text>
</g>
<g transform="translate(53.2830, 158.7593)">
<text font-family="serif" font-size="1.9598" text-anchor="start" fill="currentColor">
<tspan>to</tspan>
</text>
</g>
<g transform="translate(55.4194, 158.7593)">
<text font-family="serif" font-size="1.9598" text-anchor="start" fill="currentColor">
<tspan>download,</tspan>
</text>
</g>
<g transform="translate(64.2480, 158.7593)">
<text font-family="serif" font-size="1.9598" text-anchor="start" fill="currentColor">
<tspan>with</tspan>
</text>
</g>
<g transform="translate(68.3306, 158.7593)">
<text font-family="serif" font-size="1.9598" text-anchor="start" fill="currentColor">
<tspan>the</tspan>
</text>
</g>
<g transform="translate(71.3206, 158.7593)">
<text font-family="serif" font-style="italic" font-size="1.9598" text-anchor="start" fill="currentColor">
<tspan>freedom</tspan>
</text>
</g>
<g transform="translate(78.2371, 158.7593)">
<text font-family="serif" font-size="1.9598" text-anchor="start" fill="currentColor">
<tspan>to</tspan>
</text>
</g>
<g transform="translate(80.3736, 158.7593)">
<text font-family="serif" font-size="1.9598" text-anchor="start" fill="currentColor">
<tspan>distribute,</tspan>
</text>
</g>
<g transform="translate(88.8607, 158.7593)">
<text font-family="serif" font-size="1.9598" text-anchor="start" fill="currentColor">
<tspan>modify</tspan>
</text>
</g>
<g transform="translate(95.1626, 158.7593)">
<text font-family="serif" font-size="1.9598" text-anchor="start" fill="currentColor">
<tspan>and</tspan>
</text>
</g>
<g transform="translate(98.5965, 158.7593)">
<text font-family="serif" font-size="1.9598" text-anchor="start" fill="currentColor">
<tspan>perform.</tspan>
</text>
</g>
<g transform="translate(25.0623, 161.4593)">
<text font-family="serif" font-size="1.9598" text-anchor="start" fill="currentColor">
<tspan>Typeset</tspan>
</text>
</g>
<g transform="translate(31.7056, 161.4593)">
<text font-family="serif" font-size="1.9598" text-anchor="start" fill="currentColor">
<tspan>using</tspan>
</text>
</g>
<g transform="translate(36.5736, 161.4593)">
<a xlink:href="http://www.LilyPond.org">
<rect x="0.0000" y="-0.4230" width="12.6183" height="1.7839" fill="none" stroke="none" stroke-width="0.0"/>
</a>
</g>
<g transform="translate(36.5736, 161.4593)">
<text font-family="serif" font-size="1.5552" text-anchor="start" fill="currentColor">
<tspan>www.</tspan>
</text>
</g>
<g transform="translate(39.8269, 161.4593)">
<text font-family="serif" font-size="1.9598" text-anchor="start" fill="currentColor">
<tspan>LilyPond</tspan>
</text>
</g>
<g transform="translate(46.7677, 161.4593)">
<text font-family="serif" font-size="1.5552" text-anchor="start" fill="currentColor">
<tspan>.org</tspan>
</text>
</g>
<g transform="translate(49.7919, 161.4593)">
<text font-family="serif" font-size="1.9598" text-anchor="start" fill="currentColor">
<tspan>by</tspan>
</text>
</g>
<g transform="translate(52.3722, 161.4593)">
<text font-family="serif" font-size="1.9598" text-anchor="start" fill="currentColor">
<tspan>Ying-Chun Liu</tspan>
</text>
</g>
<g transform="translate(63.9223, 161.4593)">
<text font-family="serif" font-size="1.9598" text-anchor="start" fill="currentColor">
<tspan>.</tspan>
</text>
</g>
<g transform="translate(65.5004, 161.4593)">
<text font-family="serif" font-size="1.9598" text-anchor="start" fill="currentColor">
<tspan>Reference:</tspan>
</text>
</g>

<g transform="translate(15.0141, 164.1593)">
<text font-family="serif" font-size="1.5552" text-anchor="start" fill="currentColor">
<tspan>This</tspan>
</text>
</g>
<g transform="translate(18.4139, 164.1593)">
<text font-family="serif" font-size="1.5552" text-anchor="start" fill="currentColor">
<tspan>sheet</tspan>
</text>
</g>
<g transform="translate(22.2233, 164.1593)">
<text font-family="serif" font-size="1.5552" text-anchor="start" fill="currentColor">
<tspan>music</tspan>
</text>
</g>
<g transform="translate(26.5450, 164.1593)">
<text font-family="serif" font-size="1.5552" text-anchor="start" fill="currentColor">
<tspan>has</tspan>
</text>
</g>
<g transform="translate(29.2277, 164.1593)">
<text font-family="serif" font-size="1.5552" text-anchor="start" fill="currentColor">
<tspan>been</tspan>
</text>
</g>
<g transform="translate(32.7640, 164.1593)">
<text font-family="serif" font-size="1.5552" text-anchor="start" fill="currentColor">
<tspan>placed</tspan>
</text>
</g>
<g transform="translate(37.4271, 164.1593)">
<text font-family="serif" font-size="1.5552" text-anchor="start" fill="currentColor">
<tspan>in</tspan>
</text>
</g>
<g transform="translate(39.2562, 164.1593)">
<text font-family="serif" font-size="1.5552" text-anchor="start" fill="currentColor">
<tspan>the</tspan>
</text>
</g>
<g transform="translate(41.7683, 164.1593)">
<text font-family="serif" font-size="1.5552" text-anchor="start" fill="currentColor">
<tspan>public</tspan>
</text>
</g>
<g transform="translate(46.2947, 164.1593)">
<text font-family="serif" font-size="1.5552" text-anchor="start" fill="currentColor">
<tspan>domain</tspan>
</text>
</g>
<g transform="translate(51.5724, 164.1593)">
<text font-family="serif" font-size="1.5552" text-anchor="start" fill="currentColor">
<tspan>by</tspan>
</text>
</g>
<g transform="translate(53.7430, 164.1593)">
<text font-family="serif" font-size="1.5552" text-anchor="start" fill="currentColor">
<tspan>the</tspan>
</text>
</g>
<g transform="translate(56.2550, 164.1593)">
<text font-family="serif" font-size="1.5552" text-anchor="start" fill="currentColor">
<tspan>typesetter,</tspan>
</text>
</g>
<g transform="translate(63.2398, 164.1593)">
<text font-family="serif" font-size="1.5552" text-anchor="start" fill="currentColor">
<tspan>for</tspan>
</text>
</g>
<g transform="translate(65.6494, 164.1593)">
<text font-family="serif" font-size="1.5552" text-anchor="start" fill="currentColor">
<tspan>details</tspan>
</text>
</g>
<g transform="translate(70.3466, 164.1593)">
<text font-family="serif" font-size="1.5552" text-anchor="start" fill="currentColor">
<tspan>see:</tspan>
</text>
</g>
<g transform="translate(72.8708, 164.1593)">
<a xlink:href="http://creativecommons.org/licenses/publicdomain">
<rect x="0.0000" y="-0.3357" width="31.6167" height="1.4157" fill="none" stroke="none" stroke-width="0.0"/>
</a>
</g>
<g transform="translate(72.8708, 164.1593)">
<text font-family="serif" font-size="1.5552" text-anchor="start" fill="currentColor">
<tspan>http://creativecommons.org/licenses/publicdomain</tspan>
</text>
</g>
</svg>
