<svg xmlns="http://www.w3.org/2000/svg" xmlns:xlink="http://www.w3.org/1999/xlink" version="1.2" viewBox="0.0000 -0.0000 119.5016 169.0094">
<style type="text/css">
<![CDATA[
tspan { white-space: pre; }
]]>
</style>
<g transform="translate(5.6906, 4.3320)">
<text font-family="serif" font-size="2.2000" text-anchor="start" fill="currentColor">
<tspan>2</tspan>
</text>
</g>
<g transform="translate(62.0659, 9.5720)">
<rect x="0.0000" y="-2.0000" width="0.1900" height="4.0500" ry="0.0000" fill="currentColor"/>
</g>
<g transform="translate(5.6906, 11.5720)">
<line stroke-linejoin="round" stroke-linecap="round" stroke-width="0.1000" stroke="currentColor" x1="0.0500" y1="0" x2="108.0705" y2="0"/>
</g>
<g transform="translate(5.6906, 10.5720)">
<line stroke-linejoin="round" stroke-linecap="round" stroke-width="0.1000" stroke="currentColor" x1="0.0500" y1="0" x2="108.0705" y2="0"/>
</g>
<g transform="translate(5.6906, 9.5720)">
<line stroke-linejoin="round" stroke-linecap="round" stroke-width="0.1000" stroke="currentColor" x1="0.0500" y1="0" x2="108.0705" y2="0"/>
</g>
<g transform="translate(5.6906, 8.5720)">
<line stroke-linejoin="round" stroke-linecap="round" stroke-width="0.1000" stroke="currentColor" x1="0.0500" y1="0" x2="108.0705" y2="0"/>
</g>
<g transform="translate(5.6906, 7.5720)">
<line stroke-linejoin="round" stroke-linecap="round" stroke-width="0.1000" stroke="currentColor" x1="0.0500" y1="0" x2="108.0705" y2="0"/>
</g>
<g transform="translate(113.6210, 5.3320)">
<rect x="0.0000" y="6.2900" width="0.1900" height="5.5000" ry="0.0000" fill="currentColor"/>
</g>
<g transform="translate(5.6906, 22.1220)">
<rect x="43.7199" y="-0.1000" width="1.8053" height="0.2000" ry="0.1000" fill="currentColor"/>
</g>
<g transform="translate(5.6906, 21.1220)">
<line stroke-linejoin="round" stroke-linecap="round" stroke-width="0.1000" stroke="currentColor" x1="0.0500" y1="0" x2="108.0705" y2="0"/>
</g>
<g transform="translate(5.6906, 20.1220)">
<line stroke-linejoin="round" stroke-linecap="round" stroke-width="0.1000" stroke="currentColor" x1="0.0500" y1="0" x2="108.0705" y2="0"/>
</g>
<g transform="translate(5.6906, 19.1220)">
<line stroke-linejoin="round" stroke-linecap="round" stroke-width="0.1000" stroke="currentColor" x1="0.0500" y1="0" x2="108.0705" y2="0"/>
</g>
<g transform="translate(5.6906, 18.1220)">
<line stroke-linejoin="round" stroke-linecap="round" stroke-width="0.1000" stroke="currentColor" x1="0.0500" y1="0" x2="108.0705" y2="0"/>
</g>
<g transform="translate(5.6906, 17.1220)">
<line stroke-linejoin="round" stroke-linecap="round" stroke-width="0.1000" stroke="currentColor" x1="0.0500" y1="0" x2="108.0705" y2="0"/>
</g>
<g transform="translate(113.6210, 19.1220)">
<rect x="0.0000" y="-2.0500" width="0.1900" height="4.0500" ry="0.0000" fill="currentColor"/>
</g>
<g transform="translate(113.6210, 9.5720)">
<rect x="0.0000" y="-2.0000" width="0.1900" height="4.0500" ry="0.0000" fill="currentColor"/>
</g>
<g transform="translate(62.0659, 5.3320)">
<rect x="0.0000" y="6.2900" width="0.1900" height="5.5000" ry="0.0000" fill="currentColor"/>
</g>
<g transform="translate(5.6906, 12.5720)">
<rect x="58.4798" y="-0.1000" width="1.9563" height="0.2000" ry="0.1000" fill="currentColor"/>
</g>
<g transform="translate(5.6906, 13.5720)">
<rect x="58.6308" y="-0.1000" width="1.8053" height="0.2000" ry="0.1000" fill="currentColor"/>
</g>
<g transform="translate(5.6906, 12.5720)">
<rect x="52.8551" y="-0.1000" width="1.9563" height="0.2000" ry="0.1000" fill="currentColor"/>
</g>
<g transform="translate(5.6906, 13.5720)">
<rect x="52.8551" y="-0.1000" width="1.9563" height="0.2000" ry="0.1000" fill="currentColor"/>
</g>
<g transform="translate(5.6906, 12.5720)">
<rect x="49.8430" y="-0.1000" width="1.9563" height="0.2000" ry="0.1000" fill="currentColor"/>
</g>
<g transform="translate(5.6906, 12.5720)">
<rect x="46.8309" y="-0.1000" width="1.9563" height="0.2000" ry="0.1000" fill="currentColor"/>
</g>
<g transform="translate(5.6906, 12.5720)">
<rect x="43.5689" y="-0.1000" width="1.9563" height="0.2000" ry="0.1000" fill="currentColor"/>
</g>
<g transform="translate(5.6906, 13.5720)">
<rect x="43.5689" y="-0.1000" width="1.9563" height="0.2000" ry="0.1000" fill="currentColor"/>
</g>
<g transform="translate(5.6906, 14.5720)">
<rect x="43.7199" y="-0.1000" width="1.8053" height="0.2000" ry="0.1000" fill="currentColor"/>
</g>
<g transform="translate(5.6906, 12.5720)">
<rect x="39.7068" y="-0.1000" width="1.9563" height="0.2000" ry="0.1000" fill="currentColor"/>
</g>
<g transform="translate(5.6906, 12.5720)">
<rect x="36.4447" y="-0.1000" width="1.9563" height="0.2000" ry="0.1000" fill="currentColor"/>
</g>
<g transform="translate(5.6906, 13.5720)">
<rect x="36.4447" y="-0.1000" width="1.9563" height="0.2000" ry="0.1000" fill="currentColor"/>
</g>
<g transform="translate(5.6906, 12.5720)">
<rect x="33.6826" y="-0.1000" width="1.9563" height="0.2000" ry="0.1000" fill="currentColor"/>
</g>
<g transform="translate(5.6906, 12.5720)">
<rect x="26.8085" y="-0.1000" width="1.9563" height="0.2000" ry="0.1000" fill="currentColor"/>
</g>
<g transform="translate(5.6906, 12.5720)">
<rect x="23.5464" y="-0.1000" width="1.9563" height="0.2000" ry="0.1000" fill="currentColor"/>
</g>
<g transform="translate(5.6906, 13.5720)">
<rect x="23.5464" y="-0.1000" width="1.9563" height="0.2000" ry="0.1000" fill="currentColor"/>
</g>
<g transform="translate(5.6906, 12.5720)">
<rect x="17.5223" y="-0.1000" width="1.9563" height="0.2000" ry="0.1000" fill="currentColor"/>
</g>
<g transform="translate(5.6906, 12.5720)">
<rect x="5.4739" y="-0.1000" width="1.9563" height="0.2000" ry="0.1000" fill="currentColor"/>
</g>
<g transform="translate(62.0659, 19.1220)">
<rect x="0.0000" y="-2.0500" width="0.1900" height="4.0500" ry="0.0000" fill="currentColor"/>
</g>
<g transform="translate(110.5508, 8.5720)">
<path transform="scale(0.0040, -0.0040)" d="M218 136c66 0 108 -36 108 -89c0 -89 -113 -183 -218 -183c-66 0 -108 36 -108 89c0 89 113 183 218 183z" fill="currentColor"/>
</g>
<g transform="translate(6.4906, 10.5720)">
<path transform="scale(0.0040, -0.0040)" d="M266 -635h-6c-108 0 -195 88 -195 197c0 58 53 103 112 103c54 0 95 -47 95 -103c0 -52 -43 -95 -95 -95c-11 0 -21 2 -31 6c26 -39 68 -65 117 -65h4zM461 -203c68 24 113 90 113 164c0 90 -66 179 -173 190c19 -89 48 -242 60 -354zM74 28c0 -145 141 -247 264 -247
c1 0 47 0 82 6c-7 64 -29 203 -63 364c-79 -8 -124 -61 -124 -119c0 -44 25 -91 81 -123c5 -5 7 -10 7 -15c0 -11 -10 -22 -22 -22c-15 0 -126 62 -126 187c0 88 58 174 160 197c-14 58 -29 117 -46 175c-107 -121 -213 -243 -213 -403zM250 553c-29 96 -52 170 -52 346
c0 115 55 224 149 292c6 5 14 5 20 0c68 -80 133 -245 133 -358c0 -143 -86 -255 -180 -364c21 -68 39 -138 56 -207c2 0 7 1 13 1c155 0 256 -128 256 -261c0 -113 -74 -212 -180 -246c3 -35 5 -70 5 -105c0 -19 -1 -39 -2 -58c-7 -119 -88 -225 -202 -228l1 43
c93 2 153 92 159 191c1 18 2 37 2 55c0 31 -1 61 -4 92c-5 -1 -44 -8 -89 -8c-193 0 -333 180 -333 374c0 177 131 306 248 441zM428 916c0 34 1 66 -20 129c-99 -48 -162 -149 -162 -259c0 -52 12 -115 36 -194c80 97 146 198 146 324z" fill="currentColor"/>
</g>
<g transform="translate(6.4906, 18.1220)">
<path transform="scale(0.0040, -0.0040)" d="M557 -125c0 28 23 51 51 51s51 -23 51 -51s-23 -51 -51 -51s-51 23 -51 51zM557 125c0 28 23 51 51 51s51 -23 51 -51s-23 -51 -51 -51s-51 23 -51 51zM232 263c172 0 293 -88 293 -251c0 -263 -263 -414 -516 -521c-3 -3 -6 -4 -9 -4c-7 0 -13 6 -13 13c0 3 1 6 4 9
c202 118 412 265 412 493c0 120 -63 235 -171 235c-74 0 -129 -54 -154 -126c11 5 22 8 34 8c55 0 100 -45 100 -100c0 -58 -44 -106 -100 -106c-60 0 -112 47 -112 106c0 133 102 244 232 244z" fill="currentColor"/>
</g>
<g transform="translate(3.9151, 6.5220)">
<text font-family="serif" font-size="1.7459" text-anchor="start" fill="currentColor">
<tspan>21</tspan>
</text>
</g>
<g transform="translate(92.9026, 7.5720)">
<polygon stroke-linejoin="round" stroke-linecap="round" stroke-width="0.0800" fill="currentColor" stroke="currentColor" points="6.6142 -1.7000 6.6142 -1.3000 0.0400 0.2000 0.0400 -0.2000"/>
</g>
<g transform="translate(92.9026, 8.3820)">
<polygon stroke-linejoin="round" stroke-linecap="round" stroke-width="0.0800" fill="currentColor" stroke="currentColor" points="6.6142 -1.7000 6.6142 -1.3000 0.0400 0.2000 0.0400 -0.2000"/>
</g>
<g transform="translate(11.4906, 12.5720)">
<path transform="scale(0.0040, -0.0040)" d="M218 136c66 0 108 -36 108 -89c0 -89 -113 -183 -218 -183c-66 0 -108 36 -108 89c0 89 113 183 218 183z" fill="currentColor"/>
</g>
<g transform="translate(11.4906, 20.6220)">
<path transform="scale(0.0040, -0.0040)" d="M218 136c66 0 108 -36 108 -89c0 -89 -113 -183 -218 -183c-66 0 -108 36 -108 89c0 89 113 183 218 183z" fill="currentColor"/>
</g>
<g transform="translate(12.7298, 9.5720)">
<rect x="-0.0650" y="-1.8113" width="0.1300" height="4.6252" ry="0.0400" fill="currentColor"/>
</g>
<g transform="translate(12.7298, 19.1220)">
<rect x="-0.0650" y="-3.0018" width="0.1300" height="4.3157" ry="0.0400" fill="currentColor"/>
</g>
<g transform="translate(89.9947, 16.1220)">
<polygon stroke-linejoin="round" stroke-linecap="round" stroke-width="0.0800" fill="currentColor" stroke="currentColor" points="18.5582 -0.2000 18.5582 0.2000 0.0400 0.2000 0.0400 -0.2000"/>
</g>
<g transform="translate(14.7526, 11.5720)">
<path transform="scale(0.0040, -0.0040)" d="M218 136c66 0 108 -36 108 -89c0 -89 -113 -183 -218 -183c-66 0 -108 36 -108 89c0 89 113 183 218 183z" fill="currentColor"/>
</g>
<g transform="translate(15.9918, 9.5720)">
<rect x="-0.0650" y="-1.8771" width="0.1300" height="3.6910" ry="0.0400" fill="currentColor"/>
</g>
<g transform="translate(77.0404, 21.3120)">
<polygon stroke-linejoin="round" stroke-linecap="round" stroke-width="0.0800" fill="currentColor" stroke="currentColor" points="8.8762 -0.2000 8.8762 0.2000 0.0400 0.2000 0.0400 -0.2000"/>
</g>
<g transform="translate(77.0404, 22.1220)">
<polygon stroke-linejoin="round" stroke-linecap="round" stroke-width="0.0800" fill="currentColor" stroke="currentColor" points="8.8762 -0.2000 8.8762 0.2000 0.0400 0.2000 0.0400 -0.2000"/>
</g>
<g transform="translate(18.0147, 10.0720)">
<path transform="scale(0.0040, -0.0040)" d="M218 136c66 0 108 -36 108 -89c0 -89 -113 -183 -218 -183c-66 0 -108 36 -108 89c0 89 113 183 218 183z" fill="currentColor"/>
</g>
<g transform="translate(18.0147, 19.6220)">
<path transform="scale(0.0040, -0.0040)" d="M218 136c66 0 108 -36 108 -89c0 -89 -113 -183 -218 -183c-66 0 -108 36 -108 89c0 89 113 183 218 183z" fill="currentColor"/>
</g>
<g transform="translate(19.2539, 9.5720)">
<rect x="-0.0650" y="-1.9430" width="0.1300" height="2.2568" ry="0.0400" fill="currentColor"/>
</g>
<g transform="translate(19.2539, 19.1220)">
<rect x="-0.0650" y="-3.1810" width="0.1300" height="3.4949" ry="0.0400" fill="currentColor"/>
</g>
<g transform="translate(67.4042, 20.1220)">
<polygon stroke-linejoin="round" stroke-linecap="round" stroke-width="0.0800" fill="currentColor" stroke="currentColor" points="6.7142 0.9900 6.7142 1.3900 0.0400 0.2000 0.0400 -0.2000"/>
</g>
<g transform="translate(67.4042, 20.9320)">
<polygon stroke-linejoin="round" stroke-linecap="round" stroke-width="0.0800" fill="currentColor" stroke="currentColor" points="6.7142 0.9900 6.7142 1.3900 0.0400 0.2000 0.0400 -0.2000"/>
</g>
<g transform="translate(20.7768, 11.5720)">
<path transform="scale(0.0040, -0.0040)" d="M218 136c66 0 108 -36 108 -89c0 -89 -113 -183 -218 -183c-66 0 -108 36 -108 89c0 89 113 183 218 183z" fill="currentColor"/>
</g>
<g transform="translate(22.0160, 9.5720)">
<rect x="-0.0650" y="-1.9987" width="0.1300" height="3.8126" ry="0.0400" fill="currentColor"/>
</g>
<g transform="translate(65.6706, 6.7620)">
<polygon stroke-linejoin="round" stroke-linecap="round" stroke-width="0.0800" fill="currentColor" stroke="currentColor" points="18.6582 -0.2000 18.6582 0.2000 0.0400 0.2000 0.0400 -0.2000"/>
</g>
<g transform="translate(23.5389, 12.5720)">
<path transform="scale(0.0040, -0.0040)" d="M218 136c66 0 108 -36 108 -89c0 -89 -113 -183 -218 -183c-66 0 -108 36 -108 89c0 89 113 183 218 183z" fill="currentColor"/>
</g>
<g transform="translate(23.5389, 18.6220)">
<path transform="scale(0.0040, -0.0040)" d="M218 136c66 0 108 -36 108 -89c0 -89 -113 -183 -218 -183c-66 0 -108 36 -108 89c0 89 113 183 218 183z" fill="currentColor"/>
</g>
<g transform="translate(24.7781, 9.5720)">
<rect x="-0.0650" y="-0.8100" width="0.1300" height="3.6239" ry="0.0400" fill="currentColor"/>
</g>
<g transform="translate(24.7781, 19.1220)">
<rect x="-0.0650" y="-3.3327" width="0.1300" height="2.6466" ry="0.0400" fill="currentColor"/>
</g>
<g transform="translate(50.7597, 9.5720)">
<polygon stroke-linejoin="round" stroke-linecap="round" stroke-width="0.0800" fill="currentColor" stroke="currentColor" points="9.3762 -0.2000 9.3762 0.2000 0.0400 0.2000 0.0400 -0.2000"/>
</g>
<g transform="translate(50.7597, 10.3820)">
<polygon stroke-linejoin="round" stroke-linecap="round" stroke-width="0.0800" fill="currentColor" stroke="currentColor" points="9.3762 -0.2000 9.3762 0.2000 0.0400 0.2000 0.0400 -0.2000"/>
</g>
<g transform="translate(26.8009, 11.5720)">
<path transform="scale(0.0040, -0.0040)" d="M218 136c66 0 108 -36 108 -89c0 -89 -113 -183 -218 -183c-66 0 -108 36 -108 89c0 89 113 183 218 183z" fill="currentColor"/>
</g>
<g transform="translate(28.0401, 9.5720)">
<rect x="-0.0650" y="-0.8100" width="0.1300" height="2.6239" ry="0.0400" fill="currentColor"/>
</g>
<g transform="translate(37.8614, 16.9320)">
<polygon stroke-linejoin="round" stroke-linecap="round" stroke-width="0.0800" fill="currentColor" stroke="currentColor" points="5.8642 -0.8200 5.8642 -0.4200 0.0400 0.2000 0.0400 -0.2000"/>
</g>
<g transform="translate(29.5630, 13.5720)">
<path transform="scale(0.0040, -0.0040)" d="M218 136c66 0 108 -36 108 -89c0 -89 -113 -183 -218 -183c-66 0 -108 36 -108 89c0 89 113 183 218 183z" fill="currentColor"/>
</g>
<g transform="translate(29.5630, 19.6220)">
<path transform="scale(0.0040, -0.0040)" d="M218 136c66 0 108 -36 108 -89c0 -89 -113 -183 -218 -183c-66 0 -108 36 -108 89c0 89 113 183 218 183z" fill="currentColor"/>
</g>
<g transform="translate(30.8022, 9.5720)">
<rect x="-0.0650" y="-0.8100" width="0.1300" height="4.6239" ry="0.0400" fill="currentColor"/>
</g>
<g transform="translate(30.8022, 19.1220)">
<rect x="-0.0650" y="-3.4982" width="0.1300" height="3.8121" ry="0.0400" fill="currentColor"/>
</g>
<g transform="translate(37.8614, 8.5720)">
<polygon stroke-linejoin="round" stroke-linecap="round" stroke-width="0.0800" fill="currentColor" stroke="currentColor" points="9.1262 -0.0100 9.1262 0.3900 0.0400 0.2000 0.0400 -0.2000"/>
</g>
<g transform="translate(37.8614, 9.3820)">
<polygon stroke-linejoin="round" stroke-linecap="round" stroke-width="0.0800" fill="currentColor" stroke="currentColor" points="9.1262 -0.0100 9.1262 0.3900 0.0400 0.2000 0.0400 -0.2000"/>
</g>
<g transform="translate(32.8251, 12.5720)">
<path transform="scale(0.0040, -0.0040)" d="M218 136c66 0 108 -36 108 -89c0 -89 -113 -183 -218 -183c-66 0 -108 36 -108 89c0 89 113 183 218 183z" fill="currentColor"/>
</g>
<g transform="translate(34.0643, 9.5720)">
<rect x="-0.0650" y="-0.8100" width="0.1300" height="3.6239" ry="0.0400" fill="currentColor"/>
</g>
<g transform="translate(24.7131, 8.7620)">
<polygon stroke-linejoin="round" stroke-linecap="round" stroke-width="0.0800" fill="currentColor" stroke="currentColor" points="9.3762 -0.2000 9.3762 0.2000 0.0400 0.2000 0.0400 -0.2000"/>
</g>
<g transform="translate(24.7131, 9.5720)">
<polygon stroke-linejoin="round" stroke-linecap="round" stroke-width="0.0800" fill="currentColor" stroke="currentColor" points="9.3762 -0.2000 9.3762 0.2000 0.0400 0.2000 0.0400 -0.2000"/>
</g>
<g transform="translate(36.6872, 12.0720)">
<path transform="scale(0.0040, -0.0040)" d="M218 136c66 0 108 -36 108 -89c0 -89 -113 -183 -218 -183c-66 0 -108 36 -108 89c0 89 113 183 218 183z" fill="currentColor"/>
</g>
<g transform="translate(36.6872, 20.6220)">
<path transform="scale(0.0040, -0.0040)" d="M218 136c66 0 108 -36 108 -89c0 -89 -113 -183 -218 -183c-66 0 -108 36 -108 89c0 89 113 183 218 183z" fill="currentColor"/>
</g>
<g transform="translate(37.9264, 9.5720)">
<rect x="-0.0650" y="-0.9987" width="0.1300" height="3.3125" ry="0.0400" fill="currentColor"/>
</g>
<g transform="translate(35.2372, 12.0720)">
<path transform="scale(0.0040, -0.0040)" d="M0 119c0 8 5 15 13 18l46 17v158c0 10 8 19 18 19s19 -9 19 -19v-145l83 31v158c0 10 9 19 19 19s18 -9 18 -19v-145l32 12c2 1 5 1 7 1c11 0 20 -9 20 -20v-60c0 -8 -5 -16 -13 -19l-46 -16v-160l32 11c2 1 5 1 7 1c11 0 20 -9 20 -20v-60c0 -8 -5 -15 -13 -18l-46 -17
v-158c0 -10 -8 -19 -18 -19s-19 9 -19 19v145l-83 -31v-158c0 -10 -9 -19 -19 -19s-18 9 -18 19v145l-32 -12c-2 -1 -5 -1 -7 -1c-11 0 -20 9 -20 20v60c0 8 5 16 13 19l46 16v160l-32 -11c-2 -1 -5 -1 -7 -1c-11 0 -20 9 -20 20v60zM179 95l-83 -30v-160l83 30v160z" fill="currentColor"/>
</g>
<g transform="translate(37.9264, 19.1220)">
<rect x="-0.0650" y="-2.1968" width="0.1300" height="3.5107" ry="0.0400" fill="currentColor"/>
</g>
<g transform="translate(12.6648, 16.1220)">
<polygon stroke-linejoin="round" stroke-linecap="round" stroke-width="0.0800" fill="currentColor" stroke="currentColor" points="18.1625 -0.7000 18.1625 -0.3000 0.0400 0.2000 0.0400 -0.2000"/>
</g>
<g transform="translate(39.6992, 12.5720)">
<path transform="scale(0.0040, -0.0040)" d="M218 136c66 0 108 -36 108 -89c0 -89 -113 -183 -218 -183c-66 0 -108 36 -108 89c0 89 113 183 218 183z" fill="currentColor"/>
</g>
<g transform="translate(40.9384, 9.5720)">
<rect x="-0.0650" y="-0.9362" width="0.1300" height="3.7501" ry="0.0400" fill="currentColor"/>
</g>
<g transform="translate(12.6648, 7.7620)">
<polygon stroke-linejoin="round" stroke-linecap="round" stroke-width="0.0800" fill="currentColor" stroke="currentColor" points="9.3762 -0.3900 9.3762 0.0100 0.0400 0.2000 0.0400 -0.2000"/>
</g>
<g transform="translate(12.6648, 8.5720)">
<polygon stroke-linejoin="round" stroke-linecap="round" stroke-width="0.0800" fill="currentColor" stroke="currentColor" points="9.3762 -0.3900 9.3762 0.0100 0.0400 0.2000 0.0400 -0.2000"/>
</g>
<g transform="translate(42.4613, 13.5720)">
<path transform="scale(0.0040, -0.0040)" d="M218 136c66 0 108 -36 108 -89c0 -89 -113 -183 -218 -183c-66 0 -108 36 -108 89c0 89 113 183 218 183z" fill="currentColor"/>
</g>
<g transform="translate(42.4613, 19.6220)">
<path transform="scale(0.0040, -0.0040)" d="M218 136c66 0 108 -36 108 -89c0 -89 -113 -183 -218 -183c-66 0 -108 36 -108 89c0 89 113 183 218 183z" fill="currentColor"/>
</g>
<g transform="translate(43.7005, 9.5720)">
<rect x="-0.0650" y="-0.8790" width="0.1300" height="4.6929" ry="0.0400" fill="currentColor"/>
</g>
<g transform="translate(43.7005, 19.1220)">
<rect x="-0.0650" y="-2.8032" width="0.1300" height="3.1171" ry="0.0400" fill="currentColor"/>
</g>
<g transform="translate(45.7234, 12.5720)">
<path transform="scale(0.0040, -0.0040)" d="M218 136c66 0 108 -36 108 -89c0 -89 -113 -183 -218 -183c-66 0 -108 36 -108 89c0 89 113 183 218 183z" fill="currentColor"/>
</g>
<g transform="translate(46.9626, 9.5720)">
<rect x="-0.0650" y="-0.8113" width="0.1300" height="3.6252" ry="0.0400" fill="currentColor"/>
</g>
<g transform="translate(49.5855, 14.5720)">
<path transform="scale(0.0040, -0.0040)" d="M218 136c66 0 108 -36 108 -89c0 -89 -113 -183 -218 -183c-66 0 -108 36 -108 89c0 89 113 183 218 183z" fill="currentColor"/>
</g>
<g transform="translate(49.5855, 22.6220)">
<path transform="scale(0.0040, -0.0040)" d="M218 136c66 0 108 -36 108 -89c0 -89 -113 -183 -218 -183c-66 0 -108 36 -108 89c0 89 113 183 218 183z" fill="currentColor"/>
</g>
<g transform="translate(50.8247, 9.5720)">
<rect x="-0.0650" y="-0.0000" width="0.1300" height="4.8139" ry="0.0400" fill="currentColor"/>
</g>
<g transform="translate(48.1355, 14.5720)">
<path transform="scale(0.0040, -0.0040)" d="M0 119c0 8 5 15 13 18l46 17v158c0 10 8 19 18 19s19 -9 19 -19v-145l83 31v158c0 10 9 19 19 19s18 -9 18 -19v-145l32 12c2 1 5 1 7 1c11 0 20 -9 20 -20v-60c0 -8 -5 -16 -13 -19l-46 -16v-160l32 11c2 1 5 1 7 1c11 0 20 -9 20 -20v-60c0 -8 -5 -15 -13 -18l-46 -17
v-158c0 -10 -8 -19 -18 -19s-19 9 -19 19v145l-83 -31v-158c0 -10 -9 -19 -19 -19s-18 9 -18 19v145l-32 -12c-2 -1 -5 -1 -7 -1c-11 0 -20 9 -20 20v60c0 8 5 16 13 19l46 16v160l-32 -11c-2 -1 -5 -1 -7 -1c-11 0 -20 9 -20 20v60zM179 95l-83 -30v-160l83 30v160z" fill="currentColor"/>
</g>
<g transform="translate(50.8247, 19.1220)">
<rect x="-0.0650" y="-0.0000" width="0.1300" height="3.3139" ry="0.0400" fill="currentColor"/>
</g>
<g transform="translate(50.8897, 19.1620)">
<path transform="scale(0.0040, -0.0040)" d="M0 0v-250h-16v250h16zM0 0c0 -197 207 -336 207 -533c0 -71 -15 -141 -41 -207c-5 -8 -13 -12 -20 -12c-13 0 -26 11 -23 27c26 61 42 126 42 192c0 103 -94 208 -165 283v250z" fill="currentColor"/>
</g>
<g transform="translate(48.1355, 22.6220)">
<path transform="scale(0.0040, -0.0040)" d="M0 119c0 8 5 15 13 18l46 17v158c0 10 8 19 18 19s19 -9 19 -19v-145l83 31v158c0 10 9 19 19 19s18 -9 18 -19v-145l32 12c2 1 5 1 7 1c11 0 20 -9 20 -20v-60c0 -8 -5 -16 -13 -19l-46 -16v-160l32 11c2 1 5 1 7 1c11 0 20 -9 20 -20v-60c0 -8 -5 -15 -13 -18l-46 -17
v-158c0 -10 -8 -19 -18 -19s-19 9 -19 19v145l-83 -31v-158c0 -10 -9 -19 -19 -19s-18 9 -18 19v145l-32 -12c-2 -1 -5 -1 -7 -1c-11 0 -20 9 -20 20v60c0 8 5 16 13 19l46 16v160l-32 -11c-2 -1 -5 -1 -7 -1c-11 0 -20 9 -20 20v60zM179 95l-83 -30v-160l83 30v160z" fill="currentColor"/>
</g>
<g transform="translate(52.8475, 12.5720)">
<path transform="scale(0.0040, -0.0040)" d="M218 136c66 0 108 -36 108 -89c0 -89 -113 -183 -218 -183c-66 0 -108 36 -108 89c0 89 113 183 218 183z" fill="currentColor"/>
</g>
<g transform="translate(54.0868, 9.5720)">
<rect x="-0.0650" y="0.0000" width="0.1300" height="2.8139" ry="0.0400" fill="currentColor"/>
</g>
<g transform="translate(55.8596, 13.0720)">
<path transform="scale(0.0040, -0.0040)" d="M218 136c66 0 108 -36 108 -89c0 -89 -113 -183 -218 -183c-66 0 -108 36 -108 89c0 89 113 183 218 183z" fill="currentColor"/>
</g>
<g transform="translate(55.8596, 19.1220)">
<path transform="scale(0.0040, -0.0040)" d="M70 205c79 0 46 -98 91 -98c16 0 54 48 61 63c6 12 23 12 28 0l-123 -420c-8 -7 -17 -10 -27 -10s-20 3 -28 10l117 326c-34 -12 -69 -22 -105 -22c-47 0 -87 34 -87 79c0 40 33 72 73 72z" fill="currentColor"/>
</g>
<g transform="translate(57.0988, 9.5720)">
<rect x="-0.0650" y="0.0000" width="0.1300" height="3.3139" ry="0.0400" fill="currentColor"/>
</g>
<g transform="translate(58.8717, 13.5720)">
<path transform="scale(0.0040, -0.0040)" d="M218 136c66 0 108 -36 108 -89c0 -89 -113 -183 -218 -183c-66 0 -108 36 -108 89c0 89 113 183 218 183z" fill="currentColor"/>
</g>
<g transform="translate(60.1109, 9.5720)">
<rect x="-0.0650" y="0.0000" width="0.1300" height="3.8139" ry="0.0400" fill="currentColor"/>
</g>
<g transform="translate(64.4964, 14.0720)">
<path transform="scale(0.0040, -0.0040)" d="M218 136c66 0 108 -36 108 -89c0 -89 -113 -183 -218 -183c-66 0 -108 36 -108 89c0 89 113 183 218 183z" fill="currentColor"/>
</g>
<g transform="translate(64.4964, 19.1220)">
<path transform="scale(0.0040, -0.0040)" d="M125 205c79 0 45 -98 90 -98c15 0 50 49 57 63c6 12 23 12 28 0l-179 -670c-8 -7 -17 -10 -27 -10s-20 3 -28 10l101 327c-34 -12 -70 -23 -106 -23c-47 0 -87 34 -87 79c0 40 32 72 72 72c79 0 46 -98 91 -98c16 0 55 51 60 68l46 151c-34 -12 -68 -22 -104 -22
c-47 0 -87 34 -87 79c0 40 33 72 73 72z" fill="currentColor"/>
</g>
<g transform="translate(5.6306, 14.3470)">
<rect x="0.0000" y="-6.8250" width="0.1600" height="13.6500" ry="0.0500" fill="currentColor"/>
</g>
<g transform="translate(65.7356, 9.5720)">
<rect x="-0.0650" y="-2.8100" width="0.1300" height="7.1239" ry="0.0400" fill="currentColor"/>
</g>
<g transform="translate(63.0464, 14.0720)">
<path transform="scale(0.0040, -0.0040)" d="M0 119c0 8 5 15 13 18l46 17v158c0 10 8 19 18 19s19 -9 19 -19v-145l83 31v158c0 10 9 19 19 19s18 -9 18 -19v-145l32 12c2 1 5 1 7 1c11 0 20 -9 20 -20v-60c0 -8 -5 -16 -13 -19l-46 -16v-160l32 11c2 1 5 1 7 1c11 0 20 -9 20 -20v-60c0 -8 -5 -15 -13 -18l-46 -17
v-158c0 -10 -8 -19 -18 -19s-19 9 -19 19v145l-83 -31v-158c0 -10 -9 -19 -19 -19s-18 9 -18 19v145l-32 -12c-2 -1 -5 -1 -7 -1c-11 0 -20 9 -20 20v60c0 8 5 16 13 19l46 16v160l-32 -11c-2 -1 -5 -1 -7 -1c-11 0 -20 9 -20 20v60zM179 95l-83 -30v-160l83 30v160z" fill="currentColor"/>
</g>
<g transform="translate(5.3306, 14.3470)">
<path transform="scale(0.0040, -0.0040)" d="M-81 -378c0 264 -138 375 -138 378c0 18 138 99 138 378c0 270 -114 510 -114 813c0 195 48 378 183 516c15 15 39 -6 24 -21c-99 -105 -132 -234 -132 -375c0 -267 105 -498 105 -795c0 -192 -45 -375 -177 -516c132 -141 177 -324 177 -516c0 -297 -105 -528 -105 -795
c0 -141 33 -270 132 -375c15 -15 -9 -36 -24 -21c-135 138 -183 321 -183 516c0 303 114 543 114 813z" fill="currentColor"/>
</g>
<g transform="translate(67.4042, 16.6220)">
<path transform="scale(0.0040, -0.0040)" d="M218 136c66 0 108 -36 108 -89c0 -89 -113 -183 -218 -183c-66 0 -108 36 -108 89c0 89 113 183 218 183z" fill="currentColor"/>
</g>
<g transform="translate(67.4692, 19.1220)">
<rect x="-0.0650" y="-2.3139" width="0.1300" height="4.1353" ry="0.0400" fill="currentColor"/>
</g>
<g transform="translate(71.2663, 9.5720)">
<path transform="scale(0.0040, -0.0040)" d="M218 136c66 0 108 -36 108 -89c0 -89 -113 -183 -218 -183c-66 0 -108 36 -108 89c0 89 113 183 218 183z" fill="currentColor"/>
</g>
<g transform="translate(71.2663, 17.6220)">
<path transform="scale(0.0040, -0.0040)" d="M218 136c66 0 108 -36 108 -89c0 -89 -113 -183 -218 -183c-66 0 -108 36 -108 89c0 89 113 183 218 183z" fill="currentColor"/>
</g>
<g transform="translate(72.5055, 9.5720)">
<rect x="-0.0650" y="-2.8100" width="0.1300" height="2.6239" ry="0.0400" fill="currentColor"/>
</g>
<g transform="translate(71.3313, 19.1220)">
<rect x="-0.0650" y="-1.3139" width="0.1300" height="3.8158" ry="0.0400" fill="currentColor"/>
</g>
<g transform="translate(69.8163, 17.6220)">
<path transform="scale(0.0040, -0.0040)" d="M0 119c0 8 5 15 13 18l46 17v158c0 10 8 19 18 19s19 -9 19 -19v-145l83 31v158c0 10 9 19 19 19s18 -9 18 -19v-145l32 12c2 1 5 1 7 1c11 0 20 -9 20 -20v-60c0 -8 -5 -16 -13 -19l-46 -16v-160l32 11c2 1 5 1 7 1c11 0 20 -9 20 -20v-60c0 -8 -5 -15 -13 -18l-46 -17
v-158c0 -10 -8 -19 -18 -19s-19 9 -19 19v145l-83 -31v-158c0 -10 -9 -19 -19 -19s-18 9 -18 19v145l-32 -12c-2 -1 -5 -1 -7 -1c-11 0 -20 9 -20 20v60c0 8 5 16 13 19l46 16v160l-32 -11c-2 -1 -5 -1 -7 -1c-11 0 -20 9 -20 20v60zM179 95l-83 -30v-160l83 30v160z" fill="currentColor"/>
</g>
<g transform="translate(74.0284, 18.6220)">
<path transform="scale(0.0040, -0.0040)" d="M218 136c66 0 108 -36 108 -89c0 -89 -113 -183 -218 -183c-66 0 -108 36 -108 89c0 89 113 183 218 183z" fill="currentColor"/>
</g>
<g transform="translate(74.0934, 19.1220)">
<rect x="-0.0650" y="-0.3139" width="0.1300" height="3.3024" ry="0.0400" fill="currentColor"/>
</g>
<g transform="translate(77.0404, 10.5720)">
<path transform="scale(0.0040, -0.0040)" d="M218 136c66 0 108 -36 108 -89c0 -89 -113 -183 -218 -183c-66 0 -108 36 -108 89c0 89 113 183 218 183z" fill="currentColor"/>
</g>
<g transform="translate(77.0404, 19.1220)">
<path transform="scale(0.0040, -0.0040)" d="M218 136c66 0 108 -36 108 -89c0 -89 -113 -183 -218 -183c-66 0 -108 36 -108 89c0 89 113 183 218 183z" fill="currentColor"/>
</g>
<g transform="translate(78.2797, 9.5720)">
<rect x="-0.0650" y="-2.8100" width="0.1300" height="3.6239" ry="0.0400" fill="currentColor"/>
</g>
<g transform="translate(75.5904, 10.5720)">
<path transform="scale(0.0040, -0.0040)" d="M0 119c0 8 5 15 13 18l46 17v158c0 10 8 19 18 19s19 -9 19 -19v-145l83 31v158c0 10 9 19 19 19s18 -9 18 -19v-145l32 12c2 1 5 1 7 1c11 0 20 -9 20 -20v-60c0 -8 -5 -16 -13 -19l-46 -16v-160l32 11c2 1 5 1 7 1c11 0 20 -9 20 -20v-60c0 -8 -5 -15 -13 -18l-46 -17
v-158c0 -10 -8 -19 -18 -19s-19 9 -19 19v145l-83 -31v-158c0 -10 -9 -19 -19 -19s-18 9 -18 19v145l-32 -12c-2 -1 -5 -1 -7 -1c-11 0 -20 9 -20 20v60c0 8 5 16 13 19l46 16v160l-32 -11c-2 -1 -5 -1 -7 -1c-11 0 -20 9 -20 20v60zM179 95l-83 -30v-160l83 30v160z" fill="currentColor"/>
</g>
<g transform="translate(77.1054, 19.1220)">
<rect x="-0.0650" y="0.1861" width="0.1300" height="2.8139" ry="0.0400" fill="currentColor"/>
</g>
<g transform="translate(80.3025, 16.6220)">
<path transform="scale(0.0040, -0.0040)" d="M218 136c66 0 108 -36 108 -89c0 -89 -113 -183 -218 -183c-66 0 -108 36 -108 89c0 89 113 183 218 183z" fill="currentColor"/>
</g>
<g transform="translate(80.3675, 19.1220)">
<rect x="-0.0650" y="-2.3139" width="0.1300" height="5.3139" ry="0.0400" fill="currentColor"/>
</g>
<g transform="translate(83.0646, 11.5720)">
<path transform="scale(0.0040, -0.0040)" d="M218 136c66 0 108 -36 108 -89c0 -89 -113 -183 -218 -183c-66 0 -108 36 -108 89c0 89 113 183 218 183z" fill="currentColor"/>
</g>
<g transform="translate(83.0646, 17.6220)">
<path transform="scale(0.0040, -0.0040)" d="M218 136c66 0 108 -36 108 -89c0 -89 -113 -183 -218 -183c-66 0 -108 36 -108 89c0 89 113 183 218 183z" fill="currentColor"/>
</g>
<g transform="translate(84.3038, 9.5720)">
<rect x="-0.0650" y="-2.8100" width="0.1300" height="4.6239" ry="0.0400" fill="currentColor"/>
</g>
<g transform="translate(83.1296, 19.1220)">
<rect x="-0.0650" y="-1.3139" width="0.1300" height="4.3139" ry="0.0400" fill="currentColor"/>
</g>
<g transform="translate(85.8267, 19.1220)">
<path transform="scale(0.0040, -0.0040)" d="M218 136c66 0 108 -36 108 -89c0 -89 -113 -183 -218 -183c-66 0 -108 36 -108 89c0 89 113 183 218 183z" fill="currentColor"/>
</g>
<g transform="translate(85.8917, 19.1220)">
<rect x="-0.0650" y="0.1861" width="0.1300" height="2.8139" ry="0.0400" fill="currentColor"/>
</g>
<g transform="translate(88.8205, 9.5720)">
<path transform="scale(0.0040, -0.0040)" d="M125 205c79 0 45 -98 90 -98c15 0 50 49 57 63c6 12 23 12 28 0l-179 -670c-8 -7 -17 -10 -27 -10s-20 3 -28 10l101 327c-34 -12 -70 -23 -106 -23c-47 0 -87 34 -87 79c0 40 32 72 72 72c79 0 46 -98 91 -98c16 0 55 51 60 68l46 151c-34 -12 -68 -22 -104 -22
c-47 0 -87 34 -87 79c0 40 33 72 73 72z" fill="currentColor"/>
</g>
<g transform="translate(88.8205, 19.6220)">
<path transform="scale(0.0040, -0.0040)" d="M218 136c66 0 108 -36 108 -89c0 -89 -113 -183 -218 -183c-66 0 -108 36 -108 89c0 89 113 183 218 183z" fill="currentColor"/>
</g>
<g transform="translate(90.0597, 19.1220)">
<rect x="-0.0650" y="-3.0000" width="0.1300" height="3.3139" ry="0.0400" fill="currentColor"/>
</g>
<g transform="translate(91.7284, 11.5720)">
<path transform="scale(0.0040, -0.0040)" d="M218 136c66 0 108 -36 108 -89c0 -89 -113 -183 -218 -183c-66 0 -108 36 -108 89c0 89 113 183 218 183z" fill="currentColor"/>
</g>
<g transform="translate(92.9676, 9.5720)">
<rect x="-0.0650" y="-2.0147" width="0.1300" height="3.8285" ry="0.0400" fill="currentColor"/>
</g>
<g transform="translate(94.9904, 10.0720)">
<path transform="scale(0.0040, -0.0040)" d="M218 136c66 0 108 -36 108 -89c0 -89 -113 -183 -218 -183c-66 0 -108 36 -108 89c0 89 113 183 218 183z" fill="currentColor"/>
</g>
<g transform="translate(94.9904, 18.6220)">
<path transform="scale(0.0040, -0.0040)" d="M218 136c66 0 108 -36 108 -89c0 -89 -113 -183 -218 -183c-66 0 -108 36 -108 89c0 89 113 183 218 183z" fill="currentColor"/>
</g>
<g transform="translate(96.2296, 9.5720)">
<rect x="-0.0650" y="-2.7500" width="0.1300" height="3.0639" ry="0.0400" fill="currentColor"/>
</g>
<g transform="translate(96.2296, 19.1220)">
<rect x="-0.0650" y="-3.0000" width="0.1300" height="2.3139" ry="0.0400" fill="currentColor"/>
</g>
<g transform="translate(98.2525, 9.0720)">
<path transform="scale(0.0040, -0.0040)" d="M218 136c66 0 108 -36 108 -89c0 -89 -113 -183 -218 -183c-66 0 -108 36 -108 89c0 89 113 183 218 183z" fill="currentColor"/>
</g>
<g transform="translate(99.4917, 9.5720)">
<rect x="-0.0650" y="-3.4853" width="0.1300" height="2.7992" ry="0.0400" fill="currentColor"/>
</g>
<g transform="translate(101.2646, 9.5720)">
<path transform="scale(0.0040, -0.0040)" d="M218 136c66 0 108 -36 108 -89c0 -89 -113 -183 -218 -183c-66 0 -108 36 -108 89c0 89 113 183 218 183z" fill="currentColor"/>
</g>
<g transform="translate(101.2646, 21.1220)">
<path transform="scale(0.0040, -0.0040)" d="M218 136c66 0 108 -36 108 -89c0 -89 -113 -183 -218 -183c-66 0 -108 36 -108 89c0 89 113 183 218 183z" fill="currentColor"/>
</g>
<g transform="translate(102.5038, 9.5720)">
<rect x="-0.0650" y="-3.0069" width="0.1300" height="2.8208" ry="0.0400" fill="currentColor"/>
</g>
<g transform="translate(102.5038, 19.1220)">
<rect x="-0.0650" y="-3.0000" width="0.1300" height="4.8139" ry="0.0400" fill="currentColor"/>
</g>
<g transform="translate(99.8146, 21.1220)">
<path transform="scale(0.0040, -0.0040)" d="M0 119c0 8 5 15 13 18l46 17v158c0 10 8 19 18 19s19 -9 19 -19v-145l83 31v158c0 10 9 19 19 19s18 -9 18 -19v-145l32 12c2 1 5 1 7 1c11 0 20 -9 20 -20v-60c0 -8 -5 -16 -13 -19l-46 -16v-160l32 11c2 1 5 1 7 1c11 0 20 -9 20 -20v-60c0 -8 -5 -15 -13 -18l-46 -17
v-158c0 -10 -8 -19 -18 -19s-19 9 -19 19v145l-83 -31v-158c0 -10 -9 -19 -19 -19s-18 9 -18 19v145l-32 -12c-2 -1 -5 -1 -7 -1c-11 0 -20 9 -20 20v60c0 8 5 16 13 19l46 16v160l-32 -11c-2 -1 -5 -1 -7 -1c-11 0 -20 9 -20 20v60zM179 95l-83 -30v-160l83 30v160z" fill="currentColor"/>
</g>
<g transform="translate(104.0267, 11.5720)">
<path transform="scale(0.0040, -0.0040)" d="M218 136c66 0 108 -36 108 -89c0 -89 -113 -183 -218 -183c-66 0 -108 36 -108 89c0 89 113 183 218 183z" fill="currentColor"/>
</g>
<g transform="translate(105.2659, 9.5720)">
<rect x="-0.0650" y="-3.3002" width="0.1300" height="5.1141" ry="0.0400" fill="currentColor"/>
</g>
<g transform="translate(111.7900, 9.5720)">
<rect x="-0.0650" y="-3.9931" width="0.1300" height="2.8070" ry="0.0400" fill="currentColor"/>
</g>
<g transform="translate(107.2887, 9.5720)">
<path transform="scale(0.0040, -0.0040)" d="M218 136c66 0 108 -36 108 -89c0 -89 -113 -183 -218 -183c-66 0 -108 36 -108 89c0 89 113 183 218 183z" fill="currentColor"/>
</g>
<g transform="translate(107.2887, 18.6220)">
<path transform="scale(0.0040, -0.0040)" d="M218 136c66 0 108 -36 108 -89c0 -89 -113 -183 -218 -183c-66 0 -108 36 -108 89c0 89 113 183 218 183z" fill="currentColor"/>
</g>
<g transform="translate(108.5279, 9.5720)">
<rect x="-0.0650" y="-3.6467" width="0.1300" height="3.4606" ry="0.0400" fill="currentColor"/>
</g>
<g transform="translate(108.5279, 19.1220)">
<rect x="-0.0650" y="-3.0000" width="0.1300" height="2.3139" ry="0.0400" fill="currentColor"/>
</g>
<g transform="translate(102.4388, 6.5720)">
<polygon stroke-linejoin="round" stroke-linecap="round" stroke-width="0.0800" fill="currentColor" stroke="currentColor" points="9.3762 -1.2000 9.3762 -0.8000 0.0400 0.2000 0.0400 -0.2000"/>
</g>
<g transform="translate(102.4388, 7.3820)">
<polygon stroke-linejoin="round" stroke-linecap="round" stroke-width="0.0800" fill="currentColor" stroke="currentColor" points="9.3762 -1.2000 9.3762 -0.8000 0.0400 0.2000 0.0400 -0.2000"/>
</g>
<g transform="translate(45.7267, 31.6602)">
<rect x="0.0000" y="-2.0000" width="0.1900" height="4.0500" ry="0.0000" fill="currentColor"/>
</g>
<g transform="translate(5.6906, 33.6602)">
<line stroke-linejoin="round" stroke-linecap="round" stroke-width="0.1000" stroke="currentColor" x1="0.0500" y1="0" x2="108.0705" y2="0"/>
</g>
<g transform="translate(5.6906, 32.6602)">
<line stroke-linejoin="round" stroke-linecap="round" stroke-width="0.1000" stroke="currentColor" x1="0.0500" y1="0" x2="108.0705" y2="0"/>
</g>
<g transform="translate(5.6906, 31.6602)">
<line stroke-linejoin="round" stroke-linecap="round" stroke-width="0.1000" stroke="currentColor" x1="0.0500" y1="0" x2="108.0705" y2="0"/>
</g>
<g transform="translate(5.6906, 30.6602)">
<line stroke-linejoin="round" stroke-linecap="round" stroke-width="0.1000" stroke="currentColor" x1="0.0500" y1="0" x2="108.0705" y2="0"/>
</g>
<g transform="translate(5.6906, 29.6602)">
<line stroke-linejoin="round" stroke-linecap="round" stroke-width="0.1000" stroke="currentColor" x1="0.0500" y1="0" x2="108.0705" y2="0"/>
</g>
<g transform="translate(113.2110, 27.4097)">
<rect x="0.0000" y="6.3005" width="0.6000" height="4.9948" ry="0.0000" fill="currentColor"/>
</g>
<g transform="translate(112.7210, 27.4097)">
<rect x="0.0000" y="6.3005" width="0.1900" height="4.9948" ry="0.0000" fill="currentColor"/>
</g>
<g transform="translate(5.6906, 43.7050)">
<rect x="86.1050" y="-0.1000" width="1.9563" height="0.2000" ry="0.1000" fill="currentColor"/>
</g>
<g transform="translate(5.6906, 43.7050)">
<rect x="82.5491" y="-0.1000" width="1.8053" height="0.2000" ry="0.1000" fill="currentColor"/>
</g>
<g transform="translate(5.6906, 43.7050)">
<rect x="71.4489" y="-0.1000" width="1.9563" height="0.2000" ry="0.1000" fill="currentColor"/>
</g>
<g transform="translate(5.6906, 43.7050)">
<rect x="67.7420" y="-0.1000" width="1.9563" height="0.2000" ry="0.1000" fill="currentColor"/>
</g>
<g transform="translate(5.6906, 42.7050)">
<line stroke-linejoin="round" stroke-linecap="round" stroke-width="0.1000" stroke="currentColor" x1="0.0500" y1="0" x2="108.0705" y2="0"/>
</g>
<g transform="translate(5.6906, 41.7050)">
<line stroke-linejoin="round" stroke-linecap="round" stroke-width="0.1000" stroke="currentColor" x1="0.0500" y1="0" x2="108.0705" y2="0"/>
</g>
<g transform="translate(5.6906, 40.7050)">
<line stroke-linejoin="round" stroke-linecap="round" stroke-width="0.1000" stroke="currentColor" x1="0.0500" y1="0" x2="108.0705" y2="0"/>
</g>
<g transform="translate(5.6906, 39.7050)">
<line stroke-linejoin="round" stroke-linecap="round" stroke-width="0.1000" stroke="currentColor" x1="0.0500" y1="0" x2="108.0705" y2="0"/>
</g>
<g transform="translate(5.6906, 38.7050)">
<line stroke-linejoin="round" stroke-linecap="round" stroke-width="0.1000" stroke="currentColor" x1="0.0500" y1="0" x2="108.0705" y2="0"/>
</g>
<g transform="translate(113.2110, 40.7050)">
<rect x="0.0000" y="-2.0500" width="0.6000" height="4.0500" ry="0.0000" fill="currentColor"/>
</g>
<g transform="translate(112.7210, 40.7050)">
<rect x="0.0000" y="-2.0500" width="0.1900" height="4.0500" ry="0.0000" fill="currentColor"/>
</g>
<g transform="translate(113.2110, 31.6602)">
<rect x="0.0000" y="-2.0000" width="0.6000" height="4.0500" ry="0.0000" fill="currentColor"/>
</g>
<g transform="translate(112.7210, 31.6602)">
<rect x="0.0000" y="-2.0000" width="0.1900" height="4.0500" ry="0.0000" fill="currentColor"/>
</g>
<g transform="translate(81.7178, 27.4097)">
<rect x="0.0000" y="6.3005" width="0.1900" height="4.9948" ry="0.0000" fill="currentColor"/>
</g>
<g transform="translate(81.7178, 40.7050)">
<rect x="0.0000" y="-2.0500" width="0.1900" height="4.0500" ry="0.0000" fill="currentColor"/>
</g>
<g transform="translate(81.7178, 31.6602)">
<rect x="0.0000" y="-2.0000" width="0.1900" height="4.0500" ry="0.0000" fill="currentColor"/>
</g>
<g transform="translate(5.6906, 34.6602)">
<rect x="102.8561" y="-0.1000" width="1.9563" height="0.2000" ry="0.1000" fill="currentColor"/>
</g>
<g transform="translate(5.6906, 35.6602)">
<rect x="102.8561" y="-0.1000" width="1.9563" height="0.2000" ry="0.1000" fill="currentColor"/>
</g>
<g transform="translate(5.6906, 34.6602)">
<rect x="98.2256" y="-0.1000" width="1.9563" height="0.2000" ry="0.1000" fill="currentColor"/>
</g>
<g transform="translate(5.6906, 28.6602)">
<rect x="65.8886" y="-0.1000" width="1.9563" height="0.2000" ry="0.1000" fill="currentColor"/>
</g>
<g transform="translate(5.6906, 28.6602)">
<rect x="59.5783" y="-0.1000" width="1.9563" height="0.2000" ry="0.1000" fill="currentColor"/>
</g>
<g transform="translate(45.7267, 27.4097)">
<rect x="0.0000" y="6.3005" width="0.1900" height="4.9948" ry="0.0000" fill="currentColor"/>
</g>
<g transform="translate(45.7267, 40.7050)">
<rect x="0.0000" y="-2.0500" width="0.1900" height="4.0500" ry="0.0000" fill="currentColor"/>
</g>
<g transform="translate(61.4530, 31.6602)">
<rect x="-0.0650" y="-2.3139" width="0.1300" height="4.3139" ry="0.0400" fill="currentColor"/>
</g>
<g transform="translate(6.4906, 39.7050)">
<path transform="scale(0.0040, -0.0040)" d="M557 -125c0 28 23 51 51 51s51 -23 51 -51s-23 -51 -51 -51s-51 23 -51 51zM557 125c0 28 23 51 51 51s51 -23 51 -51s-23 -51 -51 -51s-51 23 -51 51zM232 263c172 0 293 -88 293 -251c0 -263 -263 -414 -516 -521c-3 -3 -6 -4 -9 -4c-7 0 -13 6 -13 13c0 3 1 6 4 9
c202 118 412 265 412 493c0 120 -63 235 -171 235c-74 0 -129 -54 -154 -126c11 5 22 8 34 8c55 0 100 -45 100 -100c0 -58 -44 -106 -100 -106c-60 0 -112 47 -112 106c0 133 102 244 232 244z" fill="currentColor"/>
</g>
<g transform="translate(3.9151, 28.5897)">
<text font-family="serif" font-size="1.7459" text-anchor="start" fill="currentColor">
<tspan>23</tspan>
</text>
</g>
<g transform="translate(101.7095, 29.6602)">
<polygon stroke-linejoin="round" stroke-linecap="round" stroke-width="0.0800" fill="currentColor" stroke="currentColor" points="6.1503 0.8000 6.1503 1.2000 0.0400 0.2000 0.0400 -0.2000"/>
</g>
<g transform="translate(101.7095, 30.4702)">
<polygon stroke-linejoin="round" stroke-linecap="round" stroke-width="0.0800" fill="currentColor" stroke="currentColor" points="6.1503 0.8000 6.1503 1.2000 0.0400 0.2000 0.0400 -0.2000"/>
</g>
<g transform="translate(11.4906, 31.1602)">
<path transform="scale(0.0040, -0.0040)" d="M218 136c66 0 108 -36 108 -89c0 -89 -113 -183 -218 -183c-66 0 -108 36 -108 89c0 89 113 183 218 183z" fill="currentColor"/>
</g>
<g transform="translate(11.4906, 42.2050)">
<path transform="scale(0.0040, -0.0040)" d="M218 136c66 0 108 -36 108 -89c0 -89 -113 -183 -218 -183c-66 0 -108 36 -108 89c0 89 113 183 218 183z" fill="currentColor"/>
</g>
<g transform="translate(11.5556, 31.6602)">
<rect x="-0.0650" y="-0.3139" width="0.1300" height="3.8090" ry="0.0400" fill="currentColor"/>
</g>
<g transform="translate(11.5556, 40.7050)">
<rect x="-0.0650" y="1.6861" width="0.1300" height="2.3089" ry="0.0400" fill="currentColor"/>
</g>
<g transform="translate(93.2958, 28.8502)">
<polygon stroke-linejoin="round" stroke-linecap="round" stroke-width="0.0800" fill="currentColor" stroke="currentColor" points="6.4003 -0.2000 6.4003 0.2000 0.0400 0.2000 0.0400 -0.2000"/>
</g>
<g transform="translate(93.2958, 29.6602)">
<polygon stroke-linejoin="round" stroke-linecap="round" stroke-width="0.0800" fill="currentColor" stroke="currentColor" points="6.4003 -0.2000 6.4003 0.2000 0.0400 0.2000 0.0400 -0.2000"/>
</g>
<g transform="translate(13.3440, 32.1602)">
<path transform="scale(0.0040, -0.0040)" d="M218 136c66 0 108 -36 108 -89c0 -89 -113 -183 -218 -183c-66 0 -108 36 -108 89c0 89 113 183 218 183z" fill="currentColor"/>
</g>
<g transform="translate(13.4090, 31.6602)">
<rect x="-0.0650" y="0.6861" width="0.1300" height="2.6705" ry="0.0400" fill="currentColor"/>
</g>
<g transform="translate(85.1320, 39.5150)">
<polygon stroke-linejoin="round" stroke-linecap="round" stroke-width="0.0800" fill="currentColor" stroke="currentColor" points="12.7106 -1.8200 12.7106 -1.4200 0.0400 0.2000 0.0400 -0.2000"/>
</g>
<g transform="translate(15.6974, 31.1602)">
<path transform="scale(0.0040, -0.0040)" d="M218 136c66 0 108 -36 108 -89c0 -89 -113 -183 -218 -183c-66 0 -108 36 -108 89c0 89 113 183 218 183z" fill="currentColor"/>
</g>
<g transform="translate(15.6974, 39.7050)">
<path transform="scale(0.0040, -0.0040)" d="M218 136c66 0 108 -36 108 -89c0 -89 -113 -183 -218 -183c-66 0 -108 36 -108 89c0 89 113 183 218 183z" fill="currentColor"/>
</g>
<g transform="translate(15.7624, 31.6602)">
<rect x="-0.0650" y="-0.3139" width="0.1300" height="3.4946" ry="0.0400" fill="currentColor"/>
</g>
<g transform="translate(15.7624, 40.7050)">
<rect x="-0.0650" y="-0.8139" width="0.1300" height="4.4853" ry="0.0400" fill="currentColor"/>
</g>
<g transform="translate(14.2474, 39.7050)">
<path transform="scale(0.0040, -0.0040)" d="M0 119c0 8 5 15 13 18l46 17v158c0 10 8 19 18 19s19 -9 19 -19v-145l83 31v158c0 10 9 19 19 19s18 -9 18 -19v-145l32 12c2 1 5 1 7 1c11 0 20 -9 20 -20v-60c0 -8 -5 -16 -13 -19l-46 -16v-160l32 11c2 1 5 1 7 1c11 0 20 -9 20 -20v-60c0 -8 -5 -15 -13 -18l-46 -17
v-158c0 -10 -8 -19 -18 -19s-19 9 -19 19v145l-83 -31v-158c0 -10 -9 -19 -19 -19s-18 9 -18 19v145l-32 -12c-2 -1 -5 -1 -7 -1c-11 0 -20 9 -20 20v60c0 8 5 16 13 19l46 16v160l-32 -11c-2 -1 -5 -1 -7 -1c-11 0 -20 9 -20 20v60zM179 95l-83 -30v-160l83 30v160z" fill="currentColor"/>
</g>
<g transform="translate(85.1320, 28.6602)">
<polygon stroke-linejoin="round" stroke-linecap="round" stroke-width="0.0800" fill="currentColor" stroke="currentColor" points="6.4003 -0.2000 6.4003 0.2000 0.0400 0.2000 0.0400 -0.2000"/>
</g>
<g transform="translate(85.1320, 29.4702)">
<polygon stroke-linejoin="round" stroke-linecap="round" stroke-width="0.0800" fill="currentColor" stroke="currentColor" points="6.4003 -0.2000 6.4003 0.2000 0.0400 0.2000 0.0400 -0.2000"/>
</g>
<g transform="translate(18.0509, 30.1602)">
<path transform="scale(0.0040, -0.0040)" d="M218 136c66 0 108 -36 108 -89c0 -89 -113 -183 -218 -183c-66 0 -108 36 -108 89c0 89 113 183 218 183z" fill="currentColor"/>
</g>
<g transform="translate(18.1159, 31.6602)">
<rect x="-0.0650" y="-1.3139" width="0.1300" height="4.3188" ry="0.0400" fill="currentColor"/>
</g>
<g transform="translate(73.7586, 33.8502)">
<polygon stroke-linejoin="round" stroke-linecap="round" stroke-width="0.0800" fill="currentColor" stroke="currentColor" points="6.1503 0.3000 6.1503 0.7000 0.0400 0.2000 0.0400 -0.2000"/>
</g>
<g transform="translate(73.7586, 34.6602)">
<polygon stroke-linejoin="round" stroke-linecap="round" stroke-width="0.0800" fill="currentColor" stroke="currentColor" points="6.1503 0.3000 6.1503 0.7000 0.0400 0.2000 0.0400 -0.2000"/>
</g>
<g transform="translate(20.1543, 30.6602)">
<path transform="scale(0.0040, -0.0040)" d="M218 136c66 0 108 -36 108 -89c0 -89 -113 -183 -218 -183c-66 0 -108 36 -108 89c0 89 113 183 218 183z" fill="currentColor"/>
</g>
<g transform="translate(20.1543, 41.7050)">
<path transform="scale(0.0040, -0.0040)" d="M218 136c66 0 108 -36 108 -89c0 -89 -113 -183 -218 -183c-66 0 -108 36 -108 89c0 89 113 183 218 183z" fill="currentColor"/>
</g>
<g transform="translate(20.2193, 31.6602)">
<rect x="-0.0650" y="-0.8139" width="0.1300" height="4.3090" ry="0.0400" fill="currentColor"/>
</g>
<g transform="translate(20.2193, 40.7050)">
<rect x="-0.0650" y="1.1861" width="0.1300" height="2.1425" ry="0.0400" fill="currentColor"/>
</g>
<g transform="translate(66.7691, 39.7050)">
<polygon stroke-linejoin="round" stroke-linecap="round" stroke-width="0.0800" fill="currentColor" stroke="currentColor" points="11.9606 -0.2000 11.9606 0.2000 0.0400 0.2000 0.0400 -0.2000"/>
</g>
<g transform="translate(22.0077, 31.6602)">
<path transform="scale(0.0040, -0.0040)" d="M218 136c66 0 108 -36 108 -89c0 -89 -113 -183 -218 -183c-66 0 -108 36 -108 89c0 89 113 183 218 183z" fill="currentColor"/>
</g>
<g transform="translate(22.0727, 31.6602)">
<rect x="-0.0650" y="0.1861" width="0.1300" height="3.1705" ry="0.0400" fill="currentColor"/>
</g>
<g transform="translate(65.5949, 32.8502)">
<polygon stroke-linejoin="round" stroke-linecap="round" stroke-width="0.0800" fill="currentColor" stroke="currentColor" points="6.4003 -0.2000 6.4003 0.2000 0.0400 0.2000 0.0400 -0.2000"/>
</g>
<g transform="translate(65.5949, 33.6602)">
<polygon stroke-linejoin="round" stroke-linecap="round" stroke-width="0.0800" fill="currentColor" stroke="currentColor" points="6.4003 -0.2000 6.4003 0.2000 0.0400 0.2000 0.0400 -0.2000"/>
</g>
<g transform="translate(24.3612, 30.6602)">
<path transform="scale(0.0040, -0.0040)" d="M218 136c66 0 108 -36 108 -89c0 -89 -113 -183 -218 -183c-66 0 -108 36 -108 89c0 89 113 183 218 183z" fill="currentColor"/>
</g>
<g transform="translate(24.3612, 39.2050)">
<path transform="scale(0.0040, -0.0040)" d="M218 136c66 0 108 -36 108 -89c0 -89 -113 -183 -218 -183c-66 0 -108 36 -108 89c0 89 113 183 218 183z" fill="currentColor"/>
</g>
<g transform="translate(24.4262, 31.6602)">
<rect x="-0.0650" y="-0.8139" width="0.1300" height="3.9946" ry="0.0400" fill="currentColor"/>
</g>
<g transform="translate(24.4262, 40.7050)">
<rect x="-0.0650" y="-1.3139" width="0.1300" height="4.3189" ry="0.0400" fill="currentColor"/>
</g>
<g transform="translate(22.9112, 39.2050)">
<path transform="scale(0.0040, -0.0040)" d="M0 119c0 8 5 15 13 18l46 17v158c0 10 8 19 18 19s19 -9 19 -19v-145l83 31v158c0 10 9 19 19 19s18 -9 18 -19v-145l32 12c2 1 5 1 7 1c11 0 20 -9 20 -20v-60c0 -8 -5 -16 -13 -19l-46 -16v-160l32 11c2 1 5 1 7 1c11 0 20 -9 20 -20v-60c0 -8 -5 -15 -13 -18l-46 -17
v-158c0 -10 -8 -19 -18 -19s-19 9 -19 19v145l-83 -31v-158c0 -10 -9 -19 -19 -19s-18 9 -18 19v145l-32 -12c-2 -1 -5 -1 -7 -1c-11 0 -20 9 -20 20v60c0 8 5 16 13 19l46 16v160l-32 -11c-2 -1 -5 -1 -7 -1c-11 0 -20 9 -20 20v60zM179 95l-83 -30v-160l83 30v160z" fill="currentColor"/>
</g>
<g transform="translate(56.3804, 32.8502)">
<polygon stroke-linejoin="round" stroke-linecap="round" stroke-width="0.0800" fill="currentColor" stroke="currentColor" points="6.9511 -0.2000 6.9511 0.2000 0.0400 0.2000 0.0400 -0.2000"/>
</g>
<g transform="translate(56.3804, 33.6602)">
<polygon stroke-linejoin="round" stroke-linecap="round" stroke-width="0.0800" fill="currentColor" stroke="currentColor" points="6.9511 -0.2000 6.9511 0.2000 0.0400 0.2000 0.0400 -0.2000"/>
</g>
<g transform="translate(26.7146, 29.6602)">
<path transform="scale(0.0040, -0.0040)" d="M218 136c66 0 108 -36 108 -89c0 -89 -113 -183 -218 -183c-66 0 -108 36 -108 89c0 89 113 183 218 183z" fill="currentColor"/>
</g>
<g transform="translate(26.7796, 31.6602)">
<rect x="-0.0650" y="-1.8139" width="0.1300" height="4.8188" ry="0.0400" fill="currentColor"/>
</g>
<g transform="translate(47.9667, 42.7050)">
<polygon stroke-linejoin="round" stroke-linecap="round" stroke-width="0.0800" fill="currentColor" stroke="currentColor" points="13.5114 1.3000 13.5114 1.7000 0.0400 0.2000 0.0400 -0.2000"/>
</g>
<g transform="translate(28.8180, 30.1602)">
<path transform="scale(0.0040, -0.0040)" d="M218 136c66 0 108 -36 108 -89c0 -89 -113 -183 -218 -183c-66 0 -108 36 -108 89c0 89 113 183 218 183z" fill="currentColor"/>
</g>
<g transform="translate(28.8180, 41.2050)">
<path transform="scale(0.0040, -0.0040)" d="M218 136c66 0 108 -36 108 -89c0 -89 -113 -183 -218 -183c-66 0 -108 36 -108 89c0 89 113 183 218 183z" fill="currentColor"/>
</g>
<g transform="translate(28.8830, 31.6602)">
<rect x="-0.0650" y="-1.3139" width="0.1300" height="3.3120" ry="0.0400" fill="currentColor"/>
</g>
<g transform="translate(28.8830, 40.7050)">
<rect x="-0.0650" y="0.6861" width="0.1300" height="2.4989" ry="0.0400" fill="currentColor"/>
</g>
<g transform="translate(47.9667, 33.6602)">
<polygon stroke-linejoin="round" stroke-linecap="round" stroke-width="0.0800" fill="currentColor" stroke="currentColor" points="6.4003 -1.0100 6.4003 -0.6100 0.0400 0.2000 0.0400 -0.2000"/>
</g>
<g transform="translate(47.9667, 34.4702)">
<polygon stroke-linejoin="round" stroke-linecap="round" stroke-width="0.0800" fill="currentColor" stroke="currentColor" points="6.4003 -1.0100 6.4003 -0.6100 0.0400 0.2000 0.0400 -0.2000"/>
</g>
<g transform="translate(30.6715, 31.1602)">
<path transform="scale(0.0040, -0.0040)" d="M218 136c66 0 108 -36 108 -89c0 -89 -113 -183 -218 -183c-66 0 -108 36 -108 89c0 89 113 183 218 183z" fill="currentColor"/>
</g>
<g transform="translate(30.7365, 31.6602)">
<rect x="-0.0650" y="-0.3139" width="0.1300" height="2.2594" ry="0.0400" fill="currentColor"/>
</g>
<g transform="translate(37.4818, 32.8502)">
<polygon stroke-linejoin="round" stroke-linecap="round" stroke-width="0.0800" fill="currentColor" stroke="currentColor" points="6.4003 0.6100 6.4003 1.0100 0.0400 0.2000 0.0400 -0.2000"/>
</g>
<g transform="translate(37.4818, 33.6602)">
<polygon stroke-linejoin="round" stroke-linecap="round" stroke-width="0.0800" fill="currentColor" stroke="currentColor" points="6.4003 0.6100 6.4003 1.0100 0.0400 0.2000 0.0400 -0.2000"/>
</g>
<g transform="translate(33.0249, 30.1602)">
<path transform="scale(0.0040, -0.0040)" d="M218 136c66 0 108 -36 108 -89c0 -89 -113 -183 -218 -183c-66 0 -108 36 -108 89c0 89 113 183 218 183z" fill="currentColor"/>
</g>
<g transform="translate(33.0249, 38.7050)">
<path transform="scale(0.0040, -0.0040)" d="M218 136c66 0 108 -36 108 -89c0 -89 -113 -183 -218 -183c-66 0 -108 36 -108 89c0 89 113 183 218 183z" fill="currentColor"/>
</g>
<g transform="translate(33.0899, 31.6602)">
<rect x="-0.0650" y="-1.3139" width="0.1300" height="3.1926" ry="0.0400" fill="currentColor"/>
</g>
<g transform="translate(33.0899, 40.7050)">
<rect x="-0.0650" y="-1.8139" width="0.1300" height="4.6753" ry="0.0400" fill="currentColor"/>
</g>
<g transform="translate(28.8180, 43.8950)">
<polygon stroke-linejoin="round" stroke-linecap="round" stroke-width="0.0800" fill="currentColor" stroke="currentColor" points="12.9606 -1.2000 12.9606 -0.8000 0.0400 0.2000 0.0400 -0.2000"/>
</g>
<g transform="translate(35.3783, 29.1602)">
<path transform="scale(0.0040, -0.0040)" d="M218 136c66 0 108 -36 108 -89c0 -89 -113 -183 -218 -183c-66 0 -108 36 -108 89c0 89 113 183 218 183z" fill="currentColor"/>
</g>
<g transform="translate(35.4433, 31.6602)">
<rect x="-0.0650" y="-2.3139" width="0.1300" height="4.1257" ry="0.0400" fill="currentColor"/>
</g>
<g transform="translate(28.8180, 32.8502)">
<polygon stroke-linejoin="round" stroke-linecap="round" stroke-width="0.0800" fill="currentColor" stroke="currentColor" points="6.6503 -0.3900 6.6503 0.0100 0.0400 0.2000 0.0400 -0.2000"/>
</g>
<g transform="translate(28.8180, 33.6602)">
<polygon stroke-linejoin="round" stroke-linecap="round" stroke-width="0.0800" fill="currentColor" stroke="currentColor" points="6.6503 -0.3900 6.6503 0.0100 0.0400 0.2000 0.0400 -0.2000"/>
</g>
<g transform="translate(37.4818, 29.6602)">
<path transform="scale(0.0040, -0.0040)" d="M218 136c66 0 108 -36 108 -89c0 -89 -113 -183 -218 -183c-66 0 -108 36 -108 89c0 89 113 183 218 183z" fill="currentColor"/>
</g>
<g transform="translate(37.4818, 40.7050)">
<path transform="scale(0.0040, -0.0040)" d="M218 136c66 0 108 -36 108 -89c0 -89 -113 -183 -218 -183c-66 0 -108 36 -108 89c0 89 113 183 218 183z" fill="currentColor"/>
</g>
<g transform="translate(37.5468, 31.6602)">
<rect x="-0.0650" y="-1.8139" width="0.1300" height="3.8221" ry="0.0400" fill="currentColor"/>
</g>
<g transform="translate(37.5468, 40.7050)">
<rect x="-0.0650" y="0.1861" width="0.1300" height="2.3325" ry="0.0400" fill="currentColor"/>
</g>
<g transform="translate(20.1543, 34.3502)">
<polygon stroke-linejoin="round" stroke-linecap="round" stroke-width="0.0800" fill="currentColor" stroke="currentColor" points="6.6503 -0.7000 6.6503 -0.3000 0.0400 0.2000 0.0400 -0.2000"/>
</g>
<g transform="translate(20.1543, 35.1602)">
<polygon stroke-linejoin="round" stroke-linecap="round" stroke-width="0.0800" fill="currentColor" stroke="currentColor" points="6.6503 -0.7000 6.6503 -0.3000 0.0400 0.2000 0.0400 -0.2000"/>
</g>
<g transform="translate(39.5852, 30.1602)">
<path transform="scale(0.0040, -0.0040)" d="M218 136c66 0 108 -36 108 -89c0 -89 -113 -183 -218 -183c-66 0 -108 36 -108 89c0 89 113 183 218 183z" fill="currentColor"/>
</g>
<g transform="translate(39.6502, 31.6602)">
<rect x="-0.0650" y="-1.3139" width="0.1300" height="3.5866" ry="0.0400" fill="currentColor"/>
</g>
<g transform="translate(11.4906, 44.7050)">
<polygon stroke-linejoin="round" stroke-linecap="round" stroke-width="0.0800" fill="currentColor" stroke="currentColor" points="12.9606 -1.2000 12.9606 -0.8000 0.0400 0.2000 0.0400 -0.2000"/>
</g>
<g transform="translate(41.6886, 30.6602)">
<path transform="scale(0.0040, -0.0040)" d="M218 136c66 0 108 -36 108 -89c0 -89 -113 -183 -218 -183c-66 0 -108 36 -108 89c0 89 113 183 218 183z" fill="currentColor"/>
</g>
<g transform="translate(41.6886, 38.2050)">
<path transform="scale(0.0040, -0.0040)" d="M218 136c66 0 108 -36 108 -89c0 -89 -113 -183 -218 -183c-66 0 -108 36 -108 89c0 89 113 183 218 183z" fill="currentColor"/>
</g>
<g transform="translate(41.7536, 31.6602)">
<rect x="-0.0650" y="-0.8139" width="0.1300" height="3.3512" ry="0.0400" fill="currentColor"/>
</g>
<g transform="translate(41.7536, 40.7050)">
<rect x="-0.0650" y="-2.3139" width="0.1300" height="4.5089" ry="0.0400" fill="currentColor"/>
</g>
<g transform="translate(40.5386, 38.2050)">
<path transform="scale(0.0040, -0.0040)" d="M27 41l-1 -66v-11c0 -22 1 -44 4 -66c45 38 93 80 93 139c0 33 -14 67 -43 67c-31 0 -52 -30 -53 -63zM-15 -138l-12 595c8 5 18 8 27 8s19 -3 27 -8l-7 -345c25 21 58 34 91 34c52 0 89 -48 89 -102c0 -80 -86 -117 -147 -169c-15 -13 -24 -38 -45 -38
c-13 0 -23 11 -23 25z" fill="currentColor"/>
</g>
<g transform="translate(11.4906, 34.3502)">
<polygon stroke-linejoin="round" stroke-linecap="round" stroke-width="0.0800" fill="currentColor" stroke="currentColor" points="6.6503 -0.7000 6.6503 -0.3000 0.0400 0.2000 0.0400 -0.2000"/>
</g>
<g transform="translate(11.4906, 35.1602)">
<polygon stroke-linejoin="round" stroke-linecap="round" stroke-width="0.0800" fill="currentColor" stroke="currentColor" points="6.6503 -0.7000 6.6503 -0.3000 0.0400 0.2000 0.0400 -0.2000"/>
</g>
<g transform="translate(43.7921, 31.1602)">
<path transform="scale(0.0040, -0.0040)" d="M218 136c66 0 108 -36 108 -89c0 -89 -113 -183 -218 -183c-66 0 -108 36 -108 89c0 89 113 183 218 183z" fill="currentColor"/>
</g>
<g transform="translate(43.8571, 31.6602)">
<rect x="-0.0650" y="-0.3139" width="0.1300" height="3.1157" ry="0.0400" fill="currentColor"/>
</g>
<g transform="translate(47.9667, 31.6602)">
<path transform="scale(0.0040, -0.0040)" d="M218 136c66 0 108 -36 108 -89c0 -89 -113 -183 -218 -183c-66 0 -108 36 -108 89c0 89 113 183 218 183z" fill="currentColor"/>
</g>
<g transform="translate(6.4906, 32.6602)">
<path transform="scale(0.0040, -0.0040)" d="M266 -635h-6c-108 0 -195 88 -195 197c0 58 53 103 112 103c54 0 95 -47 95 -103c0 -52 -43 -95 -95 -95c-11 0 -21 2 -31 6c26 -39 68 -65 117 -65h4zM461 -203c68 24 113 90 113 164c0 90 -66 179 -173 190c19 -89 48 -242 60 -354zM74 28c0 -145 141 -247 264 -247
c1 0 47 0 82 6c-7 64 -29 203 -63 364c-79 -8 -124 -61 -124 -119c0 -44 25 -91 81 -123c5 -5 7 -10 7 -15c0 -11 -10 -22 -22 -22c-15 0 -126 62 -126 187c0 88 58 174 160 197c-14 58 -29 117 -46 175c-107 -121 -213 -243 -213 -403zM250 553c-29 96 -52 170 -52 346
c0 115 55 224 149 292c6 5 14 5 20 0c68 -80 133 -245 133 -358c0 -143 -86 -255 -180 -364c21 -68 39 -138 56 -207c2 0 7 1 13 1c155 0 256 -128 256 -261c0 -113 -74 -212 -180 -246c3 -35 5 -70 5 -105c0 -19 -1 -39 -2 -58c-7 -119 -88 -225 -202 -228l1 43
c93 2 153 92 159 191c1 18 2 37 2 55c0 31 -1 61 -4 92c-5 -1 -44 -8 -89 -8c-193 0 -333 180 -333 374c0 177 131 306 248 441zM428 916c0 34 1 66 -20 129c-99 -48 -162 -149 -162 -259c0 -52 12 -115 36 -194c80 97 146 198 146 324z" fill="currentColor"/>
</g>
<g transform="translate(47.9667, 39.2050)">
<path transform="scale(0.0040, -0.0040)" d="M218 136c66 0 108 -36 108 -89c0 -89 -113 -183 -218 -183c-66 0 -108 36 -108 89c0 89 113 183 218 183z" fill="currentColor"/>
</g>
<g transform="translate(48.0317, 31.6602)">
<rect x="-0.0650" y="0.1861" width="0.1300" height="2.6157" ry="0.0400" fill="currentColor"/>
</g>
<g transform="translate(48.0317, 40.7050)">
<rect x="-0.0650" y="-1.3139" width="0.1300" height="3.3211" ry="0.0400" fill="currentColor"/>
</g>
<g transform="translate(46.5167, 39.2050)">
<path transform="scale(0.0040, -0.0040)" d="M0 119c0 8 5 15 13 18l46 17v158c0 10 8 19 18 19s19 -9 19 -19v-145l83 31v158c0 10 9 19 19 19s18 -9 18 -19v-145l32 12c2 1 5 1 7 1c11 0 20 -9 20 -20v-60c0 -8 -5 -16 -13 -19l-46 -16v-160l32 11c2 1 5 1 7 1c11 0 20 -9 20 -20v-60c0 -8 -5 -15 -13 -18l-46 -17
v-158c0 -10 -8 -19 -18 -19s-19 9 -19 19v145l-83 -31v-158c0 -10 -9 -19 -19 -19s-18 9 -18 19v145l-32 -12c-2 -1 -5 -1 -7 -1c-11 0 -20 9 -20 20v60c0 8 5 16 13 19l46 16v160l-32 -11c-2 -1 -5 -1 -7 -1c-11 0 -20 9 -20 20v60zM179 95l-83 -30v-160l83 30v160z" fill="currentColor"/>
</g>
<g transform="translate(50.0701, 31.1602)">
<path transform="scale(0.0040, -0.0040)" d="M218 136c66 0 108 -36 108 -89c0 -89 -113 -183 -218 -183c-66 0 -108 36 -108 89c0 89 113 183 218 183z" fill="currentColor"/>
</g>
<g transform="translate(50.1351, 31.6602)">
<rect x="-0.0650" y="-0.3139" width="0.1300" height="2.8512" ry="0.0400" fill="currentColor"/>
</g>
<g transform="translate(52.1735, 30.6602)">
<path transform="scale(0.0040, -0.0040)" d="M218 136c66 0 108 -36 108 -89c0 -89 -113 -183 -218 -183c-66 0 -108 36 -108 89c0 89 113 183 218 183z" fill="currentColor"/>
</g>
<g transform="translate(52.1735, 39.7050)">
<path transform="scale(0.0040, -0.0040)" d="M218 136c66 0 108 -36 108 -89c0 -89 -113 -183 -218 -183c-66 0 -108 36 -108 89c0 89 113 183 218 183z" fill="currentColor"/>
</g>
<g transform="translate(52.2385, 31.6602)">
<rect x="-0.0650" y="-0.8139" width="0.1300" height="3.0866" ry="0.0400" fill="currentColor"/>
</g>
<g transform="translate(52.2385, 40.7050)">
<rect x="-0.0650" y="-0.8139" width="0.1300" height="3.2867" ry="0.0400" fill="currentColor"/>
</g>
<g transform="translate(54.2770, 30.1602)">
<path transform="scale(0.0040, -0.0040)" d="M218 136c66 0 108 -36 108 -89c0 -89 -113 -183 -218 -183c-66 0 -108 36 -108 89c0 89 113 183 218 183z" fill="currentColor"/>
</g>
<g transform="translate(54.3420, 31.6602)">
<rect x="-0.0650" y="-1.3139" width="0.1300" height="3.3221" ry="0.0400" fill="currentColor"/>
</g>
<g transform="translate(56.3804, 29.6602)">
<path transform="scale(0.0040, -0.0040)" d="M218 136c66 0 108 -36 108 -89c0 -89 -113 -183 -218 -183c-66 0 -108 36 -108 89c0 89 113 183 218 183z" fill="currentColor"/>
</g>
<g transform="translate(56.3804, 40.7050)">
<path transform="scale(0.0040, -0.0040)" d="M218 136c66 0 108 -36 108 -89c0 -89 -113 -183 -218 -183c-66 0 -108 36 -108 89c0 89 113 183 218 183z" fill="currentColor"/>
</g>
<g transform="translate(56.4454, 31.6602)">
<rect x="-0.0650" y="-1.8139" width="0.1300" height="3.8139" ry="0.0400" fill="currentColor"/>
</g>
<g transform="translate(56.4454, 40.7050)">
<rect x="-0.0650" y="0.1861" width="0.1300" height="2.7524" ry="0.0400" fill="currentColor"/>
</g>
<g transform="translate(58.2338, 30.6602)">
<path transform="scale(0.0040, -0.0040)" d="M218 136c66 0 108 -36 108 -89c0 -89 -113 -183 -218 -183c-66 0 -108 36 -108 89c0 89 113 183 218 183z" fill="currentColor"/>
</g>
<g transform="translate(58.2988, 31.6602)">
<rect x="-0.0650" y="-0.8139" width="0.1300" height="2.8139" ry="0.0400" fill="currentColor"/>
</g>
<g transform="translate(61.3880, 29.1602)">
<path transform="scale(0.0040, -0.0040)" d="M218 136c66 0 108 -36 108 -89c0 -89 -113 -183 -218 -183c-66 0 -108 36 -108 89c0 89 113 183 218 183z" fill="currentColor"/>
</g>
<g transform="translate(61.3880, 41.7050)">
<path transform="scale(0.0040, -0.0040)" d="M218 136c66 0 108 -36 108 -89c0 -89 -113 -183 -218 -183c-66 0 -108 36 -108 89c0 89 113 183 218 183z" fill="currentColor"/>
</g>
<g transform="translate(59.9380, 29.1602)">
<path transform="scale(0.0040, -0.0040)" d="M0 119c0 8 5 15 13 18l46 17v158c0 10 8 19 18 19s19 -9 19 -19v-145l83 31v158c0 10 9 19 19 19s18 -9 18 -19v-145l32 12c2 1 5 1 7 1c11 0 20 -9 20 -20v-60c0 -8 -5 -16 -13 -19l-46 -16v-160l32 11c2 1 5 1 7 1c11 0 20 -9 20 -20v-60c0 -8 -5 -15 -13 -18l-46 -17
v-158c0 -10 -8 -19 -18 -19s-19 9 -19 19v145l-83 -31v-158c0 -10 -9 -19 -19 -19s-18 9 -18 19v145l-32 -12c-2 -1 -5 -1 -7 -1c-11 0 -20 9 -20 20v60c0 8 5 16 13 19l46 16v160l-32 -11c-2 -1 -5 -1 -7 -1c-11 0 -20 9 -20 20v60zM179 95l-83 -30v-160l83 30v160z" fill="currentColor"/>
</g>
<g transform="translate(63.2415, 30.6602)">
<path transform="scale(0.0040, -0.0040)" d="M218 136c66 0 108 -36 108 -89c0 -89 -113 -183 -218 -183c-66 0 -108 36 -108 89c0 89 113 183 218 183z" fill="currentColor"/>
</g>
<g transform="translate(63.3065, 31.6602)">
<rect x="-0.0650" y="-0.8139" width="0.1300" height="2.8139" ry="0.0400" fill="currentColor"/>
</g>
<g transform="translate(65.5949, 28.1602)">
<path transform="scale(0.0040, -0.0040)" d="M218 136c66 0 108 -36 108 -89c0 -89 -113 -183 -218 -183c-66 0 -108 36 -108 89c0 89 113 183 218 183z" fill="currentColor"/>
</g>
<g transform="translate(65.5949, 42.7050)">
<path transform="scale(0.0040, -0.0040)" d="M218 136c66 0 108 -36 108 -89c0 -89 -113 -183 -218 -183c-66 0 -108 36 -108 89c0 89 113 183 218 183z" fill="currentColor"/>
</g>
<g transform="translate(65.6599, 31.6602)">
<rect x="-0.0650" y="-3.3139" width="0.1300" height="5.3139" ry="0.0400" fill="currentColor"/>
</g>
<g transform="translate(66.8341, 40.7050)">
<rect x="-0.0650" y="-1.0000" width="0.1300" height="2.8139" ry="0.0400" fill="currentColor"/>
</g>
<g transform="translate(64.1449, 42.7050)">
<path transform="scale(0.0040, -0.0040)" d="M0 119c0 8 5 15 13 18l46 17v158c0 10 8 19 18 19s19 -9 19 -19v-145l83 31v158c0 10 9 19 19 19s18 -9 18 -19v-145l32 12c2 1 5 1 7 1c11 0 20 -9 20 -20v-60c0 -8 -5 -16 -13 -19l-46 -16v-160l32 11c2 1 5 1 7 1c11 0 20 -9 20 -20v-60c0 -8 -5 -15 -13 -18l-46 -17
v-158c0 -10 -8 -19 -18 -19s-19 9 -19 19v145l-83 -31v-158c0 -10 -9 -19 -19 -19s-18 9 -18 19v145l-32 -12c-2 -1 -5 -1 -7 -1c-11 0 -20 9 -20 20v60c0 8 5 16 13 19l46 16v160l-32 -11c-2 -1 -5 -1 -7 -1c-11 0 -20 9 -20 20v60zM179 95l-83 -30v-160l83 30v160z" fill="currentColor"/>
</g>
<g transform="translate(67.4483, 30.6602)">
<path transform="scale(0.0040, -0.0040)" d="M218 136c66 0 108 -36 108 -89c0 -89 -113 -183 -218 -183c-66 0 -108 36 -108 89c0 89 113 183 218 183z" fill="currentColor"/>
</g>
<g transform="translate(67.5133, 31.6602)">
<rect x="-0.0650" y="-0.8139" width="0.1300" height="2.8139" ry="0.0400" fill="currentColor"/>
</g>
<g transform="translate(69.5518, 31.1602)">
<path transform="scale(0.0040, -0.0040)" d="M218 136c66 0 108 -36 108 -89c0 -89 -113 -183 -218 -183c-66 0 -108 36 -108 89c0 89 113 183 218 183z" fill="currentColor"/>
</g>
<g transform="translate(69.5518, 42.2050)">
<path transform="scale(0.0040, -0.0040)" d="M218 136c66 0 108 -36 108 -89c0 -89 -113 -183 -218 -183c-66 0 -108 36 -108 89c0 89 113 183 218 183z" fill="currentColor"/>
</g>
<g transform="translate(69.6168, 31.6602)">
<rect x="-0.0650" y="-0.3139" width="0.1300" height="2.3139" ry="0.0400" fill="currentColor"/>
</g>
<g transform="translate(70.7910, 40.7050)">
<rect x="-0.0650" y="-1.0000" width="0.1300" height="2.3139" ry="0.0400" fill="currentColor"/>
</g>
<g transform="translate(71.9052, 28.6602)">
<path transform="scale(0.0040, -0.0040)" d="M218 136c66 0 108 -36 108 -89c0 -89 -113 -183 -218 -183c-66 0 -108 36 -108 89c0 89 113 183 218 183z" fill="currentColor"/>
</g>
<g transform="translate(71.9702, 31.6602)">
<rect x="-0.0650" y="-2.8139" width="0.1300" height="4.8139" ry="0.0400" fill="currentColor"/>
</g>
<g transform="translate(73.7586, 29.6602)">
<path transform="scale(0.0040, -0.0040)" d="M218 136c66 0 108 -36 108 -89c0 -89 -113 -183 -218 -183c-66 0 -108 36 -108 89c0 89 113 183 218 183z" fill="currentColor"/>
</g>
<g transform="translate(73.7586, 44.2050)">
<path transform="scale(0.0040, -0.0040)" d="M218 136c66 0 108 -36 108 -89c0 -89 -113 -183 -218 -183c-66 0 -108 36 -108 89c0 89 113 183 218 183z" fill="currentColor"/>
</g>
<g transform="translate(73.8236, 31.6602)">
<rect x="-0.0650" y="-1.8139" width="0.1300" height="4.8191" ry="0.0400" fill="currentColor"/>
</g>
<g transform="translate(74.9979, 40.7050)">
<rect x="-0.0650" y="-1.0000" width="0.1300" height="4.3139" ry="0.0400" fill="currentColor"/>
</g>
<g transform="translate(75.6121, 30.6602)">
<path transform="scale(0.0040, -0.0040)" d="M218 136c66 0 108 -36 108 -89c0 -89 -113 -183 -218 -183c-66 0 -108 36 -108 89c0 89 113 183 218 183z" fill="currentColor"/>
</g>
<g transform="translate(75.6771, 31.6602)">
<rect x="-0.0650" y="-0.8139" width="0.1300" height="3.9688" ry="0.0400" fill="currentColor"/>
</g>
<g transform="translate(77.4655, 31.6602)">
<path transform="scale(0.0040, -0.0040)" d="M218 136c66 0 108 -36 108 -89c0 -89 -113 -183 -218 -183c-66 0 -108 36 -108 89c0 89 113 183 218 183z" fill="currentColor"/>
</g>
<g transform="translate(77.4655, 43.7050)">
<path transform="scale(0.0040, -0.0040)" d="M218 136c66 0 108 -36 108 -89c0 -89 -113 -183 -218 -183c-66 0 -108 36 -108 89c0 89 113 183 218 183z" fill="currentColor"/>
</g>
<g transform="translate(77.5305, 31.6602)">
<rect x="-0.0650" y="0.1861" width="0.1300" height="3.1186" ry="0.0400" fill="currentColor"/>
</g>
<g transform="translate(78.7047, 40.7050)">
<rect x="-0.0650" y="-1.0000" width="0.1300" height="3.8139" ry="0.0400" fill="currentColor"/>
</g>
<g transform="translate(79.8189, 30.6602)">
<path transform="scale(0.0040, -0.0040)" d="M218 136c66 0 108 -36 108 -89c0 -89 -113 -183 -218 -183c-66 0 -108 36 -108 89c0 89 113 183 218 183z" fill="currentColor"/>
</g>
<g transform="translate(79.8839, 31.6602)">
<rect x="-0.0650" y="-0.8139" width="0.1300" height="4.3086" ry="0.0400" fill="currentColor"/>
</g>
<g transform="translate(110.1119, 31.6602)">
<rect x="-0.0650" y="-0.0000" width="0.1300" height="3.8139" ry="0.0400" fill="currentColor"/>
</g>
<g transform="translate(83.9578, 32.6602)">
<path transform="scale(0.0040, -0.0040)" d="M218 136c66 0 108 -36 108 -89c0 -89 -113 -183 -218 -183c-66 0 -108 36 -108 89c0 89 113 183 218 183z" fill="currentColor"/>
</g>
<g transform="translate(83.9578, 43.2050)">
<path transform="scale(0.0040, -0.0040)" d="M218 136c66 0 108 -36 108 -89c0 -89 -113 -183 -218 -183c-66 0 -108 36 -108 89c0 89 113 183 218 183z" fill="currentColor"/>
</g>
<g transform="translate(5.6306, 36.1826)">
<rect x="0.0000" y="-6.5724" width="0.1600" height="13.1448" ry="0.0500" fill="currentColor"/>
</g>
<g transform="translate(85.1970, 31.6602)">
<rect x="-0.0650" y="-3.0000" width="0.1300" height="3.8139" ry="0.0400" fill="currentColor"/>
</g>
<g transform="translate(82.5078, 32.6602)">
<path transform="scale(0.0040, -0.0040)" d="M0 119c0 8 5 15 13 18l46 17v158c0 10 8 19 18 19s19 -9 19 -19v-145l83 31v158c0 10 9 19 19 19s18 -9 18 -19v-145l32 12c2 1 5 1 7 1c11 0 20 -9 20 -20v-60c0 -8 -5 -16 -13 -19l-46 -16v-160l32 11c2 1 5 1 7 1c11 0 20 -9 20 -20v-60c0 -8 -5 -15 -13 -18l-46 -17
v-158c0 -10 -8 -19 -18 -19s-19 9 -19 19v145l-83 -31v-158c0 -10 -9 -19 -19 -19s-18 9 -18 19v145l-32 -12c-2 -1 -5 -1 -7 -1c-11 0 -20 9 -20 20v60c0 8 5 16 13 19l46 16v160l-32 -11c-2 -1 -5 -1 -7 -1c-11 0 -20 9 -20 20v60zM179 95l-83 -30v-160l83 30v160z" fill="currentColor"/>
</g>
<g transform="translate(85.1970, 40.7050)">
<rect x="-0.0650" y="-1.1983" width="0.1300" height="3.5122" ry="0.0400" fill="currentColor"/>
</g>
<g transform="translate(5.3306, 36.1826)">
<path transform="scale(0.0040, -0.0040)" d="M-81 -366c0 255 -132 363 -132 366c0 18 132 96 132 366c0 261 -108 489 -108 780c0 189 45 366 177 501c15 15 39 -9 24 -24c-99 -99 -129 -225 -129 -360c0 -255 102 -480 102 -765c0 -186 -45 -363 -174 -498c129 -135 174 -312 174 -498c0 -285 -102 -510 -102 -765
c0 -135 30 -261 129 -360c15 -15 -9 -39 -24 -24c-132 135 -177 312 -177 501c0 291 108 519 108 780z" fill="currentColor"/>
</g>
<g transform="translate(109.5248, 29.1342)">
<path transform="scale(0.0040, -0.0040)" d="M-67 48c0 37 30 67 67 67s67 -30 67 -67s-30 -67 -67 -67s-67 30 -67 67zM0 363c255 0 332 -331 332 -366c0 -9 -10 -15 -19 -15s-17 5 -19 18c-26 148 -146 262 -294 262s-268 -114 -294 -262c-2 -13 -10 -18 -19 -18s-19 6 -19 15c0 35 77 366 332 366z" fill="currentColor"/>
</g>
<g transform="translate(86.3113, 31.6602)">
<path transform="scale(0.0040, -0.0040)" d="M218 136c66 0 108 -36 108 -89c0 -89 -113 -183 -218 -183c-66 0 -108 36 -108 89c0 89 113 183 218 183z" fill="currentColor"/>
</g>
<g transform="translate(87.5505, 31.6602)">
<rect x="-0.0650" y="-3.0000" width="0.1300" height="2.8139" ry="0.0400" fill="currentColor"/>
</g>
<g transform="translate(108.8727, 35.6602)">
<path transform="scale(0.0040, -0.0040)" d="M218 136c66 0 108 -36 108 -89c0 -89 -113 -183 -218 -183c-66 0 -108 36 -108 89c0 89 113 183 218 183z" fill="currentColor"/>
</g>
<g transform="translate(88.4147, 31.1602)">
<path transform="scale(0.0040, -0.0040)" d="M218 136c66 0 108 -36 108 -89c0 -89 -113 -183 -218 -183c-66 0 -108 36 -108 89c0 89 113 183 218 183z" fill="currentColor"/>
</g>
<g transform="translate(88.4147, 44.2050)">
<path transform="scale(0.0040, -0.0040)" d="M218 136c66 0 108 -36 108 -89c0 -89 -113 -183 -218 -183c-66 0 -108 36 -108 89c0 89 113 183 218 183z" fill="currentColor"/>
</g>
<g transform="translate(89.6539, 31.6602)">
<rect x="-0.0650" y="-3.0000" width="0.1300" height="2.3139" ry="0.0400" fill="currentColor"/>
</g>
<g transform="translate(89.6539, 40.7050)">
<rect x="-0.0650" y="-1.7645" width="0.1300" height="5.0784" ry="0.0400" fill="currentColor"/>
</g>
<g transform="translate(86.9647, 44.2050)">
<path transform="scale(0.0040, -0.0040)" d="M0 119c0 8 5 15 13 18l46 17v158c0 10 8 19 18 19s19 -9 19 -19v-145l83 31v158c0 10 9 19 19 19s18 -9 18 -19v-145l32 12c2 1 5 1 7 1c11 0 20 -9 20 -20v-60c0 -8 -5 -16 -13 -19l-46 -16v-160l32 11c2 1 5 1 7 1c11 0 20 -9 20 -20v-60c0 -8 -5 -15 -13 -18l-46 -17
v-158c0 -10 -8 -19 -18 -19s-19 9 -19 19v145l-83 -31v-158c0 -10 -9 -19 -19 -19s-18 9 -18 19v145l-32 -12c-2 -1 -5 -1 -7 -1c-11 0 -20 9 -20 20v60c0 8 5 16 13 19l46 16v160l-32 -11c-2 -1 -5 -1 -7 -1c-11 0 -20 9 -20 20v60zM179 95l-83 -30v-160l83 30v160z" fill="currentColor"/>
</g>
<g transform="translate(90.2681, 32.1602)">
<path transform="scale(0.0040, -0.0040)" d="M218 136c66 0 108 -36 108 -89c0 -89 -113 -183 -218 -183c-66 0 -108 36 -108 89c0 89 113 183 218 183z" fill="currentColor"/>
</g>
<g transform="translate(91.5073, 31.6602)">
<rect x="-0.0650" y="-3.0000" width="0.1300" height="3.3139" ry="0.0400" fill="currentColor"/>
</g>
<g transform="translate(92.1216, 33.6602)">
<path transform="scale(0.0040, -0.0040)" d="M218 136c66 0 108 -36 108 -89c0 -89 -113 -183 -218 -183c-66 0 -108 36 -108 89c0 89 113 183 218 183z" fill="currentColor"/>
</g>
<g transform="translate(92.1216, 43.7050)">
<path transform="scale(0.0040, -0.0040)" d="M218 136c66 0 108 -36 108 -89c0 -89 -113 -183 -218 -183c-66 0 -108 36 -108 89c0 89 113 183 218 183z" fill="currentColor"/>
</g>
<g transform="translate(93.3608, 31.6602)">
<rect x="-0.0650" y="-2.8100" width="0.1300" height="4.6239" ry="0.0400" fill="currentColor"/>
</g>
<g transform="translate(93.3608, 40.7050)">
<rect x="-0.0650" y="-2.2355" width="0.1300" height="5.0494" ry="0.0400" fill="currentColor"/>
</g>
<g transform="translate(94.4750, 32.1602)">
<path transform="scale(0.0040, -0.0040)" d="M218 136c66 0 108 -36 108 -89c0 -89 -113 -183 -218 -183c-66 0 -108 36 -108 89c0 89 113 183 218 183z" fill="currentColor"/>
</g>
<g transform="translate(95.7142, 31.6602)">
<rect x="-0.0650" y="-2.8100" width="0.1300" height="3.1239" ry="0.0400" fill="currentColor"/>
</g>
<g transform="translate(96.5784, 31.6602)">
<path transform="scale(0.0040, -0.0040)" d="M218 136c66 0 108 -36 108 -89c0 -89 -113 -183 -218 -183c-66 0 -108 36 -108 89c0 89 113 183 218 183z" fill="currentColor"/>
</g>
<g transform="translate(96.5784, 40.2050)">
<path transform="scale(0.0040, -0.0040)" d="M218 136c66 0 108 -36 108 -89c0 -89 -113 -183 -218 -183c-66 0 -108 36 -108 89c0 89 113 183 218 183z" fill="currentColor"/>
</g>
<g transform="translate(97.8176, 31.6602)">
<rect x="-0.0650" y="-2.8100" width="0.1300" height="2.6239" ry="0.0400" fill="currentColor"/>
</g>
<g transform="translate(97.8176, 40.7050)">
<rect x="-0.0650" y="-2.8017" width="0.1300" height="2.1156" ry="0.0400" fill="currentColor"/>
</g>
<g transform="translate(107.8348, 31.6602)">
<rect x="-0.0650" y="-1.0105" width="0.1300" height="2.8244" ry="0.0400" fill="currentColor"/>
</g>
<g transform="translate(98.4319, 32.6602)">
<path transform="scale(0.0040, -0.0040)" d="M218 136c66 0 108 -36 108 -89c0 -89 -113 -183 -218 -183c-66 0 -108 36 -108 89c0 89 113 183 218 183z" fill="currentColor"/>
</g>
<g transform="translate(99.6711, 31.6602)">
<rect x="-0.0650" y="-2.8100" width="0.1300" height="3.6239" ry="0.0400" fill="currentColor"/>
</g>
<g transform="translate(106.5956, 33.6602)">
<path transform="scale(0.0040, -0.0040)" d="M218 136c66 0 108 -36 108 -89c0 -89 -113 -183 -218 -183c-66 0 -108 36 -108 89c0 89 113 183 218 183z" fill="currentColor"/>
</g>
<g transform="translate(100.5353, 32.1602)">
<path transform="scale(0.0040, -0.0040)" d="M218 136c66 0 108 -36 108 -89c0 -89 -113 -183 -218 -183c-66 0 -108 36 -108 89c0 89 113 183 218 183z" fill="currentColor"/>
</g>
<g transform="translate(100.5353, 42.2050)">
<path transform="scale(0.0040, -0.0040)" d="M314 65c0 23 -19 41 -42 41c-39 0 -204 -110 -231 -143c-7 -8 -10 -18 -10 -28c0 -23 19 -41 42 -41c39 0 203 110 230 143c7 8 11 18 11 28zM262 136c41 0 82 -14 82 -71c0 -26 -16 -112 -74 -151c-25 -17 -87 -50 -187 -50c-41 0 -83 14 -83 71c0 26 16 112 74 151
c25 17 88 50 188 50z" fill="currentColor"/>
</g>
<g transform="translate(101.2240, 38.1790)">
<path transform="scale(0.0040, -0.0040)" d="M-67 48c0 37 30 67 67 67s67 -30 67 -67s-30 -67 -67 -67s-67 30 -67 67zM0 363c255 0 332 -331 332 -366c0 -9 -10 -15 -19 -15s-17 5 -19 18c-26 148 -146 262 -294 262s-268 -114 -294 -262c-2 -13 -10 -18 -19 -18s-19 6 -19 15c0 35 77 366 332 366z" fill="currentColor"/>
</g>
<g transform="translate(101.7745, 31.6602)">
<rect x="-0.0650" y="-1.9895" width="0.1300" height="2.3034" ry="0.0400" fill="currentColor"/>
</g>
<g transform="translate(101.8476, 40.7050)">
<rect x="-0.0650" y="-2.0000" width="0.1300" height="3.2410" ry="0.0400" fill="currentColor"/>
</g>
<g transform="translate(102.3887, 33.6602)">
<path transform="scale(0.0040, -0.0040)" d="M218 136c66 0 108 -36 108 -89c0 -89 -113 -183 -218 -183c-66 0 -108 36 -108 89c0 89 113 183 218 183z" fill="currentColor"/>
</g>
<g transform="translate(103.6279, 31.6602)">
<rect x="-0.0650" y="-1.6901" width="0.1300" height="3.5040" ry="0.0400" fill="currentColor"/>
</g>
<g transform="translate(104.2422, 34.6602)">
<path transform="scale(0.0040, -0.0040)" d="M218 136c66 0 108 -36 108 -89c0 -89 -113 -183 -218 -183c-66 0 -108 36 -108 89c0 89 113 183 218 183z" fill="currentColor"/>
</g>
<g transform="translate(105.4814, 31.6602)">
<rect x="-0.0650" y="-1.3907" width="0.1300" height="4.2046" ry="0.0400" fill="currentColor"/>
</g>
<g transform="translate(61.4530, 40.7050)">
<rect x="-0.0650" y="1.1861" width="0.1300" height="2.3067" ry="0.0400" fill="currentColor"/>
</g>
<g transform="translate(14.1105, 165.5950)">
<rect x="-1.1000" y="-0.1000" width="93.4805" height="0.1000" ry="0.0000" fill="currentColor"/>
</g>
<g transform="translate(14.1105, 156.3975)">
<rect x="-1.1000" y="-0.1000" width="93.4805" height="0.1000" ry="0.0000" fill="currentColor"/>
</g>
<g transform="translate(13.0105, 158.7593)">
<rect x="0" y="-2.3619" width="0.1000" height="9.0976" ry="0.0000" fill="currentColor"/>
</g>
<g transform="translate(106.3910, 158.7593)">
<rect x="0" y="-2.3619" width="0.1000" height="9.0976" ry="0.0000" fill="currentColor"/>
</g>
<g transform="translate(14.1105, 158.7593)">
<text font-family="serif" font-size="1.9598" text-anchor="start" fill="currentColor">
<tspan>Sheet</tspan>
</text>
</g>
<g transform="translate(19.0467, 158.7593)">
<text font-family="serif" font-size="1.9598" text-anchor="start" fill="currentColor">
<tspan>music</tspan>
</text>
</g>
<g transform="translate(24.3244, 158.7593)">
<text font-family="serif" font-size="1.9598" text-anchor="start" fill="currentColor">
<tspan>from</tspan>
</text>
</g>
<g transform="translate(28.7484, 158.7593)">
<a xlink:href="http://www.MutopiaProject.org">
<rect x="0.0000" y="-0.4230" width="17.9667" height="1.7849" fill="none" stroke="none" stroke-width="0.0"/>
</a>
</g>
<g transform="translate(28.7484, 158.7593)">
<text font-family="serif" font-size="1.5552" text-anchor="start" fill="currentColor">
<tspan>www.</tspan>
</text>
</g>

<g transform="translate(43.7909, 158.7593)">
<text font-family="serif" font-size="1.5552" text-anchor="start" fill="currentColor">
<tspan>.org</tspan>
</text>
</g>
<g transform="translate(47.3151, 158.7593)">
<text font-family="serif" font-size="1.9598" text-anchor="start" fill="currentColor">
<tspan>•</tspan>
</text>
</g>
<g transform="translate(49.0980, 158.7593)">
<text font-family="serif" font-style="italic" font-size="1.9598" text-anchor="start" fill="currentColor">
<tspan>Free</tspan>
</text>
</g>
<g transform="translate(53.2830, 158.7593)">
<text font-family="serif" font-size="1.9598" text-anchor="start" fill="currentColor">
<tspan>to</tspan>
</text>
</g>
<g transform="translate(55.4194, 158.7593)">
<text font-family="serif" font-size="1.9598" text-anchor="start" fill="currentColor">
<tspan>download,</tspan>
</text>
</g>
<g transform="translate(64.2480, 158.7593)">
<text font-family="serif" font-size="1.9598" text-anchor="start" fill="currentColor">
<tspan>with</tspan>
</text>
</g>
<g transform="translate(68.3306, 158.7593)">
<text font-family="serif" font-size="1.9598" text-anchor="start" fill="currentColor">
<tspan>the</tspan>
</text>
</g>
<g transform="translate(71.3206, 158.7593)">
<text font-family="serif" font-style="italic" font-size="1.9598" text-anchor="start" fill="currentColor">
<tspan>freedom</tspan>
</text>
</g>
<g transform="translate(78.2371, 158.7593)">
<text font-family="serif" font-size="1.9598" text-anchor="start" fill="currentColor">
<tspan>to</tspan>
</text>
</g>
<g transform="translate(80.3736, 158.7593)">
<text font-family="serif" font-size="1.9598" text-anchor="start" fill="currentColor">
<tspan>distribute,</tspan>
</text>
</g>
<g transform="translate(88.8607, 158.7593)">
<text font-family="serif" font-size="1.9598" text-anchor="start" fill="currentColor">
<tspan>modify</tspan>
</text>
</g>
<g transform="translate(95.1626, 158.7593)">
<text font-family="serif" font-size="1.9598" text-anchor="start" fill="currentColor">
<tspan>and</tspan>
</text>
</g>
<g transform="translate(98.5965, 158.7593)">
<text font-family="serif" font-size="1.9598" text-anchor="start" fill="currentColor">
<tspan>perform.</tspan>
</text>
</g>
<g transform="translate(26.4109, 161.4593)">
<text font-family="serif" font-size="1.9598" text-anchor="start" fill="currentColor">
<tspan>Typeset</tspan>
</text>
</g>
<g transform="translate(33.0543, 161.4593)">
<text font-family="serif" font-size="1.9598" text-anchor="start" fill="currentColor">
<tspan>using</tspan>
</text>
</g>
<g transform="translate(37.9222, 161.4593)">
<a xlink:href="http://www.LilyPond.org">
<rect x="0.0000" y="-0.4230" width="12.6183" height="1.7839" fill="none" stroke="none" stroke-width="0.0"/>
</a>
</g>
<g transform="translate(37.9222, 161.4593)">
<text font-family="serif" font-size="1.5552" text-anchor="start" fill="currentColor">
<tspan>www.</tspan>
</text>
</g>

<g transform="translate(48.1164, 161.4593)">
<text font-family="serif" font-size="1.5552" text-anchor="start" fill="currentColor">
<tspan>.org</tspan>
</text>
</g>
<g transform="translate(51.1405, 161.4593)">
<text font-family="serif" font-size="1.9598" text-anchor="start" fill="currentColor">
<tspan>by</tspan>
</text>
</g>
<g transform="translate(53.7208, 161.4593)">
<text font-family="serif" font-size="1.9598" text-anchor="start" fill="currentColor">
<tspan>Allen Garvin</tspan>
</text>
</g>
<g transform="translate(63.5638, 161.4593)">
<text font-family="serif" font-size="1.9598" text-anchor="start" fill="currentColor">
<tspan>.</tspan>
</text>
</g>
<g transform="translate(65.1418, 161.4593)">
<text font-family="serif" font-size="1.9598" text-anchor="start" fill="currentColor">
<tspan>Reference:</tspan>
</text>
</g>

<g transform="translate(15.0141, 164.1593)">
<text font-family="serif" font-size="1.5552" text-anchor="start" fill="currentColor">
<tspan>This</tspan>
</text>
</g>
<g transform="translate(18.4139, 164.1593)">
<text font-family="serif" font-size="1.5552" text-anchor="start" fill="currentColor">
<tspan>sheet</tspan>
</text>
</g>
<g transform="translate(22.2233, 164.1593)">
<text font-family="serif" font-size="1.5552" text-anchor="start" fill="currentColor">
<tspan>music</tspan>
</text>
</g>
<g transform="translate(26.5450, 164.1593)">
<text font-family="serif" font-size="1.5552" text-anchor="start" fill="currentColor">
<tspan>has</tspan>
</text>
</g>
<g transform="translate(29.2277, 164.1593)">
<text font-family="serif" font-size="1.5552" text-anchor="start" fill="currentColor">
<tspan>been</tspan>
</text>
</g>
<g transform="translate(32.7640, 164.1593)">
<text font-family="serif" font-size="1.5552" text-anchor="start" fill="currentColor">
<tspan>placed</tspan>
</text>
</g>
<g transform="translate(37.4271, 164.1593)">
<text font-family="serif" font-size="1.5552" text-anchor="start" fill="currentColor">
<tspan>in</tspan>
</text>
</g>
<g transform="translate(39.2562, 164.1593)">
<text font-family="serif" font-size="1.5552" text-anchor="start" fill="currentColor">
<tspan>the</tspan>
</text>
</g>
<g transform="translate(41.7683, 164.1593)">
<text font-family="serif" font-size="1.5552" text-anchor="start" fill="currentColor">
<tspan>public</tspan>
</text>
</g>
<g transform="translate(46.2947, 164.1593)">
<text font-family="serif" font-size="1.5552" text-anchor="start" fill="currentColor">
<tspan>domain</tspan>
</text>
</g>
<g transform="translate(51.5724, 164.1593)">
<text font-family="serif" font-size="1.5552" text-anchor="start" fill="currentColor">
<tspan>by</tspan>
</text>
</g>
<g transform="translate(53.7430, 164.1593)">
<text font-family="serif" font-size="1.5552" text-anchor="start" fill="currentColor">
<tspan>the</tspan>
</text>
</g>
<g transform="translate(56.2550, 164.1593)">
<text font-family="serif" font-size="1.5552" text-anchor="start" fill="currentColor">
<tspan>typesetter,</tspan>
</text>
</g>
<g transform="translate(63.2398, 164.1593)">
<text font-family="serif" font-size="1.5552" text-anchor="start" fill="currentColor">
<tspan>for</tspan>
</text>
</g>
<g transform="translate(65.6494, 164.1593)">
<text font-family="serif" font-size="1.5552" text-anchor="start" fill="currentColor">
<tspan>details</tspan>
</text>
</g>
<g transform="translate(70.3466, 164.1593)">
<text font-family="serif" font-size="1.5552" text-anchor="start" fill="currentColor">
<tspan>see:</tspan>
</text>
</g>
<g transform="translate(72.8708, 164.1593)">
<a xlink:href="http://creativecommons.org/licenses/publicdomain">
<rect x="0.0000" y="-0.3357" width="31.6167" height="1.4157" fill="none" stroke="none" stroke-width="0.0"/>
</a>
</g>
<g transform="translate(72.8708, 164.1593)">
<text font-family="serif" font-size="1.5552" text-anchor="start" fill="currentColor">
<tspan>http://creativecommons.org/licenses/publicdomain</tspan>
</text>
</g>
</svg>
