<svg xmlns="http://www.w3.org/2000/svg" xmlns:xlink="http://www.w3.org/1999/xlink" version="1.2" viewBox="0.0000 -0.0000 119.5016 169.0094">
<style type="text/css">
<![CDATA[
tspan { white-space: pre; }
]]>
</style>
<g transform="translate(52.0173, 6.2124)">
<text font-family="serif" font-weight="bold" font-size="3.4929" text-anchor="start" fill="currentColor">
<tspan>Applicatio</tspan>
</text>
</g>
<g transform="translate(82.0577, 9.7124)">
<text font-family="serif" font-size="2.2000" text-anchor="start" fill="currentColor">
<tspan>Johann Sebastian Bach (1685-1750)</tspan>
</text>
</g>
<g transform="translate(104.8655, 12.1697)">
<text font-family="serif" font-size="2.2000" text-anchor="start" fill="currentColor">
<tspan>BWV 994</tspan>
</text>
</g>
<g transform="translate(45.1551, 20.3723)">
<rect x="0.0000" y="-2.0000" width="0.1900" height="4.0500" ry="0.0000" fill="currentColor"/>
</g>
<g transform="translate(14.2264, 22.3723)">
<line stroke-linejoin="round" stroke-linecap="round" stroke-width="0.1000" stroke="currentColor" x1="0.0500" y1="0" x2="99.5346" y2="0"/>
</g>
<g transform="translate(14.2264, 21.3723)">
<line stroke-linejoin="round" stroke-linecap="round" stroke-width="0.1000" stroke="currentColor" x1="0.0500" y1="0" x2="99.5346" y2="0"/>
</g>
<g transform="translate(14.2264, 20.3723)">
<line stroke-linejoin="round" stroke-linecap="round" stroke-width="0.1000" stroke="currentColor" x1="0.0500" y1="0" x2="99.5346" y2="0"/>
</g>
<g transform="translate(14.2264, 19.3723)">
<line stroke-linejoin="round" stroke-linecap="round" stroke-width="0.1000" stroke="currentColor" x1="0.0500" y1="0" x2="99.5346" y2="0"/>
</g>
<g transform="translate(14.2264, 18.3723)">
<line stroke-linejoin="round" stroke-linecap="round" stroke-width="0.1000" stroke="currentColor" x1="0.0500" y1="0" x2="99.5346" y2="0"/>
</g>
<g transform="translate(113.2110, 12.7030)">
<rect x="0.0000" y="9.7193" width="0.6000" height="7.2321" ry="0.0000" fill="currentColor"/>
</g>
<g transform="translate(112.7210, 12.7030)">
<rect x="0.0000" y="9.7193" width="0.1900" height="7.2321" ry="0.0000" fill="currentColor"/>
</g>
<g transform="translate(5.6906, 28.6545)">
<rect x="85.5356" y="-0.1000" width="1.9563" height="0.2000" ry="0.1000" fill="currentColor"/>
</g>
<g transform="translate(5.6906, 28.6545)">
<rect x="80.6557" y="-0.1000" width="1.9563" height="0.2000" ry="0.1000" fill="currentColor"/>
</g>
<g transform="translate(14.2264, 33.6545)">
<line stroke-linejoin="round" stroke-linecap="round" stroke-width="0.1000" stroke="currentColor" x1="0.0500" y1="0" x2="99.5346" y2="0"/>
</g>
<g transform="translate(14.2264, 32.6545)">
<line stroke-linejoin="round" stroke-linecap="round" stroke-width="0.1000" stroke="currentColor" x1="0.0500" y1="0" x2="99.5346" y2="0"/>
</g>
<g transform="translate(14.2264, 31.6545)">
<line stroke-linejoin="round" stroke-linecap="round" stroke-width="0.1000" stroke="currentColor" x1="0.0500" y1="0" x2="99.5346" y2="0"/>
</g>
<g transform="translate(14.2264, 30.6545)">
<line stroke-linejoin="round" stroke-linecap="round" stroke-width="0.1000" stroke="currentColor" x1="0.0500" y1="0" x2="99.5346" y2="0"/>
</g>
<g transform="translate(14.2264, 29.6545)">
<line stroke-linejoin="round" stroke-linecap="round" stroke-width="0.1000" stroke="currentColor" x1="0.0500" y1="0" x2="99.5346" y2="0"/>
</g>
<g transform="translate(111.9710, 31.1545)">
<path transform="scale(0.0040, -0.0040)" d="M0 0c0 31 25 56 56 56s56 -25 56 -56s-25 -56 -56 -56s-56 25 -56 56z" fill="currentColor"/>
</g>
<g transform="translate(111.9710, 32.1545)">
<path transform="scale(0.0040, -0.0040)" d="M0 0c0 31 25 56 56 56s56 -25 56 -56s-25 -56 -56 -56s-56 25 -56 56z" fill="currentColor"/>
</g>
<g transform="translate(113.2110, 31.6545)">
<rect x="0.0000" y="-2.0500" width="0.6000" height="4.0500" ry="0.0000" fill="currentColor"/>
</g>
<g transform="translate(112.7210, 31.6545)">
<rect x="0.0000" y="-2.0500" width="0.1900" height="4.0500" ry="0.0000" fill="currentColor"/>
</g>
<g transform="translate(111.9710, 19.8723)">
<path transform="scale(0.0040, -0.0040)" d="M0 0c0 31 25 56 56 56s56 -25 56 -56s-25 -56 -56 -56s-56 25 -56 56z" fill="currentColor"/>
</g>
<g transform="translate(111.9710, 20.8723)">
<path transform="scale(0.0040, -0.0040)" d="M0 0c0 31 25 56 56 56s56 -25 56 -56s-25 -56 -56 -56s-56 25 -56 56z" fill="currentColor"/>
</g>
<g transform="translate(113.2110, 20.3723)">
<rect x="0.0000" y="-2.0000" width="0.6000" height="4.0500" ry="0.0000" fill="currentColor"/>
</g>
<g transform="translate(112.7210, 20.3723)">
<rect x="0.0000" y="-2.0000" width="0.1900" height="4.0500" ry="0.0000" fill="currentColor"/>
</g>
<g transform="translate(89.2070, 12.7030)">
<rect x="0.0000" y="9.7193" width="0.1900" height="7.2321" ry="0.0000" fill="currentColor"/>
</g>
<g transform="translate(89.2070, 31.6545)">
<rect x="0.0000" y="-2.0500" width="0.1900" height="4.0500" ry="0.0000" fill="currentColor"/>
</g>
<g transform="translate(89.2070, 20.3723)">
<rect x="0.0000" y="-2.0000" width="0.1900" height="4.0500" ry="0.0000" fill="currentColor"/>
</g>
<g transform="translate(5.6906, 23.3723)">
<rect x="16.9098" y="-0.1000" width="1.9563" height="0.2000" ry="0.1000" fill="currentColor"/>
</g>
<g transform="translate(65.9075, 12.7030)">
<rect x="0.0000" y="9.7193" width="0.1900" height="7.2321" ry="0.0000" fill="currentColor"/>
</g>
<g transform="translate(65.9075, 31.6545)">
<rect x="0.0000" y="-2.0500" width="0.1900" height="4.0500" ry="0.0000" fill="currentColor"/>
</g>
<g transform="translate(65.9075, 20.3723)">
<rect x="0.0000" y="-2.0000" width="0.1900" height="4.0500" ry="0.0000" fill="currentColor"/>
</g>
<g transform="translate(45.1551, 12.7030)">
<rect x="0.0000" y="9.7193" width="0.1900" height="7.2321" ry="0.0000" fill="currentColor"/>
</g>
<g transform="translate(45.1551, 31.6545)">
<rect x="0.0000" y="-2.0500" width="0.1900" height="4.0500" ry="0.0000" fill="currentColor"/>
</g>
<g transform="translate(22.9264, 32.1545)">
<path transform="scale(0.0040, -0.0040)" d="M314 65c0 23 -19 41 -42 41c-39 0 -204 -110 -231 -143c-7 -8 -10 -18 -10 -28c0 -23 19 -41 42 -41c39 0 203 110 230 143c7 8 11 18 11 28zM262 136c41 0 82 -14 82 -71c0 -26 -16 -112 -74 -151c-25 -17 -87 -50 -187 -50c-41 0 -83 14 -83 71c0 26 16 112 74 151
c25 17 88 50 188 50z" fill="currentColor"/>
</g>
<g transform="translate(22.9264, 31.1545)">
<path transform="scale(0.0040, -0.0040)" d="M314 65c0 23 -19 41 -42 41c-39 0 -204 -110 -231 -143c-7 -8 -10 -18 -10 -28c0 -23 19 -41 42 -41c39 0 203 110 230 143c7 8 11 18 11 28zM262 136c41 0 82 -14 82 -71c0 -26 -16 -112 -74 -151c-25 -17 -87 -50 -187 -50c-41 0 -83 14 -83 71c0 26 16 112 74 151
c25 17 88 50 188 50z" fill="currentColor"/>
</g>
<g transform="translate(15.0264, 30.6545)">
<path transform="scale(0.0040, -0.0040)" d="M557 -125c0 28 23 51 51 51s51 -23 51 -51s-23 -51 -51 -51s-51 23 -51 51zM557 125c0 28 23 51 51 51s51 -23 51 -51s-23 -51 -51 -51s-51 23 -51 51zM232 263c172 0 293 -88 293 -251c0 -263 -263 -414 -516 -521c-3 -3 -6 -4 -9 -4c-7 0 -13 6 -13 13c0 3 1 6 4 9
c202 118 412 265 412 493c0 120 -63 235 -171 235c-74 0 -129 -54 -154 -126c11 5 22 8 34 8c55 0 100 -45 100 -100c0 -58 -44 -106 -100 -106c-60 0 -112 47 -112 106c0 133 102 244 232 244z" fill="currentColor"/>
</g>
<g transform="translate(19.2264, 31.6545)">
<path transform="scale(0.0040, -0.0040)" d="M250 262c116 0 176 -106 176 -163c0 -40 -30 -72 -67 -72c-31 0 -75 25 -75 75c0 38 27 77 72 77c4 0 9 0 14 -1c-28 37 -72 59 -120 59c-106 0 -113 -73 -113 -186v-51v-51c0 -113 7 -187 113 -187c80 0 139 70 158 151c2 7 7 10 12 10c6 0 13 -4 13 -12
c0 -22 -50 -174 -183 -174c-59 0 -250 19 -250 263c0 62 18 262 250 262z" fill="currentColor"/>
</g>
<g transform="translate(24.1656, 20.3723)">
<rect x="-0.0650" y="-0.1977" width="0.1300" height="3.0116" ry="0.0400" fill="currentColor"/>
</g>
<g transform="translate(22.9914, 31.6545)">
<rect x="-0.0650" y="-0.2410" width="0.1300" height="3.9077" ry="0.0400" fill="currentColor"/>
</g>
<g transform="translate(25.7111, 22.8723)">
<path transform="scale(0.0040, -0.0040)" d="M218 136c66 0 108 -36 108 -89c0 -89 -113 -183 -218 -183c-66 0 -108 36 -108 89c0 89 113 183 218 183z" fill="currentColor"/>
</g>
<g transform="translate(26.9503, 20.3723)">
<rect x="-0.0650" y="-0.5259" width="0.1300" height="2.8398" ry="0.0400" fill="currentColor"/>
</g>
<g transform="translate(104.9211, 20.3723)">
<path stroke-width="0.0800" stroke-linejoin="round" stroke-linecap="round" stroke="currentColor" fill="currentColor" d="M1.5042 1.2686C1.8010 1.6561 2.2879 1.6561 2.5847 1.2686L2.5847 1.2686C2.2879 1.5361 1.8010 1.5361 1.5042 1.2686z"/>
</g>
<g transform="translate(28.4958, 22.3723)">
<path transform="scale(0.0040, -0.0040)" d="M218 136c66 0 108 -36 108 -89c0 -89 -113 -183 -218 -183c-66 0 -108 36 -108 89c0 89 113 183 218 183z" fill="currentColor"/>
</g>
<g transform="translate(29.7350, 20.3723)">
<rect x="-0.0650" y="-0.8541" width="0.1300" height="2.6680" ry="0.0400" fill="currentColor"/>
</g>
<g transform="translate(104.9211, 20.3723)">
<path stroke-width="0.0800" stroke-linejoin="round" stroke-linecap="round" stroke="currentColor" fill="currentColor" d="M1.6392 -0.2986C1.9039 -0.6510 2.3201 -0.6510 2.5847 -0.2986L2.5847 -0.2986C2.3201 -0.5310 1.9039 -0.5310 1.6392 -0.2986z"/>
</g>
<g transform="translate(31.2805, 21.8723)">
<path transform="scale(0.0040, -0.0040)" d="M218 136c66 0 108 -36 108 -89c0 -89 -113 -183 -218 -183c-66 0 -108 36 -108 89c0 89 113 183 218 183z" fill="currentColor"/>
</g>
<g transform="translate(32.5198, 20.3723)">
<rect x="-0.0650" y="-1.1823" width="0.1300" height="2.4962" ry="0.0400" fill="currentColor"/>
</g>
<g transform="translate(102.1363, 24.1823)">
<polygon stroke-linejoin="round" stroke-linecap="round" stroke-width="0.0800" fill="currentColor" stroke="currentColor" points="2.8747 -0.5100 2.8747 -0.1100 0.0400 0.2000 0.0400 -0.2000"/>
</g>
<g transform="translate(34.0653, 21.3723)">
<path transform="scale(0.0040, -0.0040)" d="M218 136c66 0 108 -36 108 -89c0 -89 -113 -183 -218 -183c-66 0 -108 36 -108 89c0 89 113 183 218 183z" fill="currentColor"/>
</g>
<g transform="translate(34.7174, 16.4543)">
<path transform="scale(0.0040, -0.0040)" d="M20 -147c0 -11 -9 -20 -20 -20s-20 9 -20 20v81l-33 -50c-4 -6 -10 -9 -17 -9c-6 0 -11 2 -15 7l-99 119c-37 -56 -36 -56 -47 -56s-20 9 -20 20c0 6 0 6 96 151c4 6 10 9 17 9c6 0 11 -2 15 -7l98 -119l5 7v141c0 11 9 20 20 20s20 -9 20 -20v-81l33 50c4 6 10 9 17 9
c6 0 11 -2 15 -7l99 -119l8 12l33 -22l-70 -105c-4 -6 -10 -9 -17 -9c-6 0 -11 2 -15 7l-98 119l-5 -7v-141zM215 46c4 6 9 9 16 9c11 0 20 -9 20 -20c0 -4 -1 -8 -3 -11l-23 -35l-33 22z" fill="currentColor"/>
</g>
<g transform="translate(34.0653, 32.6545)">
<path transform="scale(0.0040, -0.0040)" d="M314 65c0 23 -19 41 -42 41c-39 0 -204 -110 -231 -143c-7 -8 -10 -18 -10 -28c0 -23 19 -41 42 -41c39 0 203 110 230 143c7 8 11 18 11 28zM262 136c41 0 82 -14 82 -71c0 -26 -16 -112 -74 -151c-25 -17 -87 -50 -187 -50c-41 0 -83 14 -83 71c0 26 16 112 74 151
c25 17 88 50 188 50z" fill="currentColor"/>
</g>
<g transform="translate(34.0653, 31.6545)">
<path transform="scale(0.0040, -0.0040)" d="M314 65c0 23 -19 41 -42 41c-39 0 -204 -110 -231 -143c-7 -8 -10 -18 -10 -28c0 -23 19 -41 42 -41c39 0 203 110 230 143c7 8 11 18 11 28zM262 136c41 0 82 -14 82 -71c0 -26 -16 -112 -74 -151c-25 -17 -87 -50 -187 -50c-41 0 -83 14 -83 71c0 26 16 112 74 151
c25 17 88 50 188 50z" fill="currentColor"/>
</g>
<g transform="translate(35.3045, 20.3723)">
<rect x="-0.0650" y="-2.8100" width="0.1300" height="3.6239" ry="0.0400" fill="currentColor"/>
</g>
<g transform="translate(35.3776, 31.6545)">
<rect x="-0.0650" y="-3.3333" width="0.1300" height="4.0743" ry="0.0400" fill="currentColor"/>
</g>
<g transform="translate(103.3106, 16.8723)">
<polygon stroke-linejoin="round" stroke-linecap="round" stroke-width="0.0800" fill="currentColor" stroke="currentColor" points="2.8747 0.1100 2.8747 0.5100 0.0400 0.2000 0.0400 -0.2000"/>
</g>
<g transform="translate(36.8500, 20.8723)">
<path transform="scale(0.0040, -0.0040)" d="M218 136c66 0 108 -36 108 -89c0 -89 -113 -183 -218 -183c-66 0 -108 36 -108 89c0 89 113 183 218 183z" fill="currentColor"/>
</g>
<g transform="translate(38.0892, 20.3723)">
<rect x="-0.0650" y="-2.8100" width="0.1300" height="3.1239" ry="0.0400" fill="currentColor"/>
</g>
<g transform="translate(97.7411, 16.8723)">
<polygon stroke-linejoin="round" stroke-linecap="round" stroke-width="0.0800" fill="currentColor" stroke="currentColor" points="2.8747 0.1100 2.8747 0.5100 0.0400 0.2000 0.0400 -0.2000"/>
</g>
<g transform="translate(39.6347, 20.3723)">
<path transform="scale(0.0040, -0.0040)" d="M218 136c66 0 108 -36 108 -89c0 -89 -113 -183 -218 -183c-66 0 -108 36 -108 89c0 89 113 183 218 183z" fill="currentColor"/>
</g>
<g transform="translate(40.8739, 20.3723)">
<rect x="-0.0650" y="-2.8100" width="0.1300" height="2.6239" ry="0.0400" fill="currentColor"/>
</g>
<g transform="translate(78.3181, 32.8445)">
<polygon stroke-linejoin="round" stroke-linecap="round" stroke-width="0.0800" fill="currentColor" stroke="currentColor" points="8.4442 -1.2000 8.4442 -0.8000 0.0400 0.2000 0.0400 -0.2000"/>
</g>
<g transform="translate(42.1694, 21.3723)">
<path transform="scale(0.0040, -0.0040)" d="M218 136c66 0 108 -36 108 -89c0 -89 -113 -183 -218 -183c-66 0 -108 36 -108 89c0 89 113 183 218 183z" fill="currentColor"/>
</g>
<g transform="translate(43.4086, 20.3723)">
<rect x="-0.0650" y="-2.8100" width="0.1300" height="3.6239" ry="0.0400" fill="currentColor"/>
</g>
<g transform="translate(67.1792, 34.6545)">
<polygon stroke-linejoin="round" stroke-linecap="round" stroke-width="0.0800" fill="currentColor" stroke="currentColor" points="8.4442 -1.0100 8.4442 -0.6100 0.0400 0.2000 0.0400 -0.2000"/>
</g>
<g transform="translate(46.4840, 22.5623)">
<polygon stroke-linejoin="round" stroke-linecap="round" stroke-width="0.0800" fill="currentColor" stroke="currentColor" points="8.4442 -1.2000 8.4442 -0.8000 0.0400 0.2000 0.0400 -0.2000"/>
</g>
<g transform="translate(46.4840, 19.8723)">
<path transform="scale(0.0040, -0.0040)" d="M218 136c66 0 108 -36 108 -89c0 -89 -113 -183 -218 -183c-66 0 -108 36 -108 89c0 89 113 183 218 183z" fill="currentColor"/>
</g>
<g transform="translate(47.1361, 17.4543)">
<path transform="scale(0.0040, -0.0040)" d="M20 -147c0 -11 -9 -20 -20 -20s-20 9 -20 20v81l-33 -50c-4 -6 -10 -9 -17 -9c-6 0 -11 2 -15 7l-99 119c-37 -56 -36 -56 -47 -56s-20 9 -20 20c0 6 0 6 96 151c4 6 10 9 17 9c6 0 11 -2 15 -7l98 -119l5 7v141c0 11 9 20 20 20s20 -9 20 -20v-81l33 50c4 6 10 9 17 9
c6 0 11 -2 15 -7l99 -119l8 12l33 -22l-70 -105c-4 -6 -10 -9 -17 -9c-6 0 -11 2 -15 7l-98 119l-5 -7v-141zM215 46c4 6 9 9 16 9c11 0 20 -9 20 -20c0 -4 -1 -8 -3 -11l-23 -35l-33 22z" fill="currentColor"/>
</g>
<g transform="translate(46.4840, 33.1545)">
<path transform="scale(0.0040, -0.0040)" d="M314 65c0 23 -19 41 -42 41c-39 0 -204 -110 -231 -143c-7 -8 -10 -18 -10 -28c0 -23 19 -41 42 -41c39 0 203 110 230 143c7 8 11 18 11 28zM262 136c41 0 82 -14 82 -71c0 -26 -16 -112 -74 -151c-25 -17 -87 -50 -187 -50c-41 0 -83 14 -83 71c0 26 16 112 74 151
c25 17 88 50 188 50z" fill="currentColor"/>
</g>
<g transform="translate(46.4840, 32.1545)">
<path transform="scale(0.0040, -0.0040)" d="M314 65c0 23 -19 41 -42 41c-39 0 -204 -110 -231 -143c-7 -8 -10 -18 -10 -28c0 -23 19 -41 42 -41c39 0 203 110 230 143c7 8 11 18 11 28zM262 136c41 0 82 -14 82 -71c0 -26 -16 -112 -74 -151c-25 -17 -87 -50 -187 -50c-41 0 -83 14 -83 71c0 26 16 112 74 151
c25 17 88 50 188 50z" fill="currentColor"/>
</g>
<g transform="translate(15.0264, 21.3723)">
<path transform="scale(0.0040, -0.0040)" d="M266 -635h-6c-108 0 -195 88 -195 197c0 58 53 103 112 103c54 0 95 -47 95 -103c0 -52 -43 -95 -95 -95c-11 0 -21 2 -31 6c26 -39 68 -65 117 -65h4zM461 -203c68 24 113 90 113 164c0 90 -66 179 -173 190c19 -89 48 -242 60 -354zM74 28c0 -145 141 -247 264 -247
c1 0 47 0 82 6c-7 64 -29 203 -63 364c-79 -8 -124 -61 -124 -119c0 -44 25 -91 81 -123c5 -5 7 -10 7 -15c0 -11 -10 -22 -22 -22c-15 0 -126 62 -126 187c0 88 58 174 160 197c-14 58 -29 117 -46 175c-107 -121 -213 -243 -213 -403zM250 553c-29 96 -52 170 -52 346
c0 115 55 224 149 292c6 5 14 5 20 0c68 -80 133 -245 133 -358c0 -143 -86 -255 -180 -364c21 -68 39 -138 56 -207c2 0 7 1 13 1c155 0 256 -128 256 -261c0 -113 -74 -212 -180 -246c3 -35 5 -70 5 -105c0 -19 -1 -39 -2 -58c-7 -119 -88 -225 -202 -228l1 43
c93 2 153 92 159 191c1 18 2 37 2 55c0 31 -1 61 -4 92c-5 -1 -44 -8 -89 -8c-193 0 -333 180 -333 374c0 177 131 306 248 441zM428 916c0 34 1 66 -20 129c-99 -48 -162 -149 -162 -259c0 -52 12 -115 36 -194c80 97 146 198 146 324z" fill="currentColor"/>
</g>
<g transform="translate(46.5490, 20.3723)">
<rect x="-0.0650" y="-0.3139" width="0.1300" height="2.4962" ry="0.0400" fill="currentColor"/>
</g>
<g transform="translate(47.7963, 31.6545)">
<rect x="-0.0650" y="-3.0000" width="0.1300" height="4.2410" ry="0.0400" fill="currentColor"/>
</g>
<g transform="translate(23.5785, 17.4543)">
<path transform="scale(0.0040, -0.0040)" d="M20 -147c0 -11 -9 -20 -20 -20s-20 9 -20 20v81l-33 -50c-4 -6 -10 -9 -17 -9c-6 0 -11 2 -15 7l-99 119c-37 -56 -36 -56 -47 -56s-20 9 -20 20c0 6 0 6 96 151c4 6 10 9 17 9c6 0 11 -2 15 -7l98 -119l5 7v141c0 11 9 20 20 20s20 -9 20 -20v-81l33 50c4 6 10 9 17 9
c6 0 11 -2 15 -7l99 -119l8 12l33 -22l-70 -105c-4 -6 -10 -9 -17 -9c-6 0 -11 2 -15 7l-98 119l-5 -7v-141zM215 46c4 6 9 9 16 9c11 0 20 -9 20 -20c0 -4 -1 -8 -3 -11l-23 -35l-33 22z" fill="currentColor"/>
</g>
<g transform="translate(35.2395, 17.5623)">
<polygon stroke-linejoin="round" stroke-linecap="round" stroke-width="0.0800" fill="currentColor" stroke="currentColor" points="8.1942 -0.2000 8.1942 0.2000 0.0400 0.2000 0.0400 -0.2000"/>
</g>
<g transform="translate(49.2687, 19.3723)">
<path transform="scale(0.0040, -0.0040)" d="M218 136c66 0 108 -36 108 -89c0 -89 -113 -183 -218 -183c-66 0 -108 36 -108 89c0 89 113 183 218 183z" fill="currentColor"/>
</g>
<g transform="translate(49.3337, 20.3723)">
<rect x="-0.0650" y="-0.8139" width="0.1300" height="2.6680" ry="0.0400" fill="currentColor"/>
</g>
<g transform="translate(24.1006, 20.1823)">
<polygon stroke-linejoin="round" stroke-linecap="round" stroke-width="0.0800" fill="currentColor" stroke="currentColor" points="8.4442 -1.2000 8.4442 -0.8000 0.0400 0.2000 0.0400 -0.2000"/>
</g>
<g transform="translate(52.0534, 18.8723)">
<path transform="scale(0.0040, -0.0040)" d="M218 136c66 0 108 -36 108 -89c0 -89 -113 -183 -218 -183c-66 0 -108 36 -108 89c0 89 113 183 218 183z" fill="currentColor"/>
</g>
<g transform="translate(52.1184, 20.3723)">
<rect x="-0.0650" y="-1.3139" width="0.1300" height="2.8398" ry="0.0400" fill="currentColor"/>
</g>
<g transform="translate(54.8382, 18.3723)">
<path transform="scale(0.0040, -0.0040)" d="M218 136c66 0 108 -36 108 -89c0 -89 -113 -183 -218 -183c-66 0 -108 36 -108 89c0 89 113 183 218 183z" fill="currentColor"/>
</g>
<g transform="translate(55.4903, 16.9593)">
<path transform="scale(0.0040, -0.0040)" d="M124 -147c0 -11 -9 -20 -20 -20s-20 9 -20 20v81l-33 -50c-4 -6 -10 -9 -17 -9c-6 0 -11 2 -15 7l-99 119l-8 -12l-33 22l70 105c4 6 10 9 17 9c6 0 11 -2 15 -7l99 -119l4 7v141c0 11 9 20 20 20s20 -9 20 -20v-81l34 50c4 6 9 9 16 9c6 0 12 -2 16 -7l98 -119l8 12
l33 -22l-70 -105c-4 -6 -9 -9 -16 -9c-6 0 -12 2 -16 7l-98 119l-5 -7v-141zM319 46c4 6 10 9 17 9c11 0 20 -9 20 -20c0 -4 -2 -8 -4 -11l-23 -35l-33 22zM-336 -55c-11 0 -20 9 -20 20c0 6 1 6 97 151c4 6 10 9 17 9c6 0 11 -2 15 -7l98 -119l8 12l33 -22l-70 -105
c-4 -6 -9 -9 -16 -9c-6 0 -12 2 -16 7l-98 119c-37 -56 -37 -56 -48 -56z" fill="currentColor"/>
</g>
<g transform="translate(54.9032, 20.3723)">
<rect x="-0.0650" y="-1.8139" width="0.1300" height="3.0116" ry="0.0400" fill="currentColor"/>
</g>
<g transform="translate(57.6229, 17.8723)">
<path transform="scale(0.0040, -0.0040)" d="M218 136c66 0 108 -36 108 -89c0 -89 -113 -183 -218 -183c-66 0 -108 36 -108 89c0 89 113 183 218 183z" fill="currentColor"/>
</g>
<g transform="translate(57.6229, 33.6545)">
<path transform="scale(0.0040, -0.0040)" d="M314 65c0 23 -19 41 -42 41c-39 0 -204 -110 -231 -143c-7 -8 -10 -18 -10 -28c0 -23 19 -41 42 -41c39 0 203 110 230 143c7 8 11 18 11 28zM262 136c41 0 82 -14 82 -71c0 -26 -16 -112 -74 -151c-25 -17 -87 -50 -187 -50c-41 0 -83 14 -83 71c0 26 16 112 74 151
c25 17 88 50 188 50z" fill="currentColor"/>
</g>
<g transform="translate(57.6229, 32.6545)">
<path transform="scale(0.0040, -0.0040)" d="M314 65c0 23 -19 41 -42 41c-39 0 -204 -110 -231 -143c-7 -8 -10 -18 -10 -28c0 -23 19 -41 42 -41c39 0 203 110 230 143c7 8 11 18 11 28zM262 136c41 0 82 -14 82 -71c0 -26 -16 -112 -74 -151c-25 -17 -87 -50 -187 -50c-41 0 -83 14 -83 71c0 26 16 112 74 151
c25 17 88 50 188 50z" fill="currentColor"/>
</g>
<g transform="translate(57.6879, 20.3723)">
<rect x="-0.0650" y="-2.3139" width="0.1300" height="3.3139" ry="0.0400" fill="currentColor"/>
</g>
<g transform="translate(58.9352, 31.6545)">
<rect x="-0.0650" y="-2.5000" width="0.1300" height="4.2410" ry="0.0400" fill="currentColor"/>
</g>
<g transform="translate(61.4413, 21.3723)">
<path transform="scale(0.0040, -0.0040)" d="M218 136c66 0 108 -36 108 -89c0 -89 -113 -183 -218 -183c-66 0 -108 36 -108 89c0 89 113 183 218 183z" fill="currentColor"/>
</g>
<g transform="translate(62.6805, 20.3723)">
<rect x="-0.0650" y="-2.5000" width="0.1300" height="3.3139" ry="0.0400" fill="currentColor"/>
</g>
<g transform="translate(67.1792, 19.8723)">
<path transform="scale(0.0040, -0.0040)" d="M314 65c0 23 -19 41 -42 41c-39 0 -204 -110 -231 -143c-7 -8 -10 -18 -10 -28c0 -23 19 -41 42 -41c39 0 203 110 230 143c7 8 11 18 11 28zM262 136c41 0 82 -14 82 -71c0 -26 -16 -112 -74 -151c-25 -17 -87 -50 -187 -50c-41 0 -83 14 -83 71c0 26 16 112 74 151
c25 17 88 50 188 50z" fill="currentColor"/>
</g>
<g transform="translate(67.1792, 18.8723)">
<path transform="scale(0.0040, -0.0040)" d="M314 65c0 23 -19 41 -42 41c-39 0 -204 -110 -231 -143c-7 -8 -10 -18 -10 -28c0 -23 19 -41 42 -41c39 0 203 110 230 143c7 8 11 18 11 28zM262 136c41 0 82 -14 82 -71c0 -26 -16 -112 -74 -151c-25 -17 -87 -50 -187 -50c-41 0 -83 14 -83 71c0 26 16 112 74 151
c25 17 88 50 188 50z" fill="currentColor"/>
</g>
<g transform="translate(67.1792, 23.3723)">
<path transform="scale(0.0040, -0.0040)" d="M-6 78c0 59 124 83 124 182c0 24 -8 49 -25 69l-35 42c-3 3 -4 7 -4 10c0 9 9 15 17 15c4 0 8 -1 11 -5l151 -180c7 -9 10 -17 10 -25c0 -59 -124 -83 -124 -182c0 -24 7 -49 24 -69l84 -99c3 -3 4 -7 4 -10c0 -9 -8 -16 -16 -16s-45 44 -109 44c-16 0 -53 0 -53 -67
c0 -35 11 -74 28 -94c7 -8 -5 -19 -12 -11c-45 54 -92 148 -92 202c0 41 27 42 40 42c33 0 78 -13 119 -31l-132 158c-7 9 -10 17 -10 25z" fill="currentColor"/>
</g>
<g transform="translate(22.9264, 23.3723)">
<path transform="scale(0.0040, -0.0040)" d="M218 136c66 0 108 -36 108 -89c0 -89 -113 -183 -218 -183c-66 0 -108 36 -108 89c0 89 113 183 218 183z" fill="currentColor"/>
</g>
<g transform="translate(67.1792, 32.1545)">
<path transform="scale(0.0040, -0.0040)" d="M218 136c66 0 108 -36 108 -89c0 -89 -113 -183 -218 -183c-66 0 -108 36 -108 89c0 89 113 183 218 183z" fill="currentColor"/>
</g>
<g transform="translate(68.4916, 20.3723)">
<rect x="-0.0650" y="-4.3333" width="0.1300" height="3.5743" ry="0.0400" fill="currentColor"/>
</g>
<g transform="translate(67.8679, 13.3710)">
<path transform="scale(0.0040, -0.0040)" d="M20 -147c0 -11 -9 -20 -20 -20s-20 9 -20 20v81l-33 -50c-4 -6 -10 -9 -17 -9c-6 0 -11 2 -15 7l-99 119c-37 -56 -36 -56 -47 -56s-20 9 -20 20c0 6 0 6 96 151c4 6 10 9 17 9c6 0 11 -2 15 -7l98 -119l5 7v141c0 11 9 20 20 20s20 -9 20 -20v-81l33 50c4 6 10 9 17 9
c6 0 11 -2 15 -7l99 -119l8 12l33 -22l-70 -105c-4 -6 -10 -9 -17 -9c-6 0 -11 2 -15 7l-98 119l-5 -7v-141zM215 46c4 6 9 9 16 9c11 0 20 -9 20 -20c0 -4 -1 -8 -3 -11l-23 -35l-33 22z" fill="currentColor"/>
</g>
<g transform="translate(67.2442, 31.6545)">
<rect x="-0.0650" y="0.6861" width="0.1300" height="2.3077" ry="0.0400" fill="currentColor"/>
</g>
<g transform="translate(69.9639, 31.6545)">
<path transform="scale(0.0040, -0.0040)" d="M218 136c66 0 108 -36 108 -89c0 -89 -113 -183 -218 -183c-66 0 -108 36 -108 89c0 89 113 183 218 183z" fill="currentColor"/>
</g>
<g transform="translate(70.0289, 31.6545)">
<rect x="-0.0650" y="0.1861" width="0.1300" height="2.5418" ry="0.0400" fill="currentColor"/>
</g>
<g transform="translate(72.7487, 21.3723)">
<path transform="scale(0.0040, -0.0040)" d="M218 136c66 0 108 -36 108 -89c0 -89 -113 -183 -218 -183c-66 0 -108 36 -108 89c0 89 113 183 218 183z" fill="currentColor"/>
</g>
<g transform="translate(72.7487, 31.1545)">
<path transform="scale(0.0040, -0.0040)" d="M218 136c66 0 108 -36 108 -89c0 -89 -113 -183 -218 -183c-66 0 -108 36 -108 89c0 89 113 183 218 183z" fill="currentColor"/>
</g>
<g transform="translate(73.4008, 28.7365)">
<path transform="scale(0.0040, -0.0040)" d="M20 -147c0 -11 -9 -20 -20 -20s-20 9 -20 20v81l-33 -50c-4 -6 -10 -9 -17 -9c-6 0 -11 2 -15 7l-99 119c-37 -56 -36 -56 -47 -56s-20 9 -20 20c0 6 0 6 96 151c4 6 10 9 17 9c6 0 11 -2 15 -7l98 -119l5 7v141c0 11 9 20 20 20s20 -9 20 -20v-81l33 50c4 6 10 9 17 9
c6 0 11 -2 15 -7l99 -119l8 12l33 -22l-70 -105c-4 -6 -10 -9 -17 -9c-6 0 -11 2 -15 7l-98 119l-5 -7v-141zM215 46c4 6 9 9 16 9c11 0 20 -9 20 -20c0 -4 -1 -8 -3 -11l-23 -35l-33 22z" fill="currentColor"/>
</g>
<g transform="translate(72.8137, 20.3723)">
<rect x="-0.0650" y="1.1861" width="0.1300" height="2.8139" ry="0.0400" fill="currentColor"/>
</g>
<g transform="translate(72.8137, 31.6545)">
<rect x="-0.0650" y="-0.3139" width="0.1300" height="2.7760" ry="0.0400" fill="currentColor"/>
</g>
<g transform="translate(75.5334, 30.6545)">
<path transform="scale(0.0040, -0.0040)" d="M218 136c66 0 108 -36 108 -89c0 -89 -113 -183 -218 -183c-66 0 -108 36 -108 89c0 89 113 183 218 183z" fill="currentColor"/>
</g>
<g transform="translate(75.5984, 31.6545)">
<rect x="-0.0650" y="-0.8139" width="0.1300" height="3.0101" ry="0.0400" fill="currentColor"/>
</g>
<g transform="translate(19.2264, 20.3723)">
<path transform="scale(0.0040, -0.0040)" d="M250 262c116 0 176 -106 176 -163c0 -40 -30 -72 -67 -72c-31 0 -75 25 -75 75c0 38 27 77 72 77c4 0 9 0 14 -1c-28 37 -72 59 -120 59c-106 0 -113 -73 -113 -186v-51v-51c0 -113 7 -187 113 -187c80 0 139 70 158 151c2 7 7 10 12 10c6 0 13 -4 13 -12
c0 -22 -50 -174 -183 -174c-59 0 -250 19 -250 263c0 62 18 262 250 262z" fill="currentColor"/>
</g>
<g transform="translate(78.3181, 20.3723)">
<path transform="scale(0.0040, -0.0040)" d="M314 65c0 23 -19 41 -42 41c-39 0 -204 -110 -231 -143c-7 -8 -10 -18 -10 -28c0 -23 19 -41 42 -41c39 0 203 110 230 143c7 8 11 18 11 28zM262 136c41 0 82 -14 82 -71c0 -26 -16 -112 -74 -151c-25 -17 -87 -50 -187 -50c-41 0 -83 14 -83 71c0 26 16 112 74 151
c25 17 88 50 188 50z" fill="currentColor"/>
</g>
<g transform="translate(78.3181, 19.3723)">
<path transform="scale(0.0040, -0.0040)" d="M314 65c0 23 -19 41 -42 41c-39 0 -204 -110 -231 -143c-7 -8 -10 -18 -10 -28c0 -23 19 -41 42 -41c39 0 203 110 230 143c7 8 11 18 11 28zM262 136c41 0 82 -14 82 -71c0 -26 -16 -112 -74 -151c-25 -17 -87 -50 -187 -50c-41 0 -83 14 -83 71c0 26 16 112 74 151
c25 17 88 50 188 50z" fill="currentColor"/>
</g>
<g transform="translate(78.3181, 23.3723)">
<path transform="scale(0.0040, -0.0040)" d="M-6 78c0 59 124 83 124 182c0 24 -8 49 -25 69l-35 42c-3 3 -4 7 -4 10c0 9 9 15 17 15c4 0 8 -1 11 -5l151 -180c7 -9 10 -17 10 -25c0 -59 -124 -83 -124 -182c0 -24 7 -49 24 -69l84 -99c3 -3 4 -7 4 -10c0 -9 -8 -16 -16 -16s-45 44 -109 44c-16 0 -53 0 -53 -67
c0 -35 11 -74 28 -94c7 -8 -5 -19 -12 -11c-45 54 -92 148 -92 202c0 41 27 42 40 42c33 0 78 -13 119 -31l-132 158c-7 9 -10 17 -10 25z" fill="currentColor"/>
</g>
<g transform="translate(78.3181, 30.1545)">
<path transform="scale(0.0040, -0.0040)" d="M218 136c66 0 108 -36 108 -89c0 -89 -113 -183 -218 -183c-66 0 -108 36 -108 89c0 89 113 183 218 183z" fill="currentColor"/>
</g>
<g transform="translate(79.6304, 20.3723)">
<rect x="-0.0650" y="-4.0000" width="0.1300" height="3.7410" ry="0.0400" fill="currentColor"/>
</g>
<g transform="translate(79.0068, 13.7043)">
<path transform="scale(0.0040, -0.0040)" d="M20 -147c0 -11 -9 -20 -20 -20s-20 9 -20 20v81l-33 -50c-4 -6 -10 -9 -17 -9c-6 0 -11 2 -15 7l-99 119c-37 -56 -36 -56 -47 -56s-20 9 -20 20c0 6 0 6 96 151c4 6 10 9 17 9c6 0 11 -2 15 -7l98 -119l5 7v141c0 11 9 20 20 20s20 -9 20 -20v-81l33 50c4 6 10 9 17 9
c6 0 11 -2 15 -7l99 -119l8 12l33 -22l-70 -105c-4 -6 -10 -9 -17 -9c-6 0 -11 2 -15 7l-98 119l-5 -7v-141zM215 46c4 6 9 9 16 9c11 0 20 -9 20 -20c0 -4 -1 -8 -3 -11l-23 -35l-33 22z" fill="currentColor"/>
</g>
<g transform="translate(78.3831, 31.6545)">
<rect x="-0.0650" y="-1.3139" width="0.1300" height="2.4962" ry="0.0400" fill="currentColor"/>
</g>
<g transform="translate(81.1028, 29.6545)">
<path transform="scale(0.0040, -0.0040)" d="M218 136c66 0 108 -36 108 -89c0 -89 -113 -183 -218 -183c-66 0 -108 36 -108 89c0 89 113 183 218 183z" fill="currentColor"/>
</g>
<g transform="translate(81.1678, 31.6545)">
<rect x="-0.0650" y="-1.8139" width="0.1300" height="2.6680" ry="0.0400" fill="currentColor"/>
</g>
<g transform="translate(83.8875, 21.3723)">
<path transform="scale(0.0040, -0.0040)" d="M218 136c66 0 108 -36 108 -89c0 -89 -113 -183 -218 -183c-66 0 -108 36 -108 89c0 89 113 183 218 183z" fill="currentColor"/>
</g>
<g transform="translate(83.8875, 29.1545)">
<path transform="scale(0.0040, -0.0040)" d="M218 136c66 0 108 -36 108 -89c0 -89 -113 -183 -218 -183c-66 0 -108 36 -108 89c0 89 113 183 218 183z" fill="currentColor"/>
</g>
<g transform="translate(83.9525, 20.3723)">
<rect x="-0.0650" y="1.1861" width="0.1300" height="2.8139" ry="0.0400" fill="currentColor"/>
</g>
<g transform="translate(83.9525, 31.6545)">
<rect x="-0.0650" y="-2.3139" width="0.1300" height="2.8398" ry="0.0400" fill="currentColor"/>
</g>
<g transform="translate(86.6723, 28.6545)">
<path transform="scale(0.0040, -0.0040)" d="M218 136c66 0 108 -36 108 -89c0 -89 -113 -183 -218 -183c-66 0 -108 36 -108 89c0 89 113 183 218 183z" fill="currentColor"/>
</g>
<g transform="translate(86.7373, 31.6545)">
<rect x="-0.0650" y="-2.8139" width="0.1300" height="3.0116" ry="0.0400" fill="currentColor"/>
</g>
<g transform="translate(91.5522, 16.3723)">
<path transform="scale(0.0040, -0.0040)" d="M-6 78c0 59 124 83 124 182c0 24 -8 49 -25 69l-35 42c-3 3 -4 7 -4 10c0 9 9 15 17 15c4 0 8 -1 11 -5l151 -180c7 -9 10 -17 10 -25c0 -59 -124 -83 -124 -182c0 -24 7 -49 24 -69l84 -99c3 -3 4 -7 4 -10c0 -9 -8 -16 -16 -16s-45 44 -109 44c-16 0 -53 0 -53 -67
c0 -35 11 -74 28 -94c7 -8 -5 -19 -12 -11c-45 54 -92 148 -92 202c0 41 27 42 40 42c33 0 78 -13 119 -31l-132 158c-7 9 -10 17 -10 25z" fill="currentColor"/>
</g>
<g transform="translate(91.5522, 24.3723)">
<path transform="scale(0.0040, -0.0040)" d="M70 205c79 0 46 -98 91 -98c16 0 54 48 61 63c6 12 23 12 28 0l-123 -420c-8 -7 -17 -10 -27 -10s-20 3 -28 10l117 326c-34 -12 -69 -22 -105 -22c-47 0 -87 34 -87 79c0 40 33 72 73 72z" fill="currentColor"/>
</g>
<g transform="translate(91.5522, 21.8723)">
<path transform="scale(0.0040, -0.0040)" d="M314 65c0 23 -19 41 -42 41c-39 0 -204 -110 -231 -143c-7 -8 -10 -18 -10 -28c0 -23 19 -41 42 -41c39 0 203 110 230 143c7 8 11 18 11 28zM262 136c41 0 82 -14 82 -71c0 -26 -16 -112 -74 -151c-25 -17 -87 -50 -187 -50c-41 0 -83 14 -83 71c0 26 16 112 74 151
c25 17 88 50 188 50z" fill="currentColor"/>
</g>
<g transform="translate(91.5522, 28.1545)">
<path transform="scale(0.0040, -0.0040)" d="M218 136c66 0 108 -36 108 -89c0 -89 -113 -183 -218 -183c-66 0 -108 36 -108 89c0 89 113 183 218 183z" fill="currentColor"/>
</g>
<g transform="translate(92.2043, 26.7415)">
<path transform="scale(0.0040, -0.0040)" d="M20 -147c0 -11 -9 -20 -20 -20s-20 9 -20 20v81l-33 -50c-4 -6 -10 -9 -17 -9c-6 0 -11 2 -15 7l-99 119c-37 -56 -36 -56 -47 -56s-20 9 -20 20c0 6 0 6 96 151c4 6 10 9 17 9c6 0 11 -2 15 -7l98 -119l5 7v141c0 11 9 20 20 20s20 -9 20 -20v-81l33 50c4 6 10 9 17 9
c6 0 11 -2 15 -7l99 -119l8 12l33 -22l-70 -105c-4 -6 -10 -9 -17 -9c-6 0 -11 2 -15 7l-98 119l-5 -7v-141zM215 46c4 6 9 9 16 9c11 0 20 -9 20 -20c0 -4 -1 -8 -3 -11l-23 -35l-33 22z" fill="currentColor"/>
</g>
<g transform="translate(14.1664, 26.0134)">
<rect x="0.0000" y="-7.6911" width="0.1600" height="15.3821" ry="0.0500" fill="currentColor"/>
</g>
<g transform="translate(92.8645, 20.3723)">
<rect x="-0.0650" y="-2.0000" width="0.1300" height="3.2410" ry="0.0400" fill="currentColor"/>
</g>
<g transform="translate(90.1022, 21.8723)">
<path transform="scale(0.0040, -0.0040)" d="M0 119c0 8 5 15 13 18l46 17v158c0 10 8 19 18 19s19 -9 19 -19v-145l83 31v158c0 10 9 19 19 19s18 -9 18 -19v-145l32 12c2 1 5 1 7 1c11 0 20 -9 20 -20v-60c0 -8 -5 -16 -13 -19l-46 -16v-160l32 11c2 1 5 1 7 1c11 0 20 -9 20 -20v-60c0 -8 -5 -15 -13 -18l-46 -17
v-158c0 -10 -8 -19 -18 -19s-19 9 -19 19v145l-83 -31v-158c0 -10 -9 -19 -19 -19s-18 9 -18 19v145l-32 -12c-2 -1 -5 -1 -7 -1c-11 0 -20 9 -20 20v60c0 8 5 16 13 19l46 16v160l-32 -11c-2 -1 -5 -1 -7 -1c-11 0 -20 9 -20 20v60zM179 95l-83 -30v-160l83 30v160z" fill="currentColor"/>
</g>
<g transform="translate(91.6172, 31.6545)">
<rect x="-0.0650" y="-3.3139" width="0.1300" height="3.3139" ry="0.0400" fill="currentColor"/>
</g>
<g transform="translate(13.8664, 26.0134)">
<path transform="scale(0.0040, -0.0040)" d="M-84 -428c0 296 -148 424 -148 428c0 20 148 116 148 428c0 304 -124 580 -124 924c0 216 52 420 196 580c16 16 40 -8 24 -24c-108 -120 -144 -268 -144 -424c0 -300 116 -568 116 -904c0 -216 -48 -420 -188 -580c140 -160 188 -364 188 -580
c0 -336 -116 -604 -116 -904c0 -156 36 -304 144 -424c16 -16 -8 -40 -24 -24c-144 160 -196 364 -196 580c0 344 124 620 124 924z" fill="currentColor"/>
</g>
<g transform="translate(94.0327, 20.8723)">
<path transform="scale(0.0040, -0.0040)" d="M218 136c66 0 108 -36 108 -89c0 -89 -113 -183 -218 -183c-66 0 -108 36 -108 89c0 89 113 183 218 183z" fill="currentColor"/>
</g>
<g transform="translate(95.7869, 20.8723)">
<path transform="scale(0.0040, -0.0040)" d="M0 0c0 31 25 56 56 56s56 -25 56 -56s-25 -56 -56 -56s-56 25 -56 56z" fill="currentColor"/>
</g>
<g transform="translate(94.0977, 20.3723)">
<rect x="-0.0650" y="0.6861" width="0.1300" height="2.9806" ry="0.0400" fill="currentColor"/>
</g>
<g transform="translate(96.5669, 19.3723)">
<path transform="scale(0.0040, -0.0040)" d="M218 136c66 0 108 -36 108 -89c0 -89 -113 -183 -218 -183c-66 0 -108 36 -108 89c0 89 113 183 218 183z" fill="currentColor"/>
</g>
<g transform="translate(96.5669, 31.6545)">
<path transform="scale(0.0040, -0.0040)" d="M218 136c66 0 108 -36 108 -89c0 -89 -113 -183 -218 -183c-66 0 -108 36 -108 89c0 89 113 183 218 183z" fill="currentColor"/>
</g>
<g transform="translate(97.8061, 20.3723)">
<rect x="-0.0650" y="-3.4931" width="0.1300" height="2.3070" ry="0.0400" fill="currentColor"/>
</g>
<g transform="translate(96.6319, 31.6545)">
<rect x="-0.0650" y="0.1861" width="0.1300" height="3.1472" ry="0.0400" fill="currentColor"/>
</g>
<g transform="translate(99.3516, 19.8723)">
<path transform="scale(0.0040, -0.0040)" d="M218 136c66 0 108 -36 108 -89c0 -89 -113 -183 -218 -183c-66 0 -108 36 -108 89c0 89 113 183 218 183z" fill="currentColor"/>
</g>
<g transform="translate(100.5908, 20.3723)">
<rect x="-0.0650" y="-3.1969" width="0.1300" height="2.5108" ry="0.0400" fill="currentColor"/>
</g>
<g transform="translate(102.1363, 19.8723)">
<path transform="scale(0.0040, -0.0040)" d="M218 136c66 0 108 -36 108 -89c0 -89 -113 -183 -218 -183c-66 0 -108 36 -108 89c0 89 113 183 218 183z" fill="currentColor"/>
</g>
<g transform="translate(102.1363, 20.8723)">
<path transform="scale(0.0040, -0.0040)" d="M218 136c66 0 108 -36 108 -89c0 -89 -113 -183 -218 -183c-66 0 -108 36 -108 89c0 89 113 183 218 183z" fill="currentColor"/>
</g>
<g transform="translate(102.1363, 21.8723)">
<path transform="scale(0.0040, -0.0040)" d="M218 136c66 0 108 -36 108 -89c0 -89 -113 -183 -218 -183c-66 0 -108 36 -108 89c0 89 113 183 218 183z" fill="currentColor"/>
</g>
<g transform="translate(102.1363, 14.3723)">
<path transform="scale(0.0040, -0.0040)" d="M-6 78c0 59 124 83 124 182c0 24 -8 49 -25 69l-35 42c-3 3 -4 7 -4 10c0 9 9 15 17 15c4 0 8 -1 11 -5l151 -180c7 -9 10 -17 10 -25c0 -59 -124 -83 -124 -182c0 -24 7 -49 24 -69l84 -99c3 -3 4 -7 4 -10c0 -9 -8 -16 -16 -16s-45 44 -109 44c-16 0 -53 0 -53 -67
c0 -35 11 -74 28 -94c7 -8 -5 -19 -12 -11c-45 54 -92 148 -92 202c0 41 27 42 40 42c33 0 78 -13 119 -31l-132 158c-7 9 -10 17 -10 25z" fill="currentColor"/>
</g>
<g transform="translate(102.1363, 30.1545)">
<path transform="scale(0.0040, -0.0040)" d="M314 65c0 23 -19 41 -42 41c-39 0 -204 -110 -231 -143c-7 -8 -10 -18 -10 -28c0 -23 19 -41 42 -41c39 0 203 110 230 143c7 8 11 18 11 28zM262 136c41 0 82 -14 82 -71c0 -26 -16 -112 -74 -151c-25 -17 -87 -50 -187 -50c-41 0 -83 14 -83 71c0 26 16 112 74 151
c25 17 88 50 188 50z" fill="currentColor"/>
</g>
<g transform="translate(102.8250, 26.4531)">
<path transform="scale(0.0040, -0.0040)" d="M20 -147c0 -11 -9 -20 -20 -20s-20 9 -20 20v81l-33 -50c-4 -6 -10 -9 -17 -9c-6 0 -11 2 -15 7l-99 119c-37 -56 -36 -56 -47 -56s-20 9 -20 20c0 6 0 6 96 151c4 6 10 9 17 9c6 0 11 -2 15 -7l98 -119l5 7v141c0 11 9 20 20 20s20 -9 20 -20v-81l33 50c4 6 10 9 17 9
c6 0 11 -2 15 -7l99 -119l8 12l33 -22l-70 -105c-4 -6 -10 -9 -17 -9c-6 0 -11 2 -15 7l-98 119l-5 -7v-141zM215 46c4 6 9 9 16 9c11 0 20 -9 20 -20c0 -4 -1 -8 -3 -11l-23 -35l-33 22z" fill="currentColor"/>
</g>
<g transform="translate(102.1363, 33.6545)">
<path transform="scale(0.0040, -0.0040)" d="M-6 78c0 59 124 83 124 182c0 24 -8 49 -25 69l-35 42c-3 3 -4 7 -4 10c0 9 9 15 17 15c4 0 8 -1 11 -5l151 -180c7 -9 10 -17 10 -25c0 -59 -124 -83 -124 -182c0 -24 7 -49 24 -69l84 -99c3 -3 4 -7 4 -10c0 -9 -8 -16 -16 -16s-45 44 -109 44c-16 0 -53 0 -53 -67
c0 -35 11 -74 28 -94c7 -8 -5 -19 -12 -11c-45 54 -92 148 -92 202c0 41 27 42 40 42c33 0 78 -13 119 -31l-132 158c-7 9 -10 17 -10 25z" fill="currentColor"/>
</g>
<g transform="translate(103.3756, 20.3723)">
<rect x="-0.0650" y="-3.4931" width="0.1300" height="3.8070" ry="0.0400" fill="currentColor"/>
</g>
<g transform="translate(102.2013, 20.3723)">
<rect x="-0.0650" y="1.6861" width="0.1300" height="2.1170" ry="0.0400" fill="currentColor"/>
</g>
<g transform="translate(103.4487, 31.6545)">
<rect x="-0.0650" y="-4.3333" width="0.1300" height="2.5743" ry="0.0400" fill="currentColor"/>
</g>
<g transform="translate(107.7708, 31.6545)">
<rect x="-0.0650" y="2.1861" width="0.1300" height="2.4806" ry="0.0400" fill="currentColor"/>
</g>
<g transform="translate(104.9211, 20.3723)">
<path transform="scale(0.0040, -0.0040)" d="M218 136c66 0 108 -36 108 -89c0 -89 -113 -183 -218 -183c-66 0 -108 36 -108 89c0 89 113 183 218 183z" fill="currentColor"/>
</g>
<g transform="translate(105.5732, 16.0674)">
<path transform="scale(0.0040, -0.0040)" d="M20 -147c0 -11 -9 -20 -20 -20s-20 9 -20 20v81l-33 -50c-4 -6 -10 -9 -17 -9c-6 0 -11 2 -15 7l-99 119c-37 -56 -36 -56 -47 -56s-20 9 -20 20c0 6 0 6 96 151c4 6 10 9 17 9c6 0 11 -2 15 -7l98 -119l5 7v141c0 11 9 20 20 20s20 -9 20 -20v-81l33 50c4 6 10 9 17 9
c6 0 11 -2 15 -7l99 -119l8 12l33 -22l-70 -105c-4 -6 -10 -9 -17 -9c-6 0 -11 2 -15 7l-98 119l-5 -7v-141zM215 46c4 6 9 9 16 9c11 0 20 -9 20 -20c0 -4 -1 -8 -3 -11l-23 -35l-33 22z" fill="currentColor"/>
</g>
<g transform="translate(104.9211, 21.3723)">
<path transform="scale(0.0040, -0.0040)" d="M218 136c66 0 108 -36 108 -89c0 -89 -113 -183 -218 -183c-66 0 -108 36 -108 89c0 89 113 183 218 183z" fill="currentColor"/>
</g>
<g transform="translate(106.1603, 20.3723)">
<rect x="-0.0650" y="-3.1969" width="0.1300" height="3.0108" ry="0.0400" fill="currentColor"/>
</g>
<g transform="translate(104.9861, 20.3723)">
<rect x="-0.0650" y="1.1861" width="0.1300" height="2.3208" ry="0.0400" fill="currentColor"/>
</g>
<g transform="translate(107.7058, 20.3723)">
<path transform="scale(0.0040, -0.0040)" d="M218 136c66 0 108 -36 108 -89c0 -89 -113 -183 -218 -183c-66 0 -108 36 -108 89c0 89 113 183 218 183z" fill="currentColor"/>
</g>
<g transform="translate(107.7058, 21.3723)">
<path transform="scale(0.0040, -0.0040)" d="M218 136c66 0 108 -36 108 -89c0 -89 -113 -183 -218 -183c-66 0 -108 36 -108 89c0 89 113 183 218 183z" fill="currentColor"/>
</g>
<g transform="translate(107.7058, 22.8723)">
<path transform="scale(0.0040, -0.0040)" d="M218 136c66 0 108 -36 108 -89c0 -89 -113 -183 -218 -183c-66 0 -108 36 -108 89c0 89 113 183 218 183z" fill="currentColor"/>
</g>
<g transform="translate(107.7058, 33.6545)">
<path transform="scale(0.0040, -0.0040)" d="M218 136c66 0 108 -36 108 -89c0 -89 -113 -183 -218 -183c-66 0 -108 36 -108 89c0 89 113 183 218 183z" fill="currentColor"/>
</g>
<g transform="translate(108.9450, 20.3723)">
<rect x="-0.0650" y="-3.3333" width="0.1300" height="3.1472" ry="0.0400" fill="currentColor"/>
</g>
<g transform="translate(108.9450, 20.3723)">
<rect x="-0.0650" y="-2.5000" width="0.1300" height="3.3139" ry="0.0400" fill="currentColor"/>
</g>
<g transform="translate(107.7708, 20.3723)">
<rect x="-0.0650" y="2.6861" width="0.1300" height="2.3139" ry="0.0400" fill="currentColor"/>
</g>
<g transform="translate(10.7739, 38.0733)">
<rect x="0.0000" y="7.6312" width="0.1900" height="6.2302" ry="0.0000" fill="currentColor"/>
</g>
<g transform="translate(9.8739, 38.0733)">
<rect x="0.0000" y="7.6312" width="0.6000" height="6.2302" ry="0.0000" fill="currentColor"/>
</g>
<g transform="translate(5.6906, 45.6545)">
<line stroke-linejoin="round" stroke-linecap="round" stroke-width="0.1000" stroke="currentColor" x1="0.0500" y1="0" x2="108.0705" y2="0"/>
</g>
<g transform="translate(5.6906, 44.6545)">
<line stroke-linejoin="round" stroke-linecap="round" stroke-width="0.1000" stroke="currentColor" x1="0.0500" y1="0" x2="108.0705" y2="0"/>
</g>
<g transform="translate(5.6906, 43.6545)">
<line stroke-linejoin="round" stroke-linecap="round" stroke-width="0.1000" stroke="currentColor" x1="0.0500" y1="0" x2="108.0705" y2="0"/>
</g>
<g transform="translate(5.6906, 42.6545)">
<line stroke-linejoin="round" stroke-linecap="round" stroke-width="0.1000" stroke="currentColor" x1="0.0500" y1="0" x2="108.0705" y2="0"/>
</g>
<g transform="translate(5.6906, 41.6545)">
<line stroke-linejoin="round" stroke-linecap="round" stroke-width="0.1000" stroke="currentColor" x1="0.0500" y1="0" x2="108.0705" y2="0"/>
</g>
<g transform="translate(113.2110, 38.0733)">
<rect x="0.0000" y="7.6312" width="0.6000" height="6.2302" ry="0.0000" fill="currentColor"/>
</g>
<g transform="translate(112.7210, 38.0733)">
<rect x="0.0000" y="7.6312" width="0.1900" height="6.2302" ry="0.0000" fill="currentColor"/>
</g>
<g transform="translate(5.6906, 56.9347)">
<rect x="101.3304" y="-0.1000" width="1.9563" height="0.2000" ry="0.1000" fill="currentColor"/>
</g>
<g transform="translate(5.6906, 57.9347)">
<rect x="101.3304" y="-0.1000" width="1.9563" height="0.2000" ry="0.1000" fill="currentColor"/>
</g>
<g transform="translate(5.6906, 50.9347)">
<rect x="51.9346" y="-0.1000" width="1.9563" height="0.2000" ry="0.1000" fill="currentColor"/>
</g>
<g transform="translate(5.6906, 50.9347)">
<rect x="48.9705" y="-0.1000" width="1.9563" height="0.2000" ry="0.1000" fill="currentColor"/>
</g>
<g transform="translate(5.6906, 50.9347)">
<rect x="44.7022" y="-0.1000" width="1.9563" height="0.2000" ry="0.1000" fill="currentColor"/>
</g>
<g transform="translate(5.6906, 50.9347)">
<rect x="41.7380" y="-0.1000" width="1.9563" height="0.2000" ry="0.1000" fill="currentColor"/>
</g>
<g transform="translate(5.6906, 50.9347)">
<rect x="32.3301" y="-0.1000" width="2.0660" height="0.2000" ry="0.1000" fill="currentColor"/>
</g>
<g transform="translate(5.6906, 50.9347)">
<rect x="19.0669" y="-0.1000" width="2.0660" height="0.2000" ry="0.1000" fill="currentColor"/>
</g>
<g transform="translate(5.6906, 55.9347)">
<line stroke-linejoin="round" stroke-linecap="round" stroke-width="0.1000" stroke="currentColor" x1="0.0500" y1="0" x2="108.0705" y2="0"/>
</g>
<g transform="translate(5.6906, 54.9347)">
<line stroke-linejoin="round" stroke-linecap="round" stroke-width="0.1000" stroke="currentColor" x1="0.0500" y1="0" x2="108.0705" y2="0"/>
</g>
<g transform="translate(5.6906, 53.9347)">
<line stroke-linejoin="round" stroke-linecap="round" stroke-width="0.1000" stroke="currentColor" x1="0.0500" y1="0" x2="108.0705" y2="0"/>
</g>
<g transform="translate(5.6906, 52.9347)">
<line stroke-linejoin="round" stroke-linecap="round" stroke-width="0.1000" stroke="currentColor" x1="0.0500" y1="0" x2="108.0705" y2="0"/>
</g>
<g transform="translate(5.6906, 51.9347)">
<line stroke-linejoin="round" stroke-linecap="round" stroke-width="0.1000" stroke="currentColor" x1="0.0500" y1="0" x2="108.0705" y2="0"/>
</g>
<g transform="translate(111.9710, 53.4347)">
<path transform="scale(0.0040, -0.0040)" d="M0 0c0 31 25 56 56 56s56 -25 56 -56s-25 -56 -56 -56s-56 25 -56 56z" fill="currentColor"/>
</g>
<g transform="translate(111.9710, 54.4347)">
<path transform="scale(0.0040, -0.0040)" d="M0 0c0 31 25 56 56 56s56 -25 56 -56s-25 -56 -56 -56s-56 25 -56 56z" fill="currentColor"/>
</g>
<g transform="translate(113.2110, 53.9347)">
<rect x="0.0000" y="-2.0500" width="0.6000" height="4.0500" ry="0.0000" fill="currentColor"/>
</g>
<g transform="translate(112.7210, 53.9347)">
<rect x="0.0000" y="-2.0500" width="0.1900" height="4.0500" ry="0.0000" fill="currentColor"/>
</g>
<g transform="translate(111.9710, 43.1545)">
<path transform="scale(0.0040, -0.0040)" d="M0 0c0 31 25 56 56 56s56 -25 56 -56s-25 -56 -56 -56s-56 25 -56 56z" fill="currentColor"/>
</g>
<g transform="translate(111.9710, 44.1545)">
<path transform="scale(0.0040, -0.0040)" d="M0 0c0 31 25 56 56 56s56 -25 56 -56s-25 -56 -56 -56s-56 25 -56 56z" fill="currentColor"/>
</g>
<g transform="translate(113.2110, 43.6545)">
<rect x="0.0000" y="-2.0000" width="0.6000" height="4.0500" ry="0.0000" fill="currentColor"/>
</g>
<g transform="translate(112.7210, 43.6545)">
<rect x="0.0000" y="-2.0000" width="0.1900" height="4.0500" ry="0.0000" fill="currentColor"/>
</g>
<g transform="translate(87.2702, 38.0733)">
<rect x="0.0000" y="7.6312" width="0.1900" height="6.2302" ry="0.0000" fill="currentColor"/>
</g>
<g transform="translate(87.2702, 53.9347)">
<rect x="0.0000" y="-2.0500" width="0.1900" height="4.0500" ry="0.0000" fill="currentColor"/>
</g>
<g transform="translate(87.2702, 43.6545)">
<rect x="0.0000" y="-2.0000" width="0.1900" height="4.0500" ry="0.0000" fill="currentColor"/>
</g>
<g transform="translate(5.6906, 40.6545)">
<rect x="41.7198" y="-0.1000" width="2.0660" height="0.2000" ry="0.1000" fill="currentColor"/>
</g>
<g transform="translate(5.6906, 40.6545)">
<rect x="32.3484" y="-0.1000" width="1.9563" height="0.2000" ry="0.1000" fill="currentColor"/>
</g>
<g transform="translate(5.6906, 40.6545)">
<rect x="28.2275" y="-0.1000" width="1.9563" height="0.2000" ry="0.1000" fill="currentColor"/>
</g>
<g transform="translate(60.8488, 38.0733)">
<rect x="0.0000" y="7.6312" width="0.1900" height="6.2302" ry="0.0000" fill="currentColor"/>
</g>
<g transform="translate(11.2639, 43.1545)">
<path transform="scale(0.0040, -0.0040)" d="M0 0c0 31 25 56 56 56s56 -25 56 -56s-25 -56 -56 -56s-56 25 -56 56z" fill="currentColor"/>
</g>
<g transform="translate(11.2639, 44.1545)">
<path transform="scale(0.0040, -0.0040)" d="M0 0c0 31 25 56 56 56s56 -25 56 -56s-25 -56 -56 -56s-56 25 -56 56z" fill="currentColor"/>
</g>
<g transform="translate(10.7739, 43.6545)">
<rect x="0.0000" y="-2.0000" width="0.1900" height="4.0500" ry="0.0000" fill="currentColor"/>
</g>
<g transform="translate(9.8739, 43.6545)">
<rect x="0.0000" y="-2.0000" width="0.6000" height="4.0500" ry="0.0000" fill="currentColor"/>
</g>
<g transform="translate(60.8488, 53.9347)">
<rect x="0.0000" y="-2.0500" width="0.1900" height="4.0500" ry="0.0000" fill="currentColor"/>
</g>
<g transform="translate(60.8488, 43.6545)">
<rect x="0.0000" y="-2.0000" width="0.1900" height="4.0500" ry="0.0000" fill="currentColor"/>
</g>
<g transform="translate(11.2639, 53.4347)">
<path transform="scale(0.0040, -0.0040)" d="M0 0c0 31 25 56 56 56s56 -25 56 -56s-25 -56 -56 -56s-56 25 -56 56z" fill="currentColor"/>
</g>
<g transform="translate(11.2639, 54.4347)">
<path transform="scale(0.0040, -0.0040)" d="M0 0c0 31 25 56 56 56s56 -25 56 -56s-25 -56 -56 -56s-56 25 -56 56z" fill="currentColor"/>
</g>
<g transform="translate(10.7739, 53.9347)">
<rect x="0.0000" y="-2.0500" width="0.1900" height="4.0500" ry="0.0000" fill="currentColor"/>
</g>
<g transform="translate(9.8739, 53.9347)">
<rect x="0.0000" y="-2.0500" width="0.6000" height="4.0500" ry="0.0000" fill="currentColor"/>
</g>
<g transform="translate(36.9583, 38.0733)">
<rect x="0.0000" y="7.6312" width="0.1900" height="6.2302" ry="0.0000" fill="currentColor"/>
</g>
<g transform="translate(36.9583, 53.9347)">
<rect x="0.0000" y="-2.0500" width="0.1900" height="4.0500" ry="0.0000" fill="currentColor"/>
</g>
<g transform="translate(36.9583, 43.6545)">
<rect x="0.0000" y="-2.0000" width="0.1900" height="4.0500" ry="0.0000" fill="currentColor"/>
</g>
<g transform="translate(69.5331, 52.9347)">
<path transform="scale(0.0040, -0.0040)" d="M218 136c66 0 108 -36 108 -89c0 -89 -113 -183 -218 -183c-66 0 -108 36 -108 89c0 89 113 183 218 183z" fill="currentColor"/>
</g>
<g transform="translate(13.2453, 41.1545)">
<path transform="scale(0.0040, -0.0040)" d="M218 136c66 0 108 -36 108 -89c0 -89 -113 -183 -218 -183c-66 0 -108 36 -108 89c0 89 113 183 218 183z" fill="currentColor"/>
</g>
<g transform="translate(13.2453, 52.4347)">
<path transform="scale(0.0040, -0.0040)" d="M314 65c0 23 -19 41 -42 41c-39 0 -204 -110 -231 -143c-7 -8 -10 -18 -10 -28c0 -23 19 -41 42 -41c39 0 203 110 230 143c7 8 11 18 11 28zM262 136c41 0 82 -14 82 -71c0 -26 -16 -112 -74 -151c-25 -17 -87 -50 -187 -50c-41 0 -83 14 -83 71c0 26 16 112 74 151
c25 17 88 50 188 50z" fill="currentColor"/>
</g>
<g transform="translate(13.2453, 51.4347)">
<path transform="scale(0.0040, -0.0040)" d="M314 65c0 23 -19 41 -42 41c-39 0 -204 -110 -231 -143c-7 -8 -10 -18 -10 -28c0 -23 19 -41 42 -41c39 0 203 110 230 143c7 8 11 18 11 28zM262 136c41 0 82 -14 82 -71c0 -26 -16 -112 -74 -151c-25 -17 -87 -50 -187 -50c-41 0 -83 14 -83 71c0 26 16 112 74 151
c25 17 88 50 188 50z" fill="currentColor"/>
</g>
<g transform="translate(13.3103, 43.6545)">
<rect x="-0.0650" y="-2.3139" width="0.1300" height="3.3197" ry="0.0400" fill="currentColor"/>
</g>
<g transform="translate(13.3103, 53.9347)">
<rect x="-0.0650" y="-2.2410" width="0.1300" height="4.2410" ry="0.0400" fill="currentColor"/>
</g>
<g transform="translate(103.0787, 47.3860)">
<polygon stroke-linejoin="round" stroke-linecap="round" stroke-width="0.0800" fill="currentColor" stroke="currentColor" points="2.2242 0.0685 2.2242 0.4685 0.0400 0.2000 0.0400 -0.2000"/>
</g>
<g transform="translate(100.1146, 47.8445)">
<polygon stroke-linejoin="round" stroke-linecap="round" stroke-width="0.0800" fill="currentColor" stroke="currentColor" points="5.1883 0.4200 5.1883 0.8200 0.0400 0.2000 0.0400 -0.2000"/>
</g>
<g transform="translate(16.2094, 41.6545)">
<path transform="scale(0.0040, -0.0040)" d="M218 136c66 0 108 -36 108 -89c0 -89 -113 -183 -218 -183c-66 0 -108 36 -108 89c0 89 113 183 218 183z" fill="currentColor"/>
</g>
<g transform="translate(16.2744, 43.6545)">
<rect x="-0.0650" y="-1.8139" width="0.1300" height="3.0858" ry="0.0400" fill="currentColor"/>
</g>
<g transform="translate(97.0872, 43.6545)">
<path stroke-width="0.0800" stroke-linejoin="round" stroke-linecap="round" stroke="currentColor" fill="currentColor" d="M1.5042 2.0000C1.8258 2.4140 2.3707 2.4140 2.6923 2.0000L2.6923 2.0000C2.3707 2.2940 1.8258 2.2940 1.5042 2.0000z"/>
</g>
<g transform="translate(19.1736, 42.1545)">
<path transform="scale(0.0040, -0.0040)" d="M218 136c66 0 108 -36 108 -89c0 -89 -113 -183 -218 -183c-66 0 -108 36 -108 89c0 89 113 183 218 183z" fill="currentColor"/>
</g>
<g transform="translate(19.2386, 43.6545)">
<rect x="-0.0650" y="-1.3139" width="0.1300" height="2.8519" ry="0.0400" fill="currentColor"/>
</g>
<g transform="translate(95.5473, 49.7447)">
<polygon stroke-linejoin="round" stroke-linecap="round" stroke-width="0.0800" fill="currentColor" stroke="currentColor" points="2.8041 1.1800 2.8041 1.5800 0.0400 0.2000 0.0400 -0.2000"/>
</g>
<g transform="translate(22.1377, 42.6545)">
<path transform="scale(0.0040, -0.0040)" d="M218 136c66 0 108 -36 108 -89c0 -89 -113 -183 -218 -183c-66 0 -108 36 -108 89c0 89 113 183 218 183z" fill="currentColor"/>
</g>
<g transform="translate(22.2027, 43.6545)">
<rect x="-0.0650" y="-0.8139" width="0.1300" height="2.6181" ry="0.0400" fill="currentColor"/>
</g>
<g transform="translate(88.6948, 56.1247)">
<polygon stroke-linejoin="round" stroke-linecap="round" stroke-width="0.0800" fill="currentColor" stroke="currentColor" points="2.8041 0.4200 2.8041 0.8200 0.0400 0.2000 0.0400 -0.2000"/>
</g>
<g transform="translate(25.1018, 43.1545)">
<path transform="scale(0.0040, -0.0040)" d="M218 136c66 0 108 -36 108 -89c0 -89 -113 -183 -218 -183c-66 0 -108 36 -108 89c0 89 113 183 218 183z" fill="currentColor"/>
</g>
<g transform="translate(25.7539, 40.9045)">
<path transform="scale(0.0040, -0.0040)" d="M215 46c4 6 9 9 16 9c11 0 20 -9 20 -20c0 -4 -1 -8 -3 -11l-23 -35l-33 22zM25 1l-8 -12l-34 22l70 105c4 6 10 9 17 9c6 0 11 -2 15 -7l99 -119l8 12l33 -22l-70 -105c-4 -6 -10 -9 -17 -9c-6 0 -11 2 -15 7zM-231 -55c-11 0 -20 9 -20 20c0 6 0 6 96 151
c4 6 10 9 17 9c6 0 11 -2 15 -7l98 -119l8 12l34 -22l-70 -105c-4 -6 -10 -9 -17 -9c-6 0 -11 2 -15 7l-99 119c-37 -56 -36 -56 -47 -56z" fill="currentColor"/>
</g>
<g transform="translate(25.1018, 51.9347)">
<path transform="scale(0.0040, -0.0040)" d="M314 65c0 23 -19 41 -42 41c-39 0 -204 -110 -231 -143c-7 -8 -10 -18 -10 -28c0 -23 19 -41 42 -41c39 0 203 110 230 143c7 8 11 18 11 28zM262 136c41 0 82 -14 82 -71c0 -26 -16 -112 -74 -151c-25 -17 -87 -50 -187 -50c-41 0 -83 14 -83 71c0 26 16 112 74 151
c25 17 88 50 188 50z" fill="currentColor"/>
</g>
<g transform="translate(25.1018, 50.9347)">
<path transform="scale(0.0040, -0.0040)" d="M314 65c0 23 -19 41 -42 41c-39 0 -204 -110 -231 -143c-7 -8 -10 -18 -10 -28c0 -23 19 -41 42 -41c39 0 203 110 230 143c7 8 11 18 11 28zM262 136c41 0 82 -14 82 -71c0 -26 -16 -112 -74 -151c-25 -17 -87 -50 -187 -50c-41 0 -83 14 -83 71c0 26 16 112 74 151
c25 17 88 50 188 50z" fill="currentColor"/>
</g>
<g transform="translate(25.1668, 43.6545)">
<rect x="-0.0650" y="-0.3139" width="0.1300" height="3.1239" ry="0.0400" fill="currentColor"/>
</g>
<g transform="translate(25.1668, 53.9347)">
<rect x="-0.0650" y="-2.7410" width="0.1300" height="4.2410" ry="0.0400" fill="currentColor"/>
</g>
<g transform="translate(75.4613, 56.1247)">
<polygon stroke-linejoin="round" stroke-linecap="round" stroke-width="0.0800" fill="currentColor" stroke="currentColor" points="8.9824 -0.5800 8.9824 -0.1800 0.0400 0.2000 0.0400 -0.2000"/>
</g>
<g transform="translate(28.0659, 43.6545)">
<path transform="scale(0.0040, -0.0040)" d="M218 136c66 0 108 -36 108 -89c0 -89 -113 -183 -218 -183c-66 0 -108 36 -108 89c0 89 113 183 218 183z" fill="currentColor"/>
</g>
<g transform="translate(28.1309, 43.6545)">
<rect x="-0.0650" y="0.1861" width="0.1300" height="2.6239" ry="0.0400" fill="currentColor"/>
</g>
<g transform="translate(75.4613, 47.1545)">
<polygon stroke-linejoin="round" stroke-linecap="round" stroke-width="0.0800" fill="currentColor" stroke="currentColor" points="8.9824 0.8000 8.9824 1.2000 0.0400 0.2000 0.0400 -0.2000"/>
</g>
<g transform="translate(31.0300, 44.1545)">
<path transform="scale(0.0040, -0.0040)" d="M218 136c66 0 108 -36 108 -89c0 -89 -113 -183 -218 -183c-66 0 -108 36 -108 89c0 89 113 183 218 183z" fill="currentColor"/>
</g>
<g transform="translate(31.0950, 43.6545)">
<rect x="-0.0650" y="0.6861" width="0.1300" height="2.1239" ry="0.0400" fill="currentColor"/>
</g>
<g transform="translate(76.6355, 40.8445)">
<polygon stroke-linejoin="round" stroke-linecap="round" stroke-width="0.0800" fill="currentColor" stroke="currentColor" points="8.9824 -0.2000 8.9824 0.2000 0.0400 0.2000 0.0400 -0.2000"/>
</g>
<g transform="translate(34.2442, 40.6545)">
<path transform="scale(0.0040, -0.0040)" d="M218 136c66 0 108 -36 108 -89c0 -89 -113 -183 -218 -183c-66 0 -108 36 -108 89c0 89 113 183 218 183z" fill="currentColor"/>
</g>
<g transform="translate(34.3092, 43.6545)">
<rect x="-0.0650" y="-2.8139" width="0.1300" height="5.6239" ry="0.0400" fill="currentColor"/>
</g>
<g transform="translate(62.3306, 55.1247)">
<polygon stroke-linejoin="round" stroke-linecap="round" stroke-width="0.0800" fill="currentColor" stroke="currentColor" points="10.2566 0.6100 10.2566 1.0100 0.0400 0.2000 0.0400 -0.2000"/>
</g>
<g transform="translate(62.3306, 48.1545)">
<polygon stroke-linejoin="round" stroke-linecap="round" stroke-width="0.0800" fill="currentColor" stroke="currentColor" points="10.2566 -0.8900 10.2566 -0.4900 0.0400 0.2000 0.0400 -0.2000"/>
</g>
<g transform="translate(38.3650, 40.6545)">
<path transform="scale(0.0040, -0.0040)" d="M218 136c66 0 108 -36 108 -89c0 -89 -113 -183 -218 -183c-66 0 -108 36 -108 89c0 89 113 183 218 183z" fill="currentColor"/>
</g>
<g transform="translate(39.0171, 39.4095)">
<path transform="scale(0.0040, -0.0040)" d="M319 46c4 6 10 9 17 9c11 0 20 -9 20 -20c0 -4 -2 -8 -4 -11l-23 -35l-33 22zM129 1l-8 -12l-33 22l70 105c4 6 9 9 16 9c6 0 12 -2 16 -7l98 -119l8 12l33 -22l-70 -105c-4 -6 -9 -9 -16 -9c-6 0 -12 2 -16 7zM-80 1l-8 -12l-33 22l70 105c4 6 10 9 17 9
c6 0 11 -2 15 -7l99 -119l8 12l33 -22l-70 -105c-4 -6 -10 -9 -17 -9c-6 0 -11 2 -15 7zM-329 11l70 105c4 6 10 9 17 9c6 0 11 -2 15 -7l98 -119l8 12l33 -22l-70 -105c-4 -6 -9 -9 -16 -9c-6 0 -12 2 -16 7l-98 119c-48 -72 -65 -99 -65 -161c0 -75 37 -111 37 -125
c0 -19 -25 -27 -36 -11c-27 41 -41 89 -41 136s14 95 41 136z" fill="currentColor"/>
</g>
<g transform="translate(4.8028, 40.5840)">
<text font-family="serif" font-size="1.7459" text-anchor="start" fill="currentColor">
<tspan>5</tspan>
</text>
</g>
<g transform="translate(38.3650, 51.4347)">
<path transform="scale(0.0040, -0.0040)" d="M314 65c0 23 -19 41 -42 41c-39 0 -204 -110 -231 -143c-7 -8 -10 -18 -10 -28c0 -23 19 -41 42 -41c39 0 203 110 230 143c7 8 11 18 11 28zM262 136c41 0 82 -14 82 -71c0 -26 -16 -112 -74 -151c-25 -17 -87 -50 -187 -50c-41 0 -83 14 -83 71c0 26 16 112 74 151
c25 17 88 50 188 50z" fill="currentColor"/>
</g>
<g transform="translate(38.3650, 50.4347)">
<path transform="scale(0.0040, -0.0040)" d="M314 65c0 23 -19 41 -42 41c-39 0 -204 -110 -231 -143c-7 -8 -10 -18 -10 -28c0 -23 19 -41 42 -41c39 0 203 110 230 143c7 8 11 18 11 28zM262 136c41 0 82 -14 82 -71c0 -26 -16 -112 -74 -151c-25 -17 -87 -50 -187 -50c-41 0 -83 14 -83 71c0 26 16 112 74 151
c25 17 88 50 188 50z" fill="currentColor"/>
</g>
<g transform="translate(38.3650, 55.9347)">
<path transform="scale(0.0040, -0.0040)" d="M-6 78c0 59 124 83 124 182c0 24 -8 49 -25 69l-35 42c-3 3 -4 7 -4 10c0 9 9 15 17 15c4 0 8 -1 11 -5l151 -180c7 -9 10 -17 10 -25c0 -59 -124 -83 -124 -182c0 -24 7 -49 24 -69l84 -99c3 -3 4 -7 4 -10c0 -9 -8 -16 -16 -16s-45 44 -109 44c-16 0 -53 0 -53 -67
c0 -35 11 -74 28 -94c7 -8 -5 -19 -12 -11c-45 54 -92 148 -92 202c0 41 27 42 40 42c33 0 78 -13 119 -31l-132 158c-7 9 -10 17 -10 25z" fill="currentColor"/>
</g>
<g transform="translate(40.1192, 40.1545)">
<path transform="scale(0.0040, -0.0040)" d="M0 0c0 31 25 56 56 56s56 -25 56 -56s-25 -56 -56 -56s-56 25 -56 56z" fill="currentColor"/>
</g>
<g transform="translate(38.4300, 43.6545)">
<rect x="-0.0650" y="-2.8139" width="0.1300" height="3.3139" ry="0.0400" fill="currentColor"/>
</g>
<g transform="translate(39.6774, 53.9347)">
<rect x="-0.0650" y="-6.0000" width="0.1300" height="3.2410" ry="0.0400" fill="currentColor"/>
</g>
<g transform="translate(6.4906, 52.9347)">
<path transform="scale(0.0040, -0.0040)" d="M557 -125c0 28 23 51 51 51s51 -23 51 -51s-23 -51 -51 -51s-51 23 -51 51zM557 125c0 28 23 51 51 51s51 -23 51 -51s-23 -51 -51 -51s-51 23 -51 51zM232 263c172 0 293 -88 293 -251c0 -263 -263 -414 -516 -521c-3 -3 -6 -4 -9 -4c-7 0 -13 6 -13 13c0 3 1 6 4 9
c202 118 412 265 412 493c0 120 -63 235 -171 235c-74 0 -129 -54 -154 -126c11 5 22 8 34 8c55 0 100 -45 100 -100c0 -58 -44 -106 -100 -106c-60 0 -112 47 -112 106c0 133 102 244 232 244z" fill="currentColor"/>
</g>
<g transform="translate(63.5048, 40.8445)">
<polygon stroke-linejoin="round" stroke-linecap="round" stroke-width="0.0800" fill="currentColor" stroke="currentColor" points="10.2566 -0.2000 10.2566 0.2000 0.0400 0.2000 0.0400 -0.2000"/>
</g>
<g transform="translate(42.6348, 53.4347)">
<path transform="scale(0.0040, -0.0040)" d="M218 136c66 0 108 -36 108 -89c0 -89 -113 -183 -218 -183c-66 0 -108 36 -108 89c0 89 113 183 218 183z" fill="currentColor"/>
</g>
<g transform="translate(42.6998, 53.9347)">
<rect x="-0.0650" y="-0.3139" width="0.1300" height="3.3139" ry="0.0400" fill="currentColor"/>
</g>
<g transform="translate(56.1613, 48.4347)">
<polygon stroke-linejoin="round" stroke-linecap="round" stroke-width="0.0800" fill="currentColor" stroke="currentColor" points="3.0541 -0.5100 3.0541 -0.1100 0.0400 0.2000 0.0400 -0.2000"/>
</g>
<g transform="translate(44.8947, 41.1545)">
<path transform="scale(0.0040, -0.0040)" d="M218 136c66 0 108 -36 108 -89c0 -89 -113 -183 -218 -183c-66 0 -108 36 -108 89c0 89 113 183 218 183z" fill="currentColor"/>
</g>
<g transform="translate(44.9597, 43.6545)">
<rect x="-0.0650" y="-2.3139" width="0.1300" height="3.3139" ry="0.0400" fill="currentColor"/>
</g>
<g transform="translate(45.0247, 44.6145)">
<path transform="scale(0.0040, -0.0040)" d="M0 0h-16v250h16v-250zM0 0v250c97 59 224 148 224 259c0 57 -15 112 -40 163c-3 16 10 27 23 27c7 0 15 -3 20 -11c25 -56 40 -117 40 -179c0 -203 -267 -306 -267 -509z" fill="currentColor"/>
</g>
<g transform="translate(43.4447, 41.1545)">
<path transform="scale(0.0040, -0.0040)" d="M0 119c0 8 5 15 13 18l46 17v158c0 10 8 19 18 19s19 -9 19 -19v-145l83 31v158c0 10 9 19 19 19s18 -9 18 -19v-145l32 12c2 1 5 1 7 1c11 0 20 -9 20 -20v-60c0 -8 -5 -16 -13 -19l-46 -16v-160l32 11c2 1 5 1 7 1c11 0 20 -9 20 -20v-60c0 -8 -5 -15 -13 -18l-46 -17
v-158c0 -10 -8 -19 -18 -19s-19 9 -19 19v145l-83 -31v-158c0 -10 -9 -19 -19 -19s-18 9 -18 19v145l-32 -12c-2 -1 -5 -1 -7 -1c-11 0 -20 9 -20 20v60c0 8 5 16 13 19l46 16v160l-32 -11c-2 -1 -5 -1 -7 -1c-11 0 -20 9 -20 20v60zM179 95l-83 -30v-160l83 30v160z" fill="currentColor"/>
</g>
<g transform="translate(54.9871, 46.6545)">
<polygon stroke-linejoin="round" stroke-linecap="round" stroke-width="0.0800" fill="currentColor" stroke="currentColor" points="3.0541 -0.3900 3.0541 0.0100 0.0400 0.2000 0.0400 -0.2000"/>
</g>
<g transform="translate(47.7546, 40.6545)">
<path transform="scale(0.0040, -0.0040)" d="M314 65c0 23 -19 41 -42 41c-39 0 -204 -110 -231 -143c-7 -8 -10 -18 -10 -28c0 -23 19 -41 42 -41c39 0 203 110 230 143c7 8 11 18 11 28zM262 136c41 0 82 -14 82 -71c0 -26 -16 -112 -74 -151c-25 -17 -87 -50 -187 -50c-41 0 -83 14 -83 71c0 26 16 112 74 151
c25 17 88 50 188 50z" fill="currentColor"/>
</g>
<g transform="translate(47.7546, 45.6545)">
<path transform="scale(0.0040, -0.0040)" d="M-6 78c0 59 124 83 124 182c0 24 -8 49 -25 69l-35 42c-3 3 -4 7 -4 10c0 9 9 15 17 15c4 0 8 -1 11 -5l151 -180c7 -9 10 -17 10 -25c0 -59 -124 -83 -124 -182c0 -24 7 -49 24 -69l84 -99c3 -3 4 -7 4 -10c0 -9 -8 -16 -16 -16s-45 44 -109 44c-16 0 -53 0 -53 -67
c0 -35 11 -74 28 -94c7 -8 -5 -19 -12 -11c-45 54 -92 148 -92 202c0 41 27 42 40 42c33 0 78 -13 119 -31l-132 158c-7 9 -10 17 -10 25z" fill="currentColor"/>
</g>
<g transform="translate(47.7546, 50.4347)">
<path transform="scale(0.0040, -0.0040)" d="M218 136c66 0 108 -36 108 -89c0 -89 -113 -183 -218 -183c-66 0 -108 36 -108 89c0 89 113 183 218 183z" fill="currentColor"/>
</g>
<g transform="translate(47.7546, 51.9347)">
<path transform="scale(0.0040, -0.0040)" d="M314 65c0 23 -19 41 -42 41c-39 0 -204 -110 -231 -143c-7 -8 -10 -18 -10 -28c0 -23 19 -41 42 -41c39 0 203 110 230 143c7 8 11 18 11 28zM262 136c41 0 82 -14 82 -71c0 -26 -16 -112 -74 -151c-25 -17 -87 -50 -187 -50c-41 0 -83 14 -83 71c0 26 16 112 74 151
c25 17 88 50 188 50z" fill="currentColor"/>
</g>
<g transform="translate(49.0670, 43.6545)">
<rect x="-0.0650" y="-5.5000" width="0.1300" height="2.2410" ry="0.0400" fill="currentColor"/>
</g>
<g transform="translate(48.9939, 53.9347)">
<rect x="-0.0650" y="-6.1814" width="0.1300" height="2.4953" ry="0.0400" fill="currentColor"/>
</g>
<g transform="translate(47.8196, 53.9347)">
<rect x="-0.0650" y="-1.7410" width="0.1300" height="3.2410" ry="0.0400" fill="currentColor"/>
</g>
<g transform="translate(50.7188, 50.9347)">
<path transform="scale(0.0040, -0.0040)" d="M218 136c66 0 108 -36 108 -89c0 -89 -113 -183 -218 -183c-66 0 -108 36 -108 89c0 89 113 183 218 183z" fill="currentColor"/>
</g>
<g transform="translate(51.3709, 47.2045)">
<path transform="scale(0.0040, -0.0040)" d="M215 46c4 6 9 9 16 9c11 0 20 -9 20 -20c0 -4 -1 -8 -3 -11l-23 -35l-33 22zM25 1l-8 -12l-34 22l70 105c4 6 10 9 17 9c6 0 11 -2 15 -7l99 -119l8 12l33 -22l-70 -105c-4 -6 -10 -9 -17 -9c-6 0 -11 2 -15 7zM-231 -55c-11 0 -20 9 -20 20c0 6 0 6 96 151
c4 6 10 9 17 9c6 0 11 -2 15 -7l98 -119l8 12l34 -22l-70 -105c-4 -6 -10 -9 -17 -9c-6 0 -11 2 -15 7l-99 119c-37 -56 -36 -56 -47 -56z" fill="currentColor"/>
</g>
<g transform="translate(51.9580, 53.9347)">
<rect x="-0.0650" y="-5.7902" width="0.1300" height="2.6041" ry="0.0400" fill="currentColor"/>
</g>
<g transform="translate(48.9289, 47.7447)">
<polygon stroke-linejoin="round" stroke-linecap="round" stroke-width="0.0800" fill="currentColor" stroke="currentColor" points="5.1883 0.4900 5.1883 0.8900 0.0400 0.2000 0.0400 -0.2000"/>
</g>
<g transform="translate(51.8930, 48.9459)">
<polygon stroke-linejoin="round" stroke-linecap="round" stroke-width="0.0800" fill="currentColor" stroke="currentColor" points="2.2242 0.0988 2.2242 0.4988 0.0400 0.2000 0.0400 -0.2000"/>
</g>
<g transform="translate(52.8529, 51.4347)">
<path transform="scale(0.0040, -0.0040)" d="M218 136c66 0 108 -36 108 -89c0 -89 -113 -183 -218 -183c-66 0 -108 36 -108 89c0 89 113 183 218 183z" fill="currentColor"/>
</g>
<g transform="translate(54.0921, 53.9347)">
<rect x="-0.0650" y="-5.5086" width="0.1300" height="2.8225" ry="0.0400" fill="currentColor"/>
</g>
<g transform="translate(38.3650, 53.9347)">
<path stroke-width="0.0800" stroke-linejoin="round" stroke-linecap="round" stroke="currentColor" fill="currentColor" d="M1.7123 -4.0000C2.8057 -4.9006 8.0962 -4.9006 9.1896 -4.0000L9.1896 -4.0000C8.0962 -4.7806 2.8057 -4.7806 1.7123 -4.0000z"/>
</g>
<g transform="translate(54.9871, 44.1545)">
<path transform="scale(0.0040, -0.0040)" d="M218 136c66 0 108 -36 108 -89c0 -89 -113 -183 -218 -183c-66 0 -108 36 -108 89c0 89 113 183 218 183z" fill="currentColor"/>
</g>
<g transform="translate(54.9871, 50.9347)">
<path transform="scale(0.0040, -0.0040)" d="M218 136c66 0 108 -36 108 -89c0 -89 -113 -183 -218 -183c-66 0 -108 36 -108 89c0 89 113 183 218 183z" fill="currentColor"/>
</g>
<g transform="translate(55.0521, 43.6545)">
<rect x="-0.0650" y="0.6861" width="0.1300" height="2.3099" ry="0.0400" fill="currentColor"/>
</g>
<g transform="translate(56.2263, 53.9347)">
<rect x="-0.0650" y="-5.5065" width="0.1300" height="2.3204" ry="0.0400" fill="currentColor"/>
</g>
<g transform="translate(25.1018, 46.4645)">
<polygon stroke-linejoin="round" stroke-linecap="round" stroke-width="0.0800" fill="currentColor" stroke="currentColor" points="9.2324 -0.2000 9.2324 0.2000 0.0400 0.2000 0.0400 -0.2000"/>
</g>
<g transform="translate(57.9512, 43.6545)">
<path transform="scale(0.0040, -0.0040)" d="M218 136c66 0 108 -36 108 -89c0 -89 -113 -183 -218 -183c-66 0 -108 36 -108 89c0 89 113 183 218 183z" fill="currentColor"/>
</g>
<g transform="translate(58.6033, 40.7365)">
<path transform="scale(0.0040, -0.0040)" d="M124 -147c0 -11 -9 -20 -20 -20s-20 9 -20 20v81l-33 -50c-4 -6 -10 -9 -17 -9c-6 0 -11 2 -15 7l-99 119l-8 -12l-33 22l70 105c4 6 10 9 17 9c6 0 11 -2 15 -7l99 -119l4 7v141c0 11 9 20 20 20s20 -9 20 -20v-81l34 50c4 6 9 9 16 9c6 0 12 -2 16 -7l98 -119l8 12
l33 -22l-70 -105c-4 -6 -9 -9 -16 -9c-6 0 -12 2 -16 7l-98 119l-5 -7v-141zM319 46c4 6 10 9 17 9c11 0 20 -9 20 -20c0 -4 -2 -8 -4 -11l-23 -35l-33 22zM-336 -55c-11 0 -20 9 -20 20c0 6 1 6 97 151c4 6 10 9 17 9c6 0 11 -2 15 -7l98 -119l8 12l33 -22l-70 -105
c-4 -6 -9 -9 -16 -9c-6 0 -12 2 -16 7l-98 119c-37 -56 -37 -56 -48 -56z" fill="currentColor"/>
</g>
<g transform="translate(57.9512, 50.4347)">
<path transform="scale(0.0040, -0.0040)" d="M218 136c66 0 108 -36 108 -89c0 -89 -113 -183 -218 -183c-66 0 -108 36 -108 89c0 89 113 183 218 183z" fill="currentColor"/>
</g>
<g transform="translate(58.0162, 43.6545)">
<rect x="-0.0650" y="0.1861" width="0.1300" height="2.6279" ry="0.0400" fill="currentColor"/>
</g>
<g transform="translate(59.1904, 53.9347)">
<rect x="-0.0650" y="-5.8035" width="0.1300" height="2.1174" ry="0.0400" fill="currentColor"/>
</g>
<g transform="translate(13.2453, 44.6545)">
<polygon stroke-linejoin="round" stroke-linecap="round" stroke-width="0.0800" fill="currentColor" stroke="currentColor" points="8.9824 0.6100 8.9824 1.0100 0.0400 0.2000 0.0400 -0.2000"/>
</g>
<g transform="translate(62.3306, 43.1545)">
<path transform="scale(0.0040, -0.0040)" d="M218 136c66 0 108 -36 108 -89c0 -89 -113 -183 -218 -183c-66 0 -108 36 -108 89c0 89 113 183 218 183z" fill="currentColor"/>
</g>
<g transform="translate(62.3306, 45.6545)">
<path transform="scale(0.0040, -0.0040)" d="M218 136c66 0 108 -36 108 -89c0 -89 -113 -183 -218 -183c-66 0 -108 36 -108 89c0 89 113 183 218 183z" fill="currentColor"/>
</g>
<g transform="translate(62.3306, 51.9347)">
<path transform="scale(0.0040, -0.0040)" d="M218 136c66 0 108 -36 108 -89c0 -89 -113 -183 -218 -183c-66 0 -108 36 -108 89c0 89 113 183 218 183z" fill="currentColor"/>
</g>
<g transform="translate(6.4906, 44.6545)">
<path transform="scale(0.0040, -0.0040)" d="M266 -635h-6c-108 0 -195 88 -195 197c0 58 53 103 112 103c54 0 95 -47 95 -103c0 -52 -43 -95 -95 -95c-11 0 -21 2 -31 6c26 -39 68 -65 117 -65h4zM461 -203c68 24 113 90 113 164c0 90 -66 179 -173 190c19 -89 48 -242 60 -354zM74 28c0 -145 141 -247 264 -247
c1 0 47 0 82 6c-7 64 -29 203 -63 364c-79 -8 -124 -61 -124 -119c0 -44 25 -91 81 -123c5 -5 7 -10 7 -15c0 -11 -10 -22 -22 -22c-15 0 -126 62 -126 187c0 88 58 174 160 197c-14 58 -29 117 -46 175c-107 -121 -213 -243 -213 -403zM250 553c-29 96 -52 170 -52 346
c0 115 55 224 149 292c6 5 14 5 20 0c68 -80 133 -245 133 -358c0 -143 -86 -255 -180 -364c21 -68 39 -138 56 -207c2 0 7 1 13 1c155 0 256 -128 256 -261c0 -113 -74 -212 -180 -246c3 -35 5 -70 5 -105c0 -19 -1 -39 -2 -58c-7 -119 -88 -225 -202 -228l1 43
c93 2 153 92 159 191c1 18 2 37 2 55c0 31 -1 61 -4 92c-5 -1 -44 -8 -89 -8c-193 0 -333 180 -333 374c0 177 131 306 248 441zM428 916c0 34 1 66 -20 129c-99 -48 -162 -149 -162 -259c0 -52 12 -115 36 -194c80 97 146 198 146 324z" fill="currentColor"/>
</g>
<g transform="translate(63.5698, 43.6545)">
<rect x="-0.0650" y="-2.8100" width="0.1300" height="2.1239" ry="0.0400" fill="currentColor"/>
</g>
<g transform="translate(62.3956, 43.6545)">
<rect x="-0.0650" y="2.1861" width="0.1300" height="2.3095" ry="0.0400" fill="currentColor"/>
</g>
<g transform="translate(62.3956, 53.9347)">
<rect x="-0.0650" y="-1.8139" width="0.1300" height="3.0090" ry="0.0400" fill="currentColor"/>
</g>
<g transform="translate(65.9647, 43.1545)">
<path transform="scale(0.0040, -0.0040)" d="M218 136c66 0 108 -36 108 -89c0 -89 -113 -183 -218 -183c-66 0 -108 36 -108 89c0 89 113 183 218 183z" fill="currentColor"/>
</g>
<g transform="translate(67.2689, 43.6545)">
<path transform="scale(0.0040, -0.0040)" d="M218 136c66 0 108 -36 108 -89c0 -89 -113 -183 -218 -183c-66 0 -108 36 -108 89c0 89 113 183 218 183z" fill="currentColor"/>
</g>
<g transform="translate(65.9647, 52.4347)">
<path transform="scale(0.0040, -0.0040)" d="M218 136c66 0 108 -36 108 -89c0 -89 -113 -183 -218 -183c-66 0 -108 36 -108 89c0 89 113 183 218 183z" fill="currentColor"/>
</g>
<g transform="translate(67.2039, 43.6545)">
<rect x="-0.0650" y="-2.8100" width="0.1300" height="2.1239" ry="0.0400" fill="currentColor"/>
</g>
<g transform="translate(67.3339, 43.6545)">
<rect x="-0.0650" y="0.1861" width="0.1300" height="3.9786" ry="0.0400" fill="currentColor"/>
</g>
<g transform="translate(64.8147, 43.6545)">
<path transform="scale(0.0040, -0.0040)" d="M27 41l-1 -66v-11c0 -22 1 -44 4 -66c45 38 93 80 93 139c0 33 -14 67 -43 67c-31 0 -52 -30 -53 -63zM-15 -138l-12 595c8 5 18 8 27 8s19 -3 27 -8l-7 -345c25 21 58 34 91 34c52 0 89 -48 89 -102c0 -80 -86 -117 -147 -169c-15 -13 -24 -38 -45 -38
c-13 0 -23 11 -23 25z" fill="currentColor"/>
</g>
<g transform="translate(66.0297, 53.9347)">
<rect x="-0.0650" y="-1.3139" width="0.1300" height="2.7949" ry="0.0400" fill="currentColor"/>
</g>
<g transform="translate(69.5331, 43.1545)">
<path transform="scale(0.0040, -0.0040)" d="M218 136c66 0 108 -36 108 -89c0 -89 -113 -183 -218 -183c-66 0 -108 36 -108 89c0 89 113 183 218 183z" fill="currentColor"/>
</g>
<g transform="translate(69.5331, 44.1545)">
<path transform="scale(0.0040, -0.0040)" d="M218 136c66 0 108 -36 108 -89c0 -89 -113 -183 -218 -183c-66 0 -108 36 -108 89c0 89 113 183 218 183z" fill="currentColor"/>
</g>
<g transform="translate(70.7723, 43.6545)">
<rect x="-0.0650" y="-2.8100" width="0.1300" height="2.1239" ry="0.0400" fill="currentColor"/>
</g>
<g transform="translate(69.5981, 43.6545)">
<rect x="-0.0650" y="0.6861" width="0.1300" height="3.3269" ry="0.0400" fill="currentColor"/>
</g>
<g transform="translate(69.5981, 53.9347)">
<rect x="-0.0650" y="-0.8139" width="0.1300" height="2.5756" ry="0.0400" fill="currentColor"/>
</g>
<g transform="translate(72.4972, 43.1545)">
<path transform="scale(0.0040, -0.0040)" d="M218 136c66 0 108 -36 108 -89c0 -89 -113 -183 -218 -183c-66 0 -108 36 -108 89c0 89 113 183 218 183z" fill="currentColor"/>
</g>
<g transform="translate(72.4972, 44.6545)">
<path transform="scale(0.0040, -0.0040)" d="M218 136c66 0 108 -36 108 -89c0 -89 -113 -183 -218 -183c-66 0 -108 36 -108 89c0 89 113 183 218 183z" fill="currentColor"/>
</g>
<g transform="translate(72.4972, 53.4347)">
<path transform="scale(0.0040, -0.0040)" d="M218 136c66 0 108 -36 108 -89c0 -89 -113 -183 -218 -183c-66 0 -108 36 -108 89c0 89 113 183 218 183z" fill="currentColor"/>
</g>
<g transform="translate(73.7364, 43.6545)">
<rect x="-0.0650" y="-2.8100" width="0.1300" height="2.1239" ry="0.0400" fill="currentColor"/>
</g>
<g transform="translate(72.5622, 43.6545)">
<rect x="-0.0650" y="1.1861" width="0.1300" height="2.6282" ry="0.0400" fill="currentColor"/>
</g>
<g transform="translate(72.5622, 53.9347)">
<rect x="-0.0650" y="-0.3139" width="0.1300" height="2.3088" ry="0.0400" fill="currentColor"/>
</g>
<g transform="translate(75.4613, 43.1545)">
<path transform="scale(0.0040, -0.0040)" d="M218 136c66 0 108 -36 108 -89c0 -89 -113 -183 -218 -183c-66 0 -108 36 -108 89c0 89 113 183 218 183z" fill="currentColor"/>
</g>
<g transform="translate(75.4613, 44.1545)">
<path transform="scale(0.0040, -0.0040)" d="M218 136c66 0 108 -36 108 -89c0 -89 -113 -183 -218 -183c-66 0 -108 36 -108 89c0 89 113 183 218 183z" fill="currentColor"/>
</g>
<g transform="translate(75.4613, 52.9347)">
<path transform="scale(0.0040, -0.0040)" d="M218 136c66 0 108 -36 108 -89c0 -89 -113 -183 -218 -183c-66 0 -108 36 -108 89c0 89 113 183 218 183z" fill="currentColor"/>
</g>
<g transform="translate(76.7005, 43.6545)">
<rect x="-0.0650" y="-2.8100" width="0.1300" height="2.1239" ry="0.0400" fill="currentColor"/>
</g>
<g transform="translate(75.5263, 43.6545)">
<rect x="-0.0650" y="0.6861" width="0.1300" height="2.8211" ry="0.0400" fill="currentColor"/>
</g>
<g transform="translate(75.5263, 53.9347)">
<rect x="-0.0650" y="-0.8139" width="0.1300" height="3.0012" ry="0.0400" fill="currentColor"/>
</g>
<g transform="translate(78.4254, 43.1545)">
<path transform="scale(0.0040, -0.0040)" d="M218 136c66 0 108 -36 108 -89c0 -89 -113 -183 -218 -183c-66 0 -108 36 -108 89c0 89 113 183 218 183z" fill="currentColor"/>
</g>
<g transform="translate(78.4254, 44.6545)">
<path transform="scale(0.0040, -0.0040)" d="M218 136c66 0 108 -36 108 -89c0 -89 -113 -183 -218 -183c-66 0 -108 36 -108 89c0 89 113 183 218 183z" fill="currentColor"/>
</g>
<g transform="translate(78.4254, 52.4347)">
<path transform="scale(0.0040, -0.0040)" d="M218 136c66 0 108 -36 108 -89c0 -89 -113 -183 -218 -183c-66 0 -108 36 -108 89c0 89 113 183 218 183z" fill="currentColor"/>
</g>
<g transform="translate(79.6646, 43.6545)">
<rect x="-0.0650" y="-2.8100" width="0.1300" height="2.1239" ry="0.0400" fill="currentColor"/>
</g>
<g transform="translate(78.4904, 43.6545)">
<rect x="-0.0650" y="1.1861" width="0.1300" height="2.6496" ry="0.0400" fill="currentColor"/>
</g>
<g transform="translate(78.4904, 53.9347)">
<rect x="-0.0650" y="-1.3139" width="0.1300" height="3.3763" ry="0.0400" fill="currentColor"/>
</g>
<g transform="translate(81.3895, 43.1545)">
<path transform="scale(0.0040, -0.0040)" d="M218 136c66 0 108 -36 108 -89c0 -89 -113 -183 -218 -183c-66 0 -108 36 -108 89c0 89 113 183 218 183z" fill="currentColor"/>
</g>
<g transform="translate(81.3895, 45.1545)">
<path transform="scale(0.0040, -0.0040)" d="M218 136c66 0 108 -36 108 -89c0 -89 -113 -183 -218 -183c-66 0 -108 36 -108 89c0 89 113 183 218 183z" fill="currentColor"/>
</g>
<g transform="translate(81.3895, 51.9347)">
<path transform="scale(0.0040, -0.0040)" d="M218 136c66 0 108 -36 108 -89c0 -89 -113 -183 -218 -183c-66 0 -108 36 -108 89c0 89 113 183 218 183z" fill="currentColor"/>
</g>
<g transform="translate(82.0416, 50.5217)">
<path transform="scale(0.0040, -0.0040)" d="M20 -147c0 -11 -9 -20 -20 -20s-20 9 -20 20v81l-33 -50c-4 -6 -10 -9 -17 -9c-6 0 -11 2 -15 7l-99 119c-37 -56 -36 -56 -47 -56s-20 9 -20 20c0 6 0 6 96 151c4 6 10 9 17 9c6 0 11 -2 15 -7l98 -119l5 7v141c0 11 9 20 20 20s20 -9 20 -20v-81l33 50c4 6 10 9 17 9
c6 0 11 -2 15 -7l99 -119l8 12l33 -22l-70 -105c-4 -6 -10 -9 -17 -9c-6 0 -11 2 -15 7l-98 119l-5 -7v-141zM215 46c4 6 9 9 16 9c11 0 20 -9 20 -20c0 -4 -1 -8 -3 -11l-23 -35l-33 22z" fill="currentColor"/>
</g>
<g transform="translate(82.6287, 43.6545)">
<rect x="-0.0650" y="-2.8100" width="0.1300" height="2.1239" ry="0.0400" fill="currentColor"/>
</g>
<g transform="translate(81.4545, 43.6545)">
<rect x="-0.0650" y="1.6861" width="0.1300" height="2.4782" ry="0.0400" fill="currentColor"/>
</g>
<g transform="translate(81.4545, 53.9347)">
<rect x="-0.0650" y="-1.8139" width="0.1300" height="3.7515" ry="0.0400" fill="currentColor"/>
</g>
<g transform="translate(84.3537, 43.1545)">
<path transform="scale(0.0040, -0.0040)" d="M218 136c66 0 108 -36 108 -89c0 -89 -113 -183 -218 -183c-66 0 -108 36 -108 89c0 89 113 183 218 183z" fill="currentColor"/>
</g>
<g transform="translate(84.3537, 45.6545)">
<path transform="scale(0.0040, -0.0040)" d="M218 136c66 0 108 -36 108 -89c0 -89 -113 -183 -218 -183c-66 0 -108 36 -108 89c0 89 113 183 218 183z" fill="currentColor"/>
</g>
<g transform="translate(84.3537, 52.4347)">
<path transform="scale(0.0040, -0.0040)" d="M218 136c66 0 108 -36 108 -89c0 -89 -113 -183 -218 -183c-66 0 -108 36 -108 89c0 89 113 183 218 183z" fill="currentColor"/>
</g>
<g transform="translate(85.5929, 43.6545)">
<rect x="-0.0650" y="-2.8100" width="0.1300" height="2.1239" ry="0.0400" fill="currentColor"/>
</g>
<g transform="translate(84.4187, 43.6545)">
<rect x="-0.0650" y="2.1861" width="0.1300" height="2.3067" ry="0.0400" fill="currentColor"/>
</g>
<g transform="translate(84.4187, 53.9347)">
<rect x="-0.0650" y="-1.3139" width="0.1300" height="3.1266" ry="0.0400" fill="currentColor"/>
</g>
<g transform="translate(88.6948, 43.1545)">
<path transform="scale(0.0040, -0.0040)" d="M218 136c66 0 108 -36 108 -89c0 -89 -113 -183 -218 -183c-66 0 -108 36 -108 89c0 89 113 183 218 183z" fill="currentColor"/>
</g>
<g transform="translate(89.3470, 38.5733)">
<path transform="scale(0.0040, -0.0040)" d="M319 46c4 6 10 9 17 9c11 0 20 -9 20 -20c0 -4 -2 -8 -4 -11l-23 -35l-33 22zM129 1l-8 -12l-33 22l70 105c4 6 9 9 16 9c6 0 12 -2 16 -7l98 -119l8 12l33 -22l-70 -105c-4 -6 -9 -9 -16 -9c-6 0 -12 2 -16 7zM-80 1l-8 -12l-33 22l70 105c4 6 10 9 17 9
c6 0 11 -2 15 -7l99 -119l8 12l33 -22l-70 -105c-4 -6 -10 -9 -17 -9c-6 0 -11 2 -15 7zM-329 11l70 105c4 6 10 9 17 9c6 0 11 -2 15 -7l98 -119l8 12l33 -22l-70 -105c-4 -6 -9 -9 -16 -9c-6 0 -12 2 -16 7l-98 119c-48 -72 -65 -99 -65 -161c0 -75 37 -111 37 -125
c0 -19 -25 -27 -36 -11c-27 41 -41 89 -41 136s14 95 41 136z" fill="currentColor"/>
</g>
<g transform="translate(88.6948, 46.1545)">
<path transform="scale(0.0040, -0.0040)" d="M218 136c66 0 108 -36 108 -89c0 -89 -113 -183 -218 -183c-66 0 -108 36 -108 89c0 89 113 183 218 183z" fill="currentColor"/>
</g>
<g transform="translate(88.6948, 52.9347)">
<path transform="scale(0.0040, -0.0040)" d="M218 136c66 0 108 -36 108 -89c0 -89 -113 -183 -218 -183c-66 0 -108 36 -108 89c0 89 113 183 218 183z" fill="currentColor"/>
</g>
<g transform="translate(5.6306, 48.7946)">
<rect x="0.0000" y="-7.1901" width="0.1600" height="14.3802" ry="0.0500" fill="currentColor"/>
</g>
<g transform="translate(90.4491, 43.1545)">
<path transform="scale(0.0040, -0.0040)" d="M0 0c0 31 25 56 56 56s56 -25 56 -56s-25 -56 -56 -56s-56 25 -56 56z" fill="currentColor"/>
</g>
<g transform="translate(89.9341, 43.6545)">
<rect x="-0.0650" y="-3.6667" width="0.1300" height="2.9806" ry="0.0400" fill="currentColor"/>
</g>
<g transform="translate(90.4491, 46.1545)">
<path transform="scale(0.0040, -0.0040)" d="M0 0c0 31 25 56 56 56s56 -25 56 -56s-25 -56 -56 -56s-56 25 -56 56z" fill="currentColor"/>
</g>
<g transform="translate(88.7598, 43.6545)">
<rect x="-0.0650" y="2.6861" width="0.1300" height="2.3139" ry="0.0400" fill="currentColor"/>
</g>
<g transform="translate(88.7598, 53.9347)">
<rect x="-0.0650" y="-0.8139" width="0.1300" height="3.0181" ry="0.0400" fill="currentColor"/>
</g>
<g transform="translate(5.3306, 48.7946)">
<path transform="scale(0.0040, -0.0040)" d="M-84 -400c0 276 -140 396 -140 400c0 20 140 108 140 400c0 284 -116 540 -116 860c0 204 48 396 188 544c16 16 40 -8 24 -24c-104 -112 -140 -248 -140 -396c0 -280 112 -528 112 -840c0 -200 -44 -396 -180 -544c136 -148 180 -344 180 -544
c0 -312 -112 -560 -112 -840c0 -148 36 -284 140 -396c16 -16 -8 -40 -24 -24c-140 148 -188 340 -188 544c0 320 116 576 116 860z" fill="currentColor"/>
</g>
<g transform="translate(91.4090, 53.9347)">
<path transform="scale(0.0040, -0.0040)" d="M218 136c66 0 108 -36 108 -89c0 -89 -113 -183 -218 -183c-66 0 -108 36 -108 89c0 89 113 183 218 183z" fill="currentColor"/>
</g>
<g transform="translate(91.4740, 53.9347)">
<rect x="-0.0650" y="0.1861" width="0.1300" height="2.6097" ry="0.0400" fill="currentColor"/>
</g>
<g transform="translate(94.3731, 52.4347)">
<path transform="scale(0.0040, -0.0040)" d="M218 136c66 0 108 -36 108 -89c0 -89 -113 -183 -218 -183c-66 0 -108 36 -108 89c0 89 113 183 218 183z" fill="currentColor"/>
</g>
<g transform="translate(95.0252, 48.6682)">
<path transform="scale(0.0040, -0.0040)" d="M20 -147c0 -11 -9 -20 -20 -20s-20 9 -20 20v81l-33 -50c-4 -6 -10 -9 -17 -9c-6 0 -11 2 -15 7l-99 119c-37 -56 -36 -56 -47 -56s-20 9 -20 20c0 6 0 6 96 151c4 6 10 9 17 9c6 0 11 -2 15 -7l98 -119l5 7v141c0 11 9 20 20 20s20 -9 20 -20v-81l33 50c4 6 10 9 17 9
c6 0 11 -2 15 -7l99 -119l8 12l33 -22l-70 -105c-4 -6 -10 -9 -17 -9c-6 0 -11 2 -15 7l-98 119l-5 -7v-141zM215 46c4 6 9 9 16 9c11 0 20 -9 20 -20c0 -4 -1 -8 -3 -11l-23 -35l-33 22z" fill="currentColor"/>
</g>
<g transform="translate(95.6123, 53.9347)">
<rect x="-0.0650" y="-4.1585" width="0.1300" height="2.4724" ry="0.0400" fill="currentColor"/>
</g>
<g transform="translate(97.0872, 43.6545)">
<path transform="scale(0.0040, -0.0040)" d="M218 136c66 0 108 -36 108 -89c0 -89 -113 -183 -218 -183c-66 0 -108 36 -108 89c0 89 113 183 218 183z" fill="currentColor"/>
</g>
<g transform="translate(97.0872, 45.1545)">
<path transform="scale(0.0040, -0.0040)" d="M218 136c66 0 108 -36 108 -89c0 -89 -113 -183 -218 -183c-66 0 -108 36 -108 89c0 89 113 183 218 183z" fill="currentColor"/>
</g>
<g transform="translate(97.0872, 55.9347)">
<path transform="scale(0.0040, -0.0040)" d="M218 136c66 0 108 -36 108 -89c0 -89 -113 -183 -218 -183c-66 0 -108 36 -108 89c0 89 113 183 218 183z" fill="currentColor"/>
</g>
<g transform="translate(98.3264, 43.6545)">
<rect x="-0.0650" y="-3.3750" width="0.1300" height="3.1889" ry="0.0400" fill="currentColor"/>
</g>
<g transform="translate(98.3914, 40.3195)">
<path transform="scale(0.0040, -0.0040)" d="M0 0v-250h-16v250h16zM0 0c0 -197 207 -336 207 -533c0 -71 -15 -141 -41 -207c-5 -8 -13 -12 -20 -12c-13 0 -26 11 -23 27c26 61 42 126 42 192c0 103 -94 208 -165 283v250z" fill="currentColor"/>
</g>
<g transform="translate(97.1522, 43.6545)">
<rect x="-0.0650" y="1.6861" width="0.1300" height="2.8139" ry="0.0400" fill="currentColor"/>
</g>
<g transform="translate(97.2172, 48.1145)">
<path transform="scale(0.0040, -0.0040)" d="M0 0h-16v250h16v-250zM0 0v250c97 59 224 148 224 259c0 57 -15 112 -40 163c-3 16 10 27 23 27c7 0 15 -3 20 -11c25 -56 40 -117 40 -179c0 -203 -267 -306 -267 -509z" fill="currentColor"/>
</g>
<g transform="translate(98.3264, 53.9347)">
<rect x="-0.0650" y="-2.8415" width="0.1300" height="4.6554" ry="0.0400" fill="currentColor"/>
</g>
<g transform="translate(100.1146, 43.1545)">
<path transform="scale(0.0040, -0.0040)" d="M314 65c0 23 -19 41 -42 41c-39 0 -204 -110 -231 -143c-7 -8 -10 -18 -10 -28c0 -23 19 -41 42 -41c39 0 203 110 230 143c7 8 11 18 11 28zM262 136c41 0 82 -14 82 -71c0 -26 -16 -112 -74 -151c-25 -17 -87 -50 -187 -50c-41 0 -83 14 -83 71c0 26 16 112 74 151
c25 17 88 50 188 50z" fill="currentColor"/>
</g>
<g transform="translate(100.1146, 45.1545)">
<path transform="scale(0.0040, -0.0040)" d="M218 136c66 0 108 -36 108 -89c0 -89 -113 -183 -218 -183c-66 0 -108 36 -108 89c0 89 113 183 218 183z" fill="currentColor"/>
</g>
<g transform="translate(100.1146, 54.4347)">
<path transform="scale(0.0040, -0.0040)" d="M314 65c0 23 -19 41 -42 41c-39 0 -204 -110 -231 -143c-7 -8 -10 -18 -10 -28c0 -23 19 -41 42 -41c39 0 203 110 230 143c7 8 11 18 11 28zM262 136c41 0 82 -14 82 -71c0 -26 -16 -112 -74 -151c-25 -17 -87 -50 -187 -50c-41 0 -83 14 -83 71c0 26 16 112 74 151
c25 17 88 50 188 50z" fill="currentColor"/>
</g>
<g transform="translate(100.8032, 50.0667)">
<path transform="scale(0.0040, -0.0040)" d="M20 -147c0 -11 -9 -20 -20 -20s-20 9 -20 20v81l-33 -50c-4 -6 -10 -9 -17 -9c-6 0 -11 2 -15 7l-99 119c-37 -56 -36 -56 -47 -56s-20 9 -20 20c0 6 0 6 96 151c4 6 10 9 17 9c6 0 11 -2 15 -7l98 -119l5 7v141c0 11 9 20 20 20s20 -9 20 -20v-81l33 50c4 6 10 9 17 9
c6 0 11 -2 15 -7l99 -119l8 12l33 -22l-70 -105c-4 -6 -10 -9 -17 -9c-6 0 -11 2 -15 7l-98 119l-5 -7v-141zM215 46c4 6 9 9 16 9c11 0 20 -9 20 -20c0 -4 -1 -8 -3 -11l-23 -35l-33 22z" fill="currentColor"/>
</g>
<g transform="translate(100.1146, 57.4347)">
<path transform="scale(0.0040, -0.0040)" d="M-6 78c0 59 124 83 124 182c0 24 -8 49 -25 69l-35 42c-3 3 -4 7 -4 10c0 9 9 15 17 15c4 0 8 -1 11 -5l151 -180c7 -9 10 -17 10 -25c0 -59 -124 -83 -124 -182c0 -24 7 -49 24 -69l84 -99c3 -3 4 -7 4 -10c0 -9 -8 -16 -16 -16s-45 44 -109 44c-16 0 -53 0 -53 -67
c0 -35 11 -74 28 -94c7 -8 -5 -19 -12 -11c-45 54 -92 148 -92 202c0 41 27 42 40 42c33 0 78 -13 119 -31l-132 158c-7 9 -10 17 -10 25z" fill="currentColor"/>
</g>
<g transform="translate(101.4269, 43.6545)">
<rect x="-0.0650" y="-3.6667" width="0.1300" height="2.9077" ry="0.0400" fill="currentColor"/>
</g>
<g transform="translate(100.1796, 43.6545)">
<rect x="-0.0650" y="1.6861" width="0.1300" height="2.5116" ry="0.0400" fill="currentColor"/>
</g>
<g transform="translate(101.4269, 53.9347)">
<rect x="-0.0650" y="-3.0000" width="0.1300" height="3.2410" ry="0.0400" fill="currentColor"/>
</g>
<g transform="translate(103.0787, 45.6545)">
<path transform="scale(0.0040, -0.0040)" d="M218 136c66 0 108 -36 108 -89c0 -89 -113 -183 -218 -183c-66 0 -108 36 -108 89c0 89 113 183 218 183z" fill="currentColor"/>
</g>
<g transform="translate(103.7308, 49.1437)">
<path transform="scale(0.0040, -0.0040)" d="M215 46c4 6 9 9 16 9c11 0 20 -9 20 -20c0 -4 -1 -8 -3 -11l-23 -35l-33 22zM25 1l-8 -12l-34 22l70 105c4 6 10 9 17 9c6 0 11 -2 15 -7l99 -119l8 12l33 -22l-70 -105c-4 -6 -10 -9 -17 -9c-6 0 -11 2 -15 7zM-231 -55c-11 0 -20 9 -20 20c0 6 0 6 96 151
c4 6 10 9 17 9c6 0 11 -2 15 -7l98 -119l8 12l34 -22l-70 -105c-4 -6 -10 -9 -17 -9c-6 0 -11 2 -15 7l-99 119c-37 -56 -36 -56 -47 -56z" fill="currentColor"/>
</g>
<g transform="translate(103.1437, 43.6545)">
<rect x="-0.0650" y="2.1861" width="0.1300" height="2.3631" ry="0.0400" fill="currentColor"/>
</g>
<g transform="translate(105.2128, 46.1545)">
<path transform="scale(0.0040, -0.0040)" d="M218 136c66 0 108 -36 108 -89c0 -89 -113 -183 -218 -183c-66 0 -108 36 -108 89c0 89 113 183 218 183z" fill="currentColor"/>
</g>
<g transform="translate(105.2778, 43.6545)">
<rect x="-0.0650" y="2.6861" width="0.1300" height="2.1162" ry="0.0400" fill="currentColor"/>
</g>
<g transform="translate(107.3470, 45.6545)">
<path transform="scale(0.0040, -0.0040)" d="M218 136c66 0 108 -36 108 -89c0 -89 -113 -183 -218 -183c-66 0 -108 36 -108 89c0 89 113 183 218 183z" fill="currentColor"/>
</g>
<g transform="translate(107.3470, 57.9347)">
<path transform="scale(0.0040, -0.0040)" d="M218 136c66 0 108 -36 108 -89c0 -89 -113 -183 -218 -183c-66 0 -108 36 -108 89c0 89 113 183 218 183z" fill="currentColor"/>
</g>
<g transform="translate(107.4120, 43.6545)">
<rect x="-0.0650" y="2.1861" width="0.1300" height="2.4806" ry="0.0400" fill="currentColor"/>
</g>
<g transform="translate(107.4120, 53.9347)">
<rect x="-0.0650" y="4.1861" width="0.1300" height="2.3139" ry="0.0400" fill="currentColor"/>
</g>
<g transform="translate(53.1099, 155.7593)">
<text font-family="serif" font-size="2.2000" text-anchor="start" fill="currentColor">
<tspan>Public Domain</tspan>
</text>
</g>
<g transform="translate(14.1105, 165.5950)">
<rect x="-1.1000" y="-0.1000" width="93.4805" height="0.1000" ry="0.0000" fill="currentColor"/>
</g>
<g transform="translate(14.1105, 156.3975)">
<rect x="-1.1000" y="-0.1000" width="93.4805" height="0.1000" ry="0.0000" fill="currentColor"/>
</g>
<g transform="translate(13.0105, 158.7593)">
<rect x="0" y="-2.3619" width="0.1000" height="9.0976" ry="0.0000" fill="currentColor"/>
</g>
<g transform="translate(106.3910, 158.7593)">
<rect x="0" y="-2.3619" width="0.1000" height="9.0976" ry="0.0000" fill="currentColor"/>
</g>
<g transform="translate(14.1105, 158.7593)">
<text font-family="serif" font-size="1.9598" text-anchor="start" fill="currentColor">
<tspan>Sheet</tspan>
</text>
</g>
<g transform="translate(19.0467, 158.7593)">
<text font-family="serif" font-size="1.9598" text-anchor="start" fill="currentColor">
<tspan>music</tspan>
</text>
</g>
<g transform="translate(24.3244, 158.7593)">
<text font-family="serif" font-size="1.9598" text-anchor="start" fill="currentColor">
<tspan>from</tspan>
</text>
</g>
<g transform="translate(28.7484, 158.7593)">
<a xlink:href="http://www.MutopiaProject.org">
<rect x="0.0000" y="-0.4230" width="17.9667" height="1.7849" fill="none" stroke="none" stroke-width="0.0"/>
</a>
</g>
<g transform="translate(28.7484, 158.7593)">
<text font-family="serif" font-size="1.5552" text-anchor="start" fill="currentColor">
<tspan>www.</tspan>
</text>
</g>

<g transform="translate(43.7909, 158.7593)">
<text font-family="serif" font-size="1.5552" text-anchor="start" fill="currentColor">
<tspan>.org</tspan>
</text>
</g>
<g transform="translate(47.3151, 158.7593)">
<text font-family="serif" font-size="1.9598" text-anchor="start" fill="currentColor">
<tspan>•</tspan>
</text>
</g>
<g transform="translate(49.0980, 158.7593)">
<text font-family="serif" font-style="italic" font-size="1.9598" text-anchor="start" fill="currentColor">
<tspan>Free</tspan>
</text>
</g>
<g transform="translate(53.2830, 158.7593)">
<text font-family="serif" font-size="1.9598" text-anchor="start" fill="currentColor">
<tspan>to</tspan>
</text>
</g>
<g transform="translate(55.4194, 158.7593)">
<text font-family="serif" font-size="1.9598" text-anchor="start" fill="currentColor">
<tspan>download,</tspan>
</text>
</g>
<g transform="translate(64.2480, 158.7593)">
<text font-family="serif" font-size="1.9598" text-anchor="start" fill="currentColor">
<tspan>with</tspan>
</text>
</g>
<g transform="translate(68.3306, 158.7593)">
<text font-family="serif" font-size="1.9598" text-anchor="start" fill="currentColor">
<tspan>the</tspan>
</text>
</g>
<g transform="translate(71.3206, 158.7593)">
<text font-family="serif" font-style="italic" font-size="1.9598" text-anchor="start" fill="currentColor">
<tspan>freedom</tspan>
</text>
</g>
<g transform="translate(78.2371, 158.7593)">
<text font-family="serif" font-size="1.9598" text-anchor="start" fill="currentColor">
<tspan>to</tspan>
</text>
</g>
<g transform="translate(80.3736, 158.7593)">
<text font-family="serif" font-size="1.9598" text-anchor="start" fill="currentColor">
<tspan>distribute,</tspan>
</text>
</g>
<g transform="translate(88.8607, 158.7593)">
<text font-family="serif" font-size="1.9598" text-anchor="start" fill="currentColor">
<tspan>modify</tspan>
</text>
</g>
<g transform="translate(95.1626, 158.7593)">
<text font-family="serif" font-size="1.9598" text-anchor="start" fill="currentColor">
<tspan>and</tspan>
</text>
</g>
<g transform="translate(98.5965, 158.7593)">
<text font-family="serif" font-size="1.9598" text-anchor="start" fill="currentColor">
<tspan>perform.</tspan>
</text>
</g>
<g transform="translate(26.4109, 161.4593)">
<text font-family="serif" font-size="1.9598" text-anchor="start" fill="currentColor">
<tspan>Typeset</tspan>
</text>
</g>
<g transform="translate(33.0543, 161.4593)">
<text font-family="serif" font-size="1.9598" text-anchor="start" fill="currentColor">
<tspan>using</tspan>
</text>
</g>
<g transform="translate(37.9222, 161.4593)">
<a xlink:href="http://www.LilyPond.org">
<rect x="0.0000" y="-0.4230" width="12.6183" height="1.7839" fill="none" stroke="none" stroke-width="0.0"/>
</a>
</g>
<g transform="translate(37.9222, 161.4593)">
<text font-family="serif" font-size="1.5552" text-anchor="start" fill="currentColor">
<tspan>www.</tspan>
</text>
</g>

<g transform="translate(48.1164, 161.4593)">
<text font-family="serif" font-size="1.5552" text-anchor="start" fill="currentColor">
<tspan>.org</tspan>
</text>
</g>
<g transform="translate(51.1405, 161.4593)">
<text font-family="serif" font-size="1.9598" text-anchor="start" fill="currentColor">
<tspan>by</tspan>
</text>
</g>
<g transform="translate(53.7208, 161.4593)">
<text font-family="serif" font-size="1.9598" text-anchor="start" fill="currentColor">
<tspan>Allen Garvin</tspan>
</text>
</g>
<g transform="translate(63.5638, 161.4593)">
<text font-family="serif" font-size="1.9598" text-anchor="start" fill="currentColor">
<tspan>.</tspan>
</text>
</g>
<g transform="translate(65.1418, 161.4593)">
<text font-family="serif" font-size="1.9598" text-anchor="start" fill="currentColor">
<tspan>Reference:</tspan>
</text>
</g>

<g transform="translate(15.0141, 164.1593)">
<text font-family="serif" font-size="1.5552" text-anchor="start" fill="currentColor">
<tspan>This</tspan>
</text>
</g>
<g transform="translate(18.4139, 164.1593)">
<text font-family="serif" font-size="1.5552" text-anchor="start" fill="currentColor">
<tspan>sheet</tspan>
</text>
</g>
<g transform="translate(22.2233, 164.1593)">
<text font-family="serif" font-size="1.5552" text-anchor="start" fill="currentColor">
<tspan>music</tspan>
</text>
</g>
<g transform="translate(26.5450, 164.1593)">
<text font-family="serif" font-size="1.5552" text-anchor="start" fill="currentColor">
<tspan>has</tspan>
</text>
</g>
<g transform="translate(29.2277, 164.1593)">
<text font-family="serif" font-size="1.5552" text-anchor="start" fill="currentColor">
<tspan>been</tspan>
</text>
</g>
<g transform="translate(32.7640, 164.1593)">
<text font-family="serif" font-size="1.5552" text-anchor="start" fill="currentColor">
<tspan>placed</tspan>
</text>
</g>
<g transform="translate(37.4271, 164.1593)">
<text font-family="serif" font-size="1.5552" text-anchor="start" fill="currentColor">
<tspan>in</tspan>
</text>
</g>
<g transform="translate(39.2562, 164.1593)">
<text font-family="serif" font-size="1.5552" text-anchor="start" fill="currentColor">
<tspan>the</tspan>
</text>
</g>
<g transform="translate(41.7683, 164.1593)">
<text font-family="serif" font-size="1.5552" text-anchor="start" fill="currentColor">
<tspan>public</tspan>
</text>
</g>
<g transform="translate(46.2947, 164.1593)">
<text font-family="serif" font-size="1.5552" text-anchor="start" fill="currentColor">
<tspan>domain</tspan>
</text>
</g>
<g transform="translate(51.5724, 164.1593)">
<text font-family="serif" font-size="1.5552" text-anchor="start" fill="currentColor">
<tspan>by</tspan>
</text>
</g>
<g transform="translate(53.7430, 164.1593)">
<text font-family="serif" font-size="1.5552" text-anchor="start" fill="currentColor">
<tspan>the</tspan>
</text>
</g>
<g transform="translate(56.2550, 164.1593)">
<text font-family="serif" font-size="1.5552" text-anchor="start" fill="currentColor">
<tspan>typesetter,</tspan>
</text>
</g>
<g transform="translate(63.2398, 164.1593)">
<text font-family="serif" font-size="1.5552" text-anchor="start" fill="currentColor">
<tspan>for</tspan>
</text>
</g>
<g transform="translate(65.6494, 164.1593)">
<text font-family="serif" font-size="1.5552" text-anchor="start" fill="currentColor">
<tspan>details</tspan>
</text>
</g>
<g transform="translate(70.3466, 164.1593)">
<text font-family="serif" font-size="1.5552" text-anchor="start" fill="currentColor">
<tspan>see:</tspan>
</text>
</g>
<g transform="translate(72.8708, 164.1593)">
<a xlink:href="http://creativecommons.org/licenses/publicdomain">
<rect x="0.0000" y="-0.3357" width="31.6167" height="1.4157" fill="none" stroke="none" stroke-width="0.0"/>
</a>
</g>
<g transform="translate(72.8708, 164.1593)">
<text font-family="serif" font-size="1.5552" text-anchor="start" fill="currentColor">
<tspan>http://creativecommons.org/licenses/publicdomain</tspan>
</text>
</g>
</svg>
